<svg width="331" height="352" fill="none" xmlns="http://www.w3.org/2000/svg"><path d="m25.735 84.819 42.46-35.951A29 29 0 0 1 86.933 42h106.83c1.435 0 2.867.106 4.287.319l65.288 9.758a29.001 29.001 0 0 1 15.464 7.446l27.353 25.44a29.001 29.001 0 0 1 8.888 16.667l14.471 90.725a28.998 28.998 0 0 1-2.789 17.714l-38.115 74.943a28.994 28.994 0 0 1-11.748 12.195l-85.49 47.569a29 29 0 0 1-26.431.907L60.834 296.776A28.996 28.996 0 0 1 48.04 285.01L5.131 210.568a29 29 0 0 1-3.512-19.05l14.217-89.135a29 29 0 0 1 9.899-17.564z" fill="#FAFAFA" stroke="#FAFAFA" stroke-linejoin="round"/><path d="m215.85 188.714 4.128-3.138a11.014 11.014 0 0 0-7.049-19.776l-84.027 2.941c-3.696.129-6.229 3.777-5.06 7.285.105.315.182.639.229.968L126 190.5l1.737 7.297c.508 2.132.852 4.3 1.029 6.485l1.142 14.081c.061.755.213 1.5.453 2.219l.387 1.162a6.222 6.222 0 0 0 5.905 4.256h2.275c1.375 0 2.74-.203 4.074-.532 1.013-.249 2.04-.468 2.498-.468.396 0 .971-.653 1.533-1.475 1.059-1.551 2.445-2.892 4.203-3.551l.186-.07a6.344 6.344 0 0 1 6.361 1.125l1.717 1.471a11.306 11.306 0 0 1 3.818 6.318l.33 1.539c.234 1.092.352 2.206.352 3.324v4.83a8.214 8.214 0 0 0 3.86 6.964l.757.473c.587.367 1.208.677 1.855.926l1.984.763a14.887 14.887 0 0 0 7.308.861l.386-.051a13.333 13.333 0 0 0 10.307-7.543L193 235.5l5.5-16 4.128-11.007a43.02 43.02 0 0 1 4.907-9.378l4.285-6.188a18.55 18.55 0 0 1 4.03-4.213z" fill="#AC3F58"/><path d="M223 93c-.48 0-5.545-.36-10.961-.756a16.655 16.655 0 0 1-14.053-9.976 16.69 16.69 0 0 0-2.588-4.153l-4.885-5.747a37.843 37.843 0 0 0-4.386-4.376l-.52-.44a33.039 33.039 0 0 0-17.699-7.618l-2.425-.27a47.424 47.424 0 0 0-11.943.187l-.311.045a44.18 44.18 0 0 0-8.264 2.007l-.715.25a39.941 39.941 0 0 0-17.707 12.33l-.584.71a49.424 49.424 0 0 0-6.602 10.445l-1.301 2.777a50.988 50.988 0 0 0-4.498 15.909L111.5 122.5c0 2.661.247 5.316.737 7.931L114.5 142.5l5 20.5 6.276 19.724a18.04 18.04 0 0 0 10.768 11.388l.835.318a20.756 20.756 0 0 0 8.524 1.329l27.771-1.522a51.033 51.033 0 0 0 8.55-1.2L206.5 187.5l12.613-4.431a51.025 51.025 0 0 0 11.102-5.496l8.431-5.541a29.78 29.78 0 0 0 12.062-15.966l1.796-5.714a43.395 43.395 0 0 0 .7-23.534l-.926-3.706a43.794 43.794 0 0 0-3.732-9.775l-.294-.558a38.719 38.719 0 0 0-5.487-7.873c-3.797-4.219-8.464-7.58-13.73-9.699C226.022 93.995 223.417 93 223 93z" fill="#F16375" stroke="#F16375" stroke-linejoin="round"/><path d="M104.53 75.416c-8.81-3.264-14.368-7.49-17.649-10.469-15.253-13.843-13.733-30.138-28.677-30.73-4.7-.186-8.706 1.261-12.22-1.393-3.817-2.885-5.463-9.413-2.355-17.01 2.01-4.912 5.71-9.55 10.21-13.059C58.408-.809 65.583.167 70.476 5.042l52.259 52.07-18.206 18.304z" fill="#B28562"/><path d="m70.478 5.043 52.259 52.07-4.677 4.702-47.582-47.41c-4.893-4.876-12.068-5.852-16.639-2.287-4.498 3.508-8.2 8.146-10.209 13.058a23.494 23.494 0 0 0-.95 2.806c-1.072-3.26-.954-7.512.95-12.168 2.01-4.911 5.71-9.55 10.209-13.058C58.409-.808 65.585.167 70.477 5.043z" fill="#A57A5D"/><path d="M122.737 57.112 98.146 81.849l-1.755 1.765a1.81 1.81 0 0 0-.52 1.268c0 .473.187.927.52 1.263l42.74 42.584c4.52 4.508 10.295 8.008 16.576 10.249.513.181 1.027.357 1.547.52 13.916 4.453 29.979 2.771 40.418-7.72l-74.935-74.666z" fill="#F2F2F2"/><path d="M197.672 131.778a32.116 32.116 0 0 1-5.169 4.211l-64.38-64.149a7.556 7.556 0 0 0-2.47-1.639 7.602 7.602 0 0 0-2.916-.566 7.648 7.648 0 0 0-5.384 2.255l-17.55 17.654-3.411-3.399a1.793 1.793 0 0 1-.52-1.263c0-.473.186-.929.52-1.268l1.754-1.764 24.591-24.738 74.935 74.666z" fill="#DEDEDE"/><path d="M94.846 55.925a5.4 5.4 0 0 1 5.368-5.396 5.341 5.341 0 0 1 5.368 5.348 5.4 5.4 0 0 1-5.368 5.397 5.342 5.342 0 0 1-5.368-5.349z" fill="#FFE966"/><path d="M104.01 52.085a5.359 5.359 0 0 1 1.212 5.723 5.31 5.31 0 0 0-1.966-2.49 5.349 5.349 0 0 0-3.042-.93 5.391 5.391 0 0 0-5.008 3.465 5.364 5.364 0 0 1-.243-3.042 5.412 5.412 0 0 1 3.196-3.864 5.382 5.382 0 0 1 4.111-.019 5.32 5.32 0 0 1 1.74 1.157z" fill="#FFE236"/><path d="M77.978 36.5a5.4 5.4 0 0 1 5.369-5.397 5.342 5.342 0 0 1 5.368 5.348 5.4 5.4 0 0 1-5.368 5.397 5.342 5.342 0 0 1-5.369-5.348zM57.944 19.157a5.4 5.4 0 0 1 5.369-5.397 5.342 5.342 0 0 1 5.368 5.349 5.4 5.4 0 0 1-5.368 5.397 5.342 5.342 0 0 1-5.369-5.35z" fill="#FFE966"/><path d="M87.143 32.66a5.354 5.354 0 0 1 1.212 5.722 5.306 5.306 0 0 0-1.966-2.49 5.35 5.35 0 0 0-3.042-.93 5.391 5.391 0 0 0-5.008 3.465 5.365 5.365 0 0 1-.243-3.041 5.412 5.412 0 0 1 3.195-3.865 5.382 5.382 0 0 1 4.112-.019 5.32 5.32 0 0 1 1.74 1.157zM67.109 15.316a5.354 5.354 0 0 1 1.211 5.722 5.306 5.306 0 0 0-1.966-2.489 5.351 5.351 0 0 0-3.041-.93 5.39 5.39 0 0 0-5.008 3.464 5.365 5.365 0 0 1-.243-3.041 5.413 5.413 0 0 1 3.195-3.865 5.38 5.38 0 0 1 4.111-.018c.652.267 1.243.66 1.74 1.156z" fill="#FFE236"/><path d="M98.778 88.762a1.692 1.692 0 0 0 .515 1.303l41.502 40.269c4.39 4.263 9.962 7.545 15.996 9.614.494.168.987.33 1.487.48.003-7.148-2.152-10.763-4.184-12.749-2.405-2.35-4.502-2.289-5.844-4.95-1.999-3.966 1.184-7.031-.839-9.839-1.946-2.702-5.508-.722-8.241-3.66-2.595-2.79-.409-5.679-3.079-8.712-2.203-2.501-4.293-1.19-7.669-3.96-3.337-2.738-2.143-4.689-4.791-6.636-3.294-2.42-6.824-.641-15.801-.602a68.683 68.683 0 0 1-9.052-.558z" fill="#F66"/><path d="M154.169 132.163c-2.405-2.351-4.503-2.289-5.844-4.95-.989-1.962-.709-3.704-.42-5.303.097.281.212.554.345.819 1.342 2.661 3.439 2.6 5.844 4.95 2.032 1.986 4.187 5.601 4.184 12.749l-.267-.083c-.685-4.223-2.299-6.674-3.842-8.182zM107.83 89.32c8.977-.04 12.507-1.819 15.801.602 2.648 1.947 1.455 3.898 4.791 6.636 3.376 2.77 5.466 1.459 7.669 3.96 2.67 3.033.484 5.922 3.079 8.712 2.733 2.938 6.295.958 8.241 3.66 1.104 1.532.659 3.141.35 4.93a3.802 3.802 0 0 0-.275-.447c-1.947-2.701-5.508-.722-8.241-3.659-2.596-2.79-.409-5.68-3.079-8.712-2.203-2.501-4.293-1.191-7.669-3.961-3.337-2.737-2.143-4.688-4.792-6.635-3.293-2.42-6.823-.642-15.8-.603a69.02 69.02 0 0 1-4.919-.154l-3.693-3.584a1.694 1.694 0 0 1-.515-1.303c3.001.385 6.025.571 9.052.558z" fill="#FF4E4E"/><path d="m78.707 142.804 2.078-.578c2.511-.697 3.106-3.987.998-5.52a3.126 3.126 0 0 0-.605-.344l-2.905-1.245a19.999 19.999 0 0 0-7.878-1.617h-3.357c-1.67 0-3.315.389-4.808 1.135l-.816.408a8.4 8.4 0 0 0-4.084 4.498l-.242.629a6.874 6.874 0 0 0 3.773 8.814l.528.22a8.41 8.41 0 0 0 6.256.086l1.788-.687a13.229 13.229 0 0 0 2.933-1.579l5.037-3.598a4.158 4.158 0 0 1 1.303-.622z" fill="#C94A65"/><path d="M142 38.826v1.566A5.608 5.608 0 0 1 136.392 46h-.784A5.606 5.606 0 0 1 130 40.392v-6.42a4 4 0 0 1 5.789-3.578l1.394.698c.543.27 1.048.61 1.504 1.01l.433.378a8.433 8.433 0 0 1 2.88 6.346z" fill="#CA4A65"/><circle cx="197.5" cy="46.5" r="8.5" fill="#CA4A65"/><path d="M172.244 115.944c.065-.408.149-.731.256-.944 4.29-8.581 16.522-5.829 24.268-.168 4.261 3.115 7.932 5.868 8.732 6.668 2 2 6 6.5 8.5 11s-.5 15-2.5 19.5-18.5 9-23 9-19-8-21.5-9c-2-.8-.834-7 0-10l1.084-2.761c2.904-7.39 2.91-15.454 4.16-23.295z" fill="#F16375"/><path d="M90.801 300.477v-6h1.892c.943 0 1.705-.113 2.284-.341.58-.238 1.04-.585 1.381-1.039.352-.466.648-1.046.886-1.739l.427-1.142-12.682-25.125h7.636l8.216 17.182 6.869-17.182h7.534l-12.034 28.057a20.815 20.815 0 0 1-2.062 3.613 8.948 8.948 0 0 1-3.017 2.694c-1.228.681-2.796 1.022-4.705 1.022h-2.625zm28.436-.477v-34.909h23.165v6.085h-15.784v6.818h5.676c2.761 0 5.142.449 7.142 1.347 2.011.886 3.563 2.142 4.653 3.767 1.091 1.625 1.637 3.54 1.637 5.744 0 2.193-.546 4.131-1.637 5.813-1.09 1.67-2.642 2.977-4.653 3.92-2 .943-4.381 1.415-7.142 1.415h-13.057zm7.381-5.932h5.676c1.318 0 2.432-.238 3.341-.716.909-.488 1.597-1.13 2.062-1.926a5.088 5.088 0 0 0 .716-2.642c0-1.386-.528-2.557-1.585-3.511-1.045-.966-2.557-1.449-4.534-1.449h-5.676v10.244zm23.885-28.977h7.363v21.954h.29l15.085-21.954h6.461V300h-7.381v-21.972h-.256L156.895 300h-6.392v-34.909zm33.967 6.085v-6.085h28.671v6.085h-10.688V300h-7.295v-28.824H184.47zm38.25 6.818h8.318c2.773 0 5.159.449 7.159 1.347 2.012.886 3.563 2.142 4.654 3.767 1.091 1.625 1.631 3.54 1.619 5.744.012 2.193-.528 4.131-1.619 5.813-1.091 1.67-2.642 2.977-4.654 3.92-2 .943-4.386 1.415-7.159 1.415h-13.039v-34.909h7.363v28.977h5.676c1.33 0 2.449-.238 3.358-.716.909-.488 1.597-1.13 2.063-1.926a4.98 4.98 0 0 0 .699-2.642c.011-1.386-.512-2.557-1.569-3.511-1.045-.966-2.562-1.449-4.551-1.449h-8.318v-5.83z" fill="#000"/></svg>