<svg width="62" height="90" viewBox="0 0 62 90" fill="none" xmlns="http://www.w3.org/2000/svg">
<g clip-path="url(#clip0_381_112)">
<path d="M50.6043 54.4367L51.8059 53.5315C52.3478 53.1233 52.7446 52.5548 52.9387 51.9083C53.1329 51.2617 53.1143 50.5707 52.8858 49.9353C52.6573 49.2999 52.2306 48.7531 51.6675 48.3741C51.1045 47.995 50.4343 47.8033 49.7541 47.8269L25.2955 48.6753C24.2194 48.7125 23.4821 49.7648 23.8227 50.7767C23.8532 50.8676 23.8756 50.961 23.8893 51.0559L24.4508 54.9519L24.9564 57.0568C25.1043 57.6718 25.2044 58.2972 25.2562 58.9275L25.5881 62.9893C25.6061 63.2071 25.6503 63.422 25.7202 63.6294L25.8328 63.9646C25.9531 64.3221 26.1838 64.633 26.4923 64.8534C26.8008 65.0737 27.1714 65.1923 27.5517 65.1923H28.2139C28.6141 65.1923 29.0114 65.1337 29.3997 65.0388C29.6946 64.967 29.9935 64.9038 30.1269 64.9038C30.2421 64.9038 30.4095 64.7154 30.5731 64.4783C30.8813 64.0309 31.2848 63.6441 31.7965 63.454L31.8506 63.4338C32.1603 63.3186 32.4955 63.2879 32.8212 63.345C33.1469 63.4021 33.4512 63.5449 33.7022 63.7583L34.202 64.1827C34.7678 64.6498 35.1591 65.2915 35.3133 66.0052L35.4094 66.4491C35.4775 66.7641 35.5118 67.0854 35.5118 67.4079V68.8012C35.5119 69.203 35.615 69.5982 35.8116 69.9496C36.0081 70.301 36.2916 70.5971 36.6354 70.8101L36.8558 70.9465C37.0266 71.0524 37.2074 71.1418 37.3957 71.2136L37.9732 71.4337C38.6501 71.6916 39.3815 71.777 40.1004 71.6821L40.2128 71.6674C40.8566 71.5825 41.4687 71.3388 41.9929 70.9586C42.517 70.5785 42.9365 70.074 43.2129 69.4915L43.9531 67.9327L45.5541 63.3173L46.7557 60.1422C47.1176 59.1856 47.5973 58.277 48.184 57.437L49.4313 55.652C49.7552 55.1881 50.1511 54.778 50.6043 54.4367Z" fill="#AC3F58"/>
<path d="M52.6854 26.827C52.5457 26.827 51.0713 26.7231 49.4949 26.6089C48.613 26.5445 47.7658 26.2423 47.0448 25.7351C46.3238 25.2279 45.7565 24.5349 45.4043 23.7312C45.214 23.2973 44.9601 22.8937 44.651 22.5332L43.2291 20.8754C42.839 20.4208 42.4121 19.9986 41.9524 19.6131L41.801 19.4862C40.3422 18.2627 38.5487 17.4976 36.6492 17.2887L35.9433 17.2108C34.7869 17.0835 33.6188 17.1016 32.467 17.2647L32.3764 17.2777C31.5577 17.3936 30.7521 17.5875 29.971 17.8567L29.7628 17.9288C27.748 18.6232 25.9649 19.8537 24.6087 21.4855L24.4384 21.6903C23.6734 22.6111 23.028 23.6233 22.5173 24.7033L22.1383 25.5044C21.4529 26.9533 21.0107 28.5034 20.829 30.0935L20.23 35.3366C20.23 36.1042 20.3019 36.87 20.4445 37.6244L21.1032 41.1058L22.5586 47.0193L24.3854 52.7089C24.625 53.4548 25.0312 54.1376 25.574 54.7064C26.1167 55.2751 26.7819 55.7152 27.5201 55.9939L27.7628 56.0856C28.5537 56.3842 29.399 56.5148 30.244 56.469L38.3276 56.0299C39.1655 55.9844 39.9981 55.8686 40.8163 55.6838L47.8826 54.0866L51.554 52.8084C52.6921 52.412 53.7773 51.8796 54.7855 51.223L57.2396 49.6246C58.9109 48.5367 60.1513 46.9096 60.7506 45.0191L61.2734 43.3708C61.9713 41.1698 62.0418 38.8204 61.4772 36.5821L61.2076 35.5131C60.9605 34.5336 60.5958 33.5869 60.1213 32.6934L60.0357 32.5324C59.6004 31.7127 59.0639 30.9498 58.4386 30.2614C57.3333 29.0444 55.9749 28.0748 54.442 27.4636C53.565 27.114 52.8068 26.827 52.6854 26.827Z" fill="#F16375" stroke="#F16375" stroke-linejoin="round"/>
<path d="M18.2012 21.7546C15.6368 20.813 14.0192 19.594 13.0639 18.7347C8.62408 14.7412 9.06652 10.041 4.71662 9.87024C3.34855 9.81659 2.18248 10.234 1.15963 9.46842C0.0485739 8.63621 -0.430544 6.75313 0.474133 4.56169C1.0592 3.14476 2.1362 1.80688 3.44606 0.794668C4.776 -0.233409 6.8645 0.0478406 8.28875 1.45438L23.5003 16.4746L18.2012 21.7546Z" fill="#B28562"/>
<path d="M8.28958 1.45466L23.5011 16.4749L22.1397 17.8312L8.28958 4.15524C6.86533 2.7487 4.77683 2.46716 3.44631 3.49553C2.13703 4.50745 1.05945 5.84534 0.474672 7.26226C0.365402 7.52603 0.273044 7.79638 0.198147 8.07168C-0.113891 7.1313 -0.0795436 5.90476 0.474672 4.56168C1.05974 3.14505 2.13674 1.80687 3.4466 0.79495C4.77683 -0.233127 6.86504 0.0484112 8.28929 1.45466H8.28958Z" fill="#A57A5D"/>
<path d="M23.501 16.4746L16.3431 23.6103L15.8325 24.1194C15.7356 24.217 15.6813 24.3483 15.6812 24.4852C15.6812 24.6216 15.7356 24.7526 15.8325 24.8495L28.273 37.1334C29.5887 38.4337 31.2699 39.4434 33.0979 40.0898C33.2472 40.142 33.3969 40.1928 33.5482 40.2398C37.5992 41.5243 42.2745 41.0391 45.3131 38.0129L23.501 16.4746Z" fill="#F2F2F2"/>
<path d="M45.3131 38.0129C44.8554 38.4684 44.3512 38.8755 43.8085 39.2276L25.0688 20.7231C24.863 20.52 24.6186 20.3593 24.3498 20.2503C24.0805 20.1411 23.792 20.0856 23.501 20.087C22.9124 20.0899 22.3488 20.3238 21.9338 20.7375L16.8254 25.83L15.8325 24.8495C15.7355 24.7526 15.6811 24.6217 15.6812 24.4852C15.6812 24.3487 15.7356 24.2172 15.8325 24.1194L16.3431 23.6106L23.5007 16.4746L45.3131 38.0129Z" fill="#DEDEDE"/>
<path d="M15.3823 16.1322C15.3826 15.7209 15.5471 15.3264 15.8398 15.0348C16.1325 14.7432 16.5298 14.5781 16.9448 14.5757C17.1498 14.5747 17.353 14.6138 17.5427 14.6909C17.7324 14.768 17.9048 14.8815 18.0501 15.0249C18.1953 15.1683 18.3105 15.3387 18.389 15.5264C18.4676 15.714 18.5079 15.9152 18.5076 16.1184C18.5074 16.5298 18.343 16.9245 18.0502 17.2161C17.7574 17.5078 17.36 17.6729 16.9448 17.6752C16.7398 17.6762 16.5367 17.637 16.347 17.5599C16.1573 17.4828 15.9849 17.3692 15.8397 17.2258C15.6945 17.0824 15.5793 16.912 15.5008 16.7243C15.4223 16.5366 15.3821 16.3354 15.3823 16.1322Z" fill="#FFE966"/>
<path d="M18.0499 15.0245C18.264 15.2361 18.4113 15.5048 18.4739 15.7979C18.5366 16.091 18.5118 16.3959 18.4027 16.6753C18.2903 16.3837 18.0906 16.133 17.8304 15.9571C17.5695 15.7807 17.2607 15.6872 16.945 15.6888C16.6286 15.6903 16.3202 15.7866 16.06 15.965C15.7999 16.1433 15.6002 16.3955 15.4872 16.6883C15.3785 16.4087 15.3541 16.1039 15.4168 15.8108C15.4696 15.5645 15.5818 15.3344 15.7437 15.1404C15.9057 14.9463 16.1126 14.7939 16.3468 14.6962C16.7291 14.5376 17.1593 14.5356 17.5431 14.6907C17.7327 14.7677 17.9049 14.8811 18.0499 15.0245Z" fill="#FFE236"/>
<path d="M10.4729 10.5289C10.473 10.1174 10.6374 9.72278 10.9302 9.43104C11.2229 9.13931 11.6203 8.9742 12.0354 8.97176C12.2404 8.97077 12.4436 9.00997 12.6333 9.08712C12.823 9.16426 12.9954 9.27781 13.1407 9.42125C13.2859 9.56468 13.401 9.73517 13.4795 9.92288C13.558 10.1106 13.5982 10.3118 13.5979 10.515C13.5976 10.9264 13.4332 11.3209 13.1404 11.6125C12.8477 11.9041 12.4505 12.0691 12.0354 12.0716C11.8304 12.0726 11.6272 12.0334 11.4376 11.9562C11.2479 11.8791 11.0755 11.7656 10.9303 11.6222C10.7851 11.4788 10.6699 11.3083 10.5914 11.1206C10.5129 10.933 10.4726 10.732 10.4729 10.5289ZM4.64112 5.52608C4.64134 5.1147 4.80576 4.72011 5.0985 4.42844C5.39124 4.13677 5.78852 3.9717 6.20363 3.96926C6.40866 3.96823 6.61187 4.0074 6.80157 4.0845C6.99127 4.16161 7.1637 4.27514 7.30895 4.41854C7.4542 4.56195 7.5694 4.73241 7.64791 4.92011C7.72643 5.10781 7.76671 5.30905 7.76644 5.51224C7.76621 5.92367 7.60175 6.3183 7.30895 6.60999C7.01614 6.90167 6.61879 7.0667 6.20363 7.06907C5.9986 7.07006 5.7954 7.03085 5.60571 6.95371C5.41603 6.87657 5.24362 6.76301 5.0984 6.61958C4.95317 6.47614 4.83801 6.30566 4.75953 6.11794C4.68105 5.93023 4.64081 5.72927 4.64112 5.52608Z" fill="#FFE966"/>
<path d="M13.1401 9.4212C13.3541 9.63277 13.5013 9.90146 13.564 10.1945C13.6266 10.4876 13.6019 10.7924 13.4928 11.0718C13.3805 10.7802 13.181 10.5295 12.9209 10.3535C12.66 10.1772 12.3512 10.0836 12.0354 10.0852C11.7191 10.0868 11.4106 10.1831 11.1505 10.3615C10.8904 10.5398 10.6907 10.792 10.5777 11.0848C10.4689 10.8053 10.4444 10.5006 10.5069 10.2075C10.5597 9.96115 10.6719 9.73107 10.8338 9.53693C10.9958 9.34279 11.2027 9.19036 11.4369 9.09264C11.8194 8.934 12.2497 8.93203 12.6336 9.08716C12.823 9.16413 12.9951 9.27786 13.1401 9.4212ZM7.30856 4.41812C7.52233 4.62959 7.66947 4.89808 7.73208 5.19091C7.7946 5.48413 7.77004 5.78902 7.66135 6.0687C7.54893 5.77714 7.34925 5.52662 7.08909 5.35072C6.82819 5.17443 6.51939 5.08087 6.20362 5.08245C5.88738 5.08407 5.57901 5.18034 5.31894 5.35865C5.05886 5.53696 4.85922 5.78898 4.74618 6.08168C4.63743 5.80222 4.61286 5.49749 4.67545 5.20447C4.72825 4.95808 4.84041 4.72801 5.00235 4.53388C5.16428 4.33974 5.3712 4.1873 5.60545 4.08956C5.98791 3.93095 6.41823 3.92908 6.80208 4.08437C6.99149 4.16126 7.16363 4.2746 7.30856 4.41783V4.41812Z" fill="#FFE236"/>
<path d="M16.527 25.6045C16.5234 25.6741 16.535 25.7437 16.5608 25.8085C16.5867 25.8733 16.6263 25.9319 16.6769 25.9803L28.7576 37.5964C30.0351 38.8261 31.657 39.7728 33.4134 40.3696C33.5572 40.4181 33.7007 40.4648 33.8462 40.5081C33.8471 38.4462 33.2198 37.4034 32.6284 36.8305C31.9283 36.1526 31.3179 36.1702 30.9273 35.4026C30.3454 34.2586 31.2719 33.3745 30.6831 32.5645C30.1166 31.785 29.0798 32.3562 28.2846 31.5087C27.5289 30.7039 28.1652 29.8705 27.3881 28.9956C26.7468 28.2742 26.1384 28.6523 25.1558 27.8533C24.1844 27.0635 24.532 26.5007 23.7612 25.9391C22.8024 25.241 21.7749 25.7542 19.1618 25.7654C18.2809 25.7693 17.4007 25.7156 16.527 25.6045Z" fill="#FF6666"/>
<path d="M32.6502 38.1239C31.9501 37.4458 31.3394 37.4637 30.9491 36.6961C30.6612 36.1301 30.7427 35.6276 30.8269 35.1663C30.8551 35.2474 30.8886 35.3261 30.9273 35.4026C31.3179 36.1702 31.9283 36.1526 32.6284 36.8305C33.2198 37.4034 33.8471 38.4461 33.8462 40.5081L33.7685 40.4841C33.5691 39.266 33.0993 38.5589 32.6502 38.1239ZM19.1618 25.7654C21.7749 25.7538 22.8024 25.2407 23.7609 25.939C24.5323 26.5007 24.1847 27.0635 25.1558 27.8533C26.1384 28.6523 26.7468 28.2741 27.388 28.9956C28.1652 29.8705 27.5289 30.7038 28.2846 31.5087C29.0798 32.3562 30.1166 31.785 30.6831 32.5644C31.0044 33.0063 30.8749 33.4705 30.7849 33.9865C30.7613 33.9418 30.7345 33.8987 30.7049 33.8576C30.1382 33.0785 29.1016 33.6493 28.3064 32.8021C27.5505 31.9973 28.1871 31.1637 27.4099 30.289C26.7686 29.5676 26.1603 29.9455 25.1773 29.1464C24.2063 28.3569 24.5538 27.7941 23.783 27.2325C22.8242 26.5344 21.7967 27.0473 19.1837 27.0586C18.706 27.0606 18.2284 27.0458 17.7518 27.0141L16.6769 25.9803C16.6263 25.9319 16.5867 25.8733 16.5609 25.8084C16.535 25.7436 16.5235 25.674 16.527 25.6044C17.4008 25.7155 18.281 25.7691 19.1618 25.7654Z" fill="#FF4E4E"/>
<path d="M10.6848 41.1935L11.2897 41.0268C12.0206 40.8257 12.1938 39.8767 11.5802 39.4344C11.5254 39.395 11.4663 39.3617 11.4041 39.3352L10.5585 38.9761C9.83388 38.6683 9.05374 38.5096 8.26537 38.5096H7.28822C6.80241 38.5096 6.32329 38.6219 5.88871 38.837L5.65119 38.9547C5.10545 39.2251 4.68144 39.6879 4.46242 40.2522L4.39227 40.4337C4.2051 40.9157 4.21511 41.4511 4.42016 41.9259C4.62521 42.4008 5.00912 42.7776 5.49022 42.9762L5.64391 43.0396C6.2251 43.2797 6.87728 43.2886 7.4649 43.0644L7.98536 42.8663C8.28816 42.7507 8.57502 42.5977 8.83909 42.4108L10.3053 41.3729C10.4203 41.2916 10.5487 41.2309 10.6848 41.1935Z" fill="#C94A65"/>
<path d="M29.1082 11.1998V11.6515C29.1081 12.0806 28.9361 12.492 28.6299 12.7954C28.3237 13.0988 27.9085 13.2692 27.4755 13.2692H27.2479C26.8149 13.2692 26.3997 13.0988 26.0935 12.7954C25.7874 12.492 25.6153 12.0806 25.6152 11.6515V9.79958C25.6152 9.60289 25.6659 9.40945 25.7626 9.23765C25.8592 9.06585 25.9986 8.92138 26.1674 8.81797C26.3362 8.71456 26.5289 8.65564 26.7272 8.6468C26.9255 8.63796 27.1228 8.67949 27.3003 8.76747L27.7061 8.96881C27.8638 9.0467 28.0111 9.14477 28.1438 9.26016L28.2699 9.3692C28.5332 9.5975 28.7442 9.87894 28.8888 10.1947C29.0334 10.5104 29.1082 10.8531 29.1082 11.1998Z" fill="#CA4A65"/>
<path d="M45.2628 15.8654C46.6292 15.8654 47.7369 14.7676 47.7369 13.4135C47.7369 12.0593 46.6292 10.9615 45.2628 10.9615C43.8963 10.9615 42.7886 12.0593 42.7886 13.4135C42.7886 14.7676 43.8963 15.8654 45.2628 15.8654Z" fill="#CA4A65"/>
<path d="M37.9114 33.4454C37.9303 33.3277 37.9548 33.2346 37.9859 33.1731C39.2346 30.6978 42.7951 31.4917 45.0498 33.1247C46.2901 34.0232 47.3587 34.8173 47.5915 35.0481C48.1737 35.625 49.338 36.9231 50.0657 38.2212C50.7934 39.5193 49.9202 42.5481 49.338 43.8462C48.7559 45.1443 43.953 46.4423 42.6432 46.4423C41.3333 46.4423 37.1127 44.1347 36.385 43.8462C35.8028 43.6154 36.1422 41.827 36.385 40.9616L36.7005 40.1651C37.5458 38.0334 37.5475 35.7073 37.9114 33.4454Z" fill="#F16375"/>
<path d="M14.2049 86.676V84.9452H14.7557C15.0302 84.9452 15.252 84.9126 15.4205 84.8469C15.5893 84.7782 15.7232 84.6781 15.8225 84.5472C15.9249 84.4127 16.0111 84.2454 16.0804 84.0455L16.2044 83.7161L12.5132 76.4685H14.7359L17.1274 81.4249L19.1271 76.4685H21.3198L17.8169 84.5619C17.6525 84.9283 17.4514 85.2774 17.2167 85.6041C16.9877 85.9261 16.6873 86.192 16.3386 86.3812C15.9811 86.5776 15.5247 86.676 14.969 86.676H14.2049ZM22.4821 86.5384V76.4685H29.2249V78.2238H24.6305V80.1905H26.2827C27.0864 80.1905 27.7794 80.32 28.3616 80.5791C28.947 80.8347 29.3987 81.197 29.716 81.6657C30.0336 82.1345 30.1925 82.6869 30.1925 83.3226C30.1925 83.9552 30.0336 84.5143 29.716 84.9995C29.3987 85.4812 28.947 85.8582 28.3616 86.1302C27.7794 86.4023 27.0867 86.5384 26.2827 86.5384H22.4821ZM24.6303 84.8273H26.2827C26.6664 84.8273 26.9906 84.7586 27.2549 84.6207C27.5198 84.4799 27.7198 84.2948 27.8554 84.0651C27.9937 83.8347 28.0658 83.5711 28.0638 83.303C28.0638 82.9032 27.9101 82.5654 27.6025 82.2902C27.2983 82.0116 26.8582 81.8723 26.2827 81.8723H24.6305L24.6303 84.8273ZM31.583 76.4685H33.7262V82.8014H33.8106L38.2016 76.4685H40.0822V86.5384H37.9338V80.2003H37.8592L33.4436 86.5384H31.583V76.4685ZM41.4701 78.2238V76.4685H49.8156V78.2238H46.7046V86.5384H44.5812V78.2238H41.4701ZM52.6039 80.1905H55.0251C55.8323 80.1905 56.5268 80.32 57.1089 80.5791C57.6946 80.8347 58.1461 81.197 58.4636 81.6657C58.7812 82.1345 58.9384 82.6869 58.9349 83.3226C58.9384 83.9552 58.7812 84.5143 58.4636 84.9995C58.1461 85.4812 57.6946 85.8582 57.1089 86.1302C56.5268 86.4023 55.8323 86.5384 55.0251 86.5384H51.2297V76.4685H53.3729V84.8273H55.0251C55.4122 84.8273 55.7379 84.7586 56.0025 84.6207C56.2671 84.4799 56.4674 84.2948 56.603 84.0651C56.7412 83.8349 56.8117 83.5709 56.8065 83.303C56.8097 82.9032 56.6575 82.5654 56.3498 82.2902C56.0456 82.0116 55.6041 81.8723 55.0251 81.8723H52.6039V80.1905Z" fill="black"/>
</g>
<defs>
<clipPath id="clip0_381_112">
<rect width="62" height="90" fill="white"/>
</clipPath>
</defs>
</svg>
