<svg width="63" height="77" viewBox="0 0 63 77" fill="none" xmlns="http://www.w3.org/2000/svg">
<g clip-path="url(#clip0_352_473)">
<path d="M20.034 -0.000153475C21.3287 -0.000153475 22.3494 1.035 22.3494 2.2809C22.3494 3.19274 23.1239 3.92164 24.0504 3.92164H27.1091C31.7774 3.95348 35.5823 7.68943 35.6141 12.2515V12.8293C38.5468 12.8293 41.4852 12.889 44.4526 12.9173C55.1788 12.9173 63 20.5785 63 31.1547V44.7444C63 55.3241 55.1788 62.9818 44.4526 62.9818C40.1564 63.0767 35.8597 63.1051 31.5318 63.1051C27.2033 63.1051 22.8436 63.0733 18.5474 62.9818C7.82125 62.9818 0 55.3241 0 44.745V31.1576C0 20.578 7.82125 12.9202 18.5786 12.9202C22.6297 12.8565 26.7686 12.794 30.974 12.794V12.2793C30.974 10.1812 29.21 8.48085 27.1091 8.48085H24.0498C20.5565 8.48085 17.7117 5.68453 17.7117 2.28032C17.7117 1.03443 18.7671 -0.000732422 20.0334 -0.000732422L20.034 -0.000153475ZM22.3176 30.1833C22.0157 30.1799 21.7161 30.2363 21.436 30.3492C21.1559 30.4622 20.9008 30.6294 20.6854 30.8414C20.47 31.0533 20.2985 31.3058 20.1807 31.5843C20.063 31.8628 20.0014 32.1619 19.9993 32.4643V35.6572H16.7268C16.1192 35.6562 15.5355 35.8945 15.1017 36.3207C14.6679 36.7469 14.4187 37.3268 14.4079 37.9354C14.4079 39.2137 15.4599 40.2164 16.7262 40.2164H20.0028V43.4354C20.0028 44.6847 21.0229 45.7164 22.3205 45.7164C22.9281 45.7174 23.5118 45.4791 23.9456 45.0529C24.3794 44.6268 24.6286 44.0468 24.6394 43.4383V40.217H27.8836C28.1858 40.2208 28.4858 40.1648 28.7663 40.052C29.0468 39.9393 29.3023 39.7721 29.518 39.5601C29.7338 39.3482 29.9056 39.0955 30.0236 38.8168C30.1415 38.538 30.2033 38.2387 30.2053 37.936C30.1949 37.3273 29.9459 36.7473 29.5122 36.3209C29.0784 35.8946 28.4947 35.6562 27.887 35.6572H24.6422V32.4643C24.6324 31.8548 24.3833 31.2737 23.9488 30.8468C23.5144 30.4199 22.9296 30.1815 22.3211 30.1833H22.3176ZM46.6165 40.9743H46.305C45.7077 40.9838 45.1381 41.2282 44.7191 41.6546C44.3 42.0811 44.0652 42.6555 44.0652 43.2539C44.0652 43.8522 44.3 44.4266 44.7191 44.8531C45.1381 45.2796 45.7077 45.5239 46.305 45.5335H46.6136C46.9153 45.5369 47.2148 45.4807 47.4947 45.3679C47.7747 45.2552 48.0296 45.0882 48.245 44.8766C48.4604 44.6649 48.632 44.4127 48.7498 44.1345C48.8677 43.8563 48.9296 43.5575 48.9319 43.2553C48.9212 42.647 48.6722 42.0672 48.2386 41.641C47.805 41.2149 47.2217 40.9765 46.6142 40.9772L46.6165 40.9743ZM41.3315 30.5173H41.0228C40.4192 30.5173 39.8402 30.7575 39.4134 31.1851C38.9865 31.6126 38.7467 32.1926 38.7467 32.7972C38.7467 33.4019 38.9865 33.9818 39.4134 34.4093C39.8402 34.8369 40.4192 35.0771 41.0228 35.0771H41.3315C41.6332 35.0806 41.9327 35.0244 42.2127 34.9117C42.4927 34.799 42.7478 34.6321 42.9632 34.4204C43.1787 34.2087 43.3503 33.9566 43.4682 33.6783C43.5861 33.4001 43.648 33.1012 43.6503 32.799C43.6403 32.1899 43.3915 31.6092 42.9576 31.1824C42.5237 30.7556 41.9396 30.5163 41.3315 30.5173Z" fill="#ED5E72"/>
<path d="M1.16211 74.6842V67.9475H3.8555C4.35026 67.9475 4.76294 68.021 5.09296 68.1675C5.42357 68.3146 5.6721 68.5184 5.83856 68.7795C6.00502 69.0383 6.08825 69.3364 6.08825 69.6745C6.08825 69.9374 6.03623 70.1689 5.93046 70.3681C5.82756 70.5632 5.67878 70.7303 5.49697 70.855C5.31549 70.98 5.10741 71.0692 4.87275 71.1219V71.1873C5.12938 71.1983 5.36924 71.2707 5.59234 71.4044C5.81775 71.5382 6.00097 71.7257 6.14084 71.9672C6.28071 72.2063 6.35123 72.4911 6.35123 72.8223C6.35123 73.18 6.26222 73.499 6.08536 73.7798C5.90965 74.0583 5.65072 74.2783 5.30682 74.441C4.96292 74.6031 4.53926 74.6842 4.03526 74.6842H1.16269H1.16211ZM2.58394 73.5199H3.74338C4.13987 73.5199 4.42886 73.444 4.61035 73.2929C4.79241 73.1389 4.88316 72.9352 4.88316 72.681C4.88316 72.4946 4.83807 72.3302 4.74849 72.1877C4.65488 72.0414 4.52154 71.925 4.36413 71.8519C4.19998 71.7709 4.00405 71.7304 3.77632 71.7304H2.58452L2.58394 73.5199ZM2.58394 70.7664H3.63818C3.83354 70.7664 4.00636 70.7323 4.15721 70.6645C4.31038 70.5945 4.43117 70.4955 4.51845 70.3681C4.61041 70.2339 4.65755 70.074 4.65312 69.9113C4.65312 69.6676 4.56642 69.4713 4.3936 69.3225C4.2231 69.1732 3.97977 69.0985 3.66477 69.0985H2.58337V70.7664H2.58394ZM8.21233 70.4376H9.81507C10.3491 70.4376 10.8092 70.5238 11.1941 70.6975C11.5814 70.8683 11.8802 71.1109 12.0906 71.4241C12.301 71.7379 12.405 72.1073 12.4027 72.5328C12.405 72.956 12.301 73.33 12.0906 73.6548C11.8802 73.9767 11.582 74.2291 11.1941 74.4109C10.8086 74.5933 10.3491 74.6842 9.81507 74.6842H7.30259V67.9475H8.72095V73.5396H9.81507C10.0711 73.5396 10.2867 73.4933 10.4618 73.4012C10.637 73.3068 10.7693 73.1829 10.8589 73.0295C10.9514 72.8738 10.9959 72.7042 10.9936 72.5195C10.9964 72.3912 10.9708 72.264 10.9187 72.1468C10.8665 72.0297 10.789 71.9256 10.6919 71.8421C10.4902 71.6557 10.1977 71.5625 9.81507 71.5625H8.21233V70.4376ZM14.3696 67.9475V74.6842H12.9512V67.9475H14.3696ZM21.2568 67.9475V74.6842H19.8517V69.1054H17.1323V74.6842H15.7267V67.9475H21.2568ZM28.7914 71.3158C28.7914 72.0505 28.6526 72.6752 28.3741 73.1905C28.0984 73.7063 27.7221 74.1 27.2447 74.3715C26.7696 74.6413 26.2355 74.7762 25.6419 74.7762C25.0443 74.7762 24.5079 74.6402 24.0328 74.3686C23.5577 74.0965 23.1821 73.7028 22.9064 73.1876C22.6307 72.6723 22.4925 72.0482 22.4925 71.3158C22.4925 70.5812 22.6307 69.9559 22.9064 69.4406C23.1821 68.9254 23.5577 68.5328 24.0328 68.263C24.5079 67.9909 25.0443 67.8555 25.6419 67.8555C26.2355 67.8555 26.769 67.9909 27.2447 68.263C27.7221 68.5328 28.0984 68.9254 28.3741 69.4406C28.6521 69.9559 28.7914 70.5812 28.7914 71.3158ZM27.3499 71.3158C27.3499 70.8399 27.2788 70.4387 27.136 70.1116C26.9962 69.7851 26.7979 69.5373 26.5419 69.3683C26.2858 69.1998 25.9858 69.1153 25.6419 69.1153C25.298 69.1153 24.9981 69.1998 24.742 69.3683C24.486 69.5373 24.2866 69.7851 24.1444 70.1116C24.0045 70.4387 23.934 70.8399 23.934 71.3158C23.934 71.7917 24.0045 72.1929 24.1444 72.5195C24.2866 72.8466 24.486 73.0944 24.742 73.2628C24.9981 73.4319 25.298 73.5164 25.6419 73.5164C25.9858 73.5164 26.2858 73.4319 26.5419 73.2628C26.7979 73.0944 26.9962 72.8466 27.136 72.5195C27.2782 72.1929 27.3499 71.7917 27.3499 71.3158ZM29.4803 74.6842V73.5396L29.6711 73.5228C29.9161 73.5031 30.1138 73.4099 30.2652 73.2432C30.4161 73.0747 30.5288 72.806 30.6033 72.4373C30.6796 72.0667 30.7293 71.5688 30.7513 70.9442L30.8629 67.9475H35.4272V74.6842H34.0446V69.0886H32.183L32.0778 71.4339C32.0431 72.1883 31.9529 72.8049 31.8084 73.2831C31.6662 73.7607 31.4385 74.1139 31.1253 74.342C30.8143 74.5701 30.3889 74.6842 29.8479 74.6842H29.4803ZM36.5999 74.6842V67.9475H38.0217V70.727H40.9082V67.9475H42.3271V74.6842H40.9082V71.9012H38.0217V74.6842H36.5999ZM43.4993 67.9475H44.9182V72.1843H44.9743L47.8804 67.9475H49.1248V74.6842H47.7029V70.4439H47.6538L44.7309 74.6842H43.4998L43.4993 67.9475ZM50.0438 69.1216V67.9475H55.5675V69.1216H53.5082V74.6842H52.1025V69.1216H50.0438ZM57.413 70.4376H59.0158C59.5498 70.4376 60.0093 70.5238 60.3948 70.6975C60.7821 70.8683 61.0809 71.1109 61.2913 71.4241C61.5017 71.7379 61.6057 72.1073 61.6034 72.5328C61.6057 72.956 61.5017 73.33 61.2913 73.6548C61.0809 73.9767 60.7821 74.2291 60.3948 74.4109C60.0093 74.5933 59.5498 74.6842 59.0158 74.6842H56.5033V67.9475H57.9216V73.5396H59.0158C59.2718 73.5396 59.4874 73.4933 59.6625 73.4012C59.827 73.3169 59.9645 73.1881 60.0596 73.0295C60.1515 72.8738 60.1966 72.7042 60.1943 72.5195C60.1971 72.3912 60.1715 72.264 60.1194 72.1468C60.0672 72.0297 59.9897 71.9256 59.8926 71.8421C59.6908 71.6557 59.3984 71.5625 59.0158 71.5625H57.413V70.4376Z" fill="black"/>
</g>
<defs>
<clipPath id="clip0_352_473">
<rect width="63" height="77" fill="white"/>
</clipPath>
</defs>
</svg>
