<svg width="154" height="165" fill="none" xmlns="http://www.w3.org/2000/svg"><path d="m16.373 30.17 11.022-9.317A29 29 0 0 1 46.117 14H89c1.432 0 2.863.106 4.28.318l24.497 3.655a29 29 0 0 1 15.453 7.431l5.287 4.91a29.001 29.001 0 0 1 8.904 16.676l5.088 31.853a29.003 29.003 0 0 1-2.796 17.738L136.43 122.66a29.006 29.006 0 0 1-11.758 12.188l-28.708 15.948a28.998 28.998 0 0 1-26.397.905l-36.853-17.285a29.002 29.002 0 0 1-12.8-11.756L5.144 97.08a29 29 0 0 1-3.522-19.075l4.835-30.263a29 29 0 0 1 9.915-17.571z" fill="#FAFAFA" stroke="#FAFAFA" stroke-linejoin="round"/><path d="m74.967 0-40.01 77.46H87.25L50.05 165 133 54.489H88.33L117.3 0H74.967z" fill="#FCD462"/><path d="M35.945 101.191c5.006 4.033 11.47 2.375 16.864-4.335 8.53-10.621 11.445-29.663 6.49-42.448-1.333-3.443-3.173-6.178-5.319-7.906-5.008-4.036-11.466-2.372-16.862 4.338-8.534 10.62-11.445 29.66-6.495 42.444 1.336 3.444 3.177 6.178 5.323 7.907h-.001z" fill="#D4DBE9"/><path d="M52.398 53.966c1.43-1.78 2.937-3.194 4.472-4.25a23.207 23.207 0 0 1 2.43 4.693c4.953 12.784 2.04 31.826-6.493 42.446-1.429 1.78-2.937 3.194-4.472 4.251-.924-1.356-1.746-2.928-2.432-4.697-4.951-12.783-2.039-31.824 6.495-42.443z" fill="#B4BED7"/><path d="m84.162 112.865-2.445-6.368c.697 1.821 1.964 8.304-12.816 13.608l2.446 6.368c14.779-5.301 13.514-11.787 12.815-13.608z" fill="#384052"/><path d="m90.04 98.071-2.445-6.37c.124.35 2.45 6.991-6.096 14.318l2.447 6.369c8.545-7.327 6.218-13.97 6.096-14.319l-.002.002z" fill="#384052"/><path d="m94.518 92.436-2.447-6.37-4.476 5.634 2.447 6.37 4.476-5.634z" fill="#282E3A"/><path d="m110.335 94.876-2.447-6.368-15.817-2.44 2.447 6.368 15.817 2.44zm0 0c-6.576 2.381-8.05 6.24-8.991 9.091-2.576 7.785-6.299 14.103-12.876 20.869-2.943 3.031-9.244 3.719-13.323 2.641l-3.798-1.004c16.917-6.07 12.814-13.684 12.6-14.086 8.543-7.324 6.216-13.967 6.094-14.317l4.477-5.634 15.816 2.441h.001z" fill="#4D5772"/><path d="M104.109 69.341c1.683.254 3.173 1.612 4.101 4.031 1.885 4.802.78 11.928-2.411 15.921-1.616 1.982-3.424 2.83-5.072 2.572l15.859 2.395c1.654.257 3.461-.59 5.041-2.568 3.209-3.978 4.315-11.105 2.445-15.924-.942-2.4-2.433-3.761-4.103-4.03l-15.86-2.397z" fill="#4D5772"/><path d="M90.093 63.376c2.325.347 4.38 2.224 5.658 5.56 2.598 6.62 1.074 16.45-3.327 21.958-2.226 2.733-4.72 3.9-6.995 3.55l21.875 3.304c2.276.352 4.771-.814 6.949-3.542 4.427-5.487 5.951-15.316 3.374-21.965-1.301-3.31-3.355-5.184-5.659-5.56l-21.877-3.303.002-.002z" fill="#ED5E72"/><path d="m90.092 63.376 21.878 3.304c2.015.327 3.811 1.875 5.105 4.459l-21.867-3.303c-1.28-2.608-3.079-4.157-5.116-4.46z" fill="#E44555"/><path d="M42.09 65.497c-2.726 2.573-4.236 7.599-3.368 11.222.865 3.623 3.777 4.468 6.505 1.896 2.726-2.576 4.234-7.6 3.366-11.222-.865-3.625-3.775-4.47-6.503-1.896z" fill="#ED5E72"/><path d="M45.226 78.614c2.727-2.576 4.235-7.599 3.37-11.223-.538-2.25-1.866-3.426-3.448-3.38v-.002l32.445-5.184-4.907 34.428-31.194-13.209v-.01c1.134.235 2.453-.21 3.734-1.42z" fill="#E3E6F0"/><path d="M45.866 63.895a3.769 3.769 0 0 1 2.624.542 3.797 3.797 0 0 1 1.608 2.151c.04.138.077.276.11.414 1.003 4.2-.684 9.83-3.845 12.816l-.02.02c-1.04.977-2.6 1.159-3.914.603l-.937-.397.002-.009c1.133.235 2.451-.21 3.732-1.42 2.727-2.575 4.235-7.6 3.367-11.223-.535-2.25-1.864-3.428-3.445-3.38v-.002l.717-.117.001.002z" fill="#F491AB"/><path d="M49.748 42.045c4.718.713 8.964 4.57 11.61 11.403 5.257 13.548 2.166 33.695-6.873 44.956-4.514 5.594-9.619 7.967-14.289 7.251l4.076.635c4.67.717 9.774-1.656 14.286-7.25 9.06-11.287 12.13-31.407 6.896-44.985-2.645-6.835-6.892-10.688-11.612-11.401l-4.094-.609z" fill="#F491AB"/><path d="M65.453 54.056c-1.648-4.254-3.915-7.351-6.528-9.256l-.005-.007 31.307 18.6-.003.014c2.256.401 4.278 2.264 5.544 5.531 2.566 6.624 1.06 16.455-3.36 21.958-2.316 2.879-4.962 3.962-7.335 3.428l-34.785 11.232c.01-.007.026-.039.04-.049 2.808-1.106 5.62-3.231 8.23-6.469 9.06-11.285 12.132-31.404 6.895-44.982z" fill="#E3E6F0"/><path d="M61.36 53.44c5.255 13.562 2.175 33.696-6.882 44.968-9.058 11.27-20.66 9.409-25.915-4.155C23.31 80.69 26.39 60.56 35.448 49.287c9.056-11.27 20.66-9.412 25.913 4.152zm-28.435 4.165c-.4.838-.773 1.689-1.117 2.551-4.187 10.434-4.897 23.54-1.185 33.129a24.034 24.034 0 0 0 1.875 3.776c1.02 1.68 2.17 3.102 3.448 4.132.248.196.504.381.768.556.057.038.11.085.168.12 4.858 3.131 10.862 1.285 15.926-5.013C61.34 86.236 64.252 67.193 59.3 54.41c-1.335-3.444-3.175-6.18-5.32-7.908-3.96-3.191-8.825-2.805-13.355.806l-.107.084a20.39 20.39 0 0 0-1.597 1.445c-.086.085-.172.176-.26.267a24.636 24.636 0 0 0-1.544 1.737c-1.6 1.99-3.002 4.276-4.193 6.764v-.002z" fill="#ED5E72"/><path d="m57.797 29.306-2.303-.952c.08-.316.104-.618.07-.904a2.203 2.203 0 0 0-.254-.808 2.386 2.386 0 0 0-.548-.671 2.913 2.913 0 0 0-.804-.485c-.557-.231-1.1-.292-1.626-.185-.527.103-1.01.372-1.455.807-.443.43-.818 1.02-1.125 1.769-.316.771-.467 1.466-.454 2.085.016.62.176 1.148.48 1.587.305.438.728.77 1.271.994.305.125.604.202.897.228a2.4 2.4 0 0 0 .844-.065c.268-.075.515-.197.74-.367.23-.17.43-.387.6-.653l2.297.961a4.65 4.65 0 0 1-2.49 2.089 4.824 4.824 0 0 1-1.77.268c-.63-.018-1.292-.17-1.982-.455-.96-.396-1.73-.97-2.308-1.718-.575-.748-.912-1.626-1.01-2.634-.097-1.007.095-2.098.578-3.273.483-1.179 1.114-2.09 1.894-2.735.78-.645 1.638-1.028 2.572-1.148.936-.123 1.877.01 2.824.401.59.238 1.14.569 1.626.98.464.398.834.85 1.109 1.36.276.505.445 1.054.505 1.647.06.631 0 1.268-.178 1.877zm10.862 6.38c-.483 1.18-1.117 2.09-1.901 2.733-.78.645-1.64 1.028-2.584 1.15-.938.118-1.881-.019-2.831-.412-.957-.394-1.726-.968-2.308-1.717-.582-.752-.925-1.632-1.027-2.64-.103-1.01.086-2.104.568-3.28.483-1.178 1.115-2.089 1.895-2.735.78-.644 1.639-1.026 2.577-1.145.94-.12 1.887.015 2.845.41.949.392 1.714.964 2.297 1.715.586.748.93 1.627 1.034 2.636.106 1.012-.082 2.106-.565 3.285zm-2.308-.953c.313-.764.463-1.455.45-2.074-.01-.617-.164-1.145-.463-1.585-.3-.441-.723-.774-1.274-1.002-.55-.227-1.086-.29-1.607-.189-.52.102-1.003.368-1.445.798-.44.432-.815 1.03-1.129 1.793-.312.764-.464 1.455-.455 2.072.013.618.17 1.147.468 1.587.3.441.725.775 1.275 1.003.55.227 1.086.29 1.607.188.52-.102 1-.368 1.44-.8.442-.43.82-1.028 1.133-1.791zm1.78 7.056 4.428-10.812 7.144 2.951-.772 1.885-4.868-2.012-.864 2.112 1.75.724c.851.351 1.53.793 2.032 1.326.508.532.827 1.118.957 1.76.13.643.056 1.305-.224 1.988-.278.68-.692 1.21-1.242 1.592-.548.378-1.192.586-1.933.62-.736.038-1.53-.12-2.382-.471l-4.026-1.663zm3.028-.898 1.75.724c.407.168.781.236 1.121.204a1.702 1.702 0 0 0 1.438-1.061 1.53 1.53 0 0 0-.044-1.29c-.2-.431-.605-.774-1.215-1.026l-1.75-.723-1.3 3.172zm6.614 4.881 4.429-10.812 4.248 1.755c.816.338 1.447.78 1.893 1.332.449.547.71 1.159.785 1.836.08.675-.027 1.371-.32 2.09-.296.718-.709 1.288-1.242 1.71a3.444 3.444 0 0 1-1.866.728c-.707.066-1.474-.071-2.3-.414l-2.709-1.118.75-1.832 2.34.967c.439.18.83.254 1.176.22a1.63 1.63 0 0 0 .903-.374c.257-.215.457-.5.603-.856a2.13 2.13 0 0 0 .17-1.029 1.566 1.566 0 0 0-.385-.893c-.226-.27-.559-.496-1-.678l-1.536-.635-3.662 8.944-2.277-.94zm10.197 4.213-2.439-1.008 8.145-9.277 2.933 1.212-.716 12.345-2.44-1.008.72-9.455-.084-.035-6.119 7.226zm1.588-4.313 5.762 2.38-.73 1.784-5.763-2.38.731-1.784zm7.63 8.12 4.429-10.812 2.276.94-1.828 4.462 4.622 1.908 1.827-4.46 2.271.938-4.429 10.811-2.271-.937 1.829-4.467-4.62-1.909-1.83 4.467-2.276-.94zm15.474-6.248 2.271.937-2.785 6.8.089.037 7.438-4.878 1.991.824-4.428 10.81-2.276-.94 2.787-6.805-.08-.032-7.464 4.873-1.972-.815 4.429-10.811zm6.457 15.308 4.429-10.813 7.253 2.997-.77 1.885-4.978-2.056-1.056 2.576 4.605 1.902-.772 1.885-4.605-1.903-1.058 2.582 4.999 2.065-.771 1.885-7.276-3.005z" fill="#000"/></svg>