<svg width="63" height="97" viewBox="0 0 63 97" fill="none" xmlns="http://www.w3.org/2000/svg">
<path d="M28.831 0L5.27344 45.5371H36.0639L14.1615 97L63.0002 32.0329H36.6989L53.7564 0H28.831Z" fill="#FCD462"/>
<path d="M5.85501 59.4883C8.80258 61.8591 12.6084 60.8839 15.7845 56.9397C20.8073 50.6955 22.5232 39.5013 19.6062 31.9855C18.821 29.9614 17.7378 28.3531 16.4743 27.3372C13.5255 24.9647 9.72267 25.9433 6.54596 29.8876C1.52142 36.1306 -0.192696 47.3242 2.72189 54.8394C3.50826 56.8641 4.5921 58.4718 5.8556 59.4883H5.85501Z" fill="#D4DBE9"/>
<path d="M15.5423 31.7256C16.3846 30.6785 17.2717 29.848 18.1753 29.2267C18.7561 30.089 19.2356 31.0145 19.6061 31.9861C22.5225 39.5013 20.8072 50.6955 15.7832 56.9391C14.9421 57.9851 14.0538 58.8167 13.1502 59.4381C12.6059 58.6407 12.1223 57.717 11.7182 56.6769C8.80307 49.1617 10.5178 37.968 15.5423 31.7256Z" fill="#B4BED7"/>
<path d="M34.245 66.351L32.8054 62.6075C33.216 63.6778 33.9617 67.4891 25.2598 70.6071L26.7 74.3511C35.4013 71.2343 34.6568 67.4218 34.245 66.351Z" fill="#384052"/>
<path d="M37.706 57.6539L36.2664 53.9093C36.3394 54.1148 37.709 58.0189 32.6768 62.3264L34.1176 66.0704C39.1492 61.7629 37.779 57.8577 37.7072 57.6527L37.706 57.6539Z" fill="#384052"/>
<path d="M40.3423 54.341L38.9015 50.5964L36.2661 53.9087L37.7069 57.6533L40.3423 54.341Z" fill="#282E3A"/>
<path d="M49.6548 55.7757L48.214 52.0323L38.9012 50.597L40.342 54.3411L49.6548 55.7757ZM49.6548 55.7757C45.783 57.1755 44.9154 59.4441 44.3611 61.1197C42.8443 65.6965 40.6525 69.411 36.7801 73.3883C35.0471 75.1703 31.3373 75.5749 28.9352 74.9411L26.6992 74.3511C36.6599 70.7825 34.2437 66.3061 34.1176 66.0698C39.1481 61.7641 37.7779 57.8589 37.7061 57.6533L40.342 54.3411L49.6542 55.7763L49.6548 55.7757Z" fill="#4D5772"/>
<path d="M45.9895 40.7642C46.9809 40.913 47.8579 41.7115 48.4046 43.1338C49.5143 45.957 48.8634 50.1458 46.985 52.4935C46.0331 53.6588 44.9687 54.1567 43.9985 54.0055L53.336 55.4136C54.3097 55.5642 55.3735 55.0669 56.3042 53.9039C58.1933 51.565 58.8448 47.3751 57.7439 44.5424C57.189 43.1314 56.3113 42.3311 55.3282 42.1728L45.9895 40.7642Z" fill="#4D5772"/>
<path d="M37.7367 37.2571C39.1057 37.4614 40.3156 38.5647 41.0684 40.5256C42.5981 44.4179 41.701 50.196 39.1098 53.4345C37.7992 55.0416 36.3301 55.7279 34.9912 55.5212L47.8706 57.4638C49.2107 57.6711 50.6798 56.9854 51.9621 55.3818C54.5686 52.1558 55.4658 46.3776 53.9484 42.4688C53.1826 40.5233 51.9733 39.4212 50.6168 39.2003L37.7356 37.2583L37.7367 37.2571Z" fill="#ED5E72"/>
<path d="M37.7368 37.2571L50.618 39.1997C51.8043 39.3922 52.8617 40.3018 53.6239 41.8209L40.7492 39.8795C39.9952 38.3462 38.9361 37.4355 37.7368 37.2571Z" fill="#E44555"/>
<path d="M9.47323 38.5044C7.86809 40.017 6.97922 42.9713 7.48992 45.1012C7.99945 47.2316 9.71415 47.7283 11.3199 46.2163C12.925 44.7019 13.8127 41.7481 13.302 39.6189C12.7925 37.4879 11.0796 36.9906 9.47323 38.5044Z" fill="#ED5E72"/>
<path d="M11.3199 46.2157C12.9256 44.7013 13.8133 41.7482 13.3038 39.6178C12.9875 38.2953 12.2052 37.6037 11.2739 37.6303L11.2745 37.6297L30.3772 34.582L27.4879 54.8212L9.12158 47.0562V47.0503C9.78897 47.1885 10.5659 46.9268 11.3199 46.2157Z" fill="#E3E6F0"/>
<path d="M11.6969 37.5625C12.2334 37.4762 12.7828 37.5895 13.2418 37.8812C13.7007 38.1728 14.0374 38.6227 14.1885 39.146C14.2121 39.2269 14.2339 39.3078 14.2533 39.3894C14.8441 41.8582 13.8504 45.1681 11.9896 46.9234L11.9779 46.9353C11.3652 47.5094 10.4463 47.6163 9.67293 47.2896L9.12158 47.0563L9.12276 47.051C9.78956 47.1892 10.5659 46.927 11.3199 46.2159C12.9256 44.7021 13.8133 41.7483 13.3026 39.6185C12.9875 38.2955 12.2052 37.6033 11.2739 37.631L11.2745 37.6299L11.6963 37.5613L11.6969 37.5625Z" fill="#F491AB"/>
<path d="M13.982 24.7174C16.7599 25.1368 19.2604 27.4036 20.8178 31.4211C23.9133 39.3857 22.0931 51.2297 16.7711 57.8495C14.1133 61.1381 11.1081 62.5332 8.3584 62.1121L10.7582 62.4853C13.5072 62.907 16.5131 61.512 19.1697 58.2233C24.5035 51.5882 26.3118 39.7602 23.23 31.7778C21.6725 27.7598 19.1721 25.4947 16.3929 25.0753L13.982 24.7174Z" fill="#F491AB"/>
<path d="M23.229 31.7783C22.2589 29.2775 20.9241 27.4566 19.3855 26.3368L19.3826 26.3326L37.8155 37.2676L37.8137 37.2753C39.142 37.5115 40.333 38.6066 41.0782 40.5273C42.5891 44.4213 41.7026 50.2007 39.1002 53.4355C37.7365 55.1283 36.1785 55.765 34.7813 55.4508L14.3003 62.054C14.3062 62.0499 14.3156 62.031 14.3233 62.0251C15.9773 61.3748 17.6325 60.1256 19.1693 58.2226C24.5043 51.588 26.3126 39.7606 23.229 31.7783Z" fill="#E3E6F0"/>
<path d="M20.8198 31.4157C23.9135 39.3893 22.0998 51.2255 16.7672 57.8518C11.434 64.4775 4.60347 63.3831 1.50922 55.4095C-1.58443 47.436 0.229824 35.6015 5.56302 28.9747C10.895 22.3489 17.7268 23.4416 20.8198 31.4157ZM4.07745 33.8645C3.84163 34.3571 3.62219 34.8575 3.41949 35.3647C0.954346 41.4984 0.536126 49.2032 2.72206 54.8402C3.02427 55.6113 3.39365 56.3542 3.82593 57.0604C4.42675 58.0479 5.10357 58.8836 5.85577 59.489C6.00186 59.6042 6.15265 59.7135 6.30816 59.8162C6.34173 59.8387 6.37354 59.8659 6.40712 59.8865C9.26751 61.7275 12.8024 60.6419 15.7841 56.9393C20.8075 50.6963 22.5222 39.5015 19.607 31.9869C18.8212 29.9622 17.7379 28.3545 16.4745 27.338C14.143 25.4622 11.2791 25.689 8.61132 27.8117L8.54829 27.8613C8.23197 28.1171 7.91801 28.4006 7.60818 28.7106C7.55752 28.7608 7.50686 28.8146 7.45561 28.8677C7.13658 29.1936 6.83308 29.5344 6.54613 29.889C5.60425 31.0584 4.77841 32.4027 4.07745 33.8651V33.8645Z" fill="#ED5E72"/>
<path d="M18.722 17.2281L17.366 16.6687C17.4131 16.4827 17.4273 16.3055 17.4072 16.1372C17.3886 15.9706 17.3378 15.8093 17.2576 15.6623C17.175 15.5121 17.0656 15.3784 16.9348 15.2677C16.7936 15.1477 16.6338 15.0513 16.4618 14.9825C16.1337 14.8466 15.8145 14.8112 15.504 14.8738C15.1942 14.9346 14.9091 15.0923 14.6476 15.3481C14.3866 15.6009 14.1657 15.9476 13.9855 16.3882C13.7994 16.8418 13.7104 17.2499 13.7181 17.6137C13.7275 17.9782 13.8217 18.2888 14.0008 18.5469C14.1799 18.8044 14.429 18.9994 14.7489 19.1311C14.9286 19.2049 15.1047 19.2498 15.2767 19.2651C15.451 19.2817 15.6166 19.2687 15.7738 19.2273C15.9317 19.183 16.0772 19.1116 16.2097 19.0112C16.3446 18.9119 16.4624 18.7838 16.5631 18.6273L17.9156 19.1925C17.5899 19.7653 17.0691 20.2013 16.4489 20.4204C16.1145 20.5374 15.7613 20.5908 15.4074 20.5781C15.0358 20.5675 14.6464 20.4783 14.24 20.3106C13.6745 20.0779 13.2215 19.7406 12.881 19.3006C12.5429 18.8606 12.3444 18.3449 12.2861 17.7519C12.2296 17.1601 12.3427 16.5187 12.6266 15.8277C12.9111 15.1349 13.2828 14.5992 13.7422 14.22C14.2017 13.8408 14.7065 13.6158 15.2561 13.5455C15.8074 13.4728 16.3617 13.5514 16.9189 13.7811C17.2668 13.9209 17.5901 14.1155 17.8767 14.3576C18.1494 14.5909 18.3674 14.8573 18.5294 15.1567C18.6919 15.4532 18.7915 15.7763 18.8268 16.1248C18.8626 16.4959 18.827 16.8704 18.722 17.2281ZM25.1172 20.9792C24.8327 21.6726 24.4599 22.2077 23.998 22.5857C23.5386 22.9649 23.032 23.1899 22.4765 23.2614C21.9246 23.331 21.3691 23.2507 20.8096 23.0198C20.2464 22.7877 19.7935 22.4504 19.4506 22.0098C19.1084 21.568 18.9064 21.0506 18.8463 20.4576C18.7856 19.864 18.8969 19.2214 19.1809 18.5304C19.4648 17.8376 19.837 17.3019 20.2965 16.9221C20.756 16.5435 21.2614 16.3191 21.8139 16.2488C22.367 16.1779 22.9248 16.2576 23.4885 16.4898C24.0475 16.7201 24.4981 17.0568 24.841 17.498C25.1861 17.938 25.3888 18.4548 25.45 19.0478C25.5125 19.6426 25.4017 20.2858 25.1172 20.9792ZM23.7583 20.4186C23.9427 19.9698 24.031 19.5634 24.0234 19.1996C24.0175 18.8369 23.9268 18.5263 23.7506 18.2676C23.5745 18.0083 23.3248 17.8128 23.0008 17.6787C22.6768 17.5452 22.3611 17.508 22.0542 17.5677C21.7479 17.6273 21.464 17.7838 21.2036 18.0366C20.9444 18.2906 20.7236 18.642 20.5392 19.0909C20.3554 19.5398 20.2659 19.9461 20.2712 20.3088C20.2788 20.672 20.3713 20.9833 20.5468 21.242C20.7236 21.5013 20.9733 21.6974 21.2973 21.8314C21.6213 21.9649 21.9364 22.0015 22.2433 21.9419C22.5496 21.8822 22.8323 21.7257 23.0915 21.4717C23.3519 21.2189 23.5745 20.8675 23.7583 20.4186ZM24.8062 24.5667L27.4139 18.2109L31.6197 19.9455L31.1655 21.0536L28.2992 19.8711L27.7903 21.1126L28.8211 21.5379C29.3218 21.7446 29.7212 22.0045 30.0169 22.3175C30.3161 22.6306 30.504 22.9749 30.5806 23.3523C30.6572 23.7303 30.6136 24.1195 30.4487 24.5212C30.2849 24.9204 30.041 25.2323 29.7177 25.4567C29.3949 25.6788 29.0155 25.8011 28.5796 25.8217C28.1461 25.8436 27.6784 25.7509 27.1771 25.5441L24.8062 24.5667ZM26.5892 24.0392L27.6201 24.4645C27.8592 24.5631 28.0795 24.6033 28.2798 24.5844C28.4818 24.5637 28.6544 24.4981 28.7982 24.3883C28.9454 24.2772 29.055 24.1343 29.1263 23.9607C29.1774 23.8401 29.2017 23.7098 29.1972 23.5789C29.1927 23.448 29.1596 23.3196 29.1003 23.2029C28.9825 22.9489 28.7446 22.7475 28.3852 22.5993L27.3544 22.174L26.5892 24.0392ZM30.4834 26.9085L33.0911 20.5521L35.5922 21.584C36.0728 21.7824 36.4445 22.0429 36.7072 22.3671C36.9711 22.6884 37.1255 23.0481 37.169 23.4462C37.2162 23.8431 37.1531 24.2524 36.9806 24.6747C36.8068 25.097 36.5635 25.4319 36.2496 25.68C35.9336 25.9284 35.5513 26.0774 35.151 26.1082C34.7345 26.1472 34.2827 26.0663 33.7962 25.8649L32.2016 25.2075L32.6434 24.1308L34.0212 24.699C34.2792 24.8053 34.5101 24.8484 34.7133 24.8289C34.9195 24.807 35.0974 24.7338 35.2452 24.6086C35.396 24.4822 35.5138 24.3144 35.5998 24.1054C35.6864 23.8945 35.7194 23.6925 35.7 23.5006C35.6821 23.3058 35.6026 23.1218 35.4732 22.9755C35.3407 22.8166 35.1445 22.6837 34.8841 22.5768L33.9806 22.2035L31.8241 27.4613L30.4834 26.9085ZM36.4875 29.385L35.0514 28.7926L39.8468 23.3387L41.5739 24.051L41.1522 31.3087L39.7161 30.7163L40.1396 25.1579L40.0901 25.1372L36.4875 29.385ZM37.4223 26.8494L40.8152 28.2486L40.3846 29.2976L36.9917 27.8978L37.4223 26.8494ZM41.915 31.6235L44.5227 25.2671L45.8627 25.82L44.7865 28.4424L47.5079 29.5646L48.5835 26.9422L49.9207 27.4938L47.313 33.8496L45.9758 33.2985L47.0526 30.6726L44.3324 29.5504L43.255 32.1763L41.915 31.6235ZM51.0257 27.9498L52.3628 28.5008L50.7229 32.4982L50.7753 32.5201L55.1549 29.6526L56.3271 30.1369L53.72 36.4921L52.3799 35.9398L54.021 31.9389L53.9739 31.92L49.579 34.7846L48.418 34.3056L51.0257 27.9498ZM54.8274 36.9492L57.4351 30.5929L61.7056 32.3547L61.2521 33.4627L58.321 32.2537L57.6996 33.7681L60.4109 34.8868L59.9562 35.9948L57.2448 34.8761L56.6222 36.394L59.5656 37.6078L59.1115 38.7158L54.8274 36.9492Z" fill="black"/>
</svg>
