<svg width="183" height="172" fill="none" xmlns="http://www.w3.org/2000/svg"><path d="M17.914 21.505 34.082 7.847A29 29 0 0 1 52.797 1h53.37c1.432 0 2.862.106 4.278.317l31.187 4.65a29.002 29.002 0 0 1 15.449 7.426l8.896 8.255a29.001 29.001 0 0 1 8.91 16.68l6.621 41.415a28.992 28.992 0 0 1-2.799 17.749l-17.343 34.022a28.986 28.986 0 0 1-11.761 12.184l-38.018 21.107a29 29 0 0 1-26.384.904l-47.881-22.442a29.004 29.004 0 0 1-12.803-11.752L5.15 97.99a29 29 0 0 1-3.525-19.085L7.992 39.08a29 29 0 0 1 9.922-17.575z" fill="#FAFAFA" stroke="#FAFAFA" stroke-linejoin="round"/><path d="M71.662 10c2.24 0 4.006 1.788 4.006 3.94 0 1.575 1.34 2.834 2.943 2.834h5.292c8.077.055 14.66 6.508 14.715 14.388v.998c5.074 0 10.158.103 15.292.152 18.558 0 32.09 13.233 32.09 31.501v23.473c0 18.274-13.532 31.501-32.09 31.501-7.433.164-14.867.213-22.355.213-7.489 0-15.032-.055-22.465-.213-18.558 0-32.09-13.227-32.09-31.5V63.818c0-18.274 13.532-31.501 32.144-31.501 7.009-.11 14.17-.218 21.446-.218v-.889c0-3.624-3.052-6.561-6.687-6.561H78.61c-6.044 0-10.966-4.83-10.966-10.71 0-2.152 1.826-3.94 4.017-3.94zm3.951 52.135a3.967 3.967 0 0 0-4.011 3.94v5.515h-5.663a4.006 4.006 0 0 0-4.01 3.935c0 2.208 1.82 3.94 4.01 3.94h5.669v5.56c0 2.158 1.765 3.94 4.01 3.94a4.006 4.006 0 0 0 4.012-3.935v-5.564h5.613a3.967 3.967 0 0 0 4.017-3.94 4.005 4.005 0 0 0-4.011-3.936h-5.614v-5.515a4.005 4.005 0 0 0-4.016-3.94h-.006zm42.042 18.639h-.54a3.937 3.937 0 0 0 0 7.875h.534a3.964 3.964 0 0 0 3.696-2.416c.204-.481.311-.997.315-1.519a4.005 4.005 0 0 0-4.011-3.935l.006-.005zm-9.146-18.062h-.534a3.937 3.937 0 0 0 0 7.876h.534a3.973 3.973 0 0 0 2.823-1.135 3.975 3.975 0 0 0 1.189-2.8 4.007 4.007 0 0 0-4.012-3.94z" fill="#ED5E72"/><path d="M39.011 139v-11.636h4.66c.855 0 1.57.127 2.142.38.572.254 1.001.606 1.29 1.057.287.447.431.962.431 1.546 0 .454-.09.854-.273 1.198a2.35 2.35 0 0 1-.75.841c-.314.216-.674.37-1.08.461v.113c.444.019.859.144 1.245.375.39.231.707.555.949.972.242.413.364.905.364 1.477 0 .618-.154 1.169-.46 1.654-.304.481-.753.861-1.347 1.142-.595.28-1.328.42-2.199.42h-4.972zm2.46-2.011h2.006c.686 0 1.186-.131 1.5-.392.315-.266.472-.618.472-1.057 0-.322-.078-.606-.233-.852a1.577 1.577 0 0 0-.665-.58c-.284-.14-.623-.21-1.017-.21h-2.062v3.091zm0-4.756h1.825c.337 0 .636-.059.897-.176.265-.121.474-.292.625-.512a1.33 1.33 0 0 0 .233-.789c0-.421-.15-.76-.449-1.017-.295-.258-.716-.387-1.261-.387h-1.87v2.881zm9.738-.568h2.772c.925 0 1.72.149 2.387.449.67.295 1.187.714 1.551 1.255.364.542.544 1.18.54 1.915.004.731-.176 1.377-.54 1.938-.364.556-.88.992-1.551 1.306-.667.315-1.462.472-2.387.472h-4.346v-11.636h2.455v9.659h1.891c.444 0 .817-.08 1.12-.239.303-.163.532-.377.687-.642.16-.269.237-.562.233-.881a1.498 1.498 0 0 0-.522-1.17c-.349-.322-.855-.483-1.518-.483H51.21v-1.943zm10.653-4.301V139h-2.454v-11.636h2.454zm11.916 0V139h-2.431v-9.636h-4.705V139H64.21v-11.636h9.568zm13.036 5.818c0 1.269-.24 2.348-.722 3.238-.477.891-1.129 1.571-1.954 2.04-.822.466-1.746.699-2.773.699-1.034 0-1.962-.235-2.784-.704-.822-.47-1.472-1.15-1.949-2.04-.477-.89-.716-1.968-.716-3.233 0-1.269.239-2.349.716-3.239.477-.89 1.127-1.568 1.949-2.034.822-.47 1.75-.704 2.784-.704 1.027 0 1.95.234 2.773.704.825.466 1.477 1.144 1.954 2.034.481.89.722 1.97.722 3.239zm-2.494 0c0-.822-.123-1.515-.37-2.08-.242-.564-.585-.992-1.028-1.284-.443-.291-.962-.437-1.557-.437s-1.114.146-1.557.437c-.443.292-.788.72-1.034 1.284-.242.565-.364 1.258-.364 2.08 0 .822.122 1.515.364 2.079.246.565.591.993 1.034 1.284.443.292.962.438 1.557.438s1.114-.146 1.557-.438c.443-.291.786-.719 1.028-1.284.246-.564.37-1.257.37-2.079zM88.006 139v-1.977l.33-.029c.424-.034.766-.195 1.028-.483.261-.291.456-.755.585-1.392.132-.64.218-1.5.255-2.579l.194-5.176h7.898V139h-2.393v-9.665h-3.221l-.182 4.051c-.06 1.303-.216 2.368-.466 3.194-.246.825-.64 1.435-1.182 1.829-.538.394-1.274.591-2.21.591h-.636zm12.318 0v-11.636h2.46v4.801h4.994v-4.801h2.455V139h-2.455v-4.807h-4.994V139h-2.46zm11.937-11.636h2.455v7.318h.096l5.029-7.318h2.153V139h-2.46v-7.324h-.085L114.392 139h-2.131v-11.636zm11.323 2.028v-2.028h9.557v2.028h-3.563V139h-2.432v-9.608h-3.562zm12.75 2.273h2.773c.924 0 1.719.149 2.386.449.67.295 1.187.714 1.551 1.255.364.542.544 1.18.54 1.915.004.731-.176 1.377-.54 1.938-.364.556-.881.992-1.551 1.306-.667.315-1.462.472-2.386.472h-4.347v-11.636h2.454v9.659h1.893c.443 0 .816-.08 1.119-.239a1.71 1.71 0 0 0 .687-.642c.159-.269.237-.562.233-.881a1.498 1.498 0 0 0-.522-1.17c-.349-.322-.855-.483-1.517-.483h-2.773v-1.943z" fill="#000"/></svg>