<svg width="181" height="247" fill="none" xmlns="http://www.w3.org/2000/svg"><path d="M59.027 73.044c0-7.95-5.486-14.935-13.358-15.97a70.915 70.915 0 0 0-8.841-.686c-1.85 0-3.913.137-6.01.354-9.95 1.022-17.512 8.998-19.076 18.891-1.587 10.03-3.237 22.86-3.237 32.877 0 11.941 2.34 27.868 4.125 38.293 1.131 6.58 6.167 11.78 12.758 12.78 3.802.579 7.987 1.056 11.44 1.056 2.679 0 5.8-.289 8.841-.685 7.867-1.035 13.358-8.023 13.358-15.97V73.04v.004z" fill="#23B70B"/><path fill-rule="evenodd" clip-rule="evenodd" d="M67.532 143.984V73.04c0-11.729-8.178-22.763-20.757-24.415-3.207-.422-6.737-.758-9.947-.758-2.237 0-4.61.162-6.881.396C15.73 49.728 5.439 61.039 3.342 74.296 1.743 84.389 0 97.782 0 108.51c0 12.733 2.462 29.286 4.252 39.733 1.714 9.995 9.446 18.171 19.86 19.76 3.934.596 8.616 1.149 12.716 1.149 3.21 0 6.74-.34 9.947-.758 12.579-1.652 20.757-12.686 20.757-24.419v.009zm-21.863-86.91c7.867 1.035 13.358 8.02 13.358 15.97v70.94c0 7.951-5.486 14.939-13.358 15.97-3.04.4-6.162.69-8.841.69-3.454 0-7.638-.477-11.44-1.056-6.591-1.001-11.627-6.201-12.758-12.781-1.786-10.425-4.125-26.352-4.125-38.289 0-10.02 1.65-22.852 3.232-32.88 1.57-9.893 9.13-17.866 19.077-18.892 2.101-.213 4.164-.353 6.014-.353 2.679 0 5.8.28 8.84.681z" fill="#000"/><path fill-rule="evenodd" clip-rule="evenodd" d="M59.027 142.391v1.589c0 7.951-5.486 14.939-13.358 15.97-3.04.4-6.162.689-8.841.689-3.453 0-7.638-.477-11.44-1.056-6.591-1-11.627-6.2-12.758-12.78-1.786-10.425-4.125-26.352-4.125-38.289 0-10.02 1.65-22.852 3.232-32.88a23.626 23.626 0 0 1 3.76-9.561c-1.416 9.454-2.74 20.688-2.74 29.665 0 11.937 2.34 27.864 4.126 38.285 1.131 6.584 6.166 11.784 12.758 12.784 3.802.58 7.986 1.057 11.44 1.057 2.679 0 5.8-.29 8.84-.686a14.855 14.855 0 0 0 9.106-4.787z" fill="#199205"/><path fill-rule="evenodd" clip-rule="evenodd" d="M28.518 63.262a4.25 4.25 0 0 0-5.898 1.184l3.538 2.363c-3.538-2.363-3.538-2.363-3.542-2.36l-.005.01-.012.02-.034.048c-.147.222-.286.45-.417.68a37.502 37.502 0 0 0-1.025 1.892c-.83 1.63-1.905 4.011-2.973 7.103-2.13 6.192-4.218 15.246-4.218 26.94a4.259 4.259 0 0 0 4.252 4.259 4.259 4.259 0 0 0 4.253-4.259c0-10.663 1.901-18.78 3.755-24.163a47.702 47.702 0 0 1 2.51-6.022c.3-.594.624-1.176.969-1.746l.034-.055m0 0-.004.008.004-.008z" fill="#8FF17F"/><path d="M154.311 66.775c0-32.174-24.465-58.258-54.638-58.258-30.172 0-54.633 26.084-54.633 58.258 0 0-4.665 31.663-5.75 52.126-2.1 39.524 5.75 101.184 5.75 101.184 0 10.162 7.723 18.398 17.253 18.398h11.499c9.526 0 17.253-8.236 17.253-18.398v-28.319a51.7 51.7 0 0 0 23.007-1.316v23.503c0 10.161 1.969 18.397 11.499 18.397h11.499c12.941 0 16.555-9.113 17.253-19.93 2.879-44.46 11.503-49.059 11.503-75.122 0-26.063-11.503-70.523-11.503-70.523h.008z" fill="#24D108"/><path fill-rule="evenodd" clip-rule="evenodd" d="M45.044 220.086c0 10.161 7.723 18.397 17.253 18.397h11.499c9.526 0 17.253-8.236 17.253-18.397v-28.32c2.773.468 5.613.715 8.505.724h.123a51.891 51.891 0 0 0 14.374-2.04v23.503c0 10.161 1.974 18.397 11.504 18.397h11.499c12.941 0 16.555-9.113 17.253-19.93 1.527-23.563 4.665-35.93 7.28-46.227 2.318-9.135 4.223-16.643 4.223-28.895 0-26.063-11.503-70.523-11.503-70.523.004-32.174-24.457-58.258-54.63-58.258-30.172 0-54.633 26.084-54.633 58.258 0 0-4.665 31.663-5.75 52.126-2.1 39.524 5.75 101.185 5.75 101.185zm-8.505-153.95C36.862 30.053 64.52 0 99.677 0c35.008 0 62.574 29.798 63.127 65.677l.255 1.004c1.954 7.93 3.735 15.901 5.341 23.908 2.883 14.416 5.916 32.766 5.916 46.709 0 13.329-2.135 21.727-4.466 30.918l-.468 1.831c-2.428 9.624-5.188 21.352-6.587 42.927-.383 5.911-1.599 12.848-5.618 18.439-4.448 6.188-11.354 9.455-20.123 9.455h-11.499c-3.628 0-7.14-.797-10.245-2.692-3.113-1.899-5.248-4.557-6.668-7.367-2.649-5.238-3.096-11.584-3.096-16.856v-13.231a60.905 60.905 0 0 1-5.869.285h-.123v19.079C99.554 234.437 88.52 247 73.796 247h-11.5c-14.522 0-25.46-12.222-25.753-26.335l-.03-.235-.247-2.061a1002.891 1002.891 0 0 1-3.36-33.345c-1.709-20.424-3.189-46.206-2.108-66.575.56-10.548 2.032-23.827 3.338-34.337a987.5 987.5 0 0 1 2.407-17.971l-.004-.005z" fill="#000"/><path fill-rule="evenodd" clip-rule="evenodd" d="M154.175 62.644c.085 1.367.132 2.743.132 4.131 0 0 3.359 12.968 6.443 29.001a23.068 23.068 0 0 1-18.716 11.37l-41.761 2.228a27.527 27.527 0 0 1-17.244-4.934 27.594 27.594 0 0 1-10.56-14.515c-5.265-17.162 6.974-34.708 24.878-35.666l30.534-1.627a34.698 34.698 0 0 1 26.294 10.017v-.005z" fill="#199205"/><path fill-rule="evenodd" clip-rule="evenodd" d="M152.24 222.807c-2.288 5.681-6.761 9.543-15.182 9.543h-11.503c-9.526 0-11.503-8.236-11.503-18.397V190.45a51.527 51.527 0 0 1-14.374 2.04h-.124v-9.242a51.683 51.683 0 0 0 23.007-1.315v23.503c0 10.161 1.969 18.397 11.499 18.397h11.499c2.582 0 4.793-.362 6.677-1.03l.004.004zm-63.075 5.647c-2.853 5.953-8.667 10.029-15.369 10.029H62.297c-9.526 0-17.253-8.236-17.253-18.397 0 0-7.85-61.661-5.75-101.185 1.085-20.463 5.75-52.126 5.75-52.126 0-18.989 8.518-35.857 21.706-46.491-8.23 10.2-13.2 23.465-13.2 37.974 0 0-4.666 31.663-5.75 52.125-2.101 39.525 5.75 101.185 5.75 101.185 0 10.161 7.722 18.398 17.252 18.398h11.5c2.37 0 4.712-.515 6.863-1.512z" fill="#199205"/><path fill-rule="evenodd" clip-rule="evenodd" d="M98.402 16.14a4.265 4.265 0 0 0 1.742 4.4c.46.318.978.542 1.524.66 16.266 3.492 26.876 14.457 33.604 27.246 6.762 12.853 9.381 27.183 9.696 36.343.009.238.037.474.085.707a541 541 0 0 1 3.785 20.642c1.284 7.895 2.241 15.258 2.241 19.227 0 10.796-.808 24.181-5.775 35.858a4.256 4.256 0 0 0 2.246 5.587 4.254 4.254 0 0 0 5.579-2.248c5.673-13.343 6.455-28.171 6.455-39.201 0-4.761-1.08-12.789-2.347-20.59a547.803 547.803 0 0 0-3.785-20.642c-.404-10.19-3.274-25.624-10.657-39.656-7.502-14.267-19.885-27.426-39.345-31.6a4.247 4.247 0 0 0-3.199.588 4.258 4.258 0 0 0-1.85 2.68z" fill="#8FF17F"/><path d="M171.449 64.39a34.801 34.801 0 0 0-13.317-18.305 34.723 34.723 0 0 0-21.746-6.224l-30.534 1.622c-17.903.954-30.142 18.504-24.877 35.666a27.594 27.594 0 0 0 10.561 14.517 27.528 27.528 0 0 0 17.246 4.932l41.757-2.227c15.05-.8 25.342-15.557 20.915-29.98h-.005z" fill="#54B0D7"/><path fill-rule="evenodd" clip-rule="evenodd" d="m135.931 31.352-30.534 1.627c-23.423 1.248-39.443 24.214-32.55 46.674a36.11 36.11 0 0 0 13.82 18.994 36.025 36.025 0 0 0 22.566 6.456l41.757-2.227c20.578-1.095 34.646-21.268 28.595-40.99a43.317 43.317 0 0 0-16.58-22.79 43.21 43.21 0 0 0-27.074-7.744zm.455 8.504a34.717 34.717 0 0 1 21.749 6.222 34.801 34.801 0 0 1 13.319 18.308c4.427 14.428-5.865 29.184-20.919 29.985l-41.753 2.227a27.527 27.527 0 0 1-17.246-4.932 27.593 27.593 0 0 1-10.561-14.517c-5.265-17.162 6.974-34.708 24.877-35.666l30.534-1.627z" fill="#000"/><path fill-rule="evenodd" clip-rule="evenodd" d="M169.395 82.762a23.099 23.099 0 0 1-7.949 8.217 23.059 23.059 0 0 1-10.911 3.392l-41.753 2.227a27.527 27.527 0 0 1-17.246-4.932 27.594 27.594 0 0 1-10.562-14.517c-3.53-11.507.808-23.184 9.441-29.92a27.445 27.445 0 0 0-2.925 22.663A27.594 27.594 0 0 0 98.05 84.41a27.528 27.528 0 0 0 17.246 4.933l41.753-2.228a22.968 22.968 0 0 0 12.345-4.352z" fill="#4088A3"/><path d="M164.101 56.559c-2.28-6.844-12.273-13.13-20.855-12.878-8.582.255-8.446-.792-24.559.724-16.118 1.507-20.817 10.101-17.576 19.806 2.279 6.848 9.759 10.434 18.341 10.179 8.578-.247 15.28 1.865 27.243 1.865 11.958 0 20.646-9.987 17.406-19.696z" fill="#71D8F9"/><path fill-rule="evenodd" clip-rule="evenodd" d="m153.172 56.46 1.59-3.947a4.261 4.261 0 0 1 .074 7.87 4.248 4.248 0 0 1-3.255.03h.009l-.051-.021-.277-.099a22.41 22.41 0 0 0-1.195-.391 43.05 43.05 0 0 0-4.665-1.125c-4.01-.74-9.585-1.235-15.845-.268a4.25 4.25 0 0 1-3.163-.774 4.26 4.26 0 0 1 1.866-7.645 56.28 56.28 0 0 1 18.682.31c1.89.345 3.76.796 5.6 1.35.68.208 1.354.435 2.02.682l.128.051.042.017.017.009h.009l-1.586 3.952z" fill="#EDFEFF"/><path fill-rule="evenodd" clip-rule="evenodd" d="M133.49 187.618a4.262 4.262 0 0 0-2.404-2.198 4.262 4.262 0 0 0-3.252.149c-5.048 2.368-11.473 3.586-17.784 4.11-6.256.515-12.09.332-15.765.077a4.247 4.247 0 0 0-4.158 2.331 4.268 4.268 0 0 0 .614 4.733 4.257 4.257 0 0 0 2.957 1.432c5.68.39 11.379.362 17.053-.086 6.749-.562 14.328-1.899 20.694-4.888a4.254 4.254 0 0 0 2.197-2.407 4.276 4.276 0 0 0-.147-3.257l-.005.004z" fill="#000"/><path fill-rule="evenodd" clip-rule="evenodd" d="M84.317 178.619a4.252 4.252 0 0 0-2.863 1.547 4.263 4.263 0 0 0-.934 3.121c.531 5.374.863 10.766.995 16.166.14 6.311-.085 11.992-.88 15.079a4.263 4.263 0 0 0 .463 3.221 4.25 4.25 0 0 0 7.774-1.1c1.118-4.365 1.288-11.149 1.148-17.392a227.994 227.994 0 0 0-1.038-16.839 4.262 4.262 0 0 0-3.012-3.647 4.254 4.254 0 0 0-1.653-.156z" fill="#8FF17F"/></svg>