<svg width="12" height="8" fill="none" xmlns="http://www.w3.org/2000/svg"><path fill-rule="evenodd" clip-rule="evenodd" d="M6 0C2.143 0 0 2.8 0 4c0 1.2 2.143 4 6 4s6-2.8 6-4c0-1.2-2.143-4-6-4zM2.315 5.655C1.59 5.049 1.143 4.31 1.143 4c0-.311.446-1.049 1.172-1.655.96-.801 2.221-1.278 3.685-1.278s2.726.477 3.685 1.278c.725.606 1.172 1.344 1.172 1.655 0 .311-.446 1.049-1.172 1.655-.96.801-2.221 1.278-3.685 1.278s-2.726-.477-3.685-1.278zM6 6.133a2.371 2.371 0 0 1-1.616-.625c-.429-.4-.67-.942-.67-1.508 0-.566.241-1.108.67-1.508.428-.4 1.01-.625 1.616-.625.606 0 1.188.224 1.616.625.429.4.67.942.67 1.508 0 .566-.241 1.108-.67 1.508-.428.4-1.01.625-1.616.625zM7.143 4c0 .283-.12.554-.335.754-.214.2-.505.313-.808.313-.303 0-.594-.113-.808-.313A1.032 1.032 0 0 1 4.857 4c0-.283.12-.554.335-.754.214-.2.505-.313.808-.313.303 0 .594.113.808.313.214.2.335.471.335.754z" fill="#FAFAFA"/></svg>