<svg width="12" height="11" fill="none" xmlns="http://www.w3.org/2000/svg"><path fill-rule="evenodd" clip-rule="evenodd" d="M10.975 10.821a.634.634 0 0 0 .168-.432.634.634 0 0 0-.168-.433L1.833.172A.552.552 0 0 0 1.43 0a.553.553 0 0 0-.4.18.634.634 0 0 0-.167.426.635.635 0 0 0 .16.43l1.093 1.17C.734 3.256 0 4.691 0 5.496c0 1.376 2.143 4.587 6 4.587a6.375 6.375 0 0 0 2.86-.66l1.307 1.398a.553.553 0 0 0 .404.179.553.553 0 0 0 .404-.179zM7.988 8.489 6.974 7.404a2.151 2.151 0 0 1-1.367.198 2.24 2.24 0 0 1-1.225-.68 2.508 2.508 0 0 1-.636-1.311 2.601 2.601 0 0 1 .185-1.464L2.94 3.086c-.219.154-.427.326-.622.513-.728.695-1.174 1.54-1.174 1.897S1.589 6.7 2.315 7.394A5.232 5.232 0 0 0 6 8.86a5.36 5.36 0 0 0 1.988-.371zm2.766-.499C11.572 7.092 12 6.112 12 5.496 12 4.12 9.857.91 6 .91c-.596 0-1.151.076-1.664.211l.983 1.052c.222-.026.449-.04.681-.04 1.464 0 2.726.547 3.685 1.466.725.695 1.172 1.54 1.172 1.897 0 .312-.34.997-.911 1.629l.808.865z" fill="#FAFAFA"/></svg>
