<svg width="181" height="247" fill="none" xmlns="http://www.w3.org/2000/svg"><path d="M121.973 73.044c0-7.95 5.486-14.935 13.358-15.97a70.918 70.918 0 0 1 8.841-.686c1.85 0 3.913.137 6.009.354 9.951 1.022 17.512 8.998 19.077 18.891 1.587 10.03 3.237 22.86 3.237 32.877 0 11.941-2.339 27.868-4.125 38.293-1.132 6.58-6.167 11.78-12.758 12.78-3.802.579-7.987 1.056-11.44 1.056-2.679 0-5.8-.289-8.841-.685-7.867-1.035-13.358-8.023-13.358-15.97V73.04v.004z" fill="#AEBCBB"/><path fill-rule="evenodd" clip-rule="evenodd" d="M113.468 143.984V73.04c0-11.729 8.178-22.763 20.757-24.415 3.207-.422 6.737-.758 9.947-.758 2.237 0 4.61.162 6.881.396 14.217 1.465 24.508 12.776 26.605 26.033C179.257 84.389 181 97.782 181 108.51c0 12.733-2.462 29.286-4.252 39.733-1.714 9.995-9.446 18.171-19.86 19.76-3.934.596-8.616 1.149-12.716 1.149-3.21 0-6.74-.34-9.947-.758-12.579-1.652-20.757-12.686-20.757-24.419v.009zm21.863-86.91c-7.867 1.035-13.357 8.019-13.357 15.97v70.94c0 7.951 5.485 14.939 13.357 15.97 3.041.4 6.162.69 8.841.69 3.453 0 7.638-.477 11.44-1.056 6.591-1.001 11.627-6.201 12.758-12.781 1.786-10.425 4.125-26.352 4.125-38.289 0-10.02-1.65-22.852-3.232-32.88-1.569-9.893-9.131-17.866-19.077-18.892-2.101-.213-4.164-.353-6.014-.353-2.679 0-5.8.28-8.841.681z" fill="#000"/><path fill-rule="evenodd" clip-rule="evenodd" d="M121.973 142.391v1.589c0 7.951 5.486 14.939 13.358 15.97 3.041.4 6.162.689 8.841.689 3.453 0 7.638-.477 11.44-1.056 6.591-1 11.626-6.2 12.758-12.78 1.786-10.425 4.125-26.352 4.125-38.289 0-10.02-1.65-22.852-3.232-32.88a23.627 23.627 0 0 0-3.76-9.561c1.417 9.454 2.739 20.688 2.739 29.665 0 11.937-2.339 27.864-4.125 38.285-1.131 6.584-6.166 11.784-12.758 12.784-3.802.58-7.986 1.057-11.439 1.057-2.68 0-5.801-.29-8.842-.686a14.857 14.857 0 0 1-9.105-4.787z" fill="#899695"/><path fill-rule="evenodd" clip-rule="evenodd" d="M152.482 63.262a4.25 4.25 0 0 1 5.898 1.184l-3.538 2.363c3.538-2.363 3.538-2.363 3.542-2.36l.005.01.012.02.034.048c.147.222.286.45.417.68.255.444.612 1.074 1.025 1.892.829 1.63 1.905 4.011 2.973 7.103 2.13 6.192 4.218 15.246 4.218 26.94a4.26 4.26 0 0 1-1.245 3.011 4.251 4.251 0 0 1-7.26-3.011c0-10.663-1.901-18.78-3.755-24.163a47.805 47.805 0 0 0-2.509-6.022 27.043 27.043 0 0 0-.97-1.746l-.034-.055m0 0 .004.008-.004-.008z" fill="#EDF8F7"/><path d="M26.689 66.775c0-32.174 24.465-58.258 54.638-58.258 30.172 0 54.633 26.084 54.633 58.258 0 0 4.665 31.663 5.75 52.126 2.101 39.524-5.75 101.184-5.75 101.184 0 10.162-7.723 18.398-17.253 18.398h-11.499c-9.526 0-17.253-8.236-17.253-18.398v-28.319a51.698 51.698 0 0 1-23.007-1.316v23.503c0 10.161-1.968 18.397-11.499 18.397H43.95c-12.94 0-16.555-9.113-17.253-19.93-2.879-44.46-11.503-49.059-11.503-75.122 0-26.063 11.503-70.523 11.503-70.523h-.008z" fill="#EDF8F7"/><path fill-rule="evenodd" clip-rule="evenodd" d="M135.956 220.086c0 10.161-7.723 18.397-17.253 18.397h-11.499c-9.526 0-17.253-8.236-17.253-18.397v-28.32a52.045 52.045 0 0 1-8.505.724h-.124a51.899 51.899 0 0 1-14.374-2.04v23.503c0 10.161-1.973 18.397-11.503 18.397h-11.5c-12.94 0-16.555-9.113-17.252-19.93-1.527-23.563-4.665-35.93-7.28-46.227-2.318-9.135-4.223-16.643-4.223-28.895 0-26.063 11.503-70.523 11.503-70.523-.004-32.174 24.457-58.258 54.63-58.258 30.172 0 54.633 26.084 54.633 58.258 0 0 4.665 31.663 5.75 52.126 2.1 39.524-5.75 101.185-5.75 101.185zm8.505-153.95C144.138 30.053 116.479 0 81.322 0 46.315 0 18.75 29.798 18.196 65.677l-.255 1.004A561.318 561.318 0 0 0 12.6 90.59c-2.884 14.416-5.916 32.766-5.916 46.709 0 13.329 2.135 21.727 4.466 30.918l.467 1.831c2.429 9.624 5.189 21.352 6.588 42.927.383 5.911 1.599 12.848 5.618 18.439 4.448 6.188 11.354 9.455 20.123 9.455h11.5c3.627 0 7.14-.797 10.244-2.692 3.113-1.899 5.247-4.557 6.668-7.367 2.65-5.238 3.096-11.584 3.096-16.856v-13.231c1.93.187 3.89.285 5.868.285h.124v19.079c0 14.351 11.035 26.914 25.758 26.914h11.499c14.523 0 25.461-12.222 25.754-26.335l.03-.235.246-2.061a1001.293 1001.293 0 0 0 3.36-33.345c1.71-20.424 3.189-46.206 2.109-66.575-.561-10.548-2.032-23.827-3.338-34.337a987.5 987.5 0 0 0-2.407-17.971l.004-.005z" fill="#000"/><path fill-rule="evenodd" clip-rule="evenodd" d="M26.825 62.644a66.427 66.427 0 0 0-.132 4.131s-3.36 12.968-6.443 29.001a23.065 23.065 0 0 0 18.716 11.37l41.761 2.228a27.527 27.527 0 0 0 17.244-4.934 27.588 27.588 0 0 0 10.56-14.515c5.265-17.162-6.974-34.708-24.878-35.666L53.12 52.632a34.696 34.696 0 0 0-14.205 2.224 34.732 34.732 0 0 0-12.089 7.793v-.005z" fill="#AEBCBB"/><path fill-rule="evenodd" clip-rule="evenodd" d="M28.76 222.807c2.288 5.681 6.762 9.543 15.182 9.543h11.503c9.526 0 11.503-8.236 11.503-18.397V190.45a51.52 51.52 0 0 0 14.374 2.04h.124v-9.242a51.683 51.683 0 0 1-23.007-1.315v23.503c0 10.161-1.969 18.397-11.5 18.397H35.442c-2.582 0-4.793-.362-6.677-1.03l-.004.004zm63.075 5.647c2.853 5.953 8.667 10.029 15.369 10.029h11.499c9.526 0 17.253-8.236 17.253-18.397 0 0 7.85-61.661 5.75-101.185-1.085-20.463-5.75-52.126-5.75-52.126 0-18.989-8.518-35.857-21.705-46.491 8.228 10.2 13.2 23.465 13.2 37.974 0 0 4.665 31.663 5.749 52.125 2.101 39.525-5.749 101.185-5.749 101.185 0 10.161-7.723 18.398-17.253 18.398h-11.5c-2.37 0-4.712-.515-6.863-1.512z" fill="#AEBCBB"/><path fill-rule="evenodd" clip-rule="evenodd" d="M82.598 16.14a4.265 4.265 0 0 1-1.742 4.4 4.25 4.25 0 0 1-1.524.66c-16.266 3.492-26.876 14.457-33.604 27.246C38.966 61.3 36.346 75.63 36.032 84.79a4.277 4.277 0 0 1-.085.707 540.818 540.818 0 0 0-3.785 20.642c-1.284 7.895-2.241 15.258-2.241 19.227 0 10.796.808 24.181 5.775 35.858a4.263 4.263 0 0 1-2.245 5.587 4.245 4.245 0 0 1-3.255.033 4.257 4.257 0 0 1-2.325-2.281c-5.673-13.343-6.455-28.171-6.455-39.201 0-4.761 1.08-12.789 2.347-20.59a546.667 546.667 0 0 1 3.785-20.642c.404-10.19 3.274-25.624 10.657-39.656 7.502-14.267 19.885-27.426 39.345-31.6a4.248 4.248 0 0 1 3.2.588 4.259 4.259 0 0 1 1.848 2.68z" fill="#fff"/><path d="M9.55 64.39a34.803 34.803 0 0 1 13.318-18.305 34.721 34.721 0 0 1 21.746-6.224l30.534 1.622c17.903.954 30.142 18.504 24.878 35.666a27.597 27.597 0 0 1-10.562 14.517 27.53 27.53 0 0 1-17.246 4.932L30.46 94.371c-15.05-.8-25.342-15.557-20.915-29.98h.005z" fill="#54B0D7"/><path fill-rule="evenodd" clip-rule="evenodd" d="m45.069 31.352 30.534 1.627c23.423 1.248 39.443 24.214 32.549 46.674a36.107 36.107 0 0 1-13.82 18.994 36.026 36.026 0 0 1-22.565 6.456l-41.757-2.227C9.432 101.781-4.636 81.608 1.415 61.886a43.315 43.315 0 0 1 16.58-22.79 43.213 43.213 0 0 1 27.074-7.744zm-.455 8.504a34.717 34.717 0 0 0-21.75 6.222A34.8 34.8 0 0 0 9.547 64.386C5.12 78.814 15.411 93.57 30.466 94.371l41.752 2.227a27.528 27.528 0 0 0 17.246-4.932 27.597 27.597 0 0 0 10.562-14.517c5.264-17.162-6.975-34.708-24.878-35.666l-30.534-1.627z" fill="#000"/><path fill-rule="evenodd" clip-rule="evenodd" d="M11.605 82.762a23.098 23.098 0 0 0 7.95 8.217 23.056 23.056 0 0 0 10.91 3.392l41.753 2.227a27.53 27.53 0 0 0 17.246-4.932 27.597 27.597 0 0 0 10.562-14.517c3.529-11.507-.808-23.184-9.441-29.92a27.445 27.445 0 0 1 2.925 22.663A27.593 27.593 0 0 1 82.95 84.41a27.53 27.53 0 0 1-17.246 4.933L23.95 87.114a22.97 22.97 0 0 1-12.345-4.352z" fill="#4088A3"/><path d="M16.9 56.559c2.279-6.844 12.272-13.13 20.854-12.878 8.582.255 8.446-.792 24.56.724C78.43 45.912 83.13 54.506 79.888 64.21c-2.28 6.848-9.76 10.434-18.341 10.179-8.578-.247-15.28 1.865-27.243 1.865-11.958 0-20.646-9.987-17.406-19.696z" fill="#71D8F9"/><path fill-rule="evenodd" clip-rule="evenodd" d="m27.828 56.46-1.59-3.947a4.264 4.264 0 0 0-.074 7.87 4.247 4.247 0 0 0 3.255.03h-.009l.051-.021.277-.099c.255-.093.659-.23 1.195-.391a43.065 43.065 0 0 1 4.665-1.125c4.01-.74 9.585-1.235 15.845-.268a4.249 4.249 0 0 0 3.163-.774 4.26 4.26 0 0 0-1.866-7.645 56.278 56.278 0 0 0-18.681.31c-1.891.345-3.761.796-5.601 1.35-.68.208-1.354.435-2.02.682l-.128.051-.042.017-.017.009h-.009l1.586 3.952z" fill="#EDFEFF"/><path fill-rule="evenodd" clip-rule="evenodd" d="M47.51 187.618a4.252 4.252 0 0 1 5.656-2.049c5.048 2.368 11.473 3.586 17.784 4.11 6.256.515 12.09.332 15.765.077a4.247 4.247 0 0 1 4.158 2.331 4.268 4.268 0 0 1-.614 4.733 4.257 4.257 0 0 1-2.957 1.432c-5.68.39-11.379.362-17.053-.086-6.75-.562-14.327-1.899-20.694-4.889a4.252 4.252 0 0 1-2.447-4.049 4.26 4.26 0 0 1 .398-1.614l.004.004z" fill="#000"/><path fill-rule="evenodd" clip-rule="evenodd" d="M96.683 178.619a4.26 4.26 0 0 1 3.797 4.668 218.659 218.659 0 0 0-.995 16.166c-.14 6.311.085 11.992.881 15.079a4.264 4.264 0 0 1-3.063 5.174 4.248 4.248 0 0 1-5.175-3.053c-1.118-4.365-1.288-11.149-1.148-17.392.145-6.409.63-12.844 1.038-16.839a4.262 4.262 0 0 1 3.012-3.647 4.254 4.254 0 0 1 1.653-.156z" fill="#fff"/></svg>