<svg width="90" height="80" fill="none" xmlns="http://www.w3.org/2000/svg"><path d="M53.029 42.508 48.762 49.9l23.41 13.518 4.265-7.395-23.408-13.515z" fill="#71D8F9"/><path d="M6.815 37.184C9.691 47.918 20.723 54.29 31.459 51.413c10.733-2.876 17.104-13.91 14.228-24.645-2.876-10.732-13.91-17.1-24.643-14.224C10.308 15.42 3.939 26.452 6.815 37.184z" fill="#78909C"/><path d="M31.799 52.681c11.416-3.058 18.215-14.836 15.156-26.253C43.896 15.014 32.12 8.217 20.704 11.276 9.288 14.335 2.488 26.11 5.547 37.524 8.606 48.94 20.383 55.74 31.799 52.68zM21.384 13.812c10.017-2.684 20.35 3.28 23.034 13.296 2.684 10.018-3.282 20.352-13.3 23.037-10.017 2.684-20.35-3.283-23.035-13.301-2.683-10.016 3.283-20.347 13.3-23.032z" fill="#43525B"/><path d="m50.238 47.342 1.313-2.274-7.394-4.269-1.313 2.274 7.394 4.27z" fill="#43525B"/><path d="M72.511 64.687a1.31 1.31 0 0 0 .798-.613l4.265-7.396a1.312 1.312 0 0 0-.48-1.793L53.684 41.371a1.313 1.313 0 0 0-1.794.48l-4.266 7.393a1.313 1.313 0 0 0 .48 1.794l23.41 13.517c.302.175.66.222.996.132zm2.132-8.183-2.953 5.12L50.556 49.42l2.953-5.117 21.134 12.2zM14.39 36.336c.7-.188 1.115-.908.928-1.608-1.403-5.237 1.716-10.64 6.954-12.044a1.313 1.313 0 0 0-.68-2.536c-6.636 1.778-10.59 8.623-8.811 15.26.188.7.908 1.115 1.608.928z" fill="#43525B"/><path d="M59.921 49.983 65.763 37l22.07 6.491c-.324 2.164-.973 6.751-.973 7.79v7.14l-1.948 5.842-5.517 5.842L76.474 74H71.93l-2.272-.65-2.272-3.245-1.623.65-1.623-.65v-2.272H59.921l-1.298-2.272L57 64.263v-2.596l2.921-11.684z" fill="#EDF8F7"/><path d="m65.763 37-2.92 6.491-2.19 4.865a20.004 20.004 0 0 0-1.164 3.357l-.217.866-1.623 6.167-.548 2.464a4.258 4.258 0 0 0-.101.924v.867c0 .794.374 1.543 1.01 2.02.191.143.361.313.505.504l.646.862c.074.099.139.203.194.313a2.05 2.05 0 0 0 1.833 1.133h1.598c.748 0 1.354.607 1.354 1.355 0 .554.338 1.052.852 1.258l.223.09c.352.14.744.14 1.096 0a1.475 1.475 0 0 1 1.748.511l.95 1.33a3.41 3.41 0 0 0 1.76 1.344l.528.176c.204.068.418.103.633.103H75.5c.803 0 1.544-.43 1.942-1.127l.457-.8c.131-.23.286-.445.462-.642l2.332-2.624 1.947-2.272.82-.82a8.696 8.696 0 0 0 2.101-3.4l.272-.815a20 20 0 0 0 1.027-6.325v-4.219l.324-2.92.65-4.545" stroke="#010318" stroke-width="3"/></svg>