<svg xmlns="http://www.w3.org/2000/svg" width="256" height="256"><path style="stroke:none;fill-rule:nonzero;fill:#dd3735;fill-opacity:1" d="M239.91 122.16c-.07-2.87-.222-5.824-.375-8.695-.152-2.871-.222-5.899-.527-8.848-.528-4-1.055-8.09-1.969-12a68.763 68.763 0 0 0-2.95-9.449 113.708 113.708 0 0 0-4.69-10.816A167.289 167.289 0 0 0 219 56.543c-2.344-3.328-5.367-6.047-7.64-9.445a23.254 23.254 0 0 0-5.063-5.145c-3.024-2.402-6.2-4.617-9.375-6.73-2.402-1.664-4.8-3.246-7.41-4.688-2.04-1.137-4.23-2.039-6.352-3.023a32.35 32.35 0 0 0-7.488-3.024 19.12 19.12 0 0 1-1.969-.61c-1.734-.605-3.398-1.284-5.144-1.816-2.649-.796-5.215-1.816-7.934-2.496a72.993 72.993 0 0 0-8.09-1.511c-3.023-.453-6.129-.606-9.152-.903-1.969-.222-3.934-.457-5.824-.527-2.871-.152-5.825-.152-8.696-.227a43.202 43.202 0 0 0-4.383-.152 66.282 66.282 0 0 0-6.578.61c-2.117.222-4.23.609-6.277.906-2.496.3-4.992.453-7.488.758-2.344.304-4.801.761-7.106 1.136-.8.153-1.664.457-2.496.61a48.53 48.53 0 0 0-5.52 1.132 149.663 149.663 0 0 0-9.68 3.329 89.717 89.717 0 0 0-8.616 4c-2.871 1.601-5.598 3.48-8.32 5.296-2.567 1.739-5.141 3.551-7.637 5.52a89.027 89.027 0 0 0-6.883 6.129c-1.207 1.207-2.191 2.648-3.328 4-1.887 2.191-3.781 4.312-5.598 6.574-1.512 1.89-2.875 3.86-4.312 5.824a96.549 96.549 0 0 0-6.809 10.89c-.8 1.513-1.602 3.024-2.344 4.536-1.136 2.274-2.343 4.465-3.398 6.809a28.556 28.556 0 0 0-1.817 5.062 611.661 611.661 0 0 0-3.105 11.2A42.312 42.312 0 0 0 16 110.741a72.134 72.134 0 0 0 .527 9c.075.754-.375 1.664.528 2.274.074 0 0 .304-.078.375a.738.738 0 0 0 .457 1.058c.039.04.062.094.07.153h-.36c-.222.68.528 1.207.223 1.964-.07.153.227.457.375.68a2.72 2.72 0 0 0 0 .754c.172.7.297 1.406.38 2.121 0 .527.452 1.137.605 1.664a.864.864 0 0 1-.153.75c-.453.528-.375.985.305 1.29a.868.868 0 0 1 .379.527 8.4 8.4 0 0 1-.227 1.359c.153.152.227.305.153.457-.07.152-.223.457-.153.61a9.965 9.965 0 0 1 .907 3.925c.039.344.144.676.3.984.157-.007.313.016.457.075l-.457 1.36a6.51 6.51 0 0 1 1.059-.458c.2.922.453 1.828.758 2.719.113.187.27.347.457.457-.078.152-.078.457-.223.527.211 1.34.54 2.656.984 3.938.079 0 .153-.082.223-.082-.223-1.36-.375-2.797-.61-4.16v-.454a.788.788 0 0 1 .227-.082c.102.293.176.598.223.907.61 0 1.512.375 2.121.375.063-.23.137-.457.223-.68-.457-.457-.801-1.137-1.29-1.602.083.348.083.711 0 1.059-.3-.152-.68-.305-1.054-.457.328-.426.68-.828 1.055-1.207 0-.684-.375-1.29-1.438-1.211.453-.152.91-.375 1.438-.527.062.207.136.41.226.609.606-1.059-.305-1.89-.305-2.953a19.453 19.453 0 0 0-.906-3.938c-.375-2.117-.3-5.293-.527-7.406 0-.152-.223-.305-.375-.457-.078.082-.457 1.059-.527 1.137.222 1.816.457 3.633.609 5.449-.074 0-.152 0-.152.07-.305-1.597-.61-3.246-.985-5.062a7.94 7.94 0 0 0-.152 1.054c-.227-.07-.305-.152-.68-.304.305.68.606 1.137.797 1.664a2.489 2.489 0 0 0-1.133-.152v2.12a10.108 10.108 0 0 1-1.36-1.886c-.151-.61-.226-1.207-.378-1.816l.227-.083a3.861 3.861 0 0 1-.227-.75 65.033 65.033 0 0 1-.223-1.816c.07-.07.375-.152.528-.305l-.61-.902c.453.074.907.125 1.364.152 0-.152.07-.226 0-.304-.762-.68-.227-1.29.07-1.89.152-.302.68-.376.8-.68.606-1.133 1.598-2.04 1.598-3.477a21.4 21.4 0 0 1 .305-2.121c.152-1.29.305-2.57.379-3.856a34.69 34.69 0 0 1 .445-4.883c.61-2.644 1.36-5.293 2.192-7.933.609-1.89 1.289-3.703 2.043-5.602a88.548 88.548 0 0 1 3.628-8.695c2.043-4.078 4.387-8 6.657-12 1.441-2.496 2.953-4.8 4.539-7.258 1.582-2.453 3.023-4.797 4.797-6.957a61.824 61.824 0 0 1 8-8.547c3.023-2.718 5.898-5.52 9.152-8a92.532 92.532 0 0 1 13.395-8.652 101.624 101.624 0 0 1 11.91-5.152c2.566-.985 5.367-1.434 8-2.274a31.897 31.897 0 0 1 9.222-1.512c2.043-.074 4-.304 6.051-.527 1.817-.152 3.63-.305 5.598-.527a3.33 3.33 0 0 0-.375.605c-.801 1.207-1.735 2.403-2.567 3.633-.68.984-1.441 2.04-2.12 3.023-1.208 1.602-2.497 3.2-3.633 4.801-1.735 2.496-3.329 5.063-5.145 7.559-1.816 2.496-3.781 4.687-5.672 7.031-2.496 3.25-4.8 6.578-7.336 9.832-2.27 3.106-4.687 6.05-6.879 9.152-1.969 2.723-3.703 5.602-5.601 8.395-2.797 4.16-5.598 8.238-8.39 12.398-2.192 3.2-4.384 6.282-6.657 9.457a1.854 1.854 0 0 1-.61.457c-.152.153-.453.301-.453.454a8.65 8.65 0 0 1-.379 1.511c-.605 1.137-1.207 2.274-1.886 3.328-.375.61-.903 1.137-1.36 1.739-.152-.075-.222-.153-.375-.153.301-.761 1.598-1.207.985-2.343-.38.605-.762 1.136-1.137 1.734l-.906 1.816c.304.223.8.375.304.801a44.59 44.59 0 0 0-.68 1.207c.083 0 .083.074.153.074.223-.304.457-.53.68-.8.07 0 .152.078.222.078a11.07 11.07 0 0 1-1.054 2.12 6.082 6.082 0 0 1-1.602 1.513c.082.074.61.304.684.375.222-.301.3-.153.527-.454.152.223.375-.152.453.07.211-.226.387-.48.531-.75a2.736 2.736 0 0 1 1.512-1.663c.29-.145.555-.332.781-.563 2.274-2.344 4.618-4.613 6.657-7.101 3.203-3.86 6.05-7.868 9.074-11.801 1.285-1.664 2.8-3.328 4.16-4.914.152.082.305.082.375.152-.152 1.602-.305 3.25-.375 4.8-.227 2.802-.379 5.603-.61 8.474-.07 1.136 0 2.27-.07 3.398 0 .305-.226.527-.226.8 0 .755.226 1.602.226 2.345-.226 2.8-.53 5.52-.761 8.32.007.598.136 1.187.375 1.734a2.147 2.147 0 0 0-.375-.3c.39 4.324.441 8.671.152 13.007.305-.082.457-.152.457-.304.11-.528.188-1.063.223-1.602a8.84 8.84 0 0 0 0-1.437v-.754c.187-1.38.261-2.77.222-4.16a14.224 14.224 0 0 1 .153-4.383c.152-.61-.07-1.36.304-2.121v1.136c.09 4.317-.086 8.633-.527 12.926-.07.379.223 1.059-.61.984-.077 0-.152.38-.3.61-.379.754.453 1.734-.305 2.496-.152.152.153.8.223 1.289 0 .152.082.305 0 .375-.305.527-.305.527.152.61.078 1.663.223 3.199.305 4.796h.223c.53-2.902.832-5.847.906-8.797.101 1.23.129 2.47.078 3.703 0 1.97-.078 3.856-.152 5.825a5.602 5.602 0 0 1-.153 1.136 20.06 20.06 0 0 1-.68 3.102 8.545 8.545 0 0 0-.152 2.8v2.872c0 .082.227.305.227.61.07.679-.305 1.359-.082 2.12.082.153-.07.375-.153.528-.097.21-.12.449-.07.68l.223 1.136c0 .07.082.152.152.305.05-.2.078-.406.078-.61 1.29.153.61 1.29 1.211 1.887-.305.152-.527.227-.527.305.105.258.18.523.222.8a16.637 16.637 0 0 1-.152 1.97c0 1.734-.082 3.48-.082 5.144 0 .222.082.453.082.68 0 .222-.082.3-.082.527v1.598h.305a4.057 4.057 0 0 1-.528.68c-.07 0-.304 0-.304-.071v-9.457h-1.11a79.881 79.881 0 0 1-.609 12.855 19.65 19.65 0 0 1-2.191.227c-2.344 0-4.688 0-7.032.07-2.8 0-5.52.082-8.32.082-1.36 0-2.8.153-4.16.153-1.817 0-3.703-.227-5.52-.227-2.8 0-5.52.227-8.32.305-2.04.074-4.082.074-6.129.152-1.36.07-2.719.152-4.082.305-.64.125-1.273.3-1.887.527a6.23 6.23 0 0 0-1.207 0c-.761.152-1.441.61-2.191.762-1.137.222-1.442.527-1.29 1.664v.75a2.272 2.272 0 0 0-.526-.375.275.275 0 0 0-.153.07c.07.227.223.375.305.61.305-.153.68-.528.984-.528h1.055c-.152 0-.223.453-.457.797.61-.223.984-.375 1.36-.527.054.199.077.402.073.61.97-.2 1.965-.25 2.954-.153 2.96.68 5.968 1.137 9 1.36 1.964.151 3.855.226 5.824.304 2.797.152 5.597.305 8.39.305 2.344 0 4.618-.223 6.961-.223 3.246 0 6.504.148 9.75.223.68 0 1.442-.083 2.192-.083h5.52c4.913-.152 9.831-.222 14.745-.375 2.801-.07 5.672-.222 8.473-.304l8.613-.223c3.328-.07 6.657-.07 9.907-.152 2.496 0 4.91-.07 7.406-.153 2.8-.078 5.672-.304 8.472-.457 1.512-.07 3.024-.222 4.536-.375 1.816-.152 3.707-.375 5.52-.457 2.722-.152 5.523-.222 8.241-.375 3.399-.222 6.809-.527 10.282-.605 3.199-.152 6.398-.074 9.597-.152 2.801-.075 5.602-.227 8.473-.305l4.8-.227s3.2-.07 4.802-.222c2.718-.153 5.445-.457 8.167-.528 1.735-.074 3.48 0 5.215-.074 2.801-.078 5.672-.223 8.473-.223 1.055 0 2.191.153 3.55.223-.609.531-.984.8-1.44 1.211.316.094.617.219.906.375 0 .078-.075.152-.075.305-.375 0-.75.078-1.132.078-.215.406-.368.84-.457 1.289h1.359c-.527 0-.984.68-1.512 1.137.078.07.153.07.223.152-.8-.305-1.36-.152-1.664.68a1.7 1.7 0 0 0 .61.07c-.071.227-.153.457-.224.754-.097.16-.148.34-.152.527l-.226-.222a.963.963 0 0 0-.07-.457c-.458.457-1.137.757-.762 1.734-.301.152-.68.305-1.055.527.117.168.219.344.305.532-.68.07-1.36.222-1.207 1.054.3.07.605.223.796.305-.375.152-.75.375-1.132.527-.082.153-.153.528-.305.61-1.059.222-.457.605-.152.98a3.085 3.085 0 0 1-.68.379c.2.055.379.16.527.305a3.907 3.907 0 0 1-.527.3c.144.09.297.168.457.227a22.95 22.95 0 0 0-1.137.902.688.688 0 0 0 .07.375c-.335.32-.64.676-.902 1.059-.238.52-.504 1.023-.8 1.512a27.88 27.88 0 0 1-4.801 5.144 16.74 16.74 0 0 0-2.121 1.887c-1.36 1.289-2.567 2.719-4 3.937-1.887 1.598-3.856 3.024-5.895 4.461-2.496 1.739-4.992 3.48-7.488 5.145-1.36.906-2.871 1.601-4.313 2.402-1.437.797-2.8 1.598-4.23 2.399a21.69 21.69 0 0 1-2.723 1.886c-2.492 1.059-5.14 1.97-7.71 2.954-.224.074-.376.152-.606.222-1.891.801-3.707 1.738-5.602 2.403a44.038 44.038 0 0 1-5.367 1.44c-.656.063-1.313.087-1.969.071-1.289.223-2.566.528-3.855.68-3.328.457-6.657.754-9.985 1.207-1.968.227-3.855.61-5.824.8-1.36.083-2.8-.07-4.16-.07a20.56 20.56 0 0 1-3.023.07c-1.602-.222-3.2-.609-4.801-.902a2.226 2.226 0 0 0-1.207-.074c-.61.305-1.137-.152-1.739 0-.375.074-.75-.222-1.132-.222-.387 0-.68.07-1.059 0a6.893 6.893 0 0 0-2.496-.458 9.714 9.714 0 0 1-2.8-.609l-4-.902a6.817 6.817 0 0 1-1.513-.68 1.446 1.446 0 0 1-.68.223 20.77 20.77 0 0 1-3.78-.75 6.762 6.762 0 0 0-3.204-.754c-.3.074-.527-.078-.797-.078-.226-.305-.457-.907-.68-.907-1.515.083-2.402-1.207-3.706-1.597-.68-.227-1.207-.985-1.887-1.207-1.664-.684-3.023-2.121-4.91-2.348a10.988 10.988 0 0 1-1.89-.605c.183.265.386.52.609.757l-.153.153a326.417 326.417 0 0 0-6.129-3.551c-.304-.078-.527-.375-.757-.527l-2.043-1.36c-.223-.152-.68-.379-.68-.304-.453.527-.902.078-1.207-.075-2.04-1.437-4.383-2.343-6.352-3.933a12.484 12.484 0 0 1-2.398-1.969 11.968 11.968 0 0 0-3.785-2.953c-1.137-.606-2.192-1.285-3.25-1.969a2.004 2.004 0 0 1-1.055-1.664c0-.527-.223-1.055-.902-.75-.305-.457-.61-.984-.985-1.137a7.864 7.864 0 0 1-2.191-1.664c-.684-.605-1.211-1.437-2.043-1.734a9.069 9.069 0 0 1-3.328-2.953c-2.117-2.496-4-5.215-5.977-7.863a5.046 5.046 0 0 0-.68-.61l-.078.082c.375.75.758 1.438 1.137 2.192-.082.07-.226.152-.305.222-.457-.527-.984-1.054-1.44-1.597-.08.078-.153.148-.224.148l5.383 8.754c.457.68.801 1.36 1.29 2.039a1.088 1.088 0 0 1-.305.227 2.994 2.994 0 0 1-1.97-1.442 2.808 2.808 0 0 0-2.948-1.816 12.817 12.817 0 0 1-.38-1.664 6.353 6.353 0 0 1-1.054-.07c1.055 1.663 1.969 3.101 2.953 4.796-.379-.222-.61-.375-.754-.453 1.36 1.438 2.344 3.246 4.082 4.16.375 1.735 2.344 2.567 2.797 4.23l-1.055-.222c-.609-.754-1.289-1.512-1.968-2.344.136.493.367.957.68 1.36a29.137 29.137 0 0 0 2.8 3.246c.375.379.906.527.906 1.21.18-.16.383-.288.606-.378a5.305 5.305 0 0 0-.305.68c.305 0 .531.074.762.074.152.457-.078 1.137.8.984.079 0 .153.07.223.153.375.984.985.984 1.817.605a.59.59 0 0 1 .61.152c.374.801.901.907 1.597.305 0 .375.074.754.074 1.055h.344c0-.153-.074-.375-.074-.75.378.304.609.457.761.605a12.813 12.813 0 0 0 2.496 2.875c1.442 1.207 2.72 2.496 4.078 3.63a58.05 58.05 0 0 0 8.547 5.675c3.63 2.039 7.102 4.23 10.817 6.2a58.372 58.372 0 0 0 14.14 5.062c1.817.375 3.555.753 5.371 1.207 1.598.457 3.2 1.136 4.797 1.511 2.403.532 4.914.985 7.336 1.442l1.664.222v.153c.68 0 1.512-.301 1.664-.078.38.605.68.304 1.137.222a6.493 6.493 0 0 1 1.738-.152c2.082.238 4.18.363 6.278.379.457 0 1.136-.38 1.511.375.153-.082.227-.153.38-.227.3-.078.68-.078.984-.148v.14c-.2.07-.403.122-.61.153.27.058.54.133.801.226-.11.102-.238.176-.379.223a3.3 3.3 0 0 0-.68.375c2.489.57 5.075.57 7.563 0v-.453h.305c.015.16.066.316.148.453 3.434.297 6.89-.14 10.137-1.285.305.375.527.902.984.148.153-.222.528-.3.801-.375a4.165 4.165 0 0 1 2.106-.261c.68.222.902-.38 1.437-.38a14.16 14.16 0 0 0 2.57-.222c.453-.07.903-.305 1.438-.457a.271.271 0 0 0-.07-.223 12.274 12.274 0 0 0-1.602-.152c.906-.457 1.738-.8 2.57-1.207 0 .07.078.07.078.152-.222.07-.375.375-.68.375h1.055c-.222 0-.527.68-.902 1.137l7.64-1.89v-.15c-.304.071-.527.071-.761.15-.07-1.598 1.664-1.055 2.273-1.965-.761.222-1.511.453-2.273.605v-.152c2.57-1.133 5.219-2.27 7.793-3.399 0 .078.078.078.078.153-.453.304-.902.527-1.598.902.329.035.66.086.985.152 0 .227 0 .375-.074.457 1.289-.082.984-1.207 1.363-1.886.223.07.527.222.758.152a20.133 20.133 0 0 0 1.968-.61 25.048 25.048 0 0 0 2.274-.761c1.207-.528 2.344-1.207 3.55-1.817.301-.035.602-.035.903 0a.8.8 0 0 0 .527-.3c.305-.227.61-.68.801-.61a1.712 1.712 0 0 0 2.121-1.207c.078 0 .078-.082.153-.082.359-.289.742-.558 1.136-.8 1.664-.903 3.246-1.813 4.91-2.72.075-.07.223 0 .375 0 .23.02.461-.007.68-.07.984-.457 1.89-.984 2.8-1.511-.222-.082 0-.153-.75-.227v-.16a9.1 9.1 0 0 0 1.438-.375l-.152-.152c1.969-1.97 4.465-3.399 6.356-5.063.246.07.5.121.757.152.063-.199.086-.402.082-.609.286-.414.614-.793.985-1.137 1.664-1.511 3.476-2.8 4.992-4.382a107.132 107.132 0 0 0 6.277-6.81 61.376 61.376 0 0 0 5.145-6.573c2.12-3.25 3.937-6.578 5.824-9.985 1.36-2.402 2.566-4.8 3.938-7.257.152-.223.453-.528.68-.528 2.038-.222 4.077-.375 6.046-.61.504-.136.988-.34 1.441-.605-.226-.379-.378-.8-.609-1.21-.23-.407-.754-.798-1.055-1.286a7.262 7.262 0 0 1-.761-1.289c-.223-.375-.457-.68-.68-1.055a28.703 28.703 0 0 1-1.289-2.57 1.615 1.615 0 0 1-.152-.8c1.363-2.95 1.89-6.126 3.203-9.07a46.312 46.312 0 0 0 2.27-9.68c.527-3.106.8-6.2 1.206-9.305.227-2.192.532-4.313.61-6.504.336-3.317.41-6.656.222-9.985zm-190.1 84.39c-.528-.605-.985-1.284-1.512-1.886l.223-.223c.8.91 1.664 1.817 2.496 2.797a3.554 3.554 0 0 1-1.207-.68zm1.207.68c.222-.07.457-.07.68-.152.226.379.374.8.609 1.29-1.059-.071-1.602-.528-1.29-1.138zm78.64 31.204v-.196l4.23-.453v.223a40.35 40.35 0 0 1-4.23.457zm19.055-1.97c-1.055.224-2.191.376-3.246.528-.375.078-.8.457-.985-.222-.152.07-.304.07-.457.152.375 1.133 1.29.223 2.04.68-1.665.222-3.247.375-4.797.605v-.152l1.437-.223v-.23a22.11 22.11 0 0 0-2.27-.153c-.226 0-.53.305-.753.375a3.83 3.83 0 0 1-.985.153c-1.289.07-2.566.07-3.785.152-.07 0-.222-.082-.3-.082v-.223l15.117-2.039c.074.153.074.305.152.453-.387.032-.766.11-1.137.227zm1.137-.76c1.738-.224 3.328-.376 4.992-.606-3.48.98-4.617 1.132-4.992.605zM84 83.07c2.398-3.328 4.91-6.656 7.336-10.054.754-.985 1.36-2.04 2.121-3.024.27-.289.57-.547.902-.762l-.078-.152c.278-.305.531-.633.75-.98.348-.637.649-1.293.906-1.97.079-.12.18-.226.301-.304 1.059.528 1.059-.61 1.442-.984.68-.75 1.36-1.602 1.968-2.344.473-.574.903-1.18 1.29-1.816.07-.223-.153-.61-.227-.903h-.223c.223-.152.457-.379.68-.53.078 0 .078 0 .152-.071.457-.68.903-1.36 1.36-1.969a32.56 32.56 0 0 1 2.953-3.48c-.153.378-.305.761-.457 1.058.07 0 .07.078.152.078.902-1.207 1.887-2.343 2.8-3.55-.081-.075-.151-.153-.226-.153-.375.375-.68.75-1.054 1.137-.078-.074-.153-.152-.223-.152.758-.985 1.512-1.97 2.27-3.106.226.367.43.746.609 1.137.305-.762.61-1.29.8-1.817-.226.227-.527.457-.753.68l-.23-.238 1.359-2.04c1.441-2.042 2.87-4.16 4.312-6.202.528-.758 1.207-1.36 1.664-2.118a80.23 80.23 0 0 1 5.45-7.793c.414-.515.867-.996 1.359-1.441.375-.453.68-.305.984.082 2.04 2.566 4.078 5.215 6.125 7.79 1.516 1.89 3.028 3.706 4.465 5.675 1.738 2.398 3.402 4.797 5.145 7.254 1.968 2.8 3.937 5.601 5.824 8.472 2.87 4.23 5.601 8.473 8.472 12.704 2.122 3.105 4.23 6.129 6.282 9.222h-3.86c-3.55-.078-7.199-.375-10.734-.222-4.8.222-9.754.754-14.594 1.136-6.125.528-12.328.61-18.445.61-2.192 0-4.387.3-6.578.453-2.649.152-5.215.305-7.864.379-3.101.148-6.128.222-9.222.3-1.738.083-3.555 0-5.45 0zm86.719 34.785v.68c-.07 0-.153.074-.305.074-.3-1.058-.605-2.195-.98-3.25a25.618 25.618 0 0 0-2.954-6.351c-1.511-2.121-2.87-4.313-4.382-6.504a12.507 12.507 0 0 0-1.364-1.442 26.436 26.436 0 0 0-5.214-4.796 61.262 61.262 0 0 0-9.458-4.801 22.573 22.573 0 0 1-2.648-1.36h1.816l12.93-.226c2.8-.078 5.52-.078 8.32-.223a1.489 1.489 0 0 1 1.442.801 80.598 80.598 0 0 0 2.117 3.398c.121.184.2.391.227.61 0 1.664 0 3.398.07 5.062.07 1.664.223 3.403.305 5.145.078 1.742-.153 3.55-.082 5.367.082 2.57.152 5.219.152 7.863zM89.359 92.52c3.551-.153 6.961-.375 10.403-.528 2.718-.152 5.52-.222 8.238-.375a16.339 16.339 0 0 1 3.328 0 25.443 25.443 0 0 0-3.48 1.969c-1.36.902-2.649 2.117-4 3.102a22.978 22.978 0 0 0-3.703 3.48c-1.442 1.734-3.024 3.246-4.536 4.91a48.723 48.723 0 0 0-3.203 3.633c-1.285 1.664-2.398 3.48-3.629 5.367.375-7.2.797-14.285.528-21.55zm49.375 72.746a61.42 61.42 0 0 1-7.406 1.597c-2.16.227-4.332.301-6.504.227-1.969 0-3.855-.074-5.824-.227a19.697 19.697 0 0 1-6.504-1.437c-1.816-.801-3.703-1.602-5.52-2.496a14.684 14.684 0 0 1-4.992-3.633 29.443 29.443 0 0 0-3.55-3.25 3.55 3.55 0 0 0 1.597 2.191c-.375.457-.902.227-1.664-.98a5.135 5.135 0 0 1-.605.3c.222-.527.453-1.054.68-1.511-.305-.606-.68-1.285-.985-1.887a57.023 57.023 0 0 1-1.738-3.023c-.153-.227-.153-.457-.305-.68-.375-.437-.727-.89-1.055-1.36a30.8 30.8 0 0 0-1.886-2.8c0 .223.07.457.07.75a.267.267 0 0 0-.152.074l-1.598-3.855c-.082 0-.082 0-.152.078L92 148.336c-.078 0-.152.078-.223.078a4.243 4.243 0 0 1-.609-.98c-.152-.61-.61-.61-.984-.38a1.045 1.045 0 0 0-.305.907c.527 1.285 1.137 2.566 1.738 3.855.14.442.32.871.528 1.29.078.152.304.3.304.527.254.601.559 1.18.903 1.734.68.906 1.441 1.817 2.12 2.723.68.902 1.29 1.887 1.887 2.797.082.152.305.152.375.226.38 1.133 1.664 1.965 2.57 1.512.223 1.734 2.122 2.344 2.872 4-.903-.379-1.602-.68-2.192-.984-.074.078-.074.152-.152.304.906.434 1.79.914 2.648 1.438.758.437 1.493.918 2.192 1.441a6.972 6.972 0 0 0 3.258 1.602.86.86 0 0 0-.153-.305c2.118.984 4.313 2.04 5.977 2.871-7.867.153-16.258.305-24.953.457 0-1.441-.074-2.8-.074-4.234a13.53 13.53 0 0 0 .074-1.735c-.227-3.48-.227-6.96-.68-10.359a74.11 74.11 0 0 1-.379-10.816c.074-1.97-.078-4-.148-5.977 0-2.648 0-5.215.07-7.863.031-.371.133-.727.305-1.059h.222c.075.153 0 .38.153.457.222.227.61.61.761.528.454-.301 1.133-.606 1.286-1.055.359-.89.539-1.84.53-2.8a2.71 2.71 0 0 1 .606-1.599c.141-.246.266-.496.375-.753-.3-.223-.605-.375-.98-.68.3-.8.223-1.817 1.36-2.274.152-.078.152-.453.222-.68.07-.605.152-1.284.223-1.886.109.168.234.32.378.457a.96.96 0 0 1 .153-.226c0-.301-.074-.903 0-.903.902-.152.527-1.137.98-1.601.075-.07-.078-.301-.078-.454 0-.152 0-.378.078-.378 1.059-.223.907-1.36 1.602-1.887.222-.152.305-.375.61-.75.605 1.055-.458 1.598-.528 2.344 1.285-.762 1.664-2.57.902-3.106.301-.23.57-.5.801-.8.8-.903 1.734-1.735 2.496-2.65.527-.679.8-1.51 1.36-2.19a4.24 4.24 0 0 1 1.359-.903 9.273 9.273 0 0 0 3.48-2.875c.188-.168.39-.32.61-.453.222-.152.68-.152.75-.379.074-.222-.153-.527-.305-.75.305-.152.61-.457 1.21-.754-.226.457-.304.754-.456 1.059l.375.375c.68-.528 1.734-1.137 2.398-1.602 0-.07-.375-.375-.375-.375-.457.227-1.136.61-1.816.907.152-.227.152-.38.227-.457a27.428 27.428 0 0 1 3.246-1.887 501.437 501.437 0 0 1 7.937-3.555 3.677 3.677 0 0 1 1.598-.07 1.72 1.72 0 0 0 .61-.074c1.206-.375 2.398-.75 3.632-1.055a6.304 6.304 0 0 1 1.664-.223c2.27.07 4.535.07 6.809.223.953.086 1.894.289 2.796.61a27.33 27.33 0 0 1 3.403 1.437 38.22 38.22 0 0 1 3.703 2.273c2.191 1.442 4.23 3.024 6.398 4.313a16.996 16.996 0 0 1 5.145 4.992 23.132 23.132 0 0 1 4.312 7.336l1.137 4.992c.406.898.586 1.887.527 2.871-.375 1.887-.68 3.856-.984 5.742a7.771 7.771 0 0 0-.223 2.266c-.023 2.27-.593 4.5-1.664 6.504-.304.68-.761 1.36-1.136 2.12.187.13.39.235.609.306l.68-1.364c.07 0 .07 0 .152.082-.379 1.055-.68 2.192-1.059 3.246-.902 2.344-1.816 4.801-2.949 7.036a36.757 36.757 0 0 1-2.402 3.55c-.758 1.055-1.36 2.192-2.117 3.2a10.777 10.777 0 0 1-2.266 2.273 58.43 58.43 0 0 1-6.351 4.23 15.915 15.915 0 0 1-4.465 1.665zm-40.3-4-.075.07a1.975 1.975 0 0 1-.527-.305L96 158.312a.884.884 0 0 1-.152-.761c.8 1.289 1.664 2.496 2.566 3.707zm47.03 10.359a30.715 30.715 0 0 0 8.802-5.824 8 8 0 0 1 1.207-1.059 26.518 26.518 0 0 0 7.64-7.71 105.661 105.661 0 0 0 5.977-11.11 8.45 8.45 0 0 1 .453-.8c.016 8.57.672 17.124 1.969 25.597l-26.016.906zm76.68-2.266c-.082.153-.222.305-.304.457a5.028 5.028 0 0 1-.153-.68c-.457 1.208-1.44.606-2.12.606-4.079.074-8.239.074-12.329.074-3.933 0-7.933 0-11.87.079-1.29 0-2.65.304-3.934.378-3.106.153-6.204.223-9.305.301-.227 0-.457-.375-.8-.68a4.7 4.7 0 0 1-.458.68c-.07-.148-.223-.3-.375-.527-.062.207-.137.41-.223.61H180a21.884 21.884 0 0 1-.457-3.106c0-2.27.227-4.535.305-6.809.074-1.054 0-2.039 0-3.023l.8.61a6.34 6.34 0 0 1 .457-.763 1.223 1.223 0 0 1-.304-.222c.152-.07.304-.223.304-.305.094-.191.168-.398.223-.605a8.137 8.137 0 0 0-.223-1.442.276.276 0 0 0 .223-.07l.457 2.262h.223c-.305-.528.68-.985-.153-1.598-.07-.074.083-.531.083-.754a14.783 14.783 0 0 1-.61-1.512c.164-.101.34-.18.527-.222a7.489 7.489 0 0 0-.75-.38c.75-.679.75-1.054.079-1.816.152-.07.304-.07.304-.148a9.423 9.423 0 0 0-.152-2.043c-.152-.75.223-1.664-.902-2.117.07.215.171.422.3.605-.16.059-.312.133-.453.227-.984-.906-.379-2.121-.61-3.48.438.128.868.277 1.29.452-.152-.527-.527-1.132-.754-1.812h-.305v-4.984c0 .07.532.07.801.152 0-.074.074-.152.074-.227-.226-.304-.53-.605-.8-.984l.152-.152a2.7 2.7 0 0 1-.305-2.04v-5.296c.75.754-.375 1.738.75 2.191v-.766h-.07c-.078-1.136-.078-2.273-.152-3.402h-.153c-.07.152-.07.227-.152.379h-.152c.152-5.977.304-11.945.457-18.074a23.111 23.111 0 0 1 2.12 2.875 78.501 78.501 0 0 0 6.13 8.797c1.812 2.496 3.476 5.218 5.14 7.793 2.043 3.105 4 6.199 6.051 9.304a232.83 232.83 0 0 0 4.687 6.961c1.442 2.04 2.954 4 4.465 5.977 1.285 1.734 2.649 3.476 3.926 5.215a486.084 486.084 0 0 0 4.535 6.28c.754 1.056 1.602 2.118 2.403 3.2a9.158 9.158 0 0 0 1.597 1.438.542.542 0 0 1-.3-.078c.16.238.335.464.527.68.8.456.902.902.457 1.6zM226 150.457v-.527c0 .148.07.375 0 .527zm2.566-33.344a4.1 4.1 0 0 1-.605-.527c-.082.223 0 .453-.152.75-.075-.223-.61-.152-.61-.375-.078 1.055.457 2.117.375 3.2.227-.153 1.137-.224 1.363-.458a.555.555 0 0 0 .301.152c-1.511 1.137-1.133 2.274-.453 3.551.153.305.606.906.153 1.516-.153.148.078.605.152.98h.222v.153l-.68.226c-.152-.226-1.058-.68-1.058-1.058v3.855c.754.227.754 1.29 1.059 1.817a2.32 2.32 0 0 0 .304-.606l.079.07a8.89 8.89 0 0 1-.305 1.36 18.8 18.8 0 0 0-.375 1.969c0 .074.152.222.152.304a22.647 22.647 0 0 0-.68 5.977c-.222 1.437 0 2.953-.152 4.465a35.456 35.456 0 0 1-.754 3.933c-.07.227-.222.305-.605.457a6.07 6.07 0 0 0-.082-2.344c-.07 0-1.055-.527-1.137-.527a26.27 26.27 0 0 0 .8 3.703c-.222-.07-1.136-.61-1.206-.61-.152.907-.152 2.122-.223 3.106-.082.75-.762 1.442-.8 2.274 0 .453.527.75.456 1.512h.606c0-1.512.68-2.875.68-4.465h.21c.07.152.301.304.223.375a10.043 10.043 0 0 0-.375 2.566c0 .457.375.906.223 1.441a7.436 7.436 0 0 0-.305 1.602c-.07-.246-.125-.5-.152-.754l-.8-.07c-.071.457.53.902.456 1.289-.078.078-.152.078-.305.148l-2.496-3.629c-1.965-2.875-3.933-5.746-5.894-8.699a18.196 18.196 0 0 1-1.36-2.27 106.84 106.84 0 0 0-7.793-11.57c-2.191-2.797-3.933-5.824-5.976-8.797-1.887-2.8-3.781-5.52-5.672-8.32-.68-.906-1.512-1.738-2.117-2.722-1.969-3.102-3.707-6.278-5.672-9.376-1.664-2.566-3.48-5.062-5.219-7.558-.605-.8-1.207-1.738-1.816-2.649a1.144 1.144 0 0 1-.153-.527c-.152-1.664-.3-3.328-.375-4.914-.07-1.582.153-3.023.153-4.613v-1.364c0-.374.07-.68.07-1.054.074-.078.152-.223.227-.305-2.192 0-4.465-.07-6.657 0a3.67 3.67 0 0 1-3.199-1.598 125.44 125.44 0 0 1-7.488-10.402c-2.344-3.328-4.8-6.574-7.2-9.832-1.968-2.648-3.929-5.215-5.898-7.863-2.191-3.024-4.312-6.047-6.574-9.07-2.723-3.633-5.52-7.258-8.32-10.891-1.29-1.664-2.723-3.246-4.16-4.992.984.152 1.886.304 2.8.379l3.63.222c2.722.223 5.448.375 8.167.758 2.274.305 4.54.762 6.883 1.137a97.47 97.47 0 0 1 14.672 3.785c2.8.902 5.52 2.121 8.238 3.25 6.078 2.516 12 5.394 17.738 8.613a17.824 17.824 0 0 1 4.23 4c1.97 2.04 3.938 4.082 5.825 6.2 2.192 2.496 4.23 5.066 6.352 7.64 1.886 2.273 3.855 4.535 5.746 6.809a23.97 23.97 0 0 1 1.597 2.273c1.208 1.817 2.57 3.55 3.633 5.52a31.237 31.237 0 0 1 1.735 4.687c.754 2.344 1.511 4.617 2.273 6.961.527 1.734.984 3.55 1.36 5.367.304 1.207.222 2.496.609 3.703.457 1.602 0 3.329.457 4.914.07.153.148.375.223.528.304.304.527.605.078 1.054a.821.821 0 0 0 0 .61c.144-.164.27-.34.379-.528 0 .153.07.223.07.301-.04.301-.04.606 0 .907.043.187.117.367.223.527.195-.164.398-.317.609-.457.59 2.555.844 5.176.754 7.793a17.652 17.652 0 0 1-.61 7.406c.223-.797-.304-1.598-.082-2.344zm0 0"/><path style="stroke:none;fill-rule:nonzero;fill:#dd3735;fill-opacity:1" d="M180.504 146.754a.25.25 0 0 1 .152.078l-.082-.078c0-.074 0-.074-.07 0zm11.945 74.71a7.095 7.095 0 0 1-2.722 1.36c-.07-.07-.07-.152-.153-.222.801-.532 1.738-1.059 2.57-1.602.07.152.223.305.305.457zM50.664 119a86.85 86.85 0 0 1 2.566-3.2c.075.071.68.223.762.305-.8 1.055-1.969 2.497-2.8 3.63-.153-.15-.376-.68-.528-.75zm-21.473 37.055c-.605-1.285-1.207-2.649-1.816-3.934.21-.133.441-.234.68-.305a25.859 25.859 0 0 1 1.816 3.938 5.884 5.884 0 0 1-.68.3zm19.282-36.293c-.457.68-.907 1.437-1.36 2.117-.074-.07-.906.305-.984.226.457-.68 1.598-1.89 2.039-2.57.086.094.191.168.305.227zm135.879 104.797c.082 0 .082-.079.152-.079.574.09 1.156.141 1.734.153-.98.68-1.597.605-1.886-.074zM48.625 122.929a3.09 3.09 0 0 1 .375-.683c.129-.008.254-.031.375-.07.305-.528.305-.903.61-1.36-.075-.074-.153-.074-.223-.152-.457.305-.907.68-1.364.984.114.09.172.23.153.375-.606-.07-.797.223-1.137 1.055-.078.227-.453.305-.797.61-.074.152-.152.527-.304.906l.078.078c-.11.098-.235.176-.375.223-.457.457-.985.8-1.442 1.289a2.141 2.141 0 0 0-.148.68c.527-.528 1.437-1.512 2.117-2.122l.074.074c.305-.457.528-.906.797-1.359.074.07.074.152.152.223-.222.61-.453 1.289-.68 1.886-.152.075-.374.227-.374.153-.305.226-.528.527-.801.761l-1.36.903c-.757.68-1.511 1.289-2.343 1.969-.528.8-1.055 1.601-1.664 2.57.902-.227 1.136.148 1.054.902 1.059.153 1.137-.68 1.442-1.289.082-.152.152-.457.305-.527.68-.61 1.44-1.137 2.19-1.735.13-.203.185-.445.153-.68 0-.073-.375-.073-.61-.152.68-.761 1.665-2.043 2.345-2.875.379-.222.754-.527.754-.757-.082-.801.457-1.055 1.054-1.36a.81.81 0 0 1-.375-.527zm0 0"/><path style="stroke:none;fill-rule:nonzero;fill:#dd3735;fill-opacity:1" d="M50.137 122.098c-.305.527-.61.98-.907 1.511l-.43-.226a4.499 4.499 0 0 1-2.402 3.555c.235.16.516.238.801.222.227-.07.375-.457.528-.68l2.043-2.953.628-1.129-.3-.3zm-25.184 33.199c.375 0 .758.078 1.207.078 0-.305.375-.223.375-.527h.227c0 .375.078.68.078 1.054h-1.602c-.078-.078-.375-.527-.3-.605zm-.61-3.48c-.222-.223-.609-.458-.609-.68 0-.227.153-.68.38-1.059.152.531.222.984.374 1.516-.082.07-.152.148-.152.222zm1.887-4.801c.305.761.61 1.601.907 2.343-.219.07-.422.172-.61.305-.304-.754-.68-1.601-.984-2.344.203-.144.437-.25.68-.304zm168.32 72.289a11.49 11.49 0 0 1 1.442-.375c-.582.418-1.137.87-1.664 1.36-.082-.083-.152-.153-.223-.153.153-.305.301-.528.454-.801zM101.603 59.488a16.95 16.95 0 0 1 1.285-.8l.152.152c-.453.61-.8 1.207-1.36 1.969-.07-.528-.07-.801-.152-1.207-.07 0 0 0 .082-.075zm22.152 38.266 2.191-.984a5.621 5.621 0 0 0-.082 1.054 2.64 2.64 0 0 0-.758-.152c-.457.07-1.289.68-1.664.754-.082 0 .301-.61.301-.684zm56.71 64.117c.153.754 1.599 1.137.153 1.89.223.15.453.223.68.376a.61.61 0 0 1-.152.304c-.153.079-.458.223-.61.153-.152-.074-.222-.305-.222-.457 0-.68.078-1.36.152-2.274zm0 0"/></svg>