<?xml version="1.0" encoding="UTF-8"?>
<svg xmlns="http://www.w3.org/2000/svg" xmlns:xlink="http://www.w3.org/1999/xlink" width="182px" height="50px" viewBox="0 0 181 50" version="1.1">
<defs>
<filter id="alpha" filterUnits="objectBoundingBox" x="0%" y="0%" width="100%" height="100%">
  <feColorMatrix type="matrix" in="SourceGraphic" values="0 0 0 0 1 0 0 0 0 1 0 0 0 0 1 0 0 0 1 0"/>
</filter>
<mask id="mask0">
  <g filter="url(#alpha)">
<rect x="0" y="0" width="181" height="50" style="fill:rgb(0%,0%,0%);fill-opacity:0.701961;stroke:none;"/>
  </g>
</mask>
<clipPath id="clip1">
  <rect x="0" y="0" width="181" height="50"/>
</clipPath>
<g id="surface5" clip-path="url(#clip1)">
<path style=" stroke:none;fill-rule:nonzero;fill:rgb(16.862745%,16.862745%,16.862745%);fill-opacity:1;" d="M 45.25 45.210938 C 45.25 42.863281 35.121094 40.957031 22.625 40.957031 C 10.128906 40.957031 0 42.863281 0 45.210938 C 0 47.5625 10.128906 49.46875 22.625 49.46875 C 35.121094 49.46875 45.25 47.5625 45.25 45.210938 Z M 45.25 45.210938 "/>
</g>
<mask id="mask1">
  <g filter="url(#alpha)">
<rect x="0" y="0" width="181" height="50" style="fill:rgb(0%,0%,0%);fill-opacity:0.701961;stroke:none;"/>
  </g>
</mask>
<clipPath id="clip2">
  <rect x="0" y="0" width="181" height="50"/>
</clipPath>
<g id="surface8" clip-path="url(#clip2)">
<path style=" stroke:none;fill-rule:nonzero;fill:rgb(16.862745%,16.862745%,16.862745%);fill-opacity:1;" d="M 181 45.210938 C 181 42.863281 170.871094 40.957031 158.375 40.957031 C 145.878906 40.957031 135.75 42.863281 135.75 45.210938 C 135.75 47.5625 145.878906 49.46875 158.375 49.46875 C 170.871094 49.46875 181 47.5625 181 45.210938 Z M 181 45.210938 "/>
</g>
<mask id="mask2">
  <g filter="url(#alpha)">
<rect x="0" y="0" width="181" height="50" style="fill:rgb(0%,0%,0%);fill-opacity:0.701961;stroke:none;"/>
  </g>
</mask>
<clipPath id="clip3">
  <rect x="0" y="0" width="181" height="50"/>
</clipPath>
<g id="surface11" clip-path="url(#clip3)">
<path style=" stroke:none;fill-rule:nonzero;fill:rgb(16.862745%,16.862745%,16.862745%);fill-opacity:1;" d="M 90.5 45.746094 C 90.5 43.394531 80.371094 41.488281 67.875 41.488281 C 55.378906 41.488281 45.25 43.394531 45.25 45.746094 C 45.25 48.09375 55.378906 50 67.875 50 C 80.371094 50 90.5 48.09375 90.5 45.746094 Z M 90.5 45.746094 "/>
</g>
<mask id="mask3">
  <g filter="url(#alpha)">
<rect x="0" y="0" width="181" height="50" style="fill:rgb(0%,0%,0%);fill-opacity:0.701961;stroke:none;"/>
  </g>
</mask>
<clipPath id="clip4">
  <rect x="0" y="0" width="181" height="50"/>
</clipPath>
<g id="surface14" clip-path="url(#clip4)">
<path style=" stroke:none;fill-rule:nonzero;fill:rgb(16.862745%,16.862745%,16.862745%);fill-opacity:1;" d="M 135.75 45.210938 C 135.75 42.863281 125.621094 40.957031 113.125 40.957031 C 100.628906 40.957031 90.5 42.863281 90.5 45.210938 C 90.5 47.5625 100.628906 49.46875 113.125 49.46875 C 125.621094 49.46875 135.75 47.5625 135.75 45.210938 Z M 135.75 45.210938 "/>
</g>
</defs>
<g id="surface1">
<use xlink:href="#surface5" mask="url(#mask0)"/>
<path style=" stroke:none;fill-rule:nonzero;fill:rgb(87.45098%,79.215686%,4.705882%);fill-opacity:1;" d="M 15.382812 14.902344 C 15.382812 13.492188 14.414062 12.253906 13.023438 12.070312 C 12.503906 11.996094 11.980469 11.957031 11.457031 11.949219 C 11.132812 11.949219 10.765625 11.972656 10.398438 12.011719 C 8.636719 12.191406 7.300781 13.605469 7.023438 15.359375 C 6.746094 17.140625 6.453125 19.414062 6.453125 21.191406 C 6.453125 23.308594 6.867188 26.128906 7.183594 27.980469 C 7.382812 29.144531 8.273438 30.066406 9.4375 30.246094 C 10.109375 30.347656 10.847656 30.433594 11.457031 30.433594 C 11.933594 30.433594 12.484375 30.382812 13.023438 30.3125 C 14.414062 30.128906 15.382812 28.886719 15.382812 27.480469 Z M 15.382812 14.902344 "/>
<path style=" stroke:none;fill-rule:evenodd;fill:rgb(0%,0%,0%);fill-opacity:1;" d="M 16.886719 27.480469 L 16.886719 14.902344 C 16.886719 12.820312 15.441406 10.863281 13.21875 10.570312 C 12.648438 10.496094 12.027344 10.4375 11.457031 10.4375 C 11.0625 10.4375 10.644531 10.464844 10.242188 10.507812 C 7.730469 10.765625 5.910156 12.773438 5.539062 15.125 C 5.257812 16.914062 4.949219 19.289062 4.949219 21.191406 C 4.949219 23.449219 5.382812 26.382812 5.699219 28.234375 C 6.003906 30.007812 7.371094 31.457031 9.210938 31.738281 C 9.90625 31.84375 10.734375 31.941406 11.457031 31.941406 C 12.027344 31.941406 12.648438 31.882812 13.21875 31.808594 C 15.441406 31.515625 16.886719 29.558594 16.886719 27.476562 Z M 13.023438 12.070312 C 14.414062 12.253906 15.382812 13.492188 15.382812 14.902344 L 15.382812 27.480469 C 15.382812 28.890625 14.414062 30.128906 13.023438 30.3125 C 12.484375 30.382812 11.933594 30.433594 11.457031 30.433594 C 10.847656 30.433594 10.109375 30.347656 9.4375 30.246094 C 8.273438 30.070312 7.382812 29.148438 7.183594 27.980469 C 6.867188 26.132812 6.453125 23.308594 6.453125 21.191406 C 6.453125 19.414062 6.746094 17.140625 7.023438 15.363281 C 7.300781 13.605469 8.636719 12.195312 10.394531 12.011719 C 10.765625 11.972656 11.132812 11.949219 11.457031 11.949219 C 11.933594 11.949219 12.484375 12 13.019531 12.070312 Z M 13.023438 12.070312 "/>
<path style=" stroke:none;fill-rule:evenodd;fill:rgb(80.392157%,72.54902%,2.745098%);fill-opacity:1;" d="M 15.382812 27.195312 L 15.382812 27.480469 C 15.382812 28.886719 14.414062 30.128906 13.023438 30.308594 C 12.484375 30.382812 11.933594 30.433594 11.457031 30.433594 C 10.847656 30.433594 10.109375 30.347656 9.4375 30.246094 C 8.273438 30.066406 7.382812 29.144531 7.183594 27.980469 C 6.867188 26.128906 6.453125 23.308594 6.453125 21.191406 C 6.453125 19.414062 6.746094 17.136719 7.023438 15.359375 C 7.117188 14.753906 7.34375 14.175781 7.6875 13.664062 C 7.4375 15.339844 7.203125 17.332031 7.203125 18.925781 C 7.203125 21.042969 7.617188 23.867188 7.933594 25.714844 C 8.132812 26.878906 9.023438 27.800781 10.1875 27.980469 C 10.859375 28.082031 11.601562 28.167969 12.210938 28.167969 C 12.683594 28.167969 13.234375 28.117188 13.773438 28.046875 C 14.394531 27.964844 14.964844 27.664062 15.382812 27.195312 Z M 15.382812 27.195312 "/>
<path style=" stroke:none;fill-rule:evenodd;fill:rgb(100%,95.294118%,51.764706%);fill-opacity:1;" d="M 9.988281 13.167969 C 9.824219 13.054688 9.621094 13.015625 9.425781 13.054688 C 9.230469 13.09375 9.058594 13.210938 8.949219 13.375 L 9.574219 13.796875 C 8.949219 13.375 8.949219 13.375 8.945312 13.378906 L 8.945312 13.382812 L 8.9375 13.390625 C 8.910156 13.429688 8.886719 13.472656 8.863281 13.511719 C 8.800781 13.621094 8.738281 13.734375 8.683594 13.847656 C 8.535156 14.136719 8.347656 14.558594 8.15625 15.105469 C 7.78125 16.203125 7.410156 17.808594 7.410156 19.882812 C 7.410156 20.300781 7.75 20.636719 8.164062 20.636719 C 8.578125 20.636719 8.914062 20.300781 8.914062 19.882812 C 8.914062 17.992188 9.25 16.554688 9.578125 15.597656 C 9.703125 15.234375 9.851562 14.875 10.023438 14.53125 C 10.074219 14.425781 10.132812 14.324219 10.195312 14.222656 L 10.199219 14.210938 M 10.199219 14.210938 L 10.199219 14.214844 Z M 10.199219 14.210938 "/>
<path style=" stroke:none;fill-rule:nonzero;fill:rgb(87.843137%,84.313725%,0%);fill-opacity:1;" d="M 32.226562 13.789062 C 32.226562 8.085938 27.902344 3.460938 22.566406 3.460938 C 17.234375 3.460938 12.910156 8.085938 12.910156 13.789062 C 12.910156 13.789062 12.085938 19.402344 11.894531 23.03125 C 11.523438 30.039062 12.910156 40.972656 12.910156 40.972656 C 12.910156 42.773438 14.273438 44.234375 15.960938 44.234375 L 17.992188 44.234375 C 19.675781 44.234375 21.042969 42.773438 21.042969 40.972656 L 21.042969 35.953125 C 22.398438 36.179688 23.789062 36.101562 25.109375 35.71875 L 25.109375 39.886719 C 25.109375 41.6875 25.457031 43.148438 27.140625 43.148438 L 29.175781 43.148438 C 31.460938 43.148438 32.101562 41.53125 32.222656 39.613281 C 32.730469 31.730469 34.257812 30.914062 34.257812 26.292969 C 34.257812 21.671875 32.222656 13.789062 32.222656 13.789062 Z M 32.226562 13.789062 "/>
<path style=" stroke:none;fill-rule:evenodd;fill:rgb(0%,0%,0%);fill-opacity:1;" d="M 12.910156 40.972656 C 12.910156 42.773438 14.277344 44.234375 15.960938 44.234375 L 17.992188 44.234375 C 19.675781 44.234375 21.042969 42.773438 21.042969 40.972656 L 21.042969 35.953125 C 21.53125 36.035156 22.035156 36.078125 22.546875 36.078125 L 22.566406 36.078125 C 23.425781 36.078125 24.28125 35.957031 25.109375 35.71875 L 25.109375 39.886719 C 25.109375 41.6875 25.457031 43.148438 27.140625 43.148438 L 29.175781 43.148438 C 31.460938 43.148438 32.101562 41.53125 32.222656 39.613281 C 32.492188 35.4375 33.046875 33.242188 33.511719 31.417969 C 33.921875 29.796875 34.257812 28.464844 34.257812 26.292969 C 34.257812 21.671875 32.222656 13.789062 32.222656 13.789062 C 32.226562 8.085938 27.902344 3.460938 22.566406 3.460938 C 17.234375 3.460938 12.910156 8.085938 12.910156 13.789062 C 12.910156 13.789062 12.085938 19.402344 11.894531 23.03125 C 11.523438 30.039062 12.910156 40.972656 12.910156 40.972656 Z M 11.40625 13.675781 C 11.464844 7.277344 16.355469 1.949219 22.566406 1.949219 C 28.753906 1.949219 33.628906 7.234375 33.726562 13.59375 L 33.769531 13.773438 C 34.117188 15.179688 34.429688 16.59375 34.714844 18.011719 C 35.226562 20.566406 35.761719 23.820312 35.761719 26.292969 C 35.761719 28.65625 35.382812 30.144531 34.972656 31.777344 L 34.890625 32.101562 C 34.460938 33.808594 33.972656 35.886719 33.722656 39.710938 C 33.65625 40.757812 33.441406 41.988281 32.730469 42.980469 C 31.945312 44.078125 30.722656 44.65625 29.175781 44.65625 L 27.140625 44.65625 C 26.5 44.65625 25.878906 44.515625 25.332031 44.179688 C 24.78125 43.84375 24.402344 43.371094 24.152344 42.875 C 23.683594 41.945312 23.605469 40.820312 23.605469 39.886719 L 23.605469 37.539062 C 23.261719 37.574219 22.914062 37.589844 22.566406 37.589844 L 22.546875 37.589844 L 22.546875 40.972656 C 22.546875 43.515625 20.59375 45.746094 17.992188 45.746094 L 15.960938 45.746094 C 13.394531 45.746094 11.460938 43.578125 11.410156 41.074219 L 11.402344 41.035156 L 11.359375 40.667969 C 11.128906 38.699219 10.929688 36.730469 10.765625 34.757812 C 10.464844 31.132812 10.203125 26.5625 10.394531 22.953125 C 10.492188 21.082031 10.753906 18.726562 10.984375 16.863281 C 11.113281 15.800781 11.257812 14.738281 11.410156 13.675781 Z M 11.40625 13.675781 "/>
<path style=" stroke:none;fill-rule:evenodd;fill:rgb(80.392157%,72.54902%,2.745098%);fill-opacity:1;" d="M 32.199219 13.058594 C 32.214844 13.300781 32.222656 13.542969 32.222656 13.789062 C 32.222656 13.789062 32.816406 16.089844 33.363281 18.933594 C 32.667969 20.121094 31.425781 20.878906 30.054688 20.949219 L 22.671875 21.34375 C 21.589844 21.402344 20.515625 21.09375 19.625 20.46875 C 18.734375 19.84375 18.078125 18.9375 17.757812 17.894531 C 16.828125 14.851562 18.992188 11.742188 22.15625 11.570312 L 27.554688 11.28125 C 29.28125 11.1875 30.972656 11.835938 32.199219 13.058594 Z M 32.199219 13.058594 "/>
<path style=" stroke:none;fill-rule:evenodd;fill:rgb(80.392157%,72.54902%,2.745098%);fill-opacity:1;" d="M 31.859375 41.457031 C 31.453125 42.460938 30.664062 43.148438 29.175781 43.148438 L 27.140625 43.148438 C 25.457031 43.148438 25.109375 41.6875 25.109375 39.886719 L 25.109375 35.71875 C 24.28125 35.957031 23.429688 36.082031 22.566406 36.078125 L 22.546875 36.078125 L 22.546875 34.441406 C 23.902344 34.671875 25.292969 34.589844 26.613281 34.207031 L 26.613281 38.375 C 26.613281 40.175781 26.960938 41.636719 28.644531 41.636719 L 30.679688 41.636719 C 31.132812 41.636719 31.523438 41.574219 31.859375 41.453125 Z M 20.710938 42.457031 C 20.207031 43.511719 19.179688 44.234375 17.992188 44.234375 L 15.960938 44.234375 C 14.277344 44.234375 12.910156 42.773438 12.910156 40.972656 C 12.910156 40.972656 11.523438 30.039062 11.894531 23.03125 C 12.085938 19.402344 12.910156 13.789062 12.910156 13.789062 C 12.910156 10.421875 14.417969 7.433594 16.746094 5.546875 C 15.292969 7.355469 14.414062 9.707031 14.414062 12.28125 C 14.414062 12.28125 13.589844 17.894531 13.398438 21.523438 C 13.027344 28.53125 14.414062 39.460938 14.414062 39.460938 C 14.414062 41.265625 15.78125 42.722656 17.464844 42.722656 L 19.496094 42.722656 C 19.914062 42.726562 20.328125 42.632812 20.710938 42.457031 Z M 20.710938 42.457031 "/>
<path style=" stroke:none;fill-rule:evenodd;fill:rgb(100%,95.294118%,51.764706%);fill-opacity:1;" d="M 22.34375 4.8125 C 22.277344 5.109375 22.398438 5.417969 22.652344 5.59375 C 22.730469 5.648438 22.824219 5.6875 22.917969 5.710938 C 25.796875 6.328125 27.671875 8.273438 28.859375 10.539062 C 30.054688 12.820312 30.519531 15.359375 30.574219 16.984375 C 30.574219 17.027344 30.578125 17.066406 30.589844 17.109375 C 30.835938 18.324219 31.058594 19.546875 31.257812 20.769531 C 31.484375 22.167969 31.652344 23.472656 31.652344 24.179688 C 31.652344 26.09375 31.511719 28.464844 30.632812 30.535156 C 30.46875 30.917969 30.648438 31.363281 31.03125 31.527344 C 31.410156 31.691406 31.851562 31.511719 32.015625 31.128906 C 33.019531 28.761719 33.15625 26.132812 33.15625 24.175781 C 33.15625 23.332031 32.964844 21.910156 32.742188 20.527344 C 32.542969 19.300781 32.320312 18.082031 32.074219 16.867188 C 32 15.058594 31.496094 12.324219 30.1875 9.835938 C 28.863281 7.304688 26.675781 4.972656 23.234375 4.234375 C 22.828125 4.144531 22.429688 4.40625 22.34375 4.8125 Z M 22.34375 4.8125 "/>
<path style=" stroke:none;fill-rule:nonzero;fill:rgb(32.941176%,69.019608%,84.313725%);fill-opacity:1;" d="M 35.253906 13.367188 C 34.851562 12.050781 34.023438 10.910156 32.898438 10.121094 C 31.777344 9.332031 30.425781 8.945312 29.054688 9.019531 L 23.660156 9.304688 C 20.496094 9.476562 18.332031 12.585938 19.261719 15.628906 C 19.582031 16.671875 20.238281 17.578125 21.128906 18.203125 C 22.019531 18.828125 23.09375 19.136719 24.175781 19.078125 L 31.558594 18.683594 C 34.21875 18.539062 36.039062 15.925781 35.253906 13.367188 Z M 35.253906 13.367188 "/>
<path style=" stroke:none;fill-rule:evenodd;fill:rgb(0%,0%,0%);fill-opacity:1;" d="M 28.976562 7.507812 L 23.578125 7.796875 C 19.4375 8.019531 16.605469 12.089844 17.824219 16.074219 C 18.242188 17.4375 19.101562 18.621094 20.269531 19.441406 C 21.433594 20.257812 22.835938 20.660156 24.257812 20.585938 L 31.636719 20.191406 C 35.273438 19.996094 37.761719 16.417969 36.691406 12.921875 C 36.191406 11.285156 35.160156 9.863281 33.761719 8.882812 C 32.363281 7.902344 30.679688 7.417969 28.976562 7.507812 Z M 29.054688 9.015625 C 30.425781 8.945312 31.777344 9.332031 32.902344 10.121094 C 34.023438 10.910156 34.851562 12.050781 35.253906 13.367188 C 36.039062 15.925781 34.21875 18.539062 31.558594 18.683594 L 24.175781 19.078125 C 23.09375 19.136719 22.019531 18.828125 21.128906 18.203125 C 20.238281 17.578125 19.582031 16.671875 19.261719 15.628906 C 18.332031 12.585938 20.496094 9.476562 23.660156 9.304688 Z M 29.054688 9.015625 "/>
<path style=" stroke:none;fill-rule:evenodd;fill:rgb(25.098039%,53.333333%,63.921569%);fill-opacity:1;" d="M 34.890625 16.625 C 34.203125 17.835938 32.945312 18.613281 31.558594 18.683594 L 24.175781 19.078125 C 23.09375 19.136719 22.019531 18.828125 21.128906 18.203125 C 20.238281 17.578125 19.582031 16.671875 19.261719 15.628906 C 18.636719 13.589844 19.40625 11.519531 20.929688 10.324219 C 20.183594 11.523438 19.996094 12.992188 20.414062 14.34375 C 20.734375 15.386719 21.390625 16.292969 22.28125 16.917969 C 23.171875 17.542969 24.242188 17.847656 25.328125 17.792969 L 32.710938 17.394531 C 33.496094 17.355469 34.253906 17.089844 34.890625 16.625 Z M 34.890625 16.625 "/>
<path style=" stroke:none;fill-rule:nonzero;fill:rgb(44.313725%,84.705882%,97.647059%);fill-opacity:1;" d="M 33.957031 11.980469 C 33.550781 10.765625 31.785156 9.652344 30.269531 9.695312 C 28.753906 9.742188 28.777344 9.554688 25.929688 9.824219 C 23.078125 10.089844 22.25 11.613281 22.820312 13.335938 C 23.222656 14.550781 24.546875 15.183594 26.0625 15.140625 C 27.578125 15.097656 28.765625 15.472656 30.878906 15.472656 C 32.992188 15.472656 34.527344 13.699219 33.957031 11.980469 Z M 33.957031 11.980469 "/>
<path style=" stroke:none;fill-rule:evenodd;fill:rgb(92.941176%,99.607843%,100%);fill-opacity:1;" d="M 32.023438 11.960938 L 32.304688 11.261719 C 32.585938 11.375 32.773438 11.648438 32.777344 11.953125 C 32.777344 12.261719 32.597656 12.535156 32.316406 12.65625 C 32.132812 12.734375 31.925781 12.738281 31.742188 12.660156 L 31.734375 12.65625 L 31.6875 12.640625 C 31.617188 12.617188 31.546875 12.59375 31.476562 12.570312 C 31.203125 12.488281 30.929688 12.421875 30.648438 12.371094 C 29.941406 12.242188 28.957031 12.152344 27.847656 12.324219 C 27.652344 12.355469 27.449219 12.304688 27.289062 12.1875 C 27.042969 12.007812 26.933594 11.695312 27.003906 11.398438 C 27.078125 11.101562 27.320312 10.878906 27.621094 10.832031 C 28.714844 10.664062 29.832031 10.683594 30.921875 10.886719 C 31.257812 10.949219 31.585938 11.027344 31.914062 11.125 C 32.03125 11.164062 32.152344 11.203125 32.269531 11.246094 L 32.292969 11.253906 L 32.300781 11.257812 L 32.300781 11.261719 L 32.304688 11.261719 Z M 32.023438 11.960938 "/>
<path style=" stroke:none;fill-rule:evenodd;fill:rgb(0%,0%,0%);fill-opacity:1;" d="M 28.542969 35.214844 C 28.460938 35.035156 28.308594 34.894531 28.121094 34.828125 C 27.933594 34.757812 27.726562 34.765625 27.542969 34.851562 C 26.652344 35.273438 25.515625 35.488281 24.402344 35.582031 C 23.296875 35.671875 22.265625 35.640625 21.613281 35.59375 C 21.308594 35.570312 21.015625 35.734375 20.878906 36.007812 C 20.742188 36.285156 20.785156 36.617188 20.988281 36.847656 C 21.121094 37 21.308594 37.089844 21.511719 37.101562 C 22.515625 37.171875 23.523438 37.164062 24.523438 37.085938 C 25.71875 36.988281 27.058594 36.75 28.183594 36.21875 C 28.363281 36.132812 28.503906 35.980469 28.570312 35.792969 C 28.640625 35.605469 28.628906 35.398438 28.546875 35.214844 Z M 28.542969 35.214844 "/>
<path style=" stroke:none;fill-rule:evenodd;fill:rgb(100%,95.294118%,51.764706%);fill-opacity:1;" d="M 19.851562 33.621094 C 19.441406 33.664062 19.140625 34.035156 19.183594 34.449219 C 19.277344 35.402344 19.335938 36.355469 19.359375 37.3125 C 19.382812 38.433594 19.34375 39.441406 19.203125 39.988281 C 19.101562 40.390625 19.339844 40.800781 19.742188 40.90625 C 20.144531 41.007812 20.554688 40.765625 20.65625 40.363281 C 20.855469 39.589844 20.886719 38.386719 20.859375 37.28125 C 20.835938 36.28125 20.773438 35.289062 20.675781 34.292969 C 20.65625 34.09375 20.558594 33.914062 20.40625 33.785156 C 20.25 33.660156 20.050781 33.601562 19.851562 33.621094 Z M 19.851562 33.621094 "/>
<use xlink:href="#surface8" mask="url(#mask1)"/>
<path style=" stroke:none;fill-rule:nonzero;fill:rgb(87.45098%,79.215686%,4.705882%);fill-opacity:1;" d="M 152.722656 14.546875 C 152.722656 13.136719 151.753906 11.898438 150.363281 11.714844 C 149.84375 11.640625 149.324219 11.601562 148.800781 11.59375 C 148.472656 11.59375 148.109375 11.617188 147.738281 11.65625 C 145.980469 11.835938 144.640625 13.25 144.367188 15.003906 C 144.085938 16.785156 143.792969 19.058594 143.792969 20.835938 C 143.792969 22.953125 144.207031 25.777344 144.523438 27.625 C 144.722656 28.792969 145.613281 29.714844 146.777344 29.890625 C 147.449219 29.992188 148.1875 30.078125 148.800781 30.078125 C 149.273438 30.078125 149.824219 30.027344 150.363281 29.957031 C 151.753906 29.773438 152.722656 28.535156 152.722656 27.125 Z M 152.722656 14.546875 "/>
<path style=" stroke:none;fill-rule:evenodd;fill:rgb(0%,0%,0%);fill-opacity:1;" d="M 154.226562 27.125 L 154.226562 14.546875 C 154.226562 12.464844 152.78125 10.511719 150.558594 10.21875 C 149.992188 10.140625 149.367188 10.082031 148.800781 10.082031 C 148.402344 10.082031 147.984375 10.113281 147.582031 10.152344 C 145.070312 10.414062 143.25 12.417969 142.878906 14.769531 C 142.597656 16.558594 142.289062 18.933594 142.289062 20.835938 C 142.289062 23.09375 142.726562 26.027344 143.042969 27.878906 C 143.34375 29.652344 144.710938 31.101562 146.550781 31.382812 C 147.246094 31.488281 148.074219 31.585938 148.800781 31.585938 C 149.367188 31.585938 149.992188 31.527344 150.558594 31.453125 C 152.78125 31.160156 154.226562 29.203125 154.226562 27.125 Z M 150.363281 11.714844 C 151.753906 11.898438 152.722656 13.136719 152.722656 14.546875 L 152.722656 27.125 C 152.722656 28.535156 151.753906 29.773438 150.363281 29.957031 C 149.824219 30.027344 149.273438 30.078125 148.800781 30.078125 C 148.1875 30.078125 147.449219 29.996094 146.777344 29.890625 C 145.613281 29.714844 144.722656 28.792969 144.523438 27.625 C 144.207031 25.777344 143.792969 22.953125 143.792969 20.835938 C 143.792969 19.058594 144.085938 16.785156 144.363281 15.007812 C 144.640625 13.253906 145.980469 11.839844 147.738281 11.65625 C 148.109375 11.621094 148.472656 11.59375 148.800781 11.59375 C 149.273438 11.59375 149.824219 11.644531 150.363281 11.714844 Z M 150.363281 11.714844 "/>
<path style=" stroke:none;fill-rule:evenodd;fill:rgb(80.392157%,72.54902%,2.745098%);fill-opacity:1;" d="M 152.722656 26.84375 L 152.722656 27.125 C 152.722656 28.535156 151.753906 29.773438 150.363281 29.957031 C 149.824219 30.027344 149.273438 30.078125 148.800781 30.078125 C 148.1875 30.078125 147.449219 29.992188 146.777344 29.890625 C 145.613281 29.714844 144.722656 28.792969 144.523438 27.625 C 144.207031 25.777344 143.792969 22.953125 143.792969 20.835938 C 143.792969 19.058594 144.085938 16.785156 144.363281 15.007812 C 144.460938 14.398438 144.6875 13.820312 145.027344 13.3125 C 144.777344 14.988281 144.546875 16.980469 144.546875 18.570312 C 144.546875 20.6875 144.957031 23.511719 145.273438 25.359375 C 145.472656 26.527344 146.363281 27.449219 147.53125 27.625 C 148.203125 27.726562 148.941406 27.8125 149.550781 27.8125 C 150.023438 27.8125 150.578125 27.761719 151.113281 27.691406 C 151.734375 27.609375 152.304688 27.308594 152.722656 26.84375 Z M 152.722656 26.84375 "/>
<path style=" stroke:none;fill-rule:evenodd;fill:rgb(100%,95.294118%,51.764706%);fill-opacity:1;" d="M 147.332031 12.8125 C 147.164062 12.703125 146.960938 12.660156 146.765625 12.699219 C 146.570312 12.738281 146.398438 12.855469 146.289062 13.023438 L 146.914062 13.441406 C 146.289062 13.023438 146.289062 13.023438 146.289062 13.023438 L 146.285156 13.023438 L 146.285156 13.027344 L 146.277344 13.035156 C 146.253906 13.074219 146.226562 13.117188 146.203125 13.15625 C 146.140625 13.265625 146.082031 13.378906 146.023438 13.492188 C 145.878906 13.78125 145.6875 14.203125 145.5 14.753906 C 145.121094 15.851562 144.753906 17.457031 144.753906 19.527344 C 144.753906 19.730469 144.832031 19.921875 144.972656 20.0625 C 145.1875 20.277344 145.511719 20.34375 145.792969 20.226562 C 146.074219 20.109375 146.257812 19.832031 146.257812 19.527344 C 146.257812 17.636719 146.59375 16.199219 146.917969 15.246094 C 147.042969 14.878906 147.191406 14.523438 147.363281 14.175781 C 147.417969 14.070312 147.472656 13.96875 147.535156 13.867188 L 147.539062 13.859375 M 147.539062 13.859375 Z M 147.539062 13.859375 "/>
<path style=" stroke:none;fill-rule:nonzero;fill:rgb(87.843137%,84.313725%,0%);fill-opacity:1;" d="M 169.566406 13.433594 C 169.566406 7.730469 165.242188 3.105469 159.90625 3.105469 C 154.574219 3.105469 150.25 7.730469 150.25 13.433594 C 150.25 13.433594 149.425781 19.050781 149.234375 22.675781 C 148.863281 29.683594 150.25 40.617188 150.25 40.617188 C 150.25 42.417969 151.617188 43.878906 153.300781 43.878906 L 155.332031 43.878906 C 157.015625 43.878906 158.382812 42.417969 158.382812 40.617188 L 158.382812 35.597656 C 159.738281 35.828125 161.128906 35.746094 162.449219 35.363281 L 162.449219 39.53125 C 162.449219 41.332031 162.796875 42.792969 164.480469 42.792969 L 166.515625 42.792969 C 168.800781 42.792969 169.441406 41.175781 169.5625 39.257812 C 170.074219 31.375 171.597656 30.558594 171.597656 25.9375 C 171.597656 21.316406 169.5625 13.433594 169.5625 13.433594 Z M 169.566406 13.433594 "/>
<path style=" stroke:none;fill-rule:evenodd;fill:rgb(0%,0%,0%);fill-opacity:1;" d="M 150.25 40.617188 C 150.25 42.417969 151.617188 43.878906 153.300781 43.878906 L 155.335938 43.878906 C 157.019531 43.878906 158.382812 42.417969 158.382812 40.617188 L 158.382812 35.597656 C 158.875 35.679688 159.375 35.722656 159.886719 35.726562 L 159.910156 35.726562 C 160.769531 35.726562 161.625 35.601562 162.449219 35.363281 L 162.449219 39.53125 C 162.449219 41.332031 162.796875 42.792969 164.484375 42.792969 L 166.515625 42.792969 C 168.804688 42.792969 169.441406 41.175781 169.566406 39.257812 C 169.835938 35.082031 170.390625 32.886719 170.851562 31.0625 C 171.261719 29.441406 171.597656 28.113281 171.597656 25.9375 C 171.597656 21.316406 169.566406 13.433594 169.566406 13.433594 C 169.566406 7.730469 165.242188 3.105469 159.910156 3.105469 C 154.574219 3.105469 150.25 7.730469 150.25 13.433594 C 150.25 13.433594 149.425781 19.050781 149.234375 22.675781 C 148.863281 29.683594 150.25 40.617188 150.25 40.617188 Z M 148.75 13.320312 C 148.804688 6.925781 153.695312 1.597656 159.910156 1.597656 C 166.097656 1.597656 170.96875 6.878906 171.066406 13.242188 L 171.113281 13.417969 C 171.457031 14.824219 171.773438 16.238281 172.054688 17.65625 C 172.566406 20.214844 173.101562 23.46875 173.101562 25.9375 C 173.101562 28.300781 172.722656 29.792969 172.3125 31.421875 L 172.230469 31.746094 C 171.800781 33.453125 171.3125 35.53125 171.066406 39.355469 C 170.996094 40.40625 170.78125 41.636719 170.074219 42.625 C 169.285156 43.722656 168.066406 44.304688 166.515625 44.304688 L 164.484375 44.304688 C 163.839844 44.304688 163.222656 44.160156 162.671875 43.824219 C 162.121094 43.488281 161.746094 43.015625 161.492188 42.519531 C 161.023438 41.589844 160.945312 40.464844 160.945312 39.53125 L 160.945312 37.183594 C 160.601562 37.21875 160.253906 37.234375 159.910156 37.234375 L 159.886719 37.234375 L 159.886719 40.617188 C 159.886719 43.164062 157.9375 45.390625 155.335938 45.390625 L 153.300781 45.390625 C 150.734375 45.390625 148.800781 43.222656 148.75 40.722656 L 148.742188 40.679688 L 148.699219 40.3125 C 148.46875 38.347656 148.273438 36.375 148.105469 34.402344 C 147.804688 30.78125 147.542969 26.207031 147.734375 22.597656 C 147.832031 20.726562 148.09375 18.371094 148.324219 16.507812 C 148.457031 15.445312 148.597656 14.382812 148.75 13.324219 Z M 148.75 13.320312 "/>
<path style=" stroke:none;fill-rule:evenodd;fill:rgb(80.392157%,72.54902%,2.745098%);fill-opacity:1;" d="M 169.542969 12.703125 C 169.558594 12.945312 169.566406 13.1875 169.566406 13.433594 C 169.566406 13.433594 170.160156 15.734375 170.703125 18.578125 C 170.007812 19.765625 168.765625 20.523438 167.394531 20.59375 L 160.015625 20.988281 C 158.929688 21.046875 157.855469 20.738281 156.964844 20.113281 C 156.074219 19.488281 155.417969 18.582031 155.097656 17.539062 C 154.167969 14.496094 156.332031 11.386719 159.496094 11.214844 L 164.894531 10.925781 C 166.625 10.835938 168.3125 11.480469 169.542969 12.703125 Z M 169.542969 12.703125 "/>
<path style=" stroke:none;fill-rule:evenodd;fill:rgb(80.392157%,72.54902%,2.745098%);fill-opacity:1;" d="M 169.199219 41.101562 C 168.796875 42.109375 168.003906 42.792969 166.515625 42.792969 L 164.484375 42.792969 C 162.800781 42.792969 162.449219 41.332031 162.449219 39.53125 L 162.449219 35.363281 C 161.625 35.605469 160.769531 35.726562 159.910156 35.726562 L 159.886719 35.726562 L 159.886719 34.085938 C 161.242188 34.316406 162.632812 34.238281 163.953125 33.851562 L 163.953125 38.019531 C 163.953125 39.820312 164.300781 41.28125 165.984375 41.28125 L 168.019531 41.28125 C 168.476562 41.28125 168.867188 41.21875 169.199219 41.101562 Z M 158.050781 42.101562 C 157.546875 43.15625 156.519531 43.878906 155.335938 43.878906 L 153.300781 43.878906 C 151.617188 43.878906 150.25 42.417969 150.25 40.617188 C 150.25 40.617188 148.863281 29.683594 149.234375 22.675781 C 149.425781 19.050781 150.25 13.433594 150.25 13.433594 C 150.25 10.070312 151.757812 7.078125 154.089844 5.191406 C 152.632812 7 151.753906 9.351562 151.753906 11.925781 C 151.753906 11.925781 150.929688 17.539062 150.738281 21.167969 C 150.367188 28.175781 151.753906 39.109375 151.753906 39.109375 C 151.753906 40.910156 153.121094 42.371094 154.804688 42.371094 L 156.835938 42.371094 C 157.257812 42.371094 157.671875 42.277344 158.050781 42.101562 Z M 158.050781 42.101562 "/>
<path style=" stroke:none;fill-rule:evenodd;fill:rgb(100%,95.294118%,51.764706%);fill-opacity:1;" d="M 159.683594 4.457031 C 159.621094 4.757812 159.742188 5.0625 159.992188 5.238281 C 160.074219 5.292969 160.164062 5.332031 160.261719 5.355469 C 163.136719 5.972656 165.011719 7.917969 166.199219 10.183594 C 167.394531 12.464844 167.859375 15.003906 167.914062 16.628906 C 167.914062 16.671875 167.921875 16.714844 167.929688 16.753906 C 168.175781 17.96875 168.398438 19.191406 168.597656 20.414062 C 168.824219 21.8125 168.996094 23.121094 168.996094 23.824219 C 168.996094 25.738281 168.851562 28.109375 167.972656 30.179688 C 167.808594 30.566406 167.988281 31.007812 168.371094 31.171875 C 168.753906 31.335938 169.195312 31.15625 169.355469 30.773438 C 170.359375 28.40625 170.496094 25.777344 170.496094 23.824219 C 170.496094 22.980469 170.308594 21.554688 170.082031 20.171875 C 169.882812 18.949219 169.660156 17.726562 169.414062 16.511719 C 169.34375 14.707031 168.835938 11.96875 167.53125 9.480469 C 166.203125 6.953125 164.015625 4.617188 160.574219 3.878906 C 160.167969 3.792969 159.769531 4.050781 159.683594 4.457031 Z M 159.683594 4.457031 "/>
<path style=" stroke:none;fill-rule:nonzero;fill:rgb(32.941176%,69.019608%,84.313725%);fill-opacity:1;" d="M 172.59375 13.011719 C 172.191406 11.699219 171.363281 10.554688 170.242188 9.765625 C 169.117188 8.980469 167.765625 8.589844 166.398438 8.664062 L 161 8.949219 C 157.835938 9.121094 155.671875 12.230469 156.601562 15.273438 C 156.921875 16.316406 157.578125 17.222656 158.46875 17.847656 C 159.359375 18.472656 160.433594 18.78125 161.519531 18.722656 L 168.898438 18.328125 C 171.558594 18.1875 173.378906 15.570312 172.597656 13.011719 Z M 172.59375 13.011719 "/>
<path style=" stroke:none;fill-rule:evenodd;fill:rgb(0%,0%,0%);fill-opacity:1;" d="M 166.316406 7.15625 L 160.917969 7.441406 C 156.78125 7.664062 153.949219 11.738281 155.167969 15.71875 C 155.582031 17.082031 156.445312 18.269531 157.609375 19.085938 C 158.773438 19.902344 160.179688 20.308594 161.597656 20.230469 L 168.980469 19.835938 C 172.617188 19.640625 175.101562 16.066406 174.03125 12.570312 C 173.53125 10.929688 172.5 9.507812 171.101562 8.527344 C 169.703125 7.546875 168.019531 7.0625 166.316406 7.15625 Z M 166.398438 8.664062 C 167.765625 8.589844 169.117188 8.976562 170.242188 9.765625 C 171.363281 10.554688 172.195312 11.695312 172.597656 13.011719 C 173.378906 15.570312 171.558594 18.1875 168.898438 18.328125 L 161.519531 18.722656 C 160.433594 18.78125 159.359375 18.472656 158.46875 17.847656 C 157.578125 17.222656 156.921875 16.316406 156.601562 15.273438 C 155.671875 12.230469 157.835938 9.121094 161 8.949219 Z M 166.398438 8.664062 "/>
<path style=" stroke:none;fill-rule:evenodd;fill:rgb(25.098039%,53.333333%,63.921569%);fill-opacity:1;" d="M 172.230469 16.269531 C 171.894531 16.867188 171.410156 17.367188 170.828125 17.726562 C 170.246094 18.085938 169.582031 18.292969 168.898438 18.328125 L 161.519531 18.722656 C 160.433594 18.78125 159.359375 18.472656 158.46875 17.847656 C 157.578125 17.222656 156.921875 16.316406 156.601562 15.273438 C 155.980469 13.234375 156.746094 11.164062 158.273438 9.96875 C 157.523438 11.171875 157.335938 12.636719 157.753906 13.988281 C 158.074219 15.03125 158.730469 15.9375 159.621094 16.5625 C 160.511719 17.1875 161.585938 17.496094 162.667969 17.4375 L 170.050781 17.042969 C 170.835938 17.003906 171.59375 16.734375 172.230469 16.269531 Z M 172.230469 16.269531 "/>
<path style=" stroke:none;fill-rule:nonzero;fill:rgb(44.313725%,84.705882%,97.647059%);fill-opacity:1;" d="M 171.296875 11.625 C 170.894531 10.410156 169.125 9.296875 167.609375 9.339844 C 166.09375 9.386719 166.117188 9.199219 163.269531 9.46875 C 160.417969 9.734375 159.589844 11.261719 160.164062 12.980469 C 160.566406 14.195312 161.886719 14.832031 163.402344 14.785156 C 164.921875 14.742188 166.105469 15.117188 168.21875 15.117188 C 170.332031 15.117188 171.867188 13.34375 171.296875 11.625 Z M 171.296875 11.625 "/>
<path style=" stroke:none;fill-rule:evenodd;fill:rgb(92.941176%,99.607843%,100%);fill-opacity:1;" d="M 169.363281 11.605469 L 169.644531 10.90625 C 169.925781 11.019531 170.113281 11.292969 170.117188 11.601562 C 170.117188 11.90625 169.9375 12.183594 169.660156 12.300781 C 169.476562 12.378906 169.269531 12.382812 169.082031 12.308594 L 169.085938 12.308594 L 169.074219 12.304688 L 169.027344 12.285156 C 168.957031 12.261719 168.886719 12.238281 168.816406 12.214844 C 168.542969 12.136719 168.269531 12.066406 167.992188 12.015625 C 167.28125 11.886719 166.296875 11.796875 165.191406 11.96875 C 164.992188 12 164.792969 11.949219 164.632812 11.832031 C 164.386719 11.652344 164.273438 11.339844 164.34375 11.042969 C 164.417969 10.746094 164.660156 10.523438 164.960938 10.476562 C 166.058594 10.3125 167.171875 10.328125 168.261719 10.53125 C 168.597656 10.59375 168.929688 10.671875 169.253906 10.769531 C 169.375 10.808594 169.492188 10.847656 169.609375 10.890625 L 169.632812 10.902344 L 169.640625 10.902344 L 169.644531 10.90625 Z M 169.363281 11.605469 "/>
<path style=" stroke:none;fill-rule:evenodd;fill:rgb(0%,0%,0%);fill-opacity:1;" d="M 165.886719 34.863281 C 165.800781 34.679688 165.648438 34.539062 165.460938 34.472656 C 165.273438 34.402344 165.066406 34.414062 164.886719 34.5 C 163.992188 34.917969 162.859375 35.132812 161.742188 35.226562 C 160.636719 35.316406 159.605469 35.285156 158.957031 35.242188 C 158.648438 35.214844 158.359375 35.378906 158.21875 35.652344 C 158.082031 35.929688 158.125 36.261719 158.328125 36.492188 C 158.460938 36.644531 158.652344 36.734375 158.851562 36.746094 C 159.855469 36.816406 160.863281 36.8125 161.867188 36.730469 C 163.058594 36.632812 164.398438 36.394531 165.523438 35.863281 C 165.703125 35.78125 165.84375 35.625 165.914062 35.4375 C 165.980469 35.25 165.96875 35.042969 165.886719 34.859375 Z M 165.886719 34.863281 "/>
<path style=" stroke:none;fill-rule:evenodd;fill:rgb(100%,95.294118%,51.764706%);fill-opacity:1;" d="M 157.195312 33.265625 C 156.78125 33.308594 156.480469 33.679688 156.523438 34.09375 C 156.617188 35.046875 156.675781 36.003906 156.699219 36.960938 C 156.722656 38.078125 156.683594 39.085938 156.542969 39.632812 C 156.441406 40.035156 156.683594 40.445312 157.085938 40.550781 C 157.484375 40.65625 157.894531 40.414062 158 40.007812 C 158.195312 39.234375 158.226562 38.03125 158.203125 36.925781 C 158.175781 35.929688 158.117188 34.933594 158.019531 33.941406 C 158 33.742188 157.898438 33.558594 157.746094 33.429688 C 157.589844 33.304688 157.390625 33.246094 157.195312 33.265625 Z M 157.195312 33.265625 "/>
<use xlink:href="#surface11" mask="url(#mask2)"/>
<path style=" stroke:none;fill-rule:nonzero;fill:rgb(87.45098%,79.215686%,4.705882%);fill-opacity:1;" d="M 58.195312 12.949219 C 58.195312 11.542969 57.226562 10.304688 55.839844 10.121094 C 55.320312 10.046875 54.800781 10.003906 54.277344 9.996094 C 53.953125 9.996094 53.589844 10.023438 53.21875 10.0625 C 51.460938 10.242188 50.128906 11.65625 49.851562 13.410156 C 49.570312 15.1875 49.28125 17.464844 49.28125 19.238281 C 49.28125 21.355469 49.695312 24.179688 50.007812 26.027344 C 50.207031 27.195312 51.097656 28.117188 52.261719 28.292969 C 52.929688 28.398438 53.667969 28.480469 54.277344 28.480469 C 54.75 28.480469 55.300781 28.429688 55.839844 28.359375 C 57.226562 28.175781 58.195312 26.9375 58.195312 25.527344 Z M 58.195312 12.949219 "/>
<path style=" stroke:none;fill-rule:evenodd;fill:rgb(0%,0%,0%);fill-opacity:1;" d="M 59.695312 25.527344 L 59.695312 12.949219 C 59.695312 10.871094 58.253906 8.914062 56.035156 8.621094 C 55.46875 8.546875 54.84375 8.488281 54.277344 8.488281 C 53.882812 8.488281 53.464844 8.515625 53.0625 8.558594 C 50.554688 8.816406 48.738281 10.824219 48.371094 13.171875 C 48.089844 14.960938 47.78125 17.335938 47.78125 19.238281 C 47.78125 21.496094 48.214844 24.433594 48.53125 26.285156 C 48.832031 28.054688 50.199219 29.507812 52.035156 29.789062 C 52.730469 29.894531 53.554688 29.992188 54.277344 29.992188 C 54.84375 29.992188 55.46875 29.929688 56.035156 29.855469 C 58.253906 29.5625 59.695312 27.609375 59.695312 25.527344 Z M 55.839844 10.121094 C 57.226562 10.304688 58.195312 11.542969 58.195312 12.949219 L 58.195312 25.527344 C 58.195312 26.9375 57.226562 28.179688 55.839844 28.359375 C 55.300781 28.429688 54.75 28.484375 54.277344 28.484375 C 53.667969 28.484375 52.929688 28.398438 52.261719 28.296875 C 51.097656 28.117188 50.207031 27.195312 50.007812 26.03125 C 49.695312 24.179688 49.28125 21.355469 49.28125 19.242188 C 49.28125 17.464844 49.570312 15.1875 49.851562 13.410156 C 50.128906 11.65625 51.460938 10.242188 53.21875 10.0625 C 53.585938 10.023438 53.953125 10 54.277344 10 C 54.75 10 55.300781 10.046875 55.839844 10.121094 Z M 55.839844 10.121094 "/>
<path style=" stroke:none;fill-rule:evenodd;fill:rgb(80.392157%,72.54902%,2.745098%);fill-opacity:1;" d="M 58.195312 25.246094 L 58.195312 25.527344 C 58.195312 26.9375 57.226562 28.175781 55.839844 28.359375 C 55.300781 28.429688 54.75 28.480469 54.277344 28.480469 C 53.667969 28.480469 52.929688 28.398438 52.261719 28.292969 C 51.097656 28.117188 50.207031 27.195312 50.007812 26.027344 C 49.695312 24.179688 49.28125 21.355469 49.28125 19.238281 C 49.28125 17.464844 49.570312 15.1875 49.851562 13.410156 C 49.945312 12.804688 50.171875 12.222656 50.515625 11.714844 C 50.265625 13.390625 50.03125 15.382812 50.03125 16.976562 C 50.03125 19.089844 50.445312 21.914062 50.757812 23.761719 C 50.957031 24.929688 51.847656 25.851562 53.011719 26.03125 C 53.679688 26.132812 54.417969 26.21875 55.027344 26.21875 C 55.5 26.21875 56.050781 26.164062 56.589844 26.09375 C 57.207031 26.011719 57.777344 25.710938 58.195312 25.246094 Z M 58.195312 25.246094 "/>
<path style=" stroke:none;fill-rule:evenodd;fill:rgb(100%,95.294118%,51.764706%);fill-opacity:1;" d="M 52.8125 11.214844 C 52.644531 11.105469 52.445312 11.066406 52.25 11.105469 C 52.054688 11.144531 51.882812 11.261719 51.769531 11.425781 L 52.394531 11.84375 C 51.769531 11.425781 51.769531 11.425781 51.769531 11.425781 L 51.769531 11.433594 L 51.761719 11.441406 C 51.734375 11.480469 51.710938 11.519531 51.6875 11.5625 C 51.625 11.671875 51.5625 11.785156 51.507812 11.898438 C 51.359375 12.1875 51.171875 12.609375 50.984375 13.15625 C 50.605469 14.253906 50.238281 15.859375 50.238281 17.933594 C 50.238281 18.132812 50.316406 18.324219 50.457031 18.46875 C 50.597656 18.609375 50.789062 18.6875 50.988281 18.6875 C 51.1875 18.6875 51.378906 18.609375 51.519531 18.46875 C 51.660156 18.324219 51.738281 18.132812 51.738281 17.933594 C 51.738281 16.042969 52.074219 14.601562 52.402344 13.648438 C 52.523438 13.285156 52.671875 12.925781 52.84375 12.582031 C 52.898438 12.476562 52.953125 12.371094 53.015625 12.273438 L 53.023438 12.261719 M 53.023438 12.261719 L 53.019531 12.261719 Z M 53.023438 12.261719 "/>
<path style=" stroke:none;fill-rule:nonzero;fill:rgb(87.843137%,84.313725%,0%);fill-opacity:1;" d="M 75.007812 11.839844 C 75.007812 6.136719 70.691406 1.511719 65.367188 1.511719 C 60.042969 1.511719 55.726562 6.136719 55.726562 11.839844 C 55.726562 11.839844 54.902344 17.453125 54.710938 21.082031 C 54.34375 28.089844 55.726562 39.023438 55.726562 39.023438 C 55.726562 40.824219 57.089844 42.285156 58.769531 42.285156 L 60.800781 42.285156 C 62.480469 42.285156 63.84375 40.824219 63.84375 39.023438 L 63.84375 34 C 65.199219 34.230469 66.585938 34.152344 67.902344 33.769531 L 69.746094 37.933594 C 69.746094 39.738281 70.09375 41.195312 71.777344 41.195312 L 73.804688 41.195312 C 76.089844 41.195312 76.726562 39.582031 76.847656 37.664062 C 77.355469 29.78125 77.035156 28.964844 77.035156 24.34375 C 77.035156 19.722656 75.003906 11.839844 75.003906 11.839844 Z M 75.007812 11.839844 "/>
<path style=" stroke:none;fill-rule:evenodd;fill:rgb(0%,0%,0%);fill-opacity:1;" d="M 55.726562 39.023438 C 55.726562 40.824219 57.089844 42.285156 58.773438 42.285156 L 60.800781 42.285156 C 62.480469 42.285156 63.84375 40.824219 63.84375 39.023438 L 63.84375 34 C 64.335938 34.085938 64.835938 34.128906 65.34375 34.128906 L 65.367188 34.128906 C 66.226562 34.128906 67.078125 34.007812 67.902344 33.769531 L 69.746094 37.933594 C 69.746094 39.738281 70.097656 41.195312 71.777344 41.195312 L 73.804688 41.195312 C 76.089844 41.195312 76.726562 39.582031 76.851562 37.664062 C 77.121094 33.484375 75.828125 31.292969 76.289062 29.46875 C 76.699219 27.847656 77.035156 26.515625 77.035156 24.34375 C 77.035156 19.722656 75.007812 11.839844 75.007812 11.839844 C 75.007812 6.136719 70.691406 1.511719 65.367188 1.511719 C 60.042969 1.511719 55.726562 6.136719 55.726562 11.839844 C 55.726562 11.839844 54.90625 17.453125 54.714844 21.082031 C 54.34375 28.089844 55.726562 39.023438 55.726562 39.023438 Z M 54.226562 11.726562 C 54.285156 5.328125 59.164062 0 65.367188 0 C 71.542969 0 76.40625 5.285156 76.503906 11.644531 L 76.550781 11.824219 C 76.894531 13.230469 77.210938 14.640625 77.492188 16.0625 C 78 18.617188 78.535156 21.871094 78.535156 24.34375 C 78.535156 26.707031 78.160156 28.195312 77.75 29.824219 L 77.664062 30.148438 C 77.238281 31.855469 78.59375 33.9375 78.347656 37.761719 C 78.28125 38.808594 78.066406 40.039062 77.355469 41.03125 C 76.570312 42.128906 75.351562 42.707031 73.804688 42.707031 L 71.777344 42.707031 C 71.136719 42.707031 70.519531 42.566406 69.96875 42.230469 C 69.421875 41.894531 69.042969 41.421875 68.792969 40.921875 C 68.324219 39.996094 68.421875 38.828125 68.246094 37.941406 L 67.011719 35.460938 C 66.671875 35.496094 65.714844 35.640625 65.367188 35.640625 L 65.34375 35.640625 L 65.34375 39.023438 C 65.34375 41.566406 63.398438 43.792969 60.800781 43.792969 L 58.773438 43.792969 C 56.210938 43.792969 54.28125 41.628906 54.226562 39.125 L 54.222656 39.082031 L 54.179688 38.71875 C 53.949219 36.75 53.75 34.78125 53.585938 32.804688 C 53.285156 29.183594 53.023438 24.613281 53.214844 21 C 53.3125 19.132812 53.574219 16.777344 53.804688 14.914062 C 53.933594 13.851562 54.078125 12.789062 54.226562 11.726562 Z M 54.226562 11.726562 "/>
<path style=" stroke:none;fill-rule:evenodd;fill:rgb(80.392157%,72.54902%,2.745098%);fill-opacity:1;" d="M 72.824219 11.054688 C 72.839844 11.296875 72.847656 11.542969 72.847656 11.789062 C 72.847656 11.789062 73.441406 14.085938 73.984375 16.929688 C 73.644531 17.515625 73.164062 18.003906 72.585938 18.355469 C 72.007812 18.710938 71.355469 18.910156 70.683594 18.945312 L 63.3125 19.339844 C 62.230469 19.398438 61.160156 19.089844 60.269531 18.464844 C 59.382812 17.839844 58.726562 16.933594 58.40625 15.890625 C 57.480469 12.851562 59.636719 9.738281 62.796875 9.570312 L 68.183594 9.28125 C 69.039062 9.234375 69.890625 9.367188 70.691406 9.675781 C 71.492188 9.980469 72.21875 10.453125 72.824219 11.054688 Z M 72.824219 11.054688 "/>
<path style=" stroke:none;fill-rule:evenodd;fill:rgb(80.392157%,72.54902%,2.745098%);fill-opacity:1;" d="M 76.539062 39.628906 C 76.136719 40.636719 75.203125 41.222656 73.714844 41.222656 L 71.597656 41.222656 C 69.917969 41.222656 69.746094 39.746094 69.746094 37.941406 L 67.902344 33.769531 C 67.078125 34.007812 66.226562 34.128906 65.367188 34.128906 L 65.34375 34.128906 L 65.246094 32.800781 C 66.660156 32.710938 67.371094 32.296875 68.6875 31.914062 L 70.453125 36.347656 C 70.554688 36.789062 70.65625 37.0625 70.71875 37.410156 C 70.8125 37.964844 70.804688 38.210938 70.894531 38.828125 C 70.980469 39.273438 70.980469 39.539062 71.433594 39.6875 L 73.460938 39.6875 C 73.917969 39.6875 76.382812 38.859375 76.714844 38.742188 Z M 63.511719 40.507812 C 63.007812 41.5625 61.984375 42.285156 60.800781 42.285156 L 58.773438 42.285156 C 57.089844 42.285156 55.726562 40.824219 55.726562 39.023438 C 55.726562 39.023438 54.34375 28.089844 54.714844 21.082031 C 54.90625 17.453125 55.726562 11.839844 55.726562 11.839844 C 55.726562 8.472656 57.230469 5.480469 59.558594 3.597656 C 58.105469 5.40625 57.230469 7.757812 57.230469 10.328125 C 57.230469 10.328125 56.40625 15.945312 56.214844 19.570312 C 55.84375 26.578125 57.230469 37.511719 57.230469 37.511719 C 57.230469 39.3125 58.589844 40.773438 60.273438 40.773438 L 62.300781 40.773438 C 62.71875 40.773438 63.132812 40.683594 63.511719 40.507812 Z M 63.511719 40.507812 "/>
<path style=" stroke:none;fill-rule:evenodd;fill:rgb(100%,95.294118%,51.764706%);fill-opacity:1;" d="M 65.140625 2.863281 C 65.054688 3.269531 65.3125 3.671875 65.71875 3.757812 C 68.589844 4.378906 70.460938 6.320312 71.648438 8.589844 C 72.839844 10.867188 73.300781 13.410156 73.359375 15.035156 C 73.359375 15.074219 73.363281 15.117188 73.375 15.160156 C 73.621094 16.375 73.84375 17.59375 74.042969 18.820312 C 74.269531 20.21875 74.4375 21.523438 74.4375 22.226562 C 74.4375 24.140625 74.292969 26.515625 73.417969 28.585938 C 73.339844 28.769531 73.335938 28.976562 73.410156 29.164062 C 73.484375 29.347656 73.628906 29.496094 73.8125 29.578125 C 73.996094 29.65625 74.203125 29.65625 74.386719 29.582031 C 74.574219 29.507812 74.71875 29.363281 74.796875 29.175781 C 75.800781 26.8125 75.9375 24.183594 75.9375 22.226562 C 75.9375 21.382812 75.746094 19.960938 75.523438 18.578125 C 75.324219 17.351562 75.101562 16.132812 74.855469 14.917969 C 74.785156 13.109375 74.277344 10.375 72.976562 7.886719 C 71.652344 5.355469 69.464844 3.023438 66.03125 2.28125 C 65.839844 2.242188 65.636719 2.277344 65.46875 2.386719 C 65.300781 2.496094 65.183594 2.667969 65.140625 2.863281 Z M 65.140625 2.863281 "/>
<path style=" stroke:none;fill-rule:nonzero;fill:rgb(32.941176%,69.019608%,84.313725%);fill-opacity:1;" d="M 75.871094 11.367188 C 75.472656 10.050781 74.644531 8.910156 73.523438 8.121094 C 72.402344 7.332031 71.050781 6.941406 69.683594 7.015625 L 64.296875 7.304688 C 61.140625 7.472656 58.980469 10.585938 59.910156 13.628906 C 60.226562 14.667969 60.882812 15.574219 61.773438 16.203125 C 62.660156 16.824219 63.730469 17.132812 64.816406 17.074219 L 72.183594 16.679688 C 74.835938 16.539062 76.652344 13.921875 75.871094 11.367188 Z M 75.871094 11.367188 "/>
<path style=" stroke:none;fill-rule:evenodd;fill:rgb(0%,0%,0%);fill-opacity:1;" d="M 69.605469 5.507812 L 64.21875 5.796875 C 60.085938 6.015625 57.257812 10.089844 58.476562 14.070312 C 58.890625 15.433594 59.75 16.621094 60.914062 17.4375 C 62.074219 18.257812 63.476562 18.660156 64.894531 18.582031 L 72.261719 18.1875 C 75.894531 17.996094 78.375 14.417969 77.308594 10.921875 C 76.808594 9.285156 75.777344 7.863281 74.382812 6.878906 C 72.988281 5.898438 71.304688 5.417969 69.605469 5.507812 Z M 69.683594 7.015625 C 71.050781 6.941406 72.402344 7.332031 73.523438 8.117188 C 74.644531 8.90625 75.472656 10.050781 75.871094 11.363281 C 76.652344 13.921875 74.835938 16.539062 72.183594 16.679688 L 64.816406 17.074219 C 63.730469 17.132812 62.660156 16.824219 61.773438 16.203125 C 60.882812 15.574219 60.226562 14.667969 59.910156 13.628906 C 58.980469 10.585938 61.140625 7.472656 64.296875 7.304688 Z M 69.683594 7.015625 "/>
<path style=" stroke:none;fill-rule:evenodd;fill:rgb(25.098039%,53.333333%,63.921569%);fill-opacity:1;" d="M 75.507812 14.621094 C 75.171875 15.21875 74.6875 15.71875 74.105469 16.078125 C 73.527344 16.4375 72.863281 16.644531 72.183594 16.679688 L 64.816406 17.074219 C 63.730469 17.132812 62.660156 16.824219 61.773438 16.203125 C 60.882812 15.574219 60.226562 14.667969 59.910156 13.628906 C 59.285156 11.585938 60.050781 9.515625 61.574219 8.324219 C 60.828125 9.523438 60.640625 10.988281 61.058594 12.339844 C 61.375 13.382812 62.03125 14.289062 62.921875 14.914062 C 63.808594 15.539062 64.882812 15.847656 65.964844 15.789062 L 73.332031 15.394531 C 74.117188 15.355469 74.875 15.085938 75.507812 14.621094 Z M 75.507812 14.621094 "/>
<path style=" stroke:none;fill-rule:nonzero;fill:rgb(44.313725%,84.705882%,97.647059%);fill-opacity:1;" d="M 74.574219 9.976562 C 74.171875 8.761719 72.410156 7.648438 70.894531 7.691406 C 69.382812 7.738281 69.40625 7.554688 66.5625 7.820312 C 63.71875 8.089844 62.890625 9.613281 63.460938 11.332031 C 63.863281 12.546875 65.183594 13.183594 66.699219 13.136719 C 68.210938 13.09375 69.394531 13.46875 71.503906 13.46875 C 73.613281 13.46875 75.148438 11.699219 74.574219 9.976562 Z M 74.574219 9.976562 "/>
<path style=" stroke:none;fill-rule:evenodd;fill:rgb(92.941176%,99.607843%,100%);fill-opacity:1;" d="M 71.335938 9.929688 L 71.617188 9.230469 C 71.804688 9.304688 71.949219 9.449219 72.027344 9.632812 C 72.105469 9.820312 72.109375 10.027344 72.035156 10.210938 C 71.960938 10.398438 71.816406 10.546875 71.632812 10.625 C 71.449219 10.703125 71.242188 10.707031 71.058594 10.628906 L 71.050781 10.625 L 71 10.609375 C 70.957031 10.59375 70.882812 10.570312 70.789062 10.539062 C 70.519531 10.457031 70.246094 10.390625 69.96875 10.339844 C 69.257812 10.210938 68.277344 10.121094 67.171875 10.292969 C 66.972656 10.324219 66.773438 10.273438 66.613281 10.15625 C 66.277344 9.910156 66.207031 9.4375 66.453125 9.101562 C 66.570312 8.9375 66.746094 8.832031 66.941406 8.800781 C 68.035156 8.632812 69.152344 8.652344 70.238281 8.855469 C 70.570312 8.917969 70.902344 8.996094 71.226562 9.09375 C 71.347656 9.132812 71.464844 9.171875 71.582031 9.214844 L 71.605469 9.222656 L 71.613281 9.226562 L 71.617188 9.230469 Z M 71.335938 9.929688 "/>
<path style=" stroke:none;fill-rule:evenodd;fill:rgb(0%,0%,0%);fill-opacity:1;" d="M 69.984375 32 C 69.800781 31.753906 69.492188 31.644531 69.199219 31.71875 C 69.101562 31.742188 69.011719 31.785156 68.933594 31.84375 C 68.144531 32.433594 67.074219 32.871094 66.003906 33.183594 C 64.9375 33.496094 63.921875 33.667969 63.277344 33.753906 C 63.078125 33.777344 62.898438 33.878906 62.773438 34.039062 C 62.648438 34.199219 62.59375 34.402344 62.621094 34.601562 C 62.648438 34.804688 62.753906 34.984375 62.914062 35.105469 C 63.074219 35.226562 63.277344 35.28125 63.476562 35.25 C 64.472656 35.117188 65.457031 34.914062 66.421875 34.636719 C 67.570312 34.300781 68.832031 33.800781 69.828125 33.054688 C 70.160156 32.808594 70.230469 32.335938 69.984375 32 Z M 69.984375 32 "/>
<path style=" stroke:none;fill-rule:evenodd;fill:rgb(100%,95.294118%,51.764706%);fill-opacity:1;" d="M 61.335938 31.742188 C 61.136719 31.761719 60.953125 31.859375 60.828125 32.015625 C 60.703125 32.171875 60.644531 32.371094 60.664062 32.570312 C 60.757812 33.523438 60.816406 34.476562 60.839844 35.433594 C 60.863281 36.554688 60.824219 37.5625 60.683594 38.109375 C 60.636719 38.304688 60.664062 38.507812 60.765625 38.679688 C 60.976562 39.039062 61.4375 39.15625 61.792969 38.945312 C 61.964844 38.84375 62.089844 38.679688 62.136719 38.484375 C 62.335938 37.710938 62.363281 36.507812 62.339844 35.402344 C 62.316406 34.402344 62.253906 33.410156 62.15625 32.414062 C 62.136719 32.214844 62.039062 32.035156 61.882812 31.90625 C 61.730469 31.78125 61.53125 31.722656 61.335938 31.742188 Z M 61.335938 31.742188 "/>
<use xlink:href="#surface14" mask="url(#mask3)"/>
<path style=" stroke:none;fill-rule:nonzero;fill:rgb(87.45098%,79.215686%,4.705882%);fill-opacity:1;" d="M 104.273438 13.484375 C 104.273438 12.074219 103.304688 10.835938 101.917969 10.652344 C 101.398438 10.578125 100.878906 10.539062 100.355469 10.53125 C 100.03125 10.53125 99.664062 10.554688 99.296875 10.59375 C 97.539062 10.773438 96.207031 12.1875 95.929688 13.941406 C 95.648438 15.71875 95.359375 17.996094 95.359375 19.769531 C 95.359375 21.886719 95.773438 24.710938 96.085938 26.5625 C 96.285156 27.726562 97.175781 28.648438 98.335938 28.828125 C 99.007812 28.929688 99.746094 29.015625 100.355469 29.015625 C 100.828125 29.015625 101.378906 28.960938 101.917969 28.890625 C 103.304688 28.710938 104.273438 27.46875 104.273438 26.0625 L 104.273438 13.480469 Z M 104.273438 13.484375 "/>
<path style=" stroke:none;fill-rule:evenodd;fill:rgb(0%,0%,0%);fill-opacity:1;" d="M 105.773438 26.0625 L 105.773438 13.480469 C 105.773438 11.402344 104.332031 9.445312 102.109375 9.152344 C 101.546875 9.078125 100.921875 9.019531 100.355469 9.019531 C 99.960938 9.019531 99.542969 9.046875 99.140625 9.089844 C 96.632812 9.347656 94.816406 11.355469 94.449219 13.703125 C 94.164062 15.496094 93.859375 17.871094 93.859375 19.769531 C 93.859375 22.027344 94.292969 24.964844 94.609375 26.816406 C 94.910156 28.589844 96.273438 30.039062 98.113281 30.320312 C 98.808594 30.425781 99.632812 30.523438 100.355469 30.523438 C 100.921875 30.523438 101.546875 30.464844 102.109375 30.390625 C 104.332031 30.097656 105.773438 28.140625 105.773438 26.058594 Z M 101.917969 10.652344 C 103.304688 10.835938 104.273438 12.074219 104.273438 13.484375 L 104.273438 26.0625 C 104.273438 27.472656 103.304688 28.710938 101.917969 28.890625 C 101.378906 28.964844 100.828125 29.015625 100.355469 29.015625 C 99.746094 29.015625 99.007812 28.929688 98.335938 28.828125 C 97.175781 28.648438 96.285156 27.726562 96.085938 26.5625 C 95.773438 24.714844 95.359375 21.890625 95.359375 19.773438 C 95.359375 17.996094 95.648438 15.722656 95.929688 13.941406 C 96.207031 12.1875 97.539062 10.773438 99.296875 10.59375 C 99.664062 10.554688 100.03125 10.53125 100.355469 10.53125 C 100.828125 10.53125 101.378906 10.582031 101.917969 10.652344 Z M 101.917969 10.652344 "/>
<path style=" stroke:none;fill-rule:evenodd;fill:rgb(80.392157%,72.54902%,2.745098%);fill-opacity:1;" d="M 104.273438 25.777344 L 104.273438 26.058594 C 104.273438 27.46875 103.304688 28.710938 101.917969 28.890625 C 101.378906 28.960938 100.828125 29.015625 100.355469 29.015625 C 99.746094 29.015625 99.007812 28.929688 98.335938 28.828125 C 97.175781 28.648438 96.285156 27.726562 96.085938 26.5625 C 95.773438 24.710938 95.359375 21.886719 95.359375 19.773438 C 95.359375 17.996094 95.648438 15.71875 95.929688 13.941406 C 96.023438 13.335938 96.25 12.757812 96.59375 12.246094 C 96.34375 13.921875 96.109375 15.914062 96.109375 17.507812 C 96.109375 19.625 96.523438 22.445312 96.835938 24.292969 C 97.035156 25.460938 97.925781 26.382812 99.089844 26.5625 C 99.757812 26.664062 100.496094 26.75 101.105469 26.75 C 101.578125 26.75 102.128906 26.699219 102.667969 26.628906 C 103.285156 26.546875 103.855469 26.246094 104.273438 25.777344 Z M 104.273438 25.777344 "/>
<path style=" stroke:none;fill-rule:evenodd;fill:rgb(100%,95.294118%,51.764706%);fill-opacity:1;" d="M 98.890625 11.75 C 98.722656 11.636719 98.523438 11.597656 98.328125 11.636719 C 98.132812 11.675781 97.960938 11.792969 97.847656 11.957031 L 98.472656 12.378906 C 97.847656 11.957031 97.847656 11.957031 97.847656 11.960938 L 97.84375 11.964844 L 97.839844 11.972656 C 97.8125 12.011719 97.789062 12.050781 97.765625 12.09375 C 97.703125 12.203125 97.640625 12.316406 97.585938 12.429688 C 97.4375 12.71875 97.25 13.140625 97.0625 13.6875 C 96.683594 14.785156 96.316406 16.390625 96.316406 18.464844 C 96.316406 18.664062 96.394531 18.855469 96.535156 19 C 96.675781 19.140625 96.867188 19.21875 97.066406 19.21875 C 97.265625 19.21875 97.457031 19.140625 97.597656 19 C 97.738281 18.855469 97.816406 18.664062 97.816406 18.464844 C 97.816406 16.574219 98.152344 15.136719 98.480469 14.179688 C 98.601562 13.816406 98.75 13.457031 98.921875 13.113281 C 98.976562 13.007812 99.03125 12.90625 99.09375 12.804688 L 99.097656 12.792969 M 99.097656 12.792969 L 99.097656 12.796875 Z M 99.097656 12.792969 "/>
<path style=" stroke:none;fill-rule:nonzero;fill:rgb(87.843137%,84.313725%,0%);fill-opacity:1;" d="M 121.085938 12.371094 C 121.085938 6.667969 116.769531 2.042969 111.445312 2.042969 C 106.121094 2.042969 101.804688 6.667969 101.804688 12.371094 C 101.804688 12.371094 100.980469 17.984375 100.789062 21.613281 C 100.421875 28.621094 101.804688 39.554688 101.804688 39.554688 C 101.804688 41.355469 103.167969 42.816406 104.847656 42.816406 L 106.878906 42.816406 C 108.558594 42.816406 109.648438 41.339844 109.648438 39.539062 L 109.921875 34.53125 C 111.277344 34.761719 112.664062 34.683594 113.980469 34.300781 L 115.824219 38.46875 C 115.824219 40.269531 116.171875 41.730469 117.855469 41.730469 L 119.882812 41.730469 C 122.167969 41.730469 122.804688 40.113281 122.925781 38.195312 C 123.433594 30.3125 123.113281 29.496094 123.113281 24.875 C 123.113281 20.253906 121.082031 12.371094 121.082031 12.371094 Z M 121.085938 12.371094 "/>
<path style=" stroke:none;fill-rule:evenodd;fill:rgb(0%,0%,0%);fill-opacity:1;" d="M 100.082031 39.554688 C 100.082031 41.355469 101.445312 42.816406 103.125 42.816406 L 105.15625 42.816406 C 106.835938 42.816406 108.238281 41.132812 108.503906 39.617188 L 109.921875 34.53125 C 110.414062 34.617188 110.914062 34.660156 111.421875 34.660156 L 111.445312 34.660156 C 112.304688 34.660156 113.15625 34.539062 113.980469 34.300781 L 115.824219 38.46875 C 115.824219 40.269531 116.175781 41.730469 117.855469 41.730469 L 119.882812 41.730469 C 122.167969 41.730469 122.804688 40.113281 122.929688 38.195312 C 123.199219 34.015625 121.90625 31.824219 122.367188 30 C 122.777344 28.378906 123.113281 27.046875 123.113281 24.875 C 123.113281 20.253906 121.085938 12.371094 121.085938 12.371094 C 121.085938 6.667969 116.769531 2.042969 111.445312 2.042969 C 106.121094 2.042969 101.804688 6.667969 101.804688 12.371094 C 101.804688 12.371094 100.984375 17.984375 100.792969 21.613281 C 100.421875 28.621094 100.082031 39.554688 100.082031 39.554688 Z M 100.304688 12.257812 C 100.363281 5.859375 105.242188 0.53125 111.445312 0.53125 C 117.621094 0.53125 122.484375 5.816406 122.582031 12.175781 L 122.628906 12.355469 C 122.972656 13.761719 123.289062 15.175781 123.570312 16.59375 C 124.078125 19.148438 124.613281 22.402344 124.613281 24.875 C 124.613281 27.238281 124.238281 28.726562 123.828125 30.359375 L 123.742188 30.683594 C 123.316406 32.386719 124.671875 34.46875 124.425781 38.292969 C 124.359375 39.339844 124.144531 40.570312 123.433594 41.5625 C 122.648438 42.660156 121.429688 43.238281 119.882812 43.238281 L 117.855469 43.238281 C 117.214844 43.238281 116.59375 43.097656 116.046875 42.761719 C 115.5 42.425781 115.121094 41.953125 114.871094 41.457031 C 114.402344 40.527344 114.5 39.363281 114.324219 38.476562 L 113.089844 35.992188 C 112.75 36.027344 111.792969 36.171875 111.445312 36.171875 L 111.421875 36.171875 L 109.921875 39.617188 C 109.128906 41.535156 109.09375 43.0625 108.148438 43.792969 C 107.824219 44.046875 107.546875 44.328125 106.878906 44.328125 L 103.125 44.328125 C 100.5625 44.328125 98.632812 42.160156 98.582031 39.65625 L 98.578125 39.617188 L 98.535156 39.25 C 98.304688 37.28125 98.925781 34.929688 98.796875 33.421875 C 98.496094 29.800781 99.101562 25.144531 99.292969 21.535156 C 99.390625 19.664062 99.652344 17.308594 99.882812 15.445312 C 100.011719 14.382812 100.15625 13.320312 100.304688 12.257812 Z M 100.304688 12.257812 "/>
<path style=" stroke:none;fill-rule:evenodd;fill:rgb(80.392157%,72.54902%,2.745098%);fill-opacity:1;" d="M 119.804688 11.585938 C 119.820312 11.828125 119.828125 12.074219 119.828125 12.320312 C 119.828125 12.320312 120.421875 14.621094 120.964844 17.460938 C 120.625 18.046875 120.144531 18.535156 119.566406 18.890625 C 118.988281 19.242188 118.335938 19.445312 117.664062 19.476562 L 110.292969 19.875 C 109.210938 19.929688 108.140625 19.621094 107.25 19 C 106.363281 18.371094 105.707031 17.464844 105.386719 16.425781 C 104.460938 13.382812 106.617188 10.269531 109.777344 10.101562 L 115.164062 9.8125 C 116.019531 9.765625 116.871094 9.902344 117.671875 10.207031 C 118.472656 10.511719 119.199219 10.984375 119.804688 11.589844 Z M 119.804688 11.585938 "/>
<path style=" stroke:none;fill-rule:evenodd;fill:rgb(80.392157%,72.54902%,2.745098%);fill-opacity:1;" d="M 122.617188 40.160156 C 122.351562 41.132812 121.28125 41.753906 119.792969 41.753906 L 117.675781 41.753906 C 115.996094 41.753906 115.824219 40.277344 115.824219 38.476562 L 113.980469 34.300781 C 113.15625 34.539062 112.304688 34.660156 111.445312 34.660156 L 111.421875 34.660156 L 111.238281 33.6875 C 112.648438 33.597656 113.449219 32.832031 114.765625 32.445312 L 116.53125 36.878906 C 116.632812 37.324219 116.734375 37.59375 116.796875 37.941406 C 116.890625 38.5 116.882812 38.742188 116.972656 39.363281 C 117.058594 39.804688 117.058594 40.070312 117.511719 40.21875 L 119.539062 40.21875 C 119.996094 40.21875 122.460938 39.390625 122.792969 39.273438 Z M 108.414062 39.980469 C 108.414062 40.25 108.238281 40.957031 107.445312 41.84375 C 107.203125 42.214844 106.296875 42.730469 105.503906 42.820312 L 103.121094 42.816406 C 101.441406 42.816406 100.035156 41.429688 100.035156 39.628906 C 100.035156 39.628906 100.421875 28.621094 100.792969 21.613281 C 100.984375 17.984375 101.804688 12.371094 101.804688 12.371094 C 101.804688 9.003906 103.308594 6.011719 105.636719 4.128906 C 104.183594 5.9375 103.304688 8.289062 103.304688 10.863281 C 103.304688 10.863281 102.484375 16.476562 102.292969 20.101562 C 101.921875 27.113281 103.304688 38.042969 103.304688 38.042969 C 103.304688 39.84375 104.085938 41.132812 105.769531 41.132812 L 106.738281 41.132812 C 107.886719 40.957031 108.035156 40.160156 108.414062 39.980469 Z M 108.414062 39.980469 "/>
<path style=" stroke:none;fill-rule:evenodd;fill:rgb(100%,95.294118%,51.764706%);fill-opacity:1;" d="M 111.21875 3.394531 C 111.15625 3.691406 111.277344 4 111.527344 4.171875 C 111.609375 4.230469 111.699219 4.269531 111.796875 4.289062 C 114.667969 4.910156 116.539062 6.855469 117.726562 9.121094 C 118.917969 11.402344 119.378906 13.941406 119.4375 15.566406 C 119.4375 15.609375 119.441406 15.648438 119.453125 15.691406 C 119.699219 16.90625 119.921875 18.125 120.117188 19.351562 C 120.34375 20.75 120.515625 22.054688 120.515625 22.757812 C 120.515625 24.675781 120.371094 27.046875 119.496094 29.117188 C 119.417969 29.300781 119.414062 29.507812 119.488281 29.695312 C 119.5625 29.882812 119.707031 30.03125 119.890625 30.109375 C 120.074219 30.1875 120.28125 30.1875 120.464844 30.113281 C 120.652344 30.039062 120.796875 29.894531 120.875 29.710938 C 121.878906 27.34375 122.015625 24.714844 122.015625 22.757812 C 122.015625 21.914062 121.824219 20.492188 121.601562 19.109375 C 121.402344 17.882812 121.179688 16.664062 120.933594 15.449219 C 120.863281 13.640625 120.355469 10.90625 119.054688 8.417969 C 117.730469 5.886719 115.542969 3.554688 112.109375 2.8125 C 111.917969 2.773438 111.714844 2.808594 111.546875 2.917969 C 111.378906 3.027344 111.261719 3.199219 111.21875 3.394531 Z M 111.21875 3.394531 "/>
<path style=" stroke:none;fill-rule:nonzero;fill:rgb(32.941176%,69.019608%,84.313725%);fill-opacity:1;" d="M 122.851562 11.898438 C 122.453125 10.582031 121.625 9.441406 120.503906 8.652344 C 119.382812 7.863281 118.03125 7.476562 116.664062 7.546875 L 111.277344 7.835938 C 108.121094 8.003906 105.960938 11.117188 106.890625 14.160156 C 107.207031 15.203125 107.863281 16.109375 108.753906 16.734375 C 109.640625 17.359375 110.710938 17.664062 111.796875 17.609375 L 119.164062 17.210938 C 121.820312 17.070312 123.632812 14.453125 122.851562 11.898438 Z M 122.851562 11.898438 "/>
<path style=" stroke:none;fill-rule:evenodd;fill:rgb(0%,0%,0%);fill-opacity:1;" d="M 116.585938 6.039062 L 111.199219 6.328125 C 107.066406 6.550781 104.238281 10.621094 105.457031 14.601562 C 105.871094 15.96875 106.730469 17.152344 107.894531 17.972656 C 109.054688 18.789062 110.457031 19.191406 111.875 19.117188 L 119.242188 18.722656 C 122.875 18.527344 125.355469 14.949219 124.289062 11.453125 C 123.789062 9.816406 122.757812 8.394531 121.363281 7.414062 C 119.96875 6.433594 118.285156 5.949219 116.585938 6.039062 Z M 116.664062 7.546875 C 118.03125 7.472656 119.382812 7.863281 120.503906 8.648438 C 121.625 9.441406 122.453125 10.582031 122.851562 11.894531 C 123.632812 14.453125 121.820312 17.070312 119.164062 17.210938 L 111.796875 17.609375 C 110.710938 17.664062 109.640625 17.359375 108.753906 16.734375 C 107.863281 16.109375 107.207031 15.203125 106.890625 14.160156 C 105.960938 11.117188 108.121094 8.003906 111.277344 7.835938 Z M 116.664062 7.546875 "/>
<path style=" stroke:none;fill-rule:evenodd;fill:rgb(25.098039%,53.333333%,63.921569%);fill-opacity:1;" d="M 122.488281 15.15625 C 122.152344 15.75 121.667969 16.25 121.085938 16.613281 C 120.507812 16.972656 119.84375 17.179688 119.164062 17.210938 L 111.796875 17.609375 C 110.710938 17.664062 109.640625 17.359375 108.753906 16.734375 C 107.863281 16.105469 107.207031 15.203125 106.890625 14.160156 C 106.265625 12.121094 107.03125 10.046875 108.554688 8.855469 C 108.1875 9.449219 107.949219 10.113281 107.859375 10.808594 C 107.773438 11.5 107.832031 12.203125 108.039062 12.871094 C 108.355469 13.914062 109.011719 14.820312 109.902344 15.445312 C 110.789062 16.070312 111.863281 16.378906 112.945312 16.320312 L 120.3125 15.925781 C 121.097656 15.886719 121.855469 15.617188 122.488281 15.15625 Z M 122.488281 15.15625 "/>
<path style=" stroke:none;fill-rule:nonzero;fill:rgb(44.313725%,84.705882%,97.647059%);fill-opacity:1;" d="M 121.554688 10.507812 C 121.152344 9.296875 119.390625 8.179688 117.875 8.226562 C 116.363281 8.269531 116.386719 8.085938 113.542969 8.355469 C 110.699219 8.621094 109.871094 10.144531 110.441406 11.867188 C 110.84375 13.078125 112.164062 13.714844 113.679688 13.671875 C 115.191406 13.625 116.375 14 118.484375 14 C 120.59375 14 122.128906 12.230469 121.554688 10.507812 Z M 121.554688 10.507812 "/>
<path style=" stroke:none;fill-rule:evenodd;fill:rgb(92.941176%,99.607843%,100%);fill-opacity:1;" d="M 119.585938 10.03125 L 119.78125 9.300781 C 119.972656 9.355469 120.136719 9.480469 120.234375 9.65625 C 120.335938 9.828125 120.359375 10.035156 120.308594 10.226562 C 120.257812 10.421875 120.128906 10.585938 119.957031 10.6875 C 119.785156 10.785156 119.578125 10.8125 119.386719 10.757812 L 119.390625 10.757812 L 119.378906 10.757812 L 119.328125 10.746094 C 119.28125 10.734375 119.210938 10.71875 119.113281 10.699219 C 118.832031 10.652344 118.554688 10.617188 118.269531 10.601562 C 117.554688 10.554688 116.566406 10.582031 115.488281 10.882812 C 115.296875 10.9375 115.09375 10.910156 114.917969 10.8125 C 114.558594 10.605469 114.429688 10.144531 114.632812 9.785156 C 114.730469 9.609375 114.894531 9.480469 115.085938 9.425781 C 116.152344 9.132812 117.261719 9.019531 118.367188 9.09375 C 118.703125 9.113281 119.042969 9.15625 119.375 9.214844 C 119.5 9.234375 119.621094 9.261719 119.742188 9.292969 L 119.765625 9.296875 L 119.773438 9.300781 L 119.78125 9.300781 Z M 119.585938 10.03125 "/>
<path style=" stroke:none;fill-rule:evenodd;fill:rgb(0%,0%,0%);fill-opacity:1;" d="M 115.8125 31.996094 C 115.675781 31.847656 115.488281 31.761719 115.289062 31.757812 C 115.089844 31.75 114.898438 31.824219 114.753906 31.960938 C 114.035156 32.636719 113.023438 33.191406 111.992188 33.625 C 110.96875 34.054688 109.980469 34.34375 109.351562 34.503906 C 109.050781 34.574219 108.824219 34.820312 108.777344 35.125 C 108.765625 35.222656 108.769531 35.324219 108.792969 35.421875 C 108.867188 35.71875 109.113281 35.941406 109.417969 35.984375 C 109.519531 36 109.617188 35.992188 109.714844 35.96875 C 110.6875 35.722656 111.644531 35.40625 112.570312 35.019531 C 113.671875 34.554688 114.871094 33.914062 115.777344 33.0625 C 115.921875 32.925781 116.007812 32.734375 116.015625 32.535156 C 116.023438 32.335938 115.949219 32.140625 115.8125 31.996094 Z M 115.8125 31.996094 "/>
<path style=" stroke:none;fill-rule:evenodd;fill:rgb(100%,95.294118%,51.764706%);fill-opacity:1;" d="M 107.414062 32.273438 C 107.214844 32.292969 107.03125 32.394531 106.90625 32.546875 C 106.78125 32.703125 106.722656 32.902344 106.742188 33.101562 C 106.835938 34.054688 106.894531 35.011719 106.917969 35.96875 C 106.941406 37.085938 106.902344 38.09375 106.761719 38.640625 C 106.714844 38.835938 106.742188 39.039062 106.84375 39.210938 C 107.054688 39.570312 107.515625 39.6875 107.871094 39.476562 C 108.042969 39.375 108.164062 39.210938 108.214844 39.015625 C 108.414062 38.242188 108.441406 37.039062 108.417969 35.933594 C 108.394531 34.9375 108.332031 33.941406 108.234375 32.949219 C 108.214844 32.75 108.117188 32.566406 107.960938 32.4375 C 107.808594 32.3125 107.609375 32.253906 107.414062 32.273438 Z M 107.414062 32.273438 "/>
</g>
</svg>
