<svg width="247" height="174" viewBox="0 0 247 174" fill="none" xmlns="http://www.w3.org/2000/svg">
<path d="M180.224 50.2447C212.398 50.2447 238.482 74.6853 238.482 104.827C238.482 134.969 212.398 159.405 180.224 159.405C180.224 159.405 148.562 164.066 128.099 165.149C88.5747 167.248 26.9141 159.405 26.9141 159.405C16.7531 159.405 8.51691 151.69 8.51691 142.17V130.682C8.51691 121.166 16.7531 113.447 26.9141 113.447H55.234C53.9356 105.785 54.3854 97.9287 56.5499 90.4636H33.0466C22.8855 90.4636 14.6493 88.4966 14.6493 78.9761V67.4887C14.6493 54.561 23.7628 50.95 34.5797 50.2532C79.0397 47.3771 83.639 38.7615 109.702 38.7615C135.764 38.7615 180.224 50.2532 180.224 50.2532V50.2447Z" fill="#FBE414"/>
<path fill-rule="evenodd" clip-rule="evenodd" d="M26.9145 159.401C16.7534 159.401 8.51724 151.686 8.51724 142.165V130.678C8.51724 121.162 16.7534 113.443 26.9145 113.443H55.2343C54.7659 110.673 54.5189 107.835 54.5103 104.946V104.823C54.5131 99.9646 55.1997 95.131 56.5502 90.4634H33.0469C22.8858 90.4634 14.6496 88.4922 14.6496 78.9717V67.4842C14.6496 54.5566 23.7631 50.9455 34.58 50.2488C58.1429 48.7237 70.51 45.5884 80.8073 42.9757C89.9421 40.6604 97.45 38.7571 109.702 38.7571C135.765 38.7571 180.225 50.2488 180.225 50.2488C212.399 50.2446 238.483 74.6809 238.483 104.823C238.483 134.965 212.399 159.401 180.225 159.401C180.225 159.401 148.562 164.061 128.099 165.145C88.575 167.243 26.9145 159.401 26.9145 159.401ZM180.864 167.897C216.947 167.575 247 139.944 247 104.823C247 69.8506 217.202 42.313 181.324 41.7607L180.319 41.5058C172.389 39.5537 164.418 37.7746 156.411 36.1699C141.995 33.2895 123.645 30.2605 109.702 30.2605C96.3726 30.2605 87.9746 32.3932 78.7845 34.7212L76.9533 35.1885C67.3288 37.6143 55.6006 40.3715 34.0264 41.7692C28.1154 42.1515 21.1781 43.3666 15.5865 47.3812C9.39877 51.825 6.1324 58.7242 6.1324 67.4842V78.9717C6.1324 82.5955 6.92877 86.1046 8.82385 89.2059C10.7232 92.3157 13.3806 94.4483 16.1913 95.8673C21.4294 98.514 27.7747 98.96 33.0469 98.96H46.2784C46.091 100.889 45.9931 102.847 45.9931 104.823V104.946H26.9145C12.5629 104.946 0 115.97 0 130.678V142.165C0 156.673 12.2222 167.6 26.3353 167.893L26.5695 167.923L28.6307 168.169C39.7262 169.474 50.8427 170.592 61.9757 171.526C82.4001 173.233 108.182 174.712 128.551 173.633C139.099 173.072 152.378 171.602 162.888 170.298C168.886 169.551 174.876 168.75 180.859 167.893L180.864 167.897Z" fill="black"/>
<path fill-rule="evenodd" clip-rule="evenodd" d="M184.356 50.3805C182.989 50.2955 181.613 50.2488 180.225 50.2488C180.225 50.2488 167.258 46.8926 151.224 43.8126C147.925 45.7463 145.159 48.4669 143.175 51.7303C141.19 54.9936 140.049 58.6975 139.853 62.5094L137.626 104.228C137.299 110.358 139.036 116.421 142.56 121.454C146.084 126.487 151.193 130.2 157.075 132.003C174.237 137.263 191.783 125.036 192.741 107.151L194.368 76.6478C194.627 71.8148 193.869 66.9811 192.144 62.4574C190.419 57.9337 187.765 53.82 184.352 50.3805H184.356Z" fill="#AA9A07"/>
<path fill-rule="evenodd" clip-rule="evenodd" d="M24.1933 52.3137C18.5123 54.5993 14.6498 59.0686 14.6498 67.4802V78.9719C14.6498 88.4881 22.8859 90.4636 33.047 90.4636H56.5503C55.1952 95.1302 54.5085 99.9645 54.5105 104.823V104.946H63.7517C62.4533 97.2837 62.9031 89.4278 65.0676 81.9627L41.5643 81.9627C31.4032 81.9627 23.167 79.9958 23.167 70.4753V58.9878C23.167 56.4091 23.529 54.2 24.1976 52.318L24.1933 52.3137ZM18.5464 115.325C12.5929 118.175 8.51736 123.983 8.51736 130.678V142.166C8.51736 151.682 16.7535 159.401 26.9146 159.401C26.9146 159.401 88.5752 167.243 128.099 165.145C148.562 164.061 180.225 159.401 180.225 159.401C199.214 159.401 216.083 150.892 226.716 137.718C216.517 145.938 203.251 150.904 188.742 150.904C188.742 150.904 157.079 155.565 136.617 156.648C97.0924 158.747 35.4318 150.904 35.4318 150.904C25.2708 150.904 17.0346 143.189 17.0346 133.669V122.182C17.0337 119.814 17.5496 117.474 18.5464 115.325Z" fill="#CDB907"/>
<path d="M182.609 33.1243C190.027 35.3991 196.47 40.0818 200.915 46.4282C205.359 52.7747 207.55 60.4208 207.139 68.1517L205.517 98.6546C204.563 116.54 187.013 128.767 169.851 123.507C163.968 121.703 158.858 117.99 155.334 112.956C151.81 107.923 150.074 101.858 150.402 95.7275L152.629 54.0133C153.429 38.9785 168.186 28.6976 182.609 33.1201V33.1243Z" fill="#D75454"/>
<path fill-rule="evenodd" clip-rule="evenodd" d="M215.648 68.606L214.021 99.1089C212.773 122.509 189.807 138.512 167.347 131.626C159.649 129.265 152.964 124.405 148.353 117.819C143.742 111.233 141.469 103.299 141.897 95.277L144.124 53.5627C145.219 33.0051 165.392 18.9517 185.114 24.9971C194.349 27.8279 202.371 33.6577 207.904 41.5594C213.437 49.4611 216.162 58.9812 215.648 68.606ZM207.144 68.1515C207.556 60.4197 205.366 52.7723 200.922 46.4248C196.477 40.0773 190.033 35.3942 182.614 33.1198C168.186 28.6973 153.43 38.9783 152.629 54.0173L150.402 95.7273C150.074 101.858 151.81 107.922 155.334 112.956C158.858 117.989 163.968 121.703 169.851 123.507C187.013 128.766 204.559 116.54 205.517 98.6544L207.144 68.1515Z" fill="black"/>
<path fill-rule="evenodd" clip-rule="evenodd" d="M164.238 35.1758C160.875 37.0942 158.049 39.825 156.021 43.1173C153.992 46.4095 152.826 50.1577 152.629 54.0171L150.401 95.7271C150.074 101.858 151.81 107.922 155.334 112.956C158.858 117.989 163.968 121.703 169.85 123.507C181.357 127.033 193.034 122.7 199.771 114.076C196.427 116.16 192.67 117.5 188.759 118.005C184.848 118.509 180.873 118.166 177.107 116.998C171.224 115.195 166.115 111.481 162.591 106.447C159.067 101.414 157.33 95.3496 157.658 89.2187L159.885 47.5087C160.108 43.0639 161.62 38.7793 164.238 35.1758Z" fill="#A34058"/>
<path d="M190.441 40.4656C197.285 42.7426 203.571 52.7262 203.319 61.2993C203.064 69.8724 204.111 69.7365 202.595 85.8333C201.088 101.934 192.494 106.629 182.788 103.392C175.941 101.115 172.355 93.6417 172.61 85.0686C172.857 76.4998 170.745 69.8044 170.745 57.8539C170.745 45.9076 180.732 37.2283 190.441 40.4656Z" fill="#F97189"/>
<path fill-rule="evenodd" clip-rule="evenodd" d="M59.3823 71.0446C59.8887 71.2814 60.3434 71.6154 60.7204 72.0275C61.0975 72.4396 61.3894 72.9218 61.5796 73.4465C61.7698 73.9712 61.8546 74.5281 61.829 75.0855C61.8035 75.6428 61.6681 76.1897 61.4307 76.6949C59.0629 81.7376 57.8449 88.1568 57.3211 94.4613C56.8058 100.711 56.9889 106.539 57.2445 110.21C57.292 110.771 57.2272 111.336 57.0537 111.872C56.8803 112.409 56.6017 112.905 56.2341 113.333C55.8666 113.76 55.4174 114.111 54.9128 114.364C54.4082 114.617 53.8582 114.767 53.2948 114.806C52.7315 114.845 52.166 114.771 51.6313 114.59C51.0966 114.409 50.6033 114.124 50.1802 113.75C49.7571 113.377 49.4127 112.924 49.1669 112.417C48.9211 111.91 48.7789 111.359 48.7485 110.796C48.3579 105.123 48.3864 99.4292 48.8337 93.7604C49.3958 87.0183 50.733 79.4478 53.7226 73.088C53.9596 72.5825 54.2941 72.1284 54.707 71.7519C55.12 71.3753 55.6033 71.0836 56.1293 70.8935C56.6552 70.7033 57.2137 70.6184 57.7726 70.6436C58.3315 70.6688 58.8799 70.8036 59.3865 71.0404L59.3823 71.0446Z" fill="black"/>
<path fill-rule="evenodd" clip-rule="evenodd" d="M68.381 120.168C68.266 121.288 67.7098 122.317 66.8345 123.028C65.9593 123.74 64.8367 124.075 63.7136 123.961C58.3392 123.431 52.9469 123.099 47.5479 122.967C41.2366 122.827 35.5556 123.052 32.4681 123.847C31.3753 124.124 30.217 123.958 29.247 123.384C28.277 122.811 27.5747 121.877 27.2939 120.787C27.0131 119.698 27.1769 118.542 27.7493 117.573C28.3217 116.604 29.256 115.901 30.3473 115.618C34.7124 114.5 41.4963 114.33 47.7395 114.471C54.1487 114.615 60.5835 115.099 64.5781 115.507C65.1346 115.564 65.6744 115.73 66.1667 115.995C66.6591 116.26 67.0942 116.619 67.4474 117.051C67.8005 117.484 68.0648 117.982 68.225 118.517C68.3852 119.052 68.4382 119.613 68.381 120.168Z" fill="#FFF384"/>
<path d="M93.1945 56.4691C88.713 52.7679 86.3218 49.1635 85.0075 46.7524C78.8973 35.5453 83.0654 26.3083 74.4673 22.9272C71.7629 21.8636 69.1344 21.8982 67.6197 19.6298C65.9737 17.1645 66.328 13.0062 69.6713 9.18612C71.8325 6.71667 74.9252 4.7511 78.256 3.60908C81.64 2.4489 85.6291 4.47743 87.5015 8.32726L107.5 49.4427L93.1945 56.4691Z" fill="#B28562"/>
<path d="M87.5022 8.32708L107.501 49.4425L103.826 51.2475L85.6171 13.8114C83.7445 9.96153 79.7556 7.93307 76.3716 9.09325C73.041 10.2351 69.948 12.2008 67.7869 14.6703C67.3834 15.1298 67.0094 15.6144 66.6671 16.121C66.6987 13.9935 67.6236 11.5267 69.672 9.18594C71.8332 6.71649 74.9259 4.75092 78.2568 3.60891C81.6407 2.44872 85.6299 4.47725 87.502 8.32702L87.5022 8.32708Z" fill="#A57A5D"/>
<path d="M107.502 49.4425L88.1752 58.9415L86.7966 59.6192C86.534 59.7502 86.3334 59.979 86.2381 60.2564C86.1428 60.5337 86.1603 60.8373 86.287 61.1018L102.643 94.7273C104.372 98.2857 107.036 101.509 110.249 104.097C110.512 104.308 110.776 104.515 111.046 104.716C118.268 110.15 127.976 112.426 136.179 108.4L107.502 49.4425Z" fill="#F2F2F2"/>
<path d="M136.178 108.4C134.943 109.005 133.648 109.48 132.315 109.817L107.677 59.1644C107.407 58.6089 107.03 58.1122 106.567 57.7029C106.104 57.2935 105.564 56.9796 104.98 56.7791C104.395 56.5786 103.776 56.4955 103.159 56.5346C102.542 56.5737 101.939 56.7341 101.384 57.0068L87.5921 63.7859L86.2867 61.1019C86.16 60.8374 86.1425 60.5337 86.2378 60.2564C86.3331 59.9791 86.5337 59.7503 86.7963 59.6193L88.1748 58.9416L107.501 49.4426L136.178 108.4Z" fill="#DEDEDE"/>
<path d="M91.4713 43.084C92.0688 41.3456 93.9574 40.4181 95.6896 41.0123C97.4218 41.6065 98.3416 43.4974 97.7441 45.2358C97.1465 46.9742 95.2579 47.9018 93.5257 47.3076C91.7935 46.7134 90.8737 44.8224 91.4713 43.084Z" fill="#FFE966"/>
<path d="M97.5897 42.6951C97.8704 43.274 97.9778 43.9217 97.8987 44.5601C97.8197 45.1986 97.5577 45.8006 97.1442 46.2938C97.1226 45.6236 96.8975 44.9758 96.4987 44.4363C96.1 43.8969 95.5464 43.4914 94.9115 43.2736C94.2767 43.0559 93.5905 43.0361 92.9442 43.217C92.2978 43.3979 91.7218 43.7709 91.2926 44.2865C91.2697 43.6436 91.4332 43.0077 91.7635 42.4555C92.0938 41.9032 92.5768 41.4581 93.1544 41.1736C93.5453 40.9811 93.9705 40.8678 94.4055 40.8401C94.8405 40.8125 95.2767 40.8711 95.6889 41.0125C96.1011 41.1539 96.4813 41.3753 96.8075 41.6641C97.1337 41.9529 97.3995 42.3032 97.5897 42.6951Z" fill="#FFE236"/>
<path d="M85.5431 28.2789C86.1406 26.5405 88.0292 25.613 89.7614 26.2072C91.4936 26.8014 92.4134 28.6923 91.8158 30.4307C91.2183 32.1691 89.3297 33.0967 87.5975 32.5025C85.8653 31.9083 84.9455 30.0173 85.5431 28.2789Z" fill="#FFE966"/>
<path d="M77.3487 14.0511C77.9463 12.3127 79.8349 11.3852 81.5671 11.9794C83.2993 12.5736 84.2191 14.4645 83.6215 16.2029C83.024 17.9413 81.1353 18.8689 79.4032 18.2747C77.671 17.6805 76.7512 15.7895 77.3487 14.0511Z" fill="#FFE966"/>
<path d="M87.1617 86.2344C84.6754 85.3815 82.0367 86.5024 81.2683 88.7378C80.4999 90.9733 81.8926 93.4771 84.379 94.33C86.8654 95.183 92.6516 92.6427 92.6516 92.6427C92.6516 92.6427 89.6483 87.0874 87.1617 86.2344Z" fill="#FF6666"/>
<path d="M92.6515 92.6428C92.6515 92.6428 91.7669 93.0307 90.5427 93.4521C89.4403 91.7613 87.7342 89.4966 86.2189 88.9768C84.2678 88.3075 82.2235 88.8539 81.0622 90.2C81.0368 89.7039 81.1067 89.2076 81.2681 88.7379C82.0365 86.5024 84.6751 85.3817 87.1615 86.2346C89.6481 87.0876 92.6515 92.6428 92.6515 92.6428Z" fill="#FF4E4E"/>
<path d="M71.3702 75.8386C69.1982 75.0936 66.8934 76.0727 66.2223 78.0252C65.5512 79.9776 66.7676 82.1647 68.9396 82.9098C71.1116 83.6549 76.1655 81.436 76.1655 81.436C76.1655 81.436 73.5421 76.5836 71.3702 75.8386Z" fill="#FF6666"/>
<path d="M76.1651 81.436C76.1651 81.436 75.2531 81.8362 74.0384 82.2393C73.0753 80.7977 71.677 79.0095 70.4271 78.5807C68.7961 78.0212 67.0903 78.4342 66.0576 79.5015C66.003 79.0033 66.0591 78.4992 66.222 78.0252C66.8931 76.0727 69.1979 75.0936 71.3699 75.8386C73.5419 76.5837 76.1651 81.436 76.1651 81.436Z" fill="#FF4E4E"/>
<path d="M86.2611 60.1956C86.2006 60.3398 86.1716 60.4952 86.1761 60.6515C86.1806 60.8078 86.2185 60.9613 86.2872 61.1018L102.643 94.7272C104.372 98.2856 107.037 101.509 110.249 104.097C110.512 104.307 110.776 104.515 111.047 104.716C112.624 100.371 112.11 97.6987 111.313 96.0437C110.369 94.085 109.08 93.6602 108.851 91.7471C108.51 88.8955 111.12 87.7336 110.509 85.5803C109.921 83.5091 107.32 83.9277 106.306 81.5397C105.343 79.2715 107.309 77.997 106.354 75.5653C105.566 73.5591 104.006 73.8952 102.564 71.4674C101.139 69.0679 102.295 68.1452 101.114 66.3779C99.645 64.1804 97.1072 64.4842 91.6411 62.5296C89.7983 61.871 88.001 61.0913 86.2611 60.1956Z" fill="#FF6666"/>
<path d="M110.37 98.7859C109.426 96.8272 108.137 96.4024 107.908 94.4892C107.739 93.0783 108.293 92.0812 108.822 91.173C108.819 91.3648 108.828 91.5566 108.851 91.7471C109.08 93.6602 110.369 94.085 111.313 96.0437C112.11 97.6987 112.624 100.371 111.047 104.716C110.998 104.68 110.951 104.643 110.903 104.607C111.417 101.888 110.976 100.043 110.37 98.7859ZM91.6411 62.5296C97.1072 64.4842 99.645 64.1804 101.114 66.3779C102.295 68.1452 101.139 69.068 102.564 71.4674C104.006 73.8953 105.566 73.5591 106.354 75.5653C107.309 77.997 105.343 79.2715 106.306 81.5397C107.32 83.9278 109.921 83.5091 110.509 85.5803C110.842 86.7551 110.217 87.635 109.635 88.6547C109.62 88.5425 109.597 88.4315 109.566 88.3225C108.979 86.2512 106.377 86.6699 105.363 84.2819C104.4 82.0137 106.366 80.7392 105.411 78.3074C104.623 76.3013 103.064 76.6374 101.622 74.2096C100.197 71.8101 101.352 70.8873 100.171 69.1201C98.7024 66.9226 96.1646 67.2263 90.6986 65.2718C89.5978 64.8782 88.6082 64.475 87.7427 64.0939L86.2872 61.1018C86.2185 60.9613 86.1806 60.8078 86.1761 60.6515C86.1716 60.4952 86.2006 60.3398 86.2611 60.1956C88.001 61.0913 89.7983 61.871 91.6411 62.5296Z" fill="#FF4E4E"/>
<path d="M91.6624 27.8898C91.9432 28.4687 92.0505 29.1163 91.9714 29.7547C91.8924 30.3932 91.6304 30.9952 91.217 31.4883C91.1953 30.8182 90.9702 30.1704 90.5714 29.631C90.1727 29.0917 89.6192 28.6862 88.9844 28.4684C88.3495 28.2507 87.6634 28.2309 87.0171 28.4118C86.3708 28.5927 85.7948 28.9656 85.3656 29.4811C85.3426 28.8383 85.5061 28.2025 85.8363 27.6502C86.1665 27.098 86.6494 26.6528 87.2269 26.3682C87.6179 26.1757 88.0431 26.0624 88.4781 26.0347C88.9131 26.0071 89.3493 26.0656 89.7616 26.2071C90.1738 26.3485 90.554 26.57 90.8802 26.8587C91.2065 27.1475 91.4723 27.4979 91.6624 27.8898ZM83.4681 13.662C83.7489 14.241 83.8561 14.8887 83.7771 15.5271C83.698 16.1656 83.4359 16.7676 83.0224 17.2607C83.0008 16.5906 82.7757 15.9428 82.3769 15.4034C81.9782 14.8641 81.4246 14.4586 80.7898 14.2408C80.155 14.0231 79.4689 14.0033 78.8226 14.1842C78.1763 14.365 77.6003 14.738 77.1711 15.2535C77.1481 14.6106 77.3116 13.9748 77.6418 13.4225C77.9721 12.8702 78.4551 12.425 79.0326 12.1405C79.4236 11.948 79.8488 11.8347 80.2839 11.807C80.7189 11.7794 81.155 11.8379 81.5673 11.9793C81.9795 12.1208 82.3597 12.3422 82.686 12.631C83.0122 12.9198 83.278 13.2702 83.4681 13.662Z" fill="#FFE236"/>
<path d="M109.43 106.078L134.832 94.3752L136.403 102.854L136.483 112.344L134.076 123.353L107.01 115.589L109.43 106.078Z" fill="#FBE414"/>
<path d="M113.434 106.544L110.442 107.568L110.429 106.07L112.417 104.554L113.917 104.542L114.908 103.534L115.404 103.031L117.904 103.01L118.904 103.001L118.891 101.503L120.383 100.491L121.882 100.479L123.382 100.466L124.37 98.9591L126.365 98.4427L128.844 95.9243L130.836 94.9084C131.17 95.0721 131.841 95.4994 131.844 95.899L131.865 98.3963C131.869 98.8958 131.374 99.3995 130.882 100.403C130.489 101.205 130.399 102.405 130.403 102.904C130.071 103.074 129.308 103.513 128.912 103.916C128.416 104.42 127.42 104.927 126.429 105.935C125.437 106.942 121.933 106.472 120.433 106.485C118.933 106.498 115.942 107.522 115.442 107.526C115.042 107.53 113.937 106.873 113.434 106.544Z" fill="#FF6666"/>
</svg>
