<svg width="247" height="174" viewBox="0 0 247 174" fill="none" xmlns="http://www.w3.org/2000/svg">
<path d="M180.225 50.2448C212.399 50.2448 238.483 74.6854 238.483 104.827C238.483 134.969 212.399 159.405 180.225 159.405C180.225 159.405 148.562 164.066 128.099 165.149C88.5752 167.248 26.9146 159.405 26.9146 159.405C16.7536 159.405 8.5174 151.69 8.5174 142.17V130.682C8.5174 121.166 16.7536 113.447 26.9146 113.447H55.2345C53.9361 105.785 54.3858 97.9287 56.5504 90.4636H33.047C22.886 90.4636 14.6498 88.4966 14.6498 78.9762V67.4887C14.6498 54.5611 23.7632 50.95 34.5801 50.2533C79.0401 47.3772 83.6395 38.7616 109.702 38.7616C135.765 38.7616 180.225 50.2533 180.225 50.2533V50.2448Z" fill="#08B49F"/>
<path fill-rule="evenodd" clip-rule="evenodd" d="M26.9145 159.401C16.7534 159.401 8.51724 151.686 8.51724 142.165V130.678C8.51724 121.162 16.7534 113.443 26.9145 113.443H55.2343C54.7659 110.673 54.5189 107.835 54.5103 104.946V104.823C54.5131 99.9647 55.1997 95.131 56.5502 90.4635H33.0469C22.8858 90.4635 14.6496 88.4922 14.6496 78.9718V67.4843C14.6496 54.5567 23.7631 50.9456 34.58 50.2489C58.1429 48.7237 70.51 45.5885 80.8073 42.9758C89.9421 40.6604 97.45 38.7572 109.702 38.7572C135.765 38.7572 180.225 50.2489 180.225 50.2489C212.399 50.2446 238.483 74.681 238.483 104.823C238.483 134.965 212.399 159.401 180.225 159.401C180.225 159.401 148.562 164.061 128.099 165.145C88.575 167.243 26.9145 159.401 26.9145 159.401ZM180.864 167.898C216.947 167.575 247 139.944 247 104.823C247 69.8506 217.202 42.313 181.324 41.7608L180.319 41.5059C172.389 39.5537 164.418 37.7747 156.411 36.17C141.995 33.2896 123.645 30.2606 109.702 30.2606C96.3726 30.2606 87.9746 32.3932 78.7845 34.7213L76.9533 35.1886C67.3288 37.6144 55.6006 40.3716 34.0264 41.7692C28.1154 42.1516 21.1781 43.3666 15.5865 47.3813C9.39877 51.825 6.1324 58.7243 6.1324 67.4843V78.9718C6.1324 82.5956 6.92877 86.1047 8.82385 89.206C10.7232 92.3157 13.3806 94.4484 16.1913 95.8673C21.4294 98.514 27.7747 98.9601 33.0469 98.9601H46.2784C46.091 100.889 45.9931 102.847 45.9931 104.823V104.946H26.9145C12.5629 104.946 0 115.97 0 130.678V142.165C0 156.673 12.2222 167.6 26.3353 167.893L26.5695 167.923L28.6307 168.169C39.7262 169.474 50.8427 170.592 61.9757 171.526C82.4001 173.233 108.182 174.712 128.551 173.633C139.099 173.072 152.378 171.602 162.888 170.298C168.886 169.551 174.876 168.75 180.859 167.893L180.864 167.898Z" fill="black"/>
<path fill-rule="evenodd" clip-rule="evenodd" d="M184.356 50.3805C182.989 50.2955 181.613 50.2488 180.225 50.2488C180.225 50.2488 167.258 46.8926 151.224 43.8126C147.925 45.7463 145.159 48.4669 143.175 51.7303C141.19 54.9936 140.049 58.6975 139.853 62.5094L137.626 104.228C137.299 110.358 139.036 116.421 142.56 121.454C146.084 126.487 151.193 130.2 157.075 132.003C174.237 137.263 191.783 125.036 192.741 107.151L194.368 76.6478C194.627 71.8148 193.869 66.9811 192.144 62.4574C190.419 57.9337 187.765 53.82 184.352 50.3805H184.356Z" fill="#05434B"/>
<path fill-rule="evenodd" clip-rule="evenodd" d="M24.1933 52.3137C18.5123 54.5993 14.6498 59.0685 14.6498 67.4802V78.9719C14.6498 88.4881 22.8859 90.4636 33.047 90.4636H56.5503C55.1952 95.1301 54.5085 99.9644 54.5105 104.823V104.946H63.7517C62.4533 97.2836 62.9031 89.4278 65.0676 81.9627L41.5643 81.9627C31.4032 81.9627 23.167 79.9957 23.167 70.4752V58.9878C23.167 56.409 23.529 54.1999 24.1976 52.3179L24.1933 52.3137ZM18.5464 115.325C12.5929 118.175 8.51736 123.983 8.51736 130.678V142.166C8.51736 151.682 16.7535 159.401 26.9146 159.401C26.9146 159.401 88.5752 167.243 128.099 165.145C148.562 164.061 180.225 159.401 180.225 159.401C199.214 159.401 216.083 150.892 226.716 137.718C216.517 145.938 203.251 150.904 188.742 150.904C188.742 150.904 157.079 155.565 136.617 156.648C97.0924 158.747 35.4318 150.904 35.4318 150.904C25.2708 150.904 17.0346 143.189 17.0346 133.669V122.181C17.0337 119.814 17.5496 117.474 18.5464 115.325Z" fill="#05434B"/>
<path d="M182.61 33.1244C190.028 35.3992 196.471 40.0818 200.915 46.4283C205.36 52.7747 207.551 60.4209 207.14 68.1518L205.517 98.6547C204.563 116.54 187.013 128.767 169.851 123.507C163.968 121.704 158.859 117.99 155.335 112.956C151.811 107.923 150.074 101.858 150.402 95.7276L152.629 54.0134C153.43 38.9786 168.186 28.6976 182.61 33.1201V33.1244Z" fill="#D75454"/>
<path fill-rule="evenodd" clip-rule="evenodd" d="M215.648 68.6061L214.021 99.109C212.773 122.509 189.807 138.512 167.347 131.626C159.649 129.265 152.964 124.405 148.353 117.819C143.742 111.233 141.469 103.299 141.897 95.277L144.124 53.5628C145.219 33.0052 165.392 18.9518 185.114 24.9971C194.349 27.828 202.371 33.6577 207.904 41.5595C213.437 49.4612 216.162 58.9813 215.648 68.6061ZM207.144 68.1515C207.556 60.4198 205.366 52.7723 200.922 46.4249C196.477 40.0774 190.033 35.3942 182.614 33.1199C168.186 28.6974 153.43 38.9783 152.629 54.0174L150.402 95.7273C150.074 101.858 151.81 107.922 155.334 112.956C158.858 117.989 163.968 121.703 169.851 123.507C187.013 128.767 204.559 116.54 205.517 98.6544L207.144 68.1515Z" fill="black"/>
<path fill-rule="evenodd" clip-rule="evenodd" d="M164.238 35.1758C160.875 37.0942 158.05 39.825 156.021 43.1173C153.993 46.4095 152.826 50.1577 152.629 54.0171L150.402 95.7271C150.074 101.858 151.81 107.922 155.334 112.956C158.858 117.989 163.968 121.703 169.851 123.507C181.358 127.033 193.035 122.7 199.772 114.076C196.427 116.16 192.671 117.5 188.76 118.005C184.848 118.509 180.874 118.166 177.108 116.998C171.225 115.195 166.115 111.481 162.591 106.447C159.067 101.414 157.331 95.3496 157.658 89.2187L159.886 47.5087C160.108 43.0639 161.62 38.7793 164.238 35.1758Z" fill="#A34058"/>
<path d="M190.442 40.4656C197.285 42.7426 203.571 52.7262 203.32 61.2993C203.064 69.8724 204.112 69.7365 202.596 85.8333C201.088 101.934 192.494 106.629 182.789 103.392C175.941 101.115 172.355 93.6417 172.611 85.0686C172.858 76.4998 170.746 69.8044 170.746 57.8539C170.746 45.9076 180.732 37.2283 190.442 40.4656Z" fill="#F97189"/>
<path fill-rule="evenodd" clip-rule="evenodd" d="M59.3823 71.0445C59.8887 71.2813 60.3434 71.6153 60.7204 72.0275C61.0975 72.4396 61.3894 72.9217 61.5796 73.4464C61.7698 73.9711 61.8546 74.528 61.829 75.0854C61.8035 75.6428 61.6681 76.1896 61.4307 76.6948C59.0629 81.7376 57.8449 88.1568 57.3211 94.4613C56.8058 100.711 56.9889 106.539 57.2445 110.21C57.292 110.771 57.2272 111.336 57.0537 111.872C56.8803 112.409 56.6017 112.905 56.2341 113.333C55.8666 113.76 55.4174 114.111 54.9128 114.364C54.4082 114.617 53.8582 114.767 53.2948 114.806C52.7315 114.845 52.166 114.771 51.6313 114.59C51.0966 114.409 50.6033 114.123 50.1802 113.75C49.7571 113.377 49.4127 112.924 49.1669 112.417C48.9211 111.909 48.7789 111.359 48.7485 110.796C48.3579 105.123 48.3864 99.4291 48.8337 93.7603C49.3958 87.0182 50.733 79.4477 53.7226 73.088C53.9596 72.5824 54.2941 72.1284 54.707 71.7518C55.12 71.3753 55.6033 71.0836 56.1293 70.8934C56.6552 70.7033 57.2137 70.6184 57.7726 70.6436C58.3315 70.6688 58.8799 70.8036 59.3865 71.0403L59.3823 71.0445Z" fill="black"/>
<path fill-rule="evenodd" clip-rule="evenodd" d="M68.381 120.168C68.266 121.288 67.7098 122.317 66.8345 123.028C65.9593 123.74 64.8367 124.075 63.7136 123.961C58.3392 123.431 52.9469 123.099 47.5479 122.967C41.2366 122.827 35.5556 123.052 32.4681 123.847C31.3753 124.124 30.217 123.958 29.247 123.384C28.277 122.811 27.5747 121.877 27.2939 120.787C27.0131 119.698 27.1769 118.542 27.7493 117.573C28.3217 116.604 29.256 115.901 30.3473 115.618C34.7124 114.5 41.4963 114.33 47.7395 114.471C54.1487 114.615 60.5835 115.099 64.5781 115.507C65.1346 115.564 65.6744 115.73 66.1667 115.995C66.6591 116.26 67.0942 116.619 67.4474 117.051C67.8005 117.484 68.0648 117.982 68.225 118.517C68.3852 119.052 68.4382 119.613 68.381 120.168Z" fill="#076470"/>
<path d="M93.195 56.469C88.7135 52.7678 86.3223 49.1634 85.008 46.7523C78.8978 35.5451 83.0659 26.3082 74.4678 22.9271C71.7633 21.8635 69.1349 21.898 67.6201 19.6296C65.9742 17.1644 66.3285 13.0061 69.6718 9.186C71.833 6.71654 74.9257 4.75098 78.2565 3.60896C81.6405 2.44878 85.6296 4.47731 87.502 8.32714L107.501 49.4426L93.195 56.469Z" fill="#34302C"/>
<path d="M87.5027 8.32702L107.502 49.4425L103.827 51.2474L85.6175 13.8114C83.745 9.96147 79.756 7.93301 76.3721 9.09319C73.0415 10.2351 69.9485 12.2008 67.7873 14.6702C67.3839 15.1298 67.0099 15.6143 66.6676 16.1209C66.6992 13.9935 67.6241 11.5266 69.6725 9.18588C71.8337 6.71643 74.9264 4.75086 78.2573 3.60885C81.6412 2.44866 85.6303 4.47719 87.5025 8.32696L87.5027 8.32702Z" fill="#423E3B"/>
<path d="M107.502 49.4423L88.1757 58.9414L86.7971 59.6191C86.5345 59.7501 86.3339 59.9789 86.2386 60.2562C86.1433 60.5335 86.1608 60.8371 86.2875 61.1017L102.644 94.7271C104.372 98.2855 107.037 101.509 110.249 104.097C110.512 104.307 110.776 104.515 111.047 104.716C118.268 110.15 127.977 112.426 136.179 108.399L107.502 49.4423Z" fill="#F2F2F2"/>
<path d="M136.179 108.399C134.944 109.005 133.649 109.48 132.315 109.817L107.678 59.1643C107.407 58.6088 107.03 58.1121 106.567 57.7028C106.104 57.2934 105.565 56.9795 104.98 56.779C104.395 56.5785 103.777 56.4954 103.16 56.5345C102.543 56.5736 101.94 56.734 101.385 57.0067L87.5926 63.7858L86.2871 61.1018C86.1605 60.8373 86.1429 60.5336 86.2383 60.2563C86.3336 59.979 86.5342 59.7502 86.7968 59.6192L88.1753 58.9415L107.502 49.4424L136.179 108.399Z" fill="#DEDEDE"/>
<path d="M91.4718 43.084C92.0693 41.3456 93.9579 40.418 95.6901 41.0122C97.4223 41.6064 98.3421 43.4974 97.7446 45.2358C97.147 46.9742 95.2584 47.9017 93.5262 47.3075C91.794 46.7133 90.8742 44.8224 91.4718 43.084Z" fill="#FFE966"/>
<path d="M97.5902 42.695C97.8709 43.2739 97.9782 43.9216 97.8992 44.5601C97.8202 45.1985 97.5581 45.8006 97.1447 46.2937C97.1231 45.6235 96.898 44.9757 96.4992 44.4363C96.1004 43.8969 95.5469 43.4914 94.912 43.2736C94.2772 43.0558 93.591 43.036 92.9447 43.217C92.2983 43.3979 91.7223 43.7709 91.2931 44.2865C91.2702 43.6435 91.4337 43.0077 91.764 42.4554C92.0943 41.9032 92.5773 41.458 93.1549 41.1735C93.5458 40.9811 93.971 40.8677 94.406 40.8401C94.841 40.8124 95.2771 40.871 95.6894 41.0124C96.1016 41.1538 96.4818 41.3753 96.808 41.664C97.1342 41.9528 97.4 42.3032 97.5902 42.695Z" fill="#FFE236"/>
<path d="M85.5435 28.2789C86.1411 26.5405 88.0297 25.6129 89.7619 26.2071C91.4941 26.8013 92.4139 28.6923 91.8163 30.4307C91.2188 32.1691 89.3302 33.0966 87.598 32.5024C85.8658 31.9082 84.946 30.0173 85.5435 28.2789Z" fill="#FFE966"/>
<path d="M77.3492 14.0511C77.9468 12.3127 79.8354 11.3851 81.5676 11.9793C83.2997 12.5735 84.2195 14.4645 83.622 16.2029C83.0244 17.9413 81.1358 18.8688 79.4036 18.2746C77.6715 17.6804 76.7517 15.7895 77.3492 14.0511Z" fill="#FFE966"/>
<path d="M87.1617 86.2343C84.6754 85.3814 82.0367 86.5023 81.2683 88.7377C80.4999 90.9731 81.8926 93.477 84.379 94.3299C86.8654 95.1828 92.6516 92.6426 92.6516 92.6426C92.6516 92.6426 89.6483 87.0873 87.1617 86.2343Z" fill="#FF6666"/>
<path d="M92.652 92.6426C92.652 92.6426 91.7674 93.0305 90.5432 93.452C89.4407 91.7611 87.7346 89.4964 86.2194 88.9766C84.2683 88.3073 82.224 88.8537 81.0627 90.1998C81.0372 89.7038 81.1072 89.2074 81.2686 88.7377C82.037 86.5023 84.6756 85.3815 87.162 86.2344C89.6486 87.0874 92.652 92.6426 92.652 92.6426Z" fill="#FF4E4E"/>
<path d="M71.3702 75.8385C69.1982 75.0934 66.8934 76.0726 66.2223 78.025C65.5512 79.9775 66.7676 82.1646 68.9396 82.9097C71.1116 83.6547 76.1655 81.4359 76.1655 81.4359C76.1655 81.4359 73.5421 76.5835 71.3702 75.8385Z" fill="#FF6666"/>
<path d="M76.1656 81.4359C76.1656 81.4359 75.2535 81.8361 74.0389 82.2391C73.0758 80.7976 71.6775 79.0094 70.4276 78.5806C68.7966 78.0211 67.0908 78.4341 66.058 79.5014C66.0035 79.0032 66.0596 78.4991 66.2225 78.025C66.8936 76.0726 69.1984 75.0934 71.3704 75.8385C73.5424 76.5836 76.1656 81.4359 76.1656 81.4359Z" fill="#FF4E4E"/>
<path d="M86.2616 60.1955C86.2011 60.3397 86.172 60.4951 86.1765 60.6514C86.181 60.8077 86.2189 60.9612 86.2877 61.1016L102.644 94.7271C104.373 98.2855 107.037 101.509 110.249 104.097C110.512 104.307 110.777 104.514 111.047 104.716C112.625 100.371 112.111 97.6986 111.313 96.0436C110.369 94.0849 109.081 93.6601 108.851 91.747C108.51 88.8954 111.121 87.7335 110.51 85.5802C109.922 83.5089 107.32 83.9276 106.306 81.5396C105.343 79.2714 107.309 77.9969 106.354 75.5651C105.566 73.559 104.007 73.8951 102.565 71.4673C101.14 69.0678 102.295 68.145 101.114 66.3778C99.6455 64.1803 97.1077 64.484 91.6416 62.5295C89.7988 61.8708 88.0015 61.0912 86.2616 60.1955Z" fill="#FF6666"/>
<path d="M110.371 98.7858C109.427 96.8271 108.138 96.4023 107.909 94.4891C107.74 93.0782 108.294 92.0811 108.822 91.1729C108.819 91.3647 108.829 91.5565 108.851 91.747C109.081 93.6601 110.369 94.0849 111.313 96.0436C112.111 97.6986 112.625 100.371 111.047 104.716C110.999 104.68 110.951 104.643 110.904 104.606C111.417 101.888 110.976 100.043 110.371 98.7858ZM91.6416 62.5295C97.1077 64.484 99.6455 64.1803 101.114 66.3778C102.295 68.145 101.14 69.0678 102.565 71.4673C104.007 73.8952 105.566 73.559 106.354 75.5651C107.309 77.9969 105.343 79.2714 106.306 81.5396C107.321 83.9277 109.922 83.5089 110.51 85.5802C110.843 86.755 110.218 87.6349 109.636 88.6546C109.621 88.5424 109.598 88.4314 109.567 88.3223C108.979 86.2511 106.378 86.6698 105.364 84.2818C104.401 82.0136 106.366 80.7391 105.412 78.3073C104.624 76.3011 103.064 76.6372 101.622 74.2095C100.197 71.81 101.353 70.8872 100.172 69.1199C98.7029 66.9225 96.1651 67.2262 90.6991 65.2717C89.5983 64.8781 88.6087 64.4749 87.7432 64.0938L86.2877 61.1016C86.2189 60.9612 86.181 60.8077 86.1765 60.6514C86.172 60.4951 86.2011 60.3397 86.2616 60.1955C88.0015 61.0912 89.7988 61.8708 91.6416 62.5295Z" fill="#FF4E4E"/>
<path d="M91.6629 27.8897C91.9436 28.4686 92.0509 29.1163 91.9719 29.7547C91.8929 30.3931 91.6309 30.9951 91.2175 31.4883C91.1958 30.8181 90.9707 30.1704 90.5719 29.631C90.1732 29.0916 89.6197 28.6862 88.9848 28.4684C88.35 28.2506 87.6639 28.2309 87.0176 28.4117C86.3713 28.5926 85.7953 28.9655 85.3661 29.4811C85.3431 28.8382 85.5066 28.2024 85.8368 27.6501C86.167 27.0979 86.6499 26.6527 87.2274 26.3682C87.6184 26.1757 88.0436 26.0623 88.4786 26.0347C88.9136 26.007 89.3498 26.0656 89.7621 26.207C90.1743 26.3484 90.5545 26.5699 90.8807 26.8587C91.207 27.1475 91.4728 27.4979 91.6629 27.8897ZM83.4686 13.662C83.7493 14.2409 83.8566 14.8886 83.7776 15.5271C83.6985 16.1655 83.4364 16.7675 83.0229 17.2607C83.0013 16.5905 82.7762 15.9427 82.3774 15.4034C81.9787 14.864 81.4251 14.4585 80.7903 14.2408C80.1555 14.023 79.4694 14.0033 78.8231 14.1841C78.1768 14.365 77.6008 14.7379 77.1716 15.2534C77.1486 14.6105 77.3121 13.9747 77.6423 13.4224C77.9726 12.8701 78.4556 12.425 79.0331 12.1404C79.4241 11.948 79.8493 11.8346 80.2843 11.807C80.7193 11.7793 81.1555 11.8379 81.5678 11.9793C81.98 12.1207 82.3602 12.3422 82.6864 12.631C83.0127 12.9198 83.2785 13.2702 83.4686 13.662Z" fill="#FFE236"/>
<path d="M109.43 106.078L134.832 94.3751L136.404 102.854L136.484 112.344L134.077 123.353L107.011 115.589L109.43 106.078Z" fill="#08B49F"/>
<path d="M113.434 106.544L110.442 107.568L110.43 106.07L112.417 104.554L113.917 104.542L114.909 103.534L115.404 103.031L117.904 103.01L118.904 103.001L118.891 101.503L120.383 100.491L121.883 100.478L123.383 100.466L124.37 98.9589L126.366 98.4426L128.845 95.9241L130.836 94.9083C131.171 95.072 131.841 95.4993 131.845 95.8988L131.866 98.3962C131.87 98.8957 131.374 99.3994 130.883 100.403C130.489 101.205 130.4 102.405 130.404 102.904C130.072 103.073 129.309 103.513 128.912 103.916C128.416 104.419 127.421 104.927 126.429 105.935C125.438 106.942 121.934 106.472 120.434 106.485C118.934 106.497 115.942 107.522 115.442 107.526C115.042 107.529 113.937 106.873 113.434 106.544Z" fill="#FF6666"/>
</svg>
