<svg width="207" height="265" viewBox="0 0 207 265" fill="none" xmlns="http://www.w3.org/2000/svg">
<path d="M63.1079 78.3669C63.1079 69.8367 57.2427 62.3435 48.8268 61.2333C45.6943 60.7904 42.5373 60.5447 39.3743 60.4977C37.3965 60.4977 35.1913 60.6439 32.9498 60.8769C22.3106 61.9735 14.2266 70.5311 12.5535 81.1448C10.8575 91.9048 9.09343 105.671 9.09343 116.417C9.09343 129.229 11.5941 146.317 13.5037 157.501C14.7131 164.56 20.0964 170.139 27.1437 171.213C31.2085 171.834 35.6824 172.346 39.3743 172.346C42.2387 172.346 45.5759 172.035 48.8268 171.61C57.2382 170.5 63.1079 163.002 63.1079 154.477V78.3623V78.3669Z" fill="#CDB907"/>
<path fill-rule="evenodd" clip-rule="evenodd" d="M72.2012 154.477V78.3623C72.2012 65.7794 63.4579 53.9412 50.0089 52.1684C46.5807 51.7161 42.8069 51.3552 39.3742 51.3552C36.9826 51.3552 34.4456 51.5288 32.0177 51.7801C16.8181 53.3518 5.81519 65.487 3.57368 79.7102C1.86414 90.5386 0 104.908 0 116.417C0 130.078 2.63252 147.838 4.54668 159.046C6.37898 169.769 14.6448 178.541 25.7796 180.246C29.9853 180.885 34.9912 181.479 39.3742 181.479C42.8069 181.479 46.5807 181.114 50.0089 180.666C63.4579 178.893 72.2012 167.055 72.2012 154.468V154.477ZM48.8267 61.2333C57.2381 62.3435 63.1078 69.8366 63.1078 78.3669V154.477C63.1078 163.007 57.2426 170.505 48.8267 171.61C45.5759 172.04 42.2386 172.351 39.3742 172.351C35.6823 172.351 31.2084 171.839 27.1436 171.217C20.0963 170.144 14.713 164.565 13.5036 157.506C11.594 146.321 9.09335 129.233 9.09335 116.426C9.09335 105.676 10.8575 91.9093 12.5488 81.1494C14.2266 70.5357 22.3105 61.9826 32.9452 60.8815C35.1913 60.653 37.3964 60.5022 39.3742 60.5022C42.2386 60.5022 45.5759 60.8038 48.8267 61.2333Z" fill="black"/>
<path fill-rule="evenodd" clip-rule="evenodd" d="M63.1079 152.768V154.472C63.1079 163.002 57.2427 170.5 48.8268 171.606C45.5759 172.035 42.2387 172.346 39.3743 172.346C35.6824 172.346 31.2085 171.834 27.1437 171.213C20.0964 170.139 14.7131 164.56 13.5037 157.501C11.5941 146.317 9.09343 129.229 9.09343 116.422C9.09343 105.671 10.8576 91.9048 12.5489 81.1448C13.1229 77.4706 14.4952 73.9686 16.5682 70.8875C15.0541 81.0306 13.6401 93.0836 13.6401 102.715C13.6401 115.522 16.1408 132.61 18.0504 143.79C19.2598 150.854 24.6431 156.432 31.6904 157.506C35.7551 158.127 40.229 158.639 43.9209 158.639C46.7853 158.639 50.1226 158.328 53.3735 157.903C57.123 157.41 60.5745 155.589 63.1079 152.768Z" fill="#AA9A07"/>
<path fill-rule="evenodd" clip-rule="evenodd" d="M30.4903 67.8719C29.9933 67.5391 29.4358 67.3079 28.8499 67.1916C28.2639 67.0753 27.6609 67.0761 27.0753 67.1941C26.4896 67.312 25.9329 67.5448 25.4368 67.879C24.9407 68.2133 24.515 68.6425 24.184 69.1421L27.9669 71.6779C24.184 69.1421 24.184 69.1421 24.1795 69.1467L24.1749 69.1558L24.1613 69.1787L24.1249 69.2289C23.9685 69.4676 23.8199 69.7114 23.6793 69.96C23.4065 70.4351 23.0246 71.1113 22.5836 71.9886C21.697 73.7385 20.5467 76.2926 19.4055 79.6096C17.1276 86.2529 14.8952 95.9665 14.8952 108.513C14.8952 109.725 15.3742 110.887 16.2269 111.744C17.0795 112.601 18.236 113.082 19.4419 113.082C20.6477 113.082 21.8042 112.601 22.6568 111.744C23.5095 110.887 23.9885 109.725 23.9885 108.513C23.9885 97.0722 26.0209 88.3638 28.0032 82.5886C28.7495 80.376 29.6458 78.2175 30.6858 76.1281C31.0082 75.491 31.354 74.8662 31.7224 74.2548L31.7588 74.1954M31.7588 74.1954L31.7542 74.2045L31.7588 74.1954Z" fill="#FBE414"/>
<path d="M164.98 71.6414C164.98 37.1229 138.823 9.13794 106.565 9.13794C74.3061 9.13794 48.1536 37.1229 48.1536 71.6414C48.1536 71.6414 43.1659 105.612 42.0065 127.566C39.7604 169.97 48.1536 236.124 48.1536 236.124C48.1536 247.026 56.4104 255.862 66.5994 255.862H78.8936C89.0782 255.862 97.3395 247.026 97.3395 236.124V205.741C105.54 207.134 113.948 206.651 121.937 204.329V229.545C121.937 240.446 124.042 249.283 134.231 249.283H146.525C160.361 249.283 164.226 239.505 164.971 227.9C168.049 180.2 177.27 175.266 177.27 147.303C177.27 119.341 164.971 71.6414 164.971 71.6414H164.98Z" fill="#FBE414"/>
<path fill-rule="evenodd" clip-rule="evenodd" d="M48.1584 236.124C48.1584 247.026 56.4151 255.862 66.6042 255.862H78.8984C89.083 255.862 97.3443 247.026 97.3443 236.124V205.741C100.309 206.243 103.346 206.508 106.438 206.517H106.57C111.769 206.514 116.942 205.778 121.937 204.329V229.545C121.937 240.446 124.047 249.283 134.236 249.283H146.53C160.366 249.283 164.23 239.505 164.976 227.9C166.608 202.62 169.964 189.352 172.76 178.304C175.238 168.503 177.275 160.448 177.275 147.303C177.275 119.341 164.976 71.6414 164.976 71.6414C164.981 37.1228 138.828 9.13793 106.57 9.13793C74.3109 9.13793 48.1584 37.1228 48.1584 71.6414C48.1584 71.6414 43.1707 105.612 42.0113 127.566C39.7652 169.97 48.1584 236.124 48.1584 236.124ZM39.065 70.956C39.4106 32.2432 68.9822 0 106.57 0C143.998 0 173.469 31.9691 174.06 70.4626L174.333 71.5409C176.422 80.0481 178.326 88.6002 180.044 97.191C183.126 112.657 186.368 132.345 186.368 147.303C186.368 161.604 184.086 170.614 181.594 180.474L181.094 182.439C178.498 192.765 175.547 205.348 174.051 228.494C173.642 234.836 172.342 242.279 168.045 248.278C163.289 254.916 155.905 258.421 146.53 258.421H134.236C130.358 258.421 126.602 257.566 123.283 255.533C119.955 253.495 117.672 250.644 116.154 247.629C113.321 242.009 112.844 235.201 112.844 229.545V215.349C110.78 215.55 108.684 215.655 106.57 215.655H106.438V236.124C106.438 251.522 94.639 265 78.8984 265H66.6042C51.0774 265 39.3833 251.887 39.0696 236.746L39.0378 236.494L38.774 234.283C37.3783 222.379 36.1808 210.452 35.1822 198.508C33.3544 176.595 31.7722 148.935 32.927 127.081C33.5272 115.764 35.1003 101.518 36.4962 90.2416C37.2952 83.8068 38.153 77.3796 39.0696 70.9606L39.065 70.956Z" fill="black"/>
<path fill-rule="evenodd" clip-rule="evenodd" d="M164.835 67.2095C164.926 68.6761 164.976 70.1519 164.976 71.6414C164.976 71.6414 168.568 85.5539 171.864 102.756C169.795 106.295 166.883 109.263 163.391 111.392C159.898 113.521 155.934 114.745 151.854 114.955L107.206 117.345C100.645 117.695 94.1563 115.832 88.7702 112.051C83.3842 108.27 79.4102 102.789 77.4799 96.4783C71.8511 78.0653 84.9364 59.2412 104.078 58.2132L136.723 56.4678C141.895 56.1901 147.069 57.0027 151.91 58.8534C156.751 60.7041 161.154 63.552 164.835 67.214V67.2095Z" fill="#CDB907"/>
<path fill-rule="evenodd" clip-rule="evenodd" d="M162.767 239.044C160.32 245.139 155.537 249.283 146.535 249.283H134.236C124.052 249.283 121.937 240.446 121.937 229.545V204.329C116.943 205.783 111.769 206.519 106.57 206.517H106.438V196.603C114.638 197.996 123.046 197.513 131.035 195.191V220.407C131.035 231.308 133.14 240.145 143.33 240.145H155.624C158.384 240.145 160.748 239.756 162.762 239.039L162.767 239.044ZM95.3304 245.102C92.2795 251.49 86.0642 255.862 78.8987 255.862H66.6045C56.4199 255.862 48.1586 247.026 48.1586 236.124C48.1586 236.124 39.7655 169.97 42.0115 127.565C43.1709 105.612 48.1586 71.6414 48.1586 71.6414C48.1586 51.2683 57.2656 33.1707 71.3648 21.762C62.567 32.7046 57.252 46.937 57.252 62.5034C57.252 62.5034 52.2643 96.4737 51.1049 118.428C48.8588 160.832 57.252 226.986 57.252 226.986C57.252 237.888 65.5087 246.724 75.6978 246.724H87.992C90.5263 246.725 93.0304 246.172 95.3304 245.102Z" fill="#CDB907"/>
<path d="M194.481 81.5774C191.487 69.8634 185.322 59.6889 176.968 52.6706C168.613 45.6523 158.547 42.1927 148.37 42.8417L108.215 45.4039C84.6702 46.9103 68.5746 74.6238 75.4983 101.725C77.8728 111.015 82.7619 119.084 89.3881 124.649C96.0144 130.214 103.998 132.956 112.068 132.438L166.982 128.921C186.775 127.657 200.309 104.355 194.487 81.5774H194.481Z" fill="#54B0D7"/>
<path fill-rule="evenodd" clip-rule="evenodd" d="M147.978 29.8658L107.99 32.4141C77.3147 34.3687 56.3353 70.345 65.3631 105.527C68.4579 117.585 74.8284 128.057 83.4622 135.28C92.0959 142.504 102.497 146.063 113.014 145.393L167.699 141.904C194.648 140.19 213.072 108.589 205.146 77.6964C201.435 63.2291 193.793 50.6631 183.434 41.9965C173.076 33.3298 160.595 29.06 147.978 29.8658ZM148.574 43.1877C158.71 42.5412 168.735 45.9718 177.056 52.9341C185.377 59.8963 191.516 69.9906 194.498 81.6122C200.296 104.213 186.818 127.328 167.103 128.582L112.423 132.071C104.386 132.584 96.4364 129.865 89.8379 124.344C83.2393 118.824 78.3706 110.82 76.006 101.605C69.1112 74.7211 85.1396 47.2369 108.586 45.736L148.574 43.1877Z" fill="black"/>
<path fill-rule="evenodd" clip-rule="evenodd" d="M191.667 110.143C189.159 115.391 185.589 119.801 181.285 122.967C176.98 126.133 172.08 127.954 167.034 128.262L112.503 131.738C104.488 132.249 96.5595 129.539 89.9788 124.039C83.3981 118.539 78.5427 110.564 76.1844 101.382C71.5745 83.4229 77.2397 65.1976 88.5147 54.6826C85.7896 59.9031 84.0375 65.7657 83.378 71.8704C82.7185 77.975 83.1672 84.1781 84.6935 90.0563C87.0517 99.2381 91.9071 107.213 98.4878 112.713C105.069 118.213 112.997 120.923 121.012 120.412L175.543 116.936C181.354 116.589 186.956 114.229 191.667 110.143Z" fill="#4088A3"/>
<path d="M185.172 69.7532C182.195 59.0373 169.14 49.1949 157.93 49.5883C146.72 49.9884 146.898 48.348 125.849 50.7219C104.795 53.0825 98.6568 66.5391 102.89 81.736C105.867 92.4586 115.639 98.0733 126.849 97.6732C138.054 97.2865 146.809 100.594 162.435 100.594C178.056 100.594 189.405 84.9568 185.172 69.7532Z" fill="#71D8F9"/>
<path fill-rule="evenodd" clip-rule="evenodd" d="M170.681 69.4197L172.781 63.2762C174.162 63.9335 175.266 65.2116 175.849 66.8292C176.431 68.4468 176.446 70.2714 175.889 71.9017C175.332 73.5319 174.249 74.8342 172.879 75.5222C171.509 76.2101 169.963 76.2273 168.582 75.5699H168.593L168.525 75.5368L168.161 75.3843C167.824 75.2385 167.29 75.0265 166.583 74.7746C165.162 74.2643 163.063 73.6016 160.424 73.025C155.129 71.8718 147.769 71.1031 139.504 72.6075C138.032 72.8755 136.53 72.4424 135.329 71.4033C134.127 70.3643 133.325 68.8045 133.098 67.067C132.871 65.3295 133.238 63.5568 134.118 62.1386C134.998 60.7205 136.32 59.7733 137.792 59.5052C145.979 58.0454 154.315 58.2089 162.456 59.989C164.952 60.5252 167.421 61.2266 169.851 62.0899C170.748 62.4124 171.637 62.766 172.517 63.1503L172.686 63.2298L172.742 63.2563L172.764 63.2695H172.776L170.681 69.4197Z" fill="#EDFEFF"/>
<path fill-rule="evenodd" clip-rule="evenodd" d="M142.72 201.29C142.467 200.747 142.109 200.259 141.668 199.855C141.227 199.45 140.711 199.137 140.149 198.933C139.588 198.729 138.992 198.638 138.395 198.665C137.799 198.693 137.214 198.838 136.673 199.093C131.276 201.633 124.406 202.94 117.659 203.502C110.971 204.055 104.733 203.858 100.804 203.584C100.203 203.533 99.5986 203.603 99.0248 203.789C98.451 203.975 97.9198 204.274 97.4621 204.668C97.0044 205.062 96.6293 205.544 96.3586 206.086C96.0879 206.627 95.9271 207.217 95.8855 207.821C95.8439 208.426 95.9223 209.033 96.1162 209.606C96.3102 210.18 96.6157 210.709 97.015 211.163C97.4144 211.617 97.8996 211.986 98.4424 212.25C98.9852 212.514 99.5748 212.666 100.177 212.699C106.248 213.118 112.342 213.088 118.409 212.608C125.625 212.005 133.727 210.57 140.533 207.363C141.074 207.108 141.56 206.749 141.963 206.306C142.366 205.863 142.678 205.345 142.882 204.78C143.085 204.216 143.176 203.617 143.149 203.017C143.122 202.418 142.978 201.829 142.725 201.286L142.72 201.29Z" fill="black"/>
<path fill-rule="evenodd" clip-rule="evenodd" d="M90.1466 191.636C88.9475 191.759 87.8463 192.356 87.0849 193.295C86.3236 194.234 85.9644 195.439 86.0864 196.644C86.6545 202.41 87.0094 208.195 87.1503 213.987C87.3004 220.759 87.0594 226.854 86.2092 230.166C85.9125 231.339 86.0905 232.581 86.7043 233.622C87.3181 234.663 88.3176 235.416 89.4834 235.717C90.6493 236.019 91.8865 235.843 92.9237 235.229C93.9608 234.615 94.7133 233.612 95.0161 232.442C96.2119 227.758 96.3937 220.48 96.2437 213.782C96.0891 206.906 95.5708 200.002 95.1343 195.716C95.0735 195.119 94.8963 194.54 94.6127 194.012C94.3291 193.484 93.9448 193.017 93.4816 192.638C93.0184 192.259 92.4855 191.975 91.9132 191.804C91.341 191.632 90.7407 191.575 90.1466 191.636Z" fill="#FFF384"/>
<path d="M104.968 162.496C100.635 166.754 96.634 168.845 93.9887 169.947C81.6931 175.068 72.5746 169.699 68.1198 178.282C66.7184 180.982 66.4642 183.725 63.9448 185.051C61.2068 186.492 56.9339 185.661 53.3415 181.753C51.0193 179.227 49.3223 175.786 48.5057 172.188C47.676 168.533 50.2197 164.602 54.4185 163.079L99.2605 146.808L104.968 162.496Z" fill="#B28562"/>
<path d="M54.4194 163.078L99.2615 146.808L100.728 150.838L59.8984 165.652C55.6996 167.176 53.156 171.107 53.9856 174.762C54.8022 178.359 56.4993 181.8 58.8215 184.326C59.2535 184.798 59.7147 185.241 60.2023 185.654C57.9997 185.385 55.5437 184.147 53.3425 181.753C51.0202 179.226 49.3233 175.785 48.5066 172.188C47.677 168.533 50.2207 164.602 54.4193 163.079L54.4194 163.078Z" fill="#A57A5D"/>
<path d="M99.2606 146.807L106.978 168.001L107.529 169.512C107.636 169.801 107.851 170.035 108.128 170.165C108.405 170.295 108.722 170.311 109.01 170.208L145.683 156.902C149.564 155.495 153.2 153.077 156.238 150.018C156.486 149.767 156.73 149.515 156.968 149.255C163.4 142.334 166.831 132.471 163.561 123.477L99.2606 146.807Z" fill="#F2F2F2"/>
<path d="M163.561 123.477C164.053 124.831 164.403 126.233 164.605 127.66L109.361 147.704C108.755 147.924 108.199 148.262 107.723 148.699C107.247 149.136 106.862 149.663 106.59 150.25C106.318 150.837 106.163 151.472 106.136 152.12C106.108 152.767 106.208 153.413 106.429 154.021L111.937 169.146L109.01 170.208C108.722 170.311 108.405 170.295 108.128 170.165C107.851 170.035 107.636 169.801 107.529 169.512L106.978 168.001L99.2605 146.807L163.561 123.477Z" fill="#DEDEDE"/>
<path d="M90.8987 162.805C89.162 161.989 88.4085 159.918 89.2158 158.179C90.0231 156.44 92.0855 155.692 93.8222 156.508C95.5589 157.324 96.3123 159.395 95.505 161.133C94.6977 162.872 92.6354 163.621 90.8987 162.805Z" fill="#FFE966"/>
<path d="M91.1698 156.386C91.8011 156.157 92.4846 156.117 93.1379 156.271C93.7912 156.424 94.3866 156.764 94.8524 157.25C94.155 157.198 93.4584 157.36 92.8551 157.716C92.2517 158.071 91.7701 158.603 91.4742 159.24C91.1783 159.878 91.0822 160.59 91.1984 161.284C91.3147 161.978 91.6379 162.619 92.1252 163.124C91.456 163.076 90.8147 162.835 90.2785 162.43C89.7422 162.024 89.3339 161.471 89.1026 160.838C88.9462 160.409 88.8756 159.954 88.8949 159.497C88.9143 159.041 89.0231 158.593 89.2153 158.179C89.4074 157.765 89.679 157.394 90.0144 157.086C90.3499 156.778 90.7425 156.54 91.1698 156.386Z" fill="#FFE236"/>
<path d="M74.8918 167.336C73.1551 166.52 72.4017 164.449 73.209 162.711C74.0163 160.972 76.0786 160.223 77.8154 161.039C79.5521 161.855 80.3055 163.926 79.4982 165.665C78.6909 167.404 76.6285 168.152 74.8918 167.336Z" fill="#FFE966"/>
<path d="M59.2341 174.294C57.4974 173.478 56.744 171.407 57.5513 169.668C58.3586 167.929 60.4209 167.181 62.1576 167.997C63.8944 168.812 64.6478 170.883 63.8405 172.622C63.0332 174.361 60.9708 175.11 59.2341 174.294Z" fill="#FFE966"/>
<path d="M75.1636 160.917C75.7949 160.689 76.4784 160.649 77.1317 160.802C77.7849 160.955 78.3803 161.295 78.8461 161.781C78.1487 161.729 77.4522 161.892 76.8489 162.247C76.2456 162.603 75.7641 163.134 75.4682 163.772C75.1723 164.409 75.0761 165.122 75.1924 165.815C75.3086 166.509 75.6318 167.15 76.119 167.655C75.4498 167.607 74.8085 167.366 74.2723 166.961C73.7361 166.556 73.3277 166.003 73.0964 165.37C72.94 164.941 72.8693 164.485 72.8887 164.029C72.908 163.572 73.0168 163.124 73.209 162.711C73.4011 162.297 73.6727 161.925 74.0082 161.617C74.3437 161.31 74.7363 161.071 75.1636 160.917ZM59.5058 167.874C60.1371 167.646 60.8206 167.606 61.4739 167.76C62.1272 167.913 62.7226 168.253 63.1883 168.739C62.491 168.687 61.7944 168.849 61.1911 169.205C60.5878 169.561 60.1063 170.092 59.8104 170.729C59.5146 171.367 59.4184 172.079 59.5346 172.773C59.6508 173.467 59.974 174.108 60.4612 174.613C59.792 174.565 59.1507 174.324 58.6144 173.919C58.0782 173.513 57.6699 172.961 57.4386 172.327C57.2821 171.898 57.2115 171.443 57.2308 170.986C57.2501 170.53 57.359 170.082 57.5511 169.668C57.7433 169.254 58.0149 168.883 58.3503 168.575C58.6858 168.267 59.0785 168.029 59.5058 167.874Z" fill="#FFE236"/>
<path d="M111.197 169.531C111.335 169.604 111.488 169.647 111.644 169.657C111.8 169.667 111.956 169.643 112.102 169.587L147.08 156.368C150.781 154.971 154.234 152.612 157.104 149.649C157.338 149.407 157.569 149.162 157.794 148.911C153.611 146.944 150.903 147.212 149.182 147.855C147.145 148.616 146.605 149.861 144.679 149.914C141.808 149.994 140.889 147.289 138.689 147.701C136.573 148.097 136.752 150.726 134.282 151.517C131.935 152.27 130.845 150.196 128.336 150.925C126.267 151.526 126.459 153.11 123.91 154.324C121.39 155.524 120.577 154.289 118.709 155.304C116.387 156.566 116.458 159.121 114.013 164.386C113.189 166.161 112.248 167.88 111.197 169.531Z" fill="#FF6666"/>
<path d="M151.827 149.044C149.79 149.805 149.249 151.05 147.323 151.103C145.903 151.143 144.96 150.5 144.104 149.891C144.295 149.912 144.487 149.92 144.679 149.914C146.605 149.861 147.145 148.616 149.182 147.855C150.903 147.212 153.611 146.944 157.794 148.911C157.754 148.956 157.712 149 157.672 149.044C155.012 148.285 153.134 148.555 151.827 149.044ZM114.013 164.386C116.458 159.121 116.387 156.566 118.709 155.304C120.577 154.289 121.39 155.524 123.91 154.324C126.459 153.11 126.267 151.526 128.336 150.925C130.845 150.196 131.935 152.27 134.282 151.517C136.752 150.725 136.573 148.097 138.689 147.701C139.889 147.476 140.708 148.179 141.671 148.851C141.558 148.856 141.445 148.869 141.334 148.889C139.217 149.286 139.397 151.914 136.926 152.706C134.58 153.458 133.49 151.384 130.981 152.114C128.911 152.715 129.104 154.299 126.555 155.513C124.035 156.713 123.222 155.478 121.354 156.493C119.032 157.755 119.103 160.31 116.657 165.575C116.165 166.635 115.673 167.584 115.215 168.411L112.102 169.587C111.956 169.643 111.8 169.667 111.644 169.657C111.488 169.647 111.335 169.604 111.197 169.531C112.248 167.88 113.189 166.161 114.013 164.386Z" fill="#FF4E4E"/>
<path d="M86.6842 159.737L80.0526 145L54.9998 152.368C55.3683 154.825 56.1051 160.032 56.1051 161.211V169.316L58.3156 175.948L64.5788 182.579L67.8946 187H73.0526L75.6315 186.263L78.2105 182.579L80.0526 183.316L81.8947 182.579V180H84.1052H86.6842L88.1579 177.421L90 175.948V173L86.6842 159.737Z" fill="#FBE414"/>
<path d="M80.0526 145L83.3684 152.368L85.9523 158.111C86.4393 159.193 86.829 160.316 87.1167 161.467L87.421 162.684L89.2632 169.684L89.8849 172.482C89.9614 172.826 90 173.178 90 173.531V174.515C90 175.417 89.5753 176.266 88.8538 176.807V176.807C88.6366 176.97 88.4436 177.163 88.2807 177.38L87.5469 178.359C87.4632 178.47 87.3896 178.589 87.3272 178.714V178.714C86.9331 179.502 86.1276 180 85.2463 180H83.4325C82.5832 180 81.8947 180.689 81.8947 181.538V181.538C81.8947 182.167 81.5119 182.732 80.928 182.966L80.6744 183.067C80.2752 183.227 79.8299 183.227 79.4308 183.067V183.067C78.7144 182.781 77.895 183.021 77.4465 183.649L76.3684 185.158V185.158C75.8908 185.874 75.1881 186.411 74.3713 186.683L73.7705 186.884C73.539 186.961 73.2966 187 73.0526 187V187C72.4385 187 71.1368 187 70.842 187C70.4736 187 69.3683 187 68.9999 187V187C68.0886 187 67.2472 186.512 66.7951 185.721L66.2767 184.814C66.1277 184.553 65.9519 184.308 65.7523 184.084L63.1051 181.105L60.8946 178.526L59.9633 177.595C58.8797 176.512 58.0634 175.191 57.5788 173.737V173.737L57.1314 172.395C56.4517 170.356 56.1051 168.22 56.1051 166.07V164.526V160.842L55.7367 157.526L54.9998 152.368" stroke="#010318" stroke-width="3"/>
</svg>
