<svg xmlns="http://www.w3.org/2000/svg" width="207" height="265" fill="none"><path fill="#CDB907" d="M63.108 78.367c0-8.53-5.865-16.024-14.281-17.134a75.536 75.536 0 0 0-9.453-.735c-1.977 0-4.183.146-6.424.379-10.64 1.096-18.723 9.654-20.397 20.268-1.696 10.76-3.46 24.526-3.46 35.272 0 12.812 2.501 29.9 4.41 41.084 1.21 7.059 6.593 12.638 13.64 13.712 4.066.621 8.54 1.133 12.231 1.133 2.865 0 6.202-.311 9.453-.736 8.411-1.11 14.28-8.608 14.28-17.133V78.362v.005Z"/><path fill="#000" fill-rule="evenodd" d="M72.201 154.477V78.362c0-12.583-8.743-24.42-22.192-26.194-3.428-.452-7.202-.813-10.635-.813-2.391 0-4.928.174-7.356.425-15.2 1.572-26.203 13.707-28.444 27.93C1.864 90.54 0 104.908 0 116.417c0 13.661 2.633 31.421 4.547 42.629 1.832 10.723 10.098 19.495 21.233 21.2 4.205.639 9.211 1.233 13.594 1.233 3.433 0 7.207-.365 10.635-.813 13.449-1.773 22.192-13.611 22.192-26.198v.009ZM48.827 61.233c8.411 1.11 14.28 8.604 14.28 17.134v76.11c0 8.53-5.864 16.028-14.28 17.133-3.251.43-6.588.741-9.453.741-3.692 0-8.166-.512-12.23-1.134-7.048-1.073-12.431-6.652-13.64-13.711-1.91-11.185-4.41-28.273-4.41-41.08 0-10.75 1.764-24.517 3.455-35.277 1.678-10.613 9.762-19.166 20.396-20.267 2.246-.229 4.451-.38 6.43-.38 2.864 0 6.2.302 9.452.731Z" clip-rule="evenodd"/><path fill="#AA9A07" fill-rule="evenodd" d="M63.108 152.768v1.704c0 8.53-5.865 16.028-14.281 17.134-3.251.429-6.588.74-9.453.74-3.692 0-8.166-.512-12.23-1.133-7.048-1.074-12.43-6.653-13.64-13.712-1.91-11.184-4.41-28.272-4.41-41.079 0-10.751 1.764-24.517 3.455-35.277a25.398 25.398 0 0 1 4.02-10.257c-1.515 10.143-2.929 22.196-2.929 31.827 0 12.807 2.5 29.895 4.41 41.075 1.21 7.064 6.593 12.642 13.64 13.716 4.065.621 8.539 1.133 12.23 1.133 2.865 0 6.203-.311 9.453-.736a15.865 15.865 0 0 0 9.735-5.135Z" clip-rule="evenodd"/><path fill="#FBE414" fill-rule="evenodd" d="M30.49 67.872a4.536 4.536 0 0 0-3.415-.678 4.534 4.534 0 0 0-2.891 1.948l3.783 2.536c-3.783-2.536-3.783-2.536-3.787-2.531l-.005.009-.014.023-.036.05a13.11 13.11 0 0 0-.446.731 40.258 40.258 0 0 0-1.095 2.029c-.887 1.75-2.037 4.304-3.178 7.62-2.278 6.644-4.51 16.358-4.51 28.904a4.58 4.58 0 0 0 1.33 3.231 4.534 4.534 0 0 0 6.43 0 4.58 4.58 0 0 0 1.332-3.231c0-11.44 2.033-20.15 4.015-25.924a51.275 51.275 0 0 1 2.683-6.46c.322-.638.668-1.263 1.036-1.874l.037-.06m0 0-.005.01.005-.01Z" clip-rule="evenodd"/><path fill="#FBE414" d="M164.98 71.641c0-34.518-26.157-62.503-58.415-62.503-32.259 0-58.411 27.985-58.411 62.503 0 0-4.988 33.971-6.148 55.925-2.246 42.404 6.148 108.558 6.148 108.558 0 10.902 8.256 19.738 18.445 19.738h12.295c10.184 0 18.445-8.836 18.445-19.738v-30.383c8.201 1.393 16.609.91 24.598-1.412v25.216c0 10.901 2.105 19.738 12.294 19.738h12.294c13.836 0 17.701-9.778 18.446-21.383 3.078-47.7 12.299-52.634 12.299-80.597 0-27.962-12.299-75.662-12.299-75.662h.009Z"/><path fill="#000" fill-rule="evenodd" d="M48.158 236.124c0 10.902 8.257 19.738 18.446 19.738h12.294c10.185 0 18.446-8.836 18.446-19.738v-30.383c2.965.502 6.002.767 9.094.776h.132a55.27 55.27 0 0 0 15.367-2.188v25.216c0 10.901 2.11 19.738 12.299 19.738h12.294c13.836 0 17.7-9.778 18.446-21.383 1.632-25.28 4.988-38.548 7.784-49.596 2.478-9.801 4.515-17.856 4.515-31.001 0-27.962-12.299-75.662-12.299-75.662.005-34.518-26.148-62.503-58.406-62.503-32.26 0-58.412 27.985-58.412 62.503 0 0-4.987 33.971-6.147 55.925-2.246 42.404 6.147 108.558 6.147 108.558ZM39.065 70.956C39.411 32.243 68.982 0 106.57 0c37.428 0 66.899 31.97 67.49 70.463l.273 1.078a605.331 605.331 0 0 1 5.711 25.65c3.082 15.466 6.324 35.154 6.324 50.112 0 14.301-2.282 23.311-4.774 33.171l-.5 1.965c-2.596 10.326-5.547 22.909-7.043 46.055-.409 6.342-1.709 13.785-6.006 19.784-4.756 6.638-12.14 10.143-21.515 10.143h-12.294c-3.878 0-7.634-.855-10.953-2.888-3.328-2.038-5.611-4.889-7.129-7.904-2.833-5.62-3.31-12.428-3.31-18.084v-14.196c-2.064.201-4.16.306-6.274.306h-.132v20.469c0 15.398-11.799 28.876-27.54 28.876H66.604c-15.527 0-27.22-13.113-27.534-28.254l-.032-.252-.264-2.211a1079.772 1079.772 0 0 1-3.592-35.775c-1.828-21.913-3.41-49.573-2.255-71.427.6-11.317 2.173-25.563 3.57-36.84.798-6.434 1.656-12.861 2.573-19.28l-.005-.005Z" clip-rule="evenodd"/><path fill="#CDB907" fill-rule="evenodd" d="M164.835 67.21c.091 1.466.141 2.942.141 4.431 0 0 3.592 13.913 6.888 31.115a24.732 24.732 0 0 1-8.473 8.636 24.594 24.594 0 0 1-11.537 3.563l-44.648 2.39a29.36 29.36 0 0 1-18.436-5.294 29.6 29.6 0 0 1-11.29-15.573c-5.629-18.413 7.456-37.237 26.598-38.265l32.645-1.745a36.977 36.977 0 0 1 15.187 2.385 37.125 37.125 0 0 1 12.925 8.361v-.004Z" clip-rule="evenodd"/><path fill="#CDB907" fill-rule="evenodd" d="M162.767 239.044c-2.447 6.095-7.23 10.239-16.232 10.239h-12.299c-10.184 0-12.299-8.837-12.299-19.738v-25.216a54.895 54.895 0 0 1-15.367 2.188h-.132v-9.914c8.2 1.393 16.608.91 24.597-1.412v25.216c0 10.901 2.105 19.738 12.295 19.738h12.294c2.76 0 5.124-.389 7.138-1.106l.005.005Zm-67.437 6.058c-3.05 6.388-9.266 10.76-16.431 10.76H66.605c-10.185 0-18.446-8.836-18.446-19.738 0 0-8.393-66.154-6.148-108.559 1.16-21.953 6.148-55.924 6.148-55.924 0-20.373 9.107-38.47 23.206-49.879-8.798 10.943-14.113 25.175-14.113 40.741 0 0-4.988 33.97-6.147 55.925-2.246 42.404 6.147 108.558 6.147 108.558 0 10.902 8.257 19.738 18.446 19.738h12.294a17.379 17.379 0 0 0 7.338-1.622Z" clip-rule="evenodd"/><path fill="#54B0D7" d="M194.481 81.577c-2.994-11.714-9.159-21.888-17.513-28.906-8.355-7.019-18.421-10.478-28.598-9.83l-40.155 2.563c-23.545 1.506-39.64 29.22-32.717 56.321 2.375 9.29 7.264 17.359 13.89 22.924 6.626 5.565 14.61 8.307 22.68 7.789l54.914-3.517c19.793-1.264 33.327-24.566 27.505-47.344h-.006Z"/><path fill="#000" fill-rule="evenodd" d="m147.978 29.866-39.988 2.548c-30.675 1.955-51.655 37.931-42.627 73.113 3.095 12.058 9.465 22.53 18.1 29.753 8.633 7.224 19.034 10.783 29.551 10.113l54.685-3.489c26.949-1.714 45.373-33.315 37.447-64.208-3.711-14.467-11.353-27.033-21.712-35.7-10.358-8.666-22.839-12.936-35.456-12.13Zm.596 13.322c10.136-.647 20.161 2.784 28.482 9.746 8.321 6.962 14.46 17.057 17.442 28.678 5.798 22.601-7.68 45.716-27.395 46.97l-54.68 3.489c-8.037.513-15.987-2.206-22.585-7.727-6.599-5.52-11.467-13.524-13.832-22.739-6.895-26.884 9.134-54.368 32.58-55.869l39.988-2.548Z" clip-rule="evenodd"/><path fill="#4088A3" fill-rule="evenodd" d="M191.667 110.143c-2.508 5.248-6.078 9.658-10.382 12.824-4.305 3.166-9.205 4.987-14.251 5.295l-54.531 3.476c-8.015.511-15.944-2.199-22.524-7.699s-11.436-13.475-13.795-22.657c-4.61-17.96 1.056-36.184 12.33-46.7-2.724 5.221-4.477 11.084-5.136 17.188a50.865 50.865 0 0 0 1.316 18.186c2.358 9.182 7.213 17.157 13.794 22.657s14.509 8.21 22.524 7.699l54.531-3.476c5.811-.347 11.413-2.707 16.124-6.793Z" clip-rule="evenodd"/><path fill="#71D8F9" d="M185.172 69.753c-2.977-10.716-16.032-20.558-27.242-20.165-11.21.4-11.032-1.24-32.081 1.134-21.054 2.36-27.192 15.817-22.959 31.014 2.977 10.723 12.749 16.337 23.959 15.937 11.205-.386 19.96 2.921 35.586 2.921 15.621 0 26.97-15.637 22.737-30.84Z"/><path fill="#EDFEFF" fill-rule="evenodd" d="m170.681 69.42 2.1-6.144c1.381.657 2.485 1.936 3.068 3.553a7.744 7.744 0 0 1 .04 5.073c-.557 1.63-1.64 2.932-3.01 3.62a4.828 4.828 0 0 1-4.297.048h.011l-.068-.033-.364-.153a26.95 26.95 0 0 0-1.578-.61 49.854 49.854 0 0 0-6.159-1.749c-5.295-1.153-12.655-1.922-20.92-.418-1.472.269-2.974-.165-4.175-1.204-1.202-1.039-2.004-2.599-2.231-4.336-.227-1.737.14-3.51 1.02-4.928.88-1.419 2.202-2.366 3.674-2.634a63.212 63.212 0 0 1 24.664.484 59.277 59.277 0 0 1 7.395 2.1c.897.323 1.786.677 2.666 1.061l.169.08.056.026.022.014h.012l-2.095 6.15Z" clip-rule="evenodd"/><path fill="#000" fill-rule="evenodd" d="M142.72 201.29a4.557 4.557 0 0 0-2.571-2.357 4.533 4.533 0 0 0-3.476.16c-5.397 2.54-12.267 3.847-19.014 4.409-6.688.553-12.926.356-16.855.082a4.527 4.527 0 0 0-3.342 1.084 4.582 4.582 0 0 0 .98 7.582 4.531 4.531 0 0 0 1.735.449 123.42 123.42 0 0 0 18.232-.091c7.216-.603 15.318-2.038 22.124-5.245a4.563 4.563 0 0 0 2.349-2.583 4.596 4.596 0 0 0-.157-3.494l-.005.004Z" clip-rule="evenodd"/><path fill="#FFF384" fill-rule="evenodd" d="M90.147 191.636c-1.2.123-2.3.72-3.062 1.659a4.586 4.586 0 0 0-.999 3.349 235.22 235.22 0 0 1 1.064 17.343c.15 6.772-.09 12.867-.94 16.179a4.589 4.589 0 0 0 .494 3.456 4.546 4.546 0 0 0 2.78 2.095 4.524 4.524 0 0 0 3.44-.488 4.568 4.568 0 0 0 2.092-2.787c1.196-4.684 1.378-11.962 1.228-18.66a245.399 245.399 0 0 0-1.11-18.066 4.582 4.582 0 0 0-1.652-3.078 4.522 4.522 0 0 0-3.335-1.002Z" clip-rule="evenodd"/><path fill="#B28562" d="M104.968 162.496c-4.333 4.258-8.334 6.349-10.98 7.451-12.295 5.121-21.413-.248-25.868 8.335-1.402 2.7-1.656 5.443-4.175 6.769-2.738 1.441-7.011.61-10.603-3.298-2.323-2.526-4.02-5.967-4.836-9.565-.83-3.655 1.714-7.586 5.913-9.109l44.841-16.271 5.708 15.688Z"/><path fill="#A57A5D" d="m54.42 163.078 44.841-16.27 1.467 4.03-40.83 14.814c-4.198 1.524-6.742 5.455-5.912 9.11.816 3.597 2.513 7.038 4.836 9.564.431.472.893.915 1.38 1.328-2.202-.269-4.658-1.507-6.86-3.901-2.322-2.527-4.019-5.968-4.835-9.565-.83-3.655 1.714-7.586 5.912-9.109v-.001Z"/><path fill="#F2F2F2" d="m99.26 146.807 7.718 21.194.551 1.511c.107.289.322.523.599.653.277.13.594.146.882.043l36.673-13.306c3.881-1.407 7.517-3.825 10.555-6.884.248-.251.492-.503.73-.763 6.432-6.921 9.863-16.784 6.593-25.778l-64.3 23.33Z"/><path fill="#DEDEDE" d="M163.561 123.477a20.775 20.775 0 0 1 1.044 4.183l-55.244 20.044a4.888 4.888 0 0 0-2.771 2.546 4.936 4.936 0 0 0-.161 3.771l5.508 15.125-2.927 1.062a1.158 1.158 0 0 1-.882-.043 1.168 1.168 0 0 1-.599-.653l-.551-1.511-7.718-21.194 64.301-23.33Z"/><path fill="#FFE966" d="M90.899 162.805a3.492 3.492 0 0 1-1.683-4.626 3.454 3.454 0 0 1 4.606-1.671 3.491 3.491 0 0 1 1.683 4.625 3.454 3.454 0 0 1-4.606 1.672Z"/><path fill="#FFE236" d="M91.17 156.386a3.472 3.472 0 0 1 3.683.864 3.427 3.427 0 0 0-1.998.466 3.457 3.457 0 0 0-1.38 1.524 3.488 3.488 0 0 0 .65 3.884 3.477 3.477 0 0 1-3.022-2.286 3.483 3.483 0 0 1 .911-3.752 3.427 3.427 0 0 1 1.156-.7Z"/><path fill="#FFE966" d="M74.892 167.336a3.491 3.491 0 0 1-1.683-4.625 3.454 3.454 0 0 1 4.606-1.672 3.492 3.492 0 0 1 1.683 4.626 3.454 3.454 0 0 1-4.606 1.671ZM59.234 174.294a3.492 3.492 0 0 1-1.683-4.626 3.454 3.454 0 0 1 4.607-1.671 3.49 3.49 0 0 1 1.682 4.625 3.454 3.454 0 0 1-4.606 1.672Z"/><path fill="#FFE236" d="M75.164 160.917a3.466 3.466 0 0 1 3.682.864 3.434 3.434 0 0 0-1.997.466 3.46 3.46 0 0 0-1.38 1.525 3.483 3.483 0 0 0 .65 3.883 3.477 3.477 0 0 1-1.847-.694 3.498 3.498 0 0 1-1.383-2.932 3.47 3.47 0 0 1 2.275-3.112Zm-15.658 6.957a3.47 3.47 0 0 1 3.682.865 3.427 3.427 0 0 0-1.997.466 3.463 3.463 0 0 0-1.38 1.524 3.488 3.488 0 0 0 .65 3.884 3.477 3.477 0 0 1-3.022-2.286 3.482 3.482 0 0 1 .911-3.752 3.446 3.446 0 0 1 1.156-.701Z"/><path fill="#F66" d="M111.197 169.531a1.11 1.11 0 0 0 .905.056l34.978-13.219c3.701-1.397 7.154-3.756 10.024-6.719.234-.242.465-.487.69-.738-4.183-1.967-6.891-1.699-8.612-1.056-2.037.761-2.577 2.006-4.503 2.059-2.871.08-3.79-2.625-5.99-2.213-2.116.396-1.937 3.025-4.407 3.816-2.347.753-3.437-1.321-5.946-.592-2.069.601-1.877 2.185-4.426 3.399-2.52 1.2-3.333-.035-5.201.98-2.322 1.262-2.251 3.817-4.696 9.082a44.38 44.38 0 0 1-2.816 5.145Z"/><path fill="#FF4E4E" d="M151.827 149.044c-2.037.761-2.578 2.006-4.504 2.059-1.42.04-2.363-.603-3.219-1.212.191.021.383.029.575.023 1.926-.053 2.466-1.298 4.503-2.059 1.721-.643 4.429-.911 8.612 1.056l-.122.133c-2.66-.759-4.538-.489-5.845 0Zm-37.814 15.342c2.445-5.265 2.374-7.82 4.696-9.082 1.868-1.015 2.681.22 5.201-.98 2.549-1.214 2.357-2.798 4.426-3.399 2.509-.729 3.599 1.345 5.946.592 2.47-.792 2.291-3.42 4.407-3.816 1.2-.225 2.019.478 2.982 1.15a2.537 2.537 0 0 0-.337.038c-2.117.397-1.937 3.025-4.408 3.817-2.346.752-3.436-1.322-5.945-.592-2.07.601-1.877 2.185-4.426 3.399-2.52 1.2-3.333-.035-5.201.98-2.322 1.262-2.251 3.817-4.697 9.082a44.7 44.7 0 0 1-1.442 2.836l-3.113 1.176a1.084 1.084 0 0 1-.905-.056 44.38 44.38 0 0 0 2.816-5.145Z"/><path fill="#FBE414" d="M86.684 159.737 80.053 145 55 152.368c.368 2.457 1.105 7.664 1.105 8.843v8.105l2.21 6.632 6.264 6.631L67.895 187h5.158l2.579-.737 2.578-3.684 1.843.737 1.842-.737V180h4.79l1.473-2.579L90 175.948V173l-3.316-13.263Z"/><path stroke="#010318" stroke-width="3" d="m80.053 145 3.315 7.368 2.584 5.743a19.983 19.983 0 0 1 1.165 3.356l.304 1.217 1.842 7 .622 2.798c.076.344.115.696.115 1.049v.984c0 .902-.425 1.751-1.146 2.292-.217.163-.41.356-.573.573l-.734.979c-.084.111-.157.23-.22.355a2.327 2.327 0 0 1-2.08 1.286h-1.814c-.85 0-1.538.689-1.538 1.538 0 .629-.383 1.194-.967 1.428l-.254.101c-.399.16-.844.16-1.243 0a1.675 1.675 0 0 0-1.984.582l-1.079 1.509a3.872 3.872 0 0 1-1.997 1.525l-.6.201a2.274 2.274 0 0 1-.718.116H69a2.54 2.54 0 0 1-2.205-1.279l-.518-.907a4.308 4.308 0 0 0-.525-.73l-2.647-2.979-2.21-2.579-.932-.931a9.864 9.864 0 0 1-2.384-3.858l-.448-1.342a20.002 20.002 0 0 1-1.026-6.325v-5.228l-.368-3.316-.737-5.158"/></svg>