<svg xmlns="http://www.w3.org/2000/svg" width="247" height="174" fill="none"><path fill="#FBE414" d="M180.224 50.245c32.174 0 58.258 24.44 58.258 54.582s-26.084 54.578-58.258 54.578c0 0-31.662 4.661-52.125 5.744-39.524 2.099-101.185-5.744-101.185-5.744-10.16 0-18.397-7.715-18.397-17.235v-11.488c0-9.516 8.236-17.235 18.397-17.235h28.32a51.582 51.582 0 0 1 1.316-22.983H33.047c-10.161 0-18.398-1.967-18.398-11.488V67.49c0-12.928 9.114-16.539 19.93-17.236 44.46-2.876 49.06-11.492 75.123-11.492 26.062 0 70.522 11.492 70.522 11.492v-.008Z"/><path fill="#000" fill-rule="evenodd" d="M26.915 159.401c-10.162 0-18.398-7.715-18.398-17.236v-11.487c0-9.516 8.236-17.235 18.398-17.235h28.32a51.856 51.856 0 0 1-.725-8.497v-.123a51.77 51.77 0 0 1 2.04-14.36H33.047c-10.161 0-18.397-1.97-18.397-11.491V67.484c0-12.927 9.113-16.538 19.93-17.235 23.563-1.525 35.93-4.66 46.227-7.273 9.135-2.316 16.643-4.219 28.895-4.219 26.063 0 70.523 11.492 70.523 11.492 32.174-.004 58.258 24.432 58.258 54.574s-26.084 54.578-58.258 54.578c0 0-31.663 4.66-52.126 5.744-39.524 2.098-101.184-5.744-101.184-5.744Zm153.949 8.496c36.083-.322 66.136-27.953 66.136-63.074 0-34.972-29.798-62.51-65.676-63.062l-1.005-.255a562.192 562.192 0 0 0-23.908-5.336c-14.416-2.88-32.766-5.91-46.709-5.91-13.33 0-21.727 2.133-30.918 4.461l-1.83.468c-9.625 2.425-21.353 5.182-42.928 6.58-5.91.383-12.848 1.598-18.44 5.612C9.4 51.825 6.133 58.724 6.133 67.484v11.488c0 3.624.797 7.133 2.692 10.234 1.9 3.11 4.557 5.242 7.367 6.661 5.238 2.647 11.584 3.093 16.856 3.093h13.231a60.655 60.655 0 0 0-.285 5.863v.123H26.914C12.563 104.946 0 115.97 0 130.678v11.487c0 14.508 12.222 25.435 26.335 25.728l.235.03 2.06.246a1004.081 1004.081 0 0 0 33.346 3.357c20.424 1.707 46.206 3.186 66.575 2.107 10.548-.561 23.827-2.031 34.337-3.335a987.073 987.073 0 0 0 17.971-2.405l.005.004Z" clip-rule="evenodd"/><path fill="#AA9A07" fill-rule="evenodd" d="M184.356 50.38a66.516 66.516 0 0 0-4.131-.131s-12.967-3.356-29.001-6.436a23.072 23.072 0 0 0-8.049 7.917 23.014 23.014 0 0 0-3.322 10.78l-2.227 41.718a27.48 27.48 0 0 0 4.934 17.226 27.586 27.586 0 0 0 14.515 10.549c17.162 5.26 34.708-6.967 35.666-24.852l1.627-30.503a34.626 34.626 0 0 0-2.224-14.19 34.698 34.698 0 0 0-7.792-12.078h.004Z" clip-rule="evenodd"/><path fill="#CDB907" fill-rule="evenodd" d="M24.193 52.314c-5.68 2.285-9.543 6.755-9.543 15.166v11.492c0 9.516 8.236 11.492 18.397 11.492H56.55a51.415 51.415 0 0 0-2.04 14.359v.123h9.242a51.581 51.581 0 0 1 1.316-22.983H41.564c-10.16 0-18.397-1.967-18.397-11.488V58.988c0-2.579.362-4.788 1.03-6.67l-.004-.004Zm-5.647 63.011c-5.953 2.85-10.029 8.658-10.029 15.353v11.488c0 9.516 8.236 17.235 18.398 17.235 0 0 61.66 7.842 101.184 5.744 20.463-1.084 52.126-5.744 52.126-5.744 18.989 0 35.858-8.509 46.491-21.683-10.199 8.22-23.465 13.186-37.974 13.186 0 0-31.663 4.661-52.125 5.744-39.525 2.099-101.185-5.744-101.185-5.744-10.161 0-18.397-7.715-18.397-17.235v-11.487c-.001-2.368.515-4.708 1.511-6.857Z" clip-rule="evenodd"/><path fill="#D75454" d="M182.609 33.124a34.805 34.805 0 0 1 18.306 13.304 34.663 34.663 0 0 1 6.224 21.724l-1.622 30.503c-.954 17.885-18.504 30.112-35.666 24.852a27.59 27.59 0 0 1-14.517-10.551 27.478 27.478 0 0 1-4.932-17.228l2.227-41.715c.8-15.035 15.557-25.315 29.98-20.893v.004Z"/><path fill="#000" fill-rule="evenodd" d="m215.648 68.606-1.627 30.503c-1.248 23.4-24.214 39.403-46.674 32.517a36.107 36.107 0 0 1-18.994-13.807 35.96 35.96 0 0 1-6.456-22.542l2.227-41.714c1.095-20.558 21.268-34.611 40.99-28.566a43.316 43.316 0 0 1 22.79 16.562 43.139 43.139 0 0 1 7.744 27.047Zm-8.504-.454a34.664 34.664 0 0 0-6.222-21.727 34.8 34.8 0 0 0-18.308-13.305c-14.428-4.423-29.184 5.858-29.985 20.897l-2.227 41.71a27.48 27.48 0 0 0 4.932 17.229 27.596 27.596 0 0 0 14.517 10.551c17.162 5.259 34.708-6.967 35.666-24.853l1.627-30.502Z" clip-rule="evenodd"/><path fill="#A34058" fill-rule="evenodd" d="M164.238 35.176a23.082 23.082 0 0 0-8.217 7.941 23.01 23.01 0 0 0-3.392 10.9l-2.228 41.71a27.487 27.487 0 0 0 4.933 17.229 27.597 27.597 0 0 0 14.516 10.551c11.507 3.526 23.184-.807 29.921-9.431a27.475 27.475 0 0 1-22.664 2.922 27.583 27.583 0 0 1-14.516-10.551 27.477 27.477 0 0 1-4.933-17.228l2.227-41.71a22.937 22.937 0 0 1 4.353-12.333Z" clip-rule="evenodd"/><path fill="#F97189" d="M190.441 40.466c6.844 2.277 13.13 12.26 12.878 20.833-.255 8.573.792 8.438-.724 24.534-1.507 16.101-10.101 20.796-19.807 17.559-6.847-2.277-10.433-9.75-10.178-18.323.247-8.57-1.865-15.265-1.865-27.215 0-11.946 9.987-20.626 19.696-17.388Z"/><path fill="#000" fill-rule="evenodd" d="M59.382 71.045a4.258 4.258 0 0 1 2.198 2.401 4.238 4.238 0 0 1-.15 3.249c-2.367 5.043-3.585 11.462-4.109 17.766-.515 6.25-.332 12.078-.076 15.749a4.236 4.236 0 0 1-1.01 3.123 4.268 4.268 0 0 1-4.604 1.257 4.245 4.245 0 0 1-2.464-2.173 4.24 4.24 0 0 1-.419-1.621 115.61 115.61 0 0 1 .086-17.036c.562-6.742 1.899-14.312 4.889-20.672a4.25 4.25 0 0 1 2.406-2.194 4.267 4.267 0 0 1 3.258.146l-.005.005Z" clip-rule="evenodd"/><path fill="#FFF384" fill-rule="evenodd" d="M68.381 120.168a4.243 4.243 0 0 1-1.546 2.86 4.263 4.263 0 0 1-3.121.933 219.353 219.353 0 0 0-16.166-.994c-6.311-.14-11.992.085-15.08.88a4.267 4.267 0 0 1-3.221-.463 4.247 4.247 0 0 1-1.498-5.811 4.258 4.258 0 0 1 2.598-1.955c4.365-1.118 11.15-1.288 17.392-1.147 6.41.144 12.845.628 16.84 1.036a4.27 4.27 0 0 1 2.868 1.544 4.248 4.248 0 0 1 .934 3.117Z" clip-rule="evenodd"/><path fill="#B28562" d="M93.195 56.47c-4.482-3.702-6.873-7.306-8.188-9.718-6.11-11.207-1.942-20.444-10.54-23.825-2.704-1.063-5.333-1.029-6.847-3.297-1.646-2.465-1.292-6.624 2.051-10.444 2.161-2.47 5.254-4.435 8.585-5.577 3.384-1.16 7.373.868 9.245 4.718L107.5 49.443l-14.305 7.026Z"/><path fill="#A57A5D" d="m87.502 8.327 19.999 41.115-3.675 1.806L85.617 13.81c-1.873-3.85-5.861-5.878-9.245-4.718-3.331 1.142-6.424 3.108-8.585 5.577-.404.46-.778.944-1.12 1.451.032-2.127.957-4.594 3.005-6.935 2.161-2.47 5.254-4.435 8.585-5.577 3.384-1.16 7.373.868 9.245 4.718Z"/><path fill="#F2F2F2" d="M107.502 49.443 88.175 58.94l-1.378.678a1.118 1.118 0 0 0-.51 1.483l16.356 33.625c1.729 3.559 4.393 6.782 7.606 9.37.263.211.527.418.797.619 7.222 5.434 16.93 7.71 25.133 3.684l-28.677-58.958Z"/><path fill="#DEDEDE" d="M136.178 108.4a19.83 19.83 0 0 1-3.863 1.417l-24.638-50.653a4.682 4.682 0 0 0-2.697-2.385 4.7 4.7 0 0 0-3.596.228l-13.792 6.779-1.305-2.684a1.117 1.117 0 0 1 .51-1.483l1.378-.677 19.326-9.5 28.677 58.958Z"/><path fill="#FFE966" d="M91.471 43.084a3.325 3.325 0 0 1 4.219-2.072 3.32 3.32 0 0 1 2.054 4.224 3.325 3.325 0 0 1-4.218 2.072 3.32 3.32 0 0 1-2.055-4.224Z"/><path fill="#FFE236" d="M97.59 42.695a3.335 3.335 0 0 1-.446 3.599 3.304 3.304 0 0 0-2.233-3.02 3.313 3.313 0 0 0-3.618 1.012 3.336 3.336 0 0 1 3.112-3.446 3.31 3.31 0 0 1 3.185 1.855Z"/><path fill="#FFE966" d="M85.543 28.279a3.325 3.325 0 0 1 4.218-2.072 3.32 3.32 0 0 1 2.055 4.224 3.325 3.325 0 0 1-4.219 2.071 3.32 3.32 0 0 1-2.054-4.223ZM77.349 14.051a3.325 3.325 0 0 1 4.218-2.072 3.32 3.32 0 0 1 2.055 4.224 3.325 3.325 0 0 1-4.219 2.072 3.32 3.32 0 0 1-2.054-4.224Z"/><path fill="#F66" d="M87.162 86.234c-2.487-.852-5.125.268-5.894 2.504-.768 2.235.625 4.74 3.111 5.592 2.486.853 8.273-1.687 8.273-1.687s-3.004-5.556-5.49-6.409Z"/><path fill="#FF4E4E" d="M92.651 92.643s-.884.388-2.108.81c-1.103-1.692-2.809-3.956-4.324-4.476-1.951-.67-3.995-.123-5.157 1.223a3.887 3.887 0 0 1 .206-1.462c.769-2.236 3.407-3.356 5.894-2.503 2.486.853 5.49 6.408 5.49 6.408Z"/><path fill="#F66" d="M71.37 75.839c-2.172-.745-4.477.234-5.148 2.186-.67 1.953.546 4.14 2.718 4.885 2.172.745 7.225-1.474 7.225-1.474s-2.623-4.852-4.795-5.597Z"/><path fill="#FF4E4E" d="M76.165 81.436s-.912.4-2.127.803c-.963-1.441-2.361-3.23-3.61-3.658-1.632-.56-3.338-.147-4.37.92a3.402 3.402 0 0 1 .164-1.476c.671-1.952 2.976-2.931 5.148-2.186 2.172.745 4.795 5.597 4.795 5.597Z"/><path fill="#F66" d="M86.261 60.196a1.097 1.097 0 0 0 .026.906l16.356 33.625c1.729 3.559 4.394 6.782 7.606 9.37.263.21.527.418.798.619 1.577-4.345 1.063-7.017.266-8.672-.944-1.959-2.233-2.384-2.462-4.297-.341-2.852 2.269-4.013 1.658-6.167-.588-2.07-3.189-1.652-4.203-4.04-.963-2.269 1.003-3.543.048-5.975-.788-2.006-2.348-1.67-3.79-4.098-1.425-2.4-.269-3.322-1.45-5.09-1.469-2.197-4.007-1.893-9.473-3.847a44.402 44.402 0 0 1-5.38-2.334Z"/><path fill="#FF4E4E" d="M110.37 98.786c-.944-1.959-2.233-2.384-2.462-4.297-.169-1.41.385-2.408.914-3.316-.003.192.006.384.029.574.229 1.913 1.518 2.338 2.462 4.297.797 1.655 1.311 4.327-.266 8.672l-.144-.109c.514-2.719.073-4.564-.533-5.821ZM91.641 62.53c5.466 1.954 8.004 1.65 9.473 3.848 1.181 1.767.025 2.69 1.45 5.09 1.442 2.427 3.002 2.091 3.79 4.097.955 2.432-1.011 3.707-.048 5.975 1.014 2.388 3.615 1.97 4.203 4.04.333 1.175-.292 2.055-.874 3.075a2.355 2.355 0 0 0-.069-.332c-.587-2.072-3.189-1.653-4.203-4.041-.963-2.268 1.003-3.543.048-5.975-.788-2.006-2.347-1.67-3.789-4.097-1.425-2.4-.27-3.323-1.451-5.09-1.469-2.197-4.006-1.894-9.472-3.848-1.101-.394-2.09-.797-2.956-1.178l-1.456-2.992a1.097 1.097 0 0 1-.026-.906 44.402 44.402 0 0 0 5.38 2.334Z"/><path fill="#FFE236" d="M91.662 27.89a3.334 3.334 0 0 1-.445 3.598 3.304 3.304 0 0 0-2.233-3.02 3.313 3.313 0 0 0-3.618 1.013 3.336 3.336 0 0 1 3.112-3.446 3.309 3.309 0 0 1 3.184 1.855Zm-8.194-14.228a3.335 3.335 0 0 1-.446 3.599 3.303 3.303 0 0 0-2.232-3.02 3.312 3.312 0 0 0-3.619 1.013 3.336 3.336 0 0 1 3.113-3.447 3.31 3.31 0 0 1 3.184 1.855Z"/><path fill="#FBE414" d="m109.43 106.078 25.402-11.703 1.571 8.479.08 9.49-2.407 11.009-27.066-7.764 2.42-9.511Z"/><path fill="#F66" d="m113.434 106.544-2.992 1.024-.013-1.498 1.988-1.516 1.5-.012.991-1.008.496-.503 2.5-.021 1-.009-.013-1.498 1.492-1.012 1.499-.012 1.5-.013.988-1.507 1.995-.516 2.479-2.519 1.992-1.016c.334.164 1.005.591 1.008.991l.021 2.497c.004.5-.491 1.004-.983 2.007-.393.802-.483 2.002-.479 2.501-.332.17-1.095.609-1.491 1.012-.496.504-1.492 1.011-2.483 2.019-.992 1.007-4.496.537-5.996.55-1.5.013-4.491 1.037-4.991 1.041-.4.004-1.505-.653-2.008-.982Z"/></svg>