<svg xmlns="http://www.w3.org/2000/svg" width="345" height="532" fill="none"><path fill="#AEBCBB" d="M238.973 358.044c0-7.951 5.486-14.935 13.358-15.97a70.884 70.884 0 0 1 8.841-.686c1.85 0 3.912.137 6.009.354 9.951 1.022 17.512 8.998 19.077 18.891 1.586 10.029 3.236 22.86 3.236 32.877 0 11.941-2.338 27.868-4.125 38.293-1.131 6.58-6.166 11.78-12.757 12.78-3.802.579-7.987 1.056-11.44 1.056-2.679 0-5.801-.289-8.841-.685-7.868-1.035-13.358-8.023-13.358-15.97V358.04v.004Z"/><path fill="#000" fill-rule="evenodd" d="M230.468 428.984V358.04c0-11.729 8.178-22.763 20.757-24.415 3.206-.422 6.736-.758 9.947-.758 2.237 0 4.61.162 6.881.396 14.216 1.465 24.508 12.776 26.604 26.033 1.599 10.093 3.343 23.486 3.343 34.214 0 12.733-2.463 29.286-4.253 39.733-1.714 9.995-9.445 18.171-19.86 19.76-3.933.596-8.616 1.149-12.715 1.149-3.211 0-6.741-.34-9.947-.758-12.579-1.652-20.757-12.686-20.757-24.419v.009Zm21.863-86.91c-7.868 1.035-13.358 8.019-13.358 15.97v70.94c0 7.951 5.486 14.939 13.358 15.97 3.04.4 6.162.69 8.841.69 3.453 0 7.638-.477 11.439-1.056 6.592-1.001 11.627-6.201 12.758-12.781 1.786-10.425 4.125-26.352 4.125-38.289 0-10.02-1.65-22.852-3.232-32.881-1.569-9.892-9.13-17.865-19.077-18.891-2.101-.213-4.163-.353-6.013-.353-2.679 0-5.801.281-8.841.681Z" clip-rule="evenodd"/><path fill="#899695" fill-rule="evenodd" d="M238.973 427.391v1.589c0 7.951 5.486 14.939 13.358 15.97 3.04.4 6.162.689 8.841.689 3.453 0 7.638-.477 11.44-1.056 6.591-1 11.626-6.2 12.757-12.78 1.787-10.425 4.125-26.352 4.125-38.289 0-10.021-1.65-22.852-3.232-32.881a23.612 23.612 0 0 0-3.759-9.561c1.416 9.455 2.739 20.689 2.739 29.666 0 11.937-2.339 27.864-4.125 38.285-1.131 6.584-6.167 11.784-12.758 12.784-3.802.58-7.987 1.057-11.44 1.057-2.679 0-5.8-.29-8.841-.686a14.857 14.857 0 0 1-9.105-4.787Z" clip-rule="evenodd"/><path fill="#EDF8F7" fill-rule="evenodd" d="M269.482 348.262a4.246 4.246 0 0 1 5.898 1.184l-3.538 2.363c3.538-2.363 3.538-2.363 3.543-2.359l.004.008.013.022.034.047c.146.222.285.449.416.681.256.443.613 1.073 1.025 1.891.829 1.631 1.905 4.011 2.973 7.103 2.13 6.192 4.218 15.246 4.218 26.94a4.252 4.252 0 1 1-8.505 0c0-10.663-1.901-18.78-3.755-24.163a47.71 47.71 0 0 0-2.509-6.022 27.014 27.014 0 0 0-.97-1.746l-.034-.055m0 0 .005.008Z" clip-rule="evenodd"/><path fill="#EDF8F7" d="M143.689 351.775c0-32.174 24.465-58.258 54.638-58.258 30.172 0 54.633 26.084 54.633 58.258 0 0 4.665 31.663 5.75 52.126 2.101 39.524-5.75 101.185-5.75 101.185 0 10.161-7.723 18.397-17.253 18.397h-11.499c-9.526 0-17.253-8.236-17.253-18.397v-28.32a51.7 51.7 0 0 1-23.007-1.316v23.503c0 10.161-1.969 18.397-11.499 18.397H160.95c-12.941 0-16.555-9.113-17.253-19.93-2.879-44.46-11.503-49.059-11.503-75.122 0-26.063 11.503-70.523 11.503-70.523h-.008Z"/><path fill="#000" fill-rule="evenodd" d="M252.956 505.086c0 10.161-7.723 18.397-17.253 18.397h-11.499c-9.526 0-17.253-8.236-17.253-18.397v-28.32a52.054 52.054 0 0 1-8.506.724h-.123a51.903 51.903 0 0 1-14.374-2.04v23.503c0 10.161-1.973 18.397-11.503 18.397h-11.499c-12.941 0-16.556-9.113-17.253-19.93-1.527-23.563-4.665-35.93-7.281-46.227-2.317-9.135-4.223-16.643-4.223-28.895 0-26.063 11.504-70.523 11.504-70.523-.005-32.174 24.457-58.258 54.629-58.258 30.173 0 54.634 26.084 54.634 58.258 0 0 4.665 31.663 5.749 52.126 2.101 39.524-5.749 101.185-5.749 101.185Zm8.505-153.95C261.138 315.053 233.479 285 198.322 285c-35.008 0-62.573 29.798-63.126 65.676l-.255 1.005a562.87 562.87 0 0 0-5.342 23.908c-2.883 14.416-5.915 32.766-5.915 46.709 0 13.329 2.135 21.727 4.465 30.918l.468 1.831c2.428 9.624 5.188 21.352 6.587 42.927.383 5.911 1.599 12.848 5.618 18.439 4.448 6.188 11.355 9.455 20.124 9.455h11.499c3.627 0 7.14-.797 10.244-2.692 3.113-1.899 5.248-4.557 6.669-7.367 2.649-5.238 3.095-11.584 3.095-16.856v-13.231c1.931.187 3.892.285 5.869.285h.123v19.079c0 14.351 11.036 26.914 25.759 26.914h11.499c14.523 0 25.46-12.222 25.754-26.335l.03-.235.246-2.061a1001.293 1001.293 0 0 0 3.36-33.345c1.709-20.424 3.189-46.206 2.109-66.575-.561-10.548-2.033-23.827-3.338-34.337a995.994 995.994 0 0 0-2.407-17.971l.004-.005Z" clip-rule="evenodd"/><path fill="#AEBCBB" fill-rule="evenodd" d="M143.825 347.644a66.515 66.515 0 0 0-.132 4.131s-3.36 12.968-6.443 29.001a23.061 23.061 0 0 0 18.716 11.371l41.761 2.227a27.525 27.525 0 0 0 17.243-4.934 27.597 27.597 0 0 0 10.561-14.515c5.264-17.162-6.975-34.708-24.878-35.666l-30.534-1.627a34.727 34.727 0 0 0-26.294 10.017v-.005Z" clip-rule="evenodd"/><path fill="#AEBCBB" fill-rule="evenodd" d="M145.76 507.807c2.288 5.681 6.761 9.543 15.182 9.543h11.503c9.526 0 11.503-8.236 11.503-18.397V475.45a51.526 51.526 0 0 0 14.374 2.04h.124v-9.242a51.684 51.684 0 0 1-23.007-1.315v23.503c0 10.161-1.969 18.397-11.499 18.397h-11.499c-2.582 0-4.793-.362-6.677-1.03l-.004.004Zm63.075 5.647c2.853 5.953 8.667 10.029 15.369 10.029h11.499c9.526 0 17.253-8.236 17.253-18.397 0 0 7.85-61.661 5.75-101.185-1.085-20.463-5.75-52.126-5.75-52.126 0-18.989-8.518-35.857-21.705-46.491 8.228 10.199 13.2 23.465 13.2 37.974 0 0 4.665 31.663 5.749 52.125 2.101 39.525-5.749 101.185-5.749 101.185 0 10.161-7.723 18.398-17.253 18.398h-11.499a16.32 16.32 0 0 1-6.864-1.512Z" clip-rule="evenodd"/><path fill="#fff" fill-rule="evenodd" d="M199.598 301.14a4.265 4.265 0 0 1-.586 3.207 4.237 4.237 0 0 1-2.68 1.852c-16.266 3.492-26.876 14.458-33.604 27.247-6.762 12.853-9.381 27.183-9.696 36.343a4.306 4.306 0 0 1-.085.707 540.963 540.963 0 0 0-3.785 20.642c-1.284 7.895-2.241 15.258-2.241 19.227 0 10.796.808 24.181 5.775 35.858a4.256 4.256 0 0 1-2.246 5.587 4.254 4.254 0 0 1-5.579-2.248c-5.673-13.343-6.455-28.171-6.455-39.201 0-4.761 1.08-12.789 2.347-20.59a548.067 548.067 0 0 1 3.785-20.642c.404-10.191 3.274-25.624 10.657-39.656 7.502-14.267 19.885-27.426 39.345-31.599a4.256 4.256 0 0 1 5.048 3.266Z" clip-rule="evenodd"/><path fill="#54B0D7" d="M126.551 349.39a34.798 34.798 0 0 1 13.317-18.305 34.724 34.724 0 0 1 21.746-6.224l30.534 1.622c17.903.954 30.143 18.504 24.878 35.666a27.594 27.594 0 0 1-10.562 14.517 27.527 27.527 0 0 1-17.246 4.932l-41.757-2.227c-15.05-.801-25.341-15.557-20.914-29.981h.004Z"/><path fill="#000" fill-rule="evenodd" d="m162.069 316.352 30.534 1.627c23.423 1.248 39.443 24.214 32.549 46.674a36.108 36.108 0 0 1-13.82 18.994 36.025 36.025 0 0 1-22.565 6.456l-41.757-2.228c-20.578-1.094-34.646-21.267-28.595-40.989a43.32 43.32 0 0 1 16.58-22.79 43.212 43.212 0 0 1 27.074-7.744Zm-.455 8.504a34.725 34.725 0 0 0-21.749 6.222 34.804 34.804 0 0 0-13.319 18.308c-4.427 14.428 5.865 29.184 20.919 29.985l41.753 2.227a27.527 27.527 0 0 0 17.246-4.932 27.6 27.6 0 0 0 10.562-14.517c5.264-17.162-6.975-34.708-24.878-35.666l-30.534-1.627Z" clip-rule="evenodd"/><path fill="#4088A3" fill-rule="evenodd" d="M128.604 367.762a23.104 23.104 0 0 0 7.95 8.217 23.063 23.063 0 0 0 10.911 3.392l41.752 2.227a27.525 27.525 0 0 0 17.246-4.932 27.589 27.589 0 0 0 10.562-14.517c3.53-11.507-.808-23.184-9.441-29.921a27.446 27.446 0 0 1 2.926 22.664 27.589 27.589 0 0 1-10.562 14.517 27.532 27.532 0 0 1-17.246 4.933l-41.752-2.228a22.97 22.97 0 0 1-12.346-4.352Z" clip-rule="evenodd"/><path fill="#71D8F9" d="M133.9 341.559c2.279-6.844 12.273-13.13 20.854-12.878 8.582.255 8.446-.792 24.559.724 16.118 1.507 20.817 10.101 17.577 19.806-2.28 6.848-9.76 10.434-18.342 10.179-8.578-.247-15.28 1.865-27.242 1.865-11.959 0-20.647-9.987-17.406-19.696Z"/><path fill="#EDFEFF" fill-rule="evenodd" d="m144.829 341.461-1.591-3.948a4.262 4.262 0 0 0-.074 7.869 4.25 4.25 0 0 0 3.255.031h-.008l.051-.022.276-.097c.255-.094.659-.23 1.195-.392a43.117 43.117 0 0 1 4.665-1.125c4.01-.741 9.586-1.235 15.846-.268a4.26 4.26 0 0 0 4.079-6.727 4.254 4.254 0 0 0-2.782-1.692 56.276 56.276 0 0 0-18.682.311 51.012 51.012 0 0 0-5.601 1.35c-.68.207-1.353.434-2.02.681l-.128.051-.042.017-.017.009h-.009l1.587 3.952Z" clip-rule="evenodd"/><path fill="#000" fill-rule="evenodd" d="M164.51 472.618a4.262 4.262 0 0 1 2.404-2.198 4.244 4.244 0 0 1 3.252.149c5.048 2.368 11.473 3.586 17.784 4.11 6.256.515 12.091.332 15.765.077a4.246 4.246 0 0 1 4.158 2.331 4.27 4.27 0 0 1-.614 4.733 4.258 4.258 0 0 1-2.957 1.432c-5.679.39-11.379.362-17.053-.086-6.749-.562-14.328-1.899-20.694-4.889a4.27 4.27 0 0 1-2.447-4.049 4.292 4.292 0 0 1 .397-1.614l.005.004Z" clip-rule="evenodd"/><path fill="#fff" fill-rule="evenodd" d="M213.683 463.619a4.26 4.26 0 0 1 3.797 4.668 218.768 218.768 0 0 0-.995 16.166c-.14 6.311.085 11.992.881 15.079a4.262 4.262 0 0 1-3.063 5.174 4.249 4.249 0 0 1-5.175-3.053c-1.118-4.365-1.288-11.149-1.148-17.392.145-6.409.629-12.844 1.038-16.839a4.248 4.248 0 0 1 1.545-2.869 4.258 4.258 0 0 1 3.12-.934Z" clip-rule="evenodd"/><path fill="#910CBF" d="M16.139 78.517a3.232 3.232 0 0 1-2.479-1.077 3.34 3.34 0 0 1 0-4.849l7.866-7.866a3.233 3.233 0 0 1 2.479-1.078 3.125 3.125 0 0 1 2.478 1.078l7.004 7.112a3.557 3.557 0 1 1-4.957 4.956l-4.525-4.956-5.388 5.387a3.233 3.233 0 0 1-2.479 1.293Z"/><path fill="#24D108" d="M326.467 208.899a3.464 3.464 0 0 1-2.479-.969 3.456 3.456 0 0 1 0-4.957l7.866-7.866a3.56 3.56 0 0 1 2.479-1.078c.933.031 1.82.416 2.478 1.078l7.004 7.004a3.554 3.554 0 0 1-2.601 5.597 3.562 3.562 0 0 1-2.356-.64l-4.848-4.526-5.388 5.388a3.777 3.777 0 0 1-2.155.969ZM3.421 206.421a3.007 3.007 0 0 1-2.37-1.078A3.439 3.439 0 0 1 0 202.865a3.45 3.45 0 0 1 1.05-2.478l10.776-10.776a3.46 3.46 0 0 1 2.478-1.05 3.457 3.457 0 0 1 2.479 1.05 3.665 3.665 0 0 1 0 4.957L6.007 205.343a3.119 3.119 0 0 1-2.586 1.078Z"/><path fill="#FF4B4D" d="M216.342 19.253a3.236 3.236 0 0 1-2.479-1.078 3.462 3.462 0 0 1-1.051-2.478 3.458 3.458 0 0 1 1.051-2.478l12.392-12.176a3.338 3.338 0 0 1 4.849 0 3.446 3.446 0 0 1 .777 3.824c-.18.426-.445.81-.777 1.132L218.82 17.96a3.232 3.232 0 0 1-2.478 1.294Z"/><path fill="#24D108" d="M77.447 334.109a3.34 3.34 0 0 1-2.048-.97 3.438 3.438 0 0 1-1.05-2.478 3.448 3.448 0 0 1 1.05-2.478l11.853-12.284a3.555 3.555 0 0 1 4.957 4.956l-12.284 12.284a3.453 3.453 0 0 1-2.478.97Z"/><path fill="#FF9D23" d="M231.105 337.665a3.663 3.663 0 0 1-2.478-1.078 3.436 3.436 0 0 1-1.051-2.478 3.443 3.443 0 0 1 1.051-2.478l12.284-11.961a3.436 3.436 0 0 1 2.478-1.051 3.439 3.439 0 0 1 2.479 1.051 3.668 3.668 0 0 1 0 4.957l-12.284 12.176a3.672 3.672 0 0 1-2.479.862Z"/><path fill="#E0D700" d="m179.92 116.554-24.998-5.603-18.749 17.349-2.371-25.43-22.413-12.608 23.49-10.128 5.065-25.107 16.917 19.288 25.43-3.017-13.038 21.982 10.667 23.274Z"/><path fill="#E8125F" d="m265.69 180.776-18.426-4.203-13.792 12.823-1.832-18.749-16.486-9.267 17.348-7.435 3.772-18.534 12.391 14.116 18.749-2.155-9.59 16.163 7.866 17.241Z"/><path fill="#FED3BE" d="m103.416 158.363-13.9 10.56.862 17.564-14.439-10.022-16.378 6.25 5.064-16.809-10.99-13.685 17.563-.431 9.59-14.655 5.711 16.594 16.917 4.634Z"/><path fill="#F86C66" d="M101.26 138.321c-.35.115-.727.115-1.077 0a2.696 2.696 0 0 1-1.725-2.263v-3.664l-3.124-1.832a2.688 2.688 0 0 1-1.293-2.586 2.696 2.696 0 0 1 1.293-2.262l3.34-1.294.754-3.555a2.8 2.8 0 0 1 2.048-2.155 3.122 3.122 0 0 1 2.801.862l2.371 2.801h3.556a2.699 2.699 0 0 1 2.586 1.293 2.586 2.586 0 0 1 0 2.91l-1.94 3.124 1.509 3.233a2.805 2.805 0 0 1 0 2.909 2.693 2.693 0 0 1-2.802.97l-3.448-.862-2.694 2.478a2.907 2.907 0 0 1-2.155-.107Zm122.085-48.058h-1.078a2.912 2.912 0 0 1-1.724-2.371v-3.556l-3.34-1.724a2.582 2.582 0 0 1-1.724-2.91 2.589 2.589 0 0 1 1.616-2.37l3.341-1.4.754-3.556a2.796 2.796 0 0 1 2.047-2.048 2.479 2.479 0 0 1 2.802.862l2.37 2.694h3.556a2.803 2.803 0 0 1 2.694 1.293 2.795 2.795 0 0 1 0 2.91l-1.939 3.016 1.508 3.34a2.69 2.69 0 0 1 0 2.91 2.584 2.584 0 0 1-2.694.862l-3.556-.754-2.693 2.37a2.484 2.484 0 0 1-1.94.432Zm68.424 78.552h-.862a2.7 2.7 0 0 1-1.725-2.371v-3.555l-3.124-1.832a2.585 2.585 0 0 1-1.401-2.586 2.91 2.91 0 0 1 1.724-2.371l3.34-1.401.754-3.556a2.698 2.698 0 0 1 1.94-2.047 2.478 2.478 0 0 1 2.802.862l2.37 2.694h3.556a2.7 2.7 0 0 1 2.694 1.293 2.805 2.805 0 0 1 0 2.909l-1.832 3.017 1.401 3.341a2.688 2.688 0 0 1-.352 2.888 2.699 2.699 0 0 1-2.773.883l-3.556-.754-2.694 2.37a3.01 3.01 0 0 1-2.262.216Z"/><path fill="#E0D700" d="M227.009 283.465h-.97a2.581 2.581 0 0 1-1.724-2.371v-3.556l-3.125-1.831a2.585 2.585 0 0 1-1.401-2.587 3.01 3.01 0 0 1 1.724-2.37l3.341-1.401.754-3.556a2.696 2.696 0 0 1 1.939-2.047 2.914 2.914 0 0 1 2.802.862l2.371 2.802h3.663a2.796 2.796 0 0 1 2.549 1.328 2.808 2.808 0 0 1 .037 2.874l-1.832 3.125 1.401 3.232a2.798 2.798 0 0 1 0 2.91 2.907 2.907 0 0 1-2.801.97l-3.556-.863-2.694 2.371a2.373 2.373 0 0 1-2.478.108ZM202.01 140.691h-.97a2.686 2.686 0 0 1-1.724-2.37v-3.664l-3.125-1.724a2.907 2.907 0 0 1-1.401-2.586 2.698 2.698 0 0 1 1.724-2.371l3.341-1.4.754-3.556c.081-.513.308-.992.654-1.379a2.705 2.705 0 0 1 1.298-.802 2.705 2.705 0 0 1 1.526.032c.494.158.933.455 1.263.856l2.371 2.801h3.663a3.121 3.121 0 0 1 2.586 1.293 2.8 2.8 0 0 1 0 2.91l-1.831 3.124 1.4 3.341a2.587 2.587 0 0 1 0 2.801 2.69 2.69 0 0 1-2.801.97l-3.556-.862-2.694 2.478a2.579 2.579 0 0 1-2.478.108ZM94.148 272.905a1.62 1.62 0 0 1-.97 0 2.695 2.695 0 0 1-1.724-2.263v-3.663l-3.124-1.832a2.808 2.808 0 0 1-1.495-2.479 2.802 2.802 0 0 1 1.495-2.478l3.34-1.293.754-3.879a2.687 2.687 0 0 1 1.92-1.906 2.693 2.693 0 0 1 2.606.721l2.37 2.801h3.664a2.697 2.697 0 0 1 2.586 1.293 2.798 2.798 0 0 1 0 2.91l-1.832 3.124 1.509 3.233a2.805 2.805 0 0 1 0 2.909 2.69 2.69 0 0 1-2.802.97l-3.448-.862-2.694 2.478a3.014 3.014 0 0 1-2.155.216Zm66.269-231.563h-1.078a2.912 2.912 0 0 1-1.724-2.37v-3.556l-3.125-1.832a2.586 2.586 0 0 1-1.4-2.586 2.692 2.692 0 0 1 1.508-2.263l3.34-1.4.647-3.556a3.013 3.013 0 0 1 2.047-2.048 2.478 2.478 0 0 1 2.802.862l2.37 2.694h3.556a2.908 2.908 0 0 1 2.694 1.185 3.01 3.01 0 0 1 .323 2.263l-1.939 3.017 1.508 3.34a2.69 2.69 0 0 1 0 2.91 2.581 2.581 0 0 1-2.693.862l-3.556-.754-2.694 2.37a3.019 3.019 0 0 1-2.586.862Z"/><path fill="#910CBF" d="M241.341 206.637a14.759 14.759 0 0 1-.862 1.831c0 .647-.539 1.186-.754 1.724l-1.617 3.125-3.34 6.034-3.448 5.927-3.664 5.711a242.587 242.587 0 0 1-15.839 21.551 194.019 194.019 0 0 1-17.888 19.503l-4.849 4.31-5.064 4.203-2.478 2.047-2.694 1.832-5.28 3.771 3.879-5.172 1.832-2.586 1.724-2.694 3.448-5.28 3.017-5.603a165.82 165.82 0 0 0 10.776-22.628 203.725 203.725 0 0 0 7.542-23.383l1.509-5.926c0-1.94.862-3.88 1.185-5.927.323-2.047.754-3.879 1.078-5.819.052-.969.052-1.94 0-2.909v-2.586l31.787 8.944Z"/><path fill="#F86C66" d="M109.776 186.594c.442.541.839 1.118 1.185 1.724l.97 1.509 1.832 3.017 3.34 6.034 3.125 6.142 2.909 6.142a235.708 235.708 0 0 1 9.806 24.999 195.35 195.35 0 0 1 7.112 25.645l1.077 6.466.862 6.465v12.93l-1.939-5.926-1.186-3.017-1.293-2.91-2.694-5.711-3.017-5.495a162.902 162.902 0 0 0-13.361-21.012 189.593 189.593 0 0 0-15.732-18.857l-4.203-4.418c-1.4-1.401-2.801-2.909-4.31-4.202l-4.633-4.203-2.155-1.939-1.293-.754-.97-.647 24.568-21.982Z"/><path fill="#E8125F" d="M171.733 130.67v3.341l.755 2.801c0 1.94.754 3.664 1.185 5.496.539 3.555 1.185 7.004 1.509 10.775.323 3.771.646 6.896.969 10.775.324 3.879 0 6.897 0 10.776a293.27 293.27 0 0 1-2.586 40.3l-1.293 9.913.108 8.62-.862 4.957-1.078 4.849-2.047 9.59c-1.616 6.357-3.34 12.715-4.957 19.072l-5.818 18.749 2.155-19.395c0-6.573 1.077-12.931 1.401-19.396v-38.791a268.071 268.071 0 0 0-4.634-37.499c-.754-3.017-1.401-6.034-2.155-9.051-.754-3.017-1.508-5.926-2.478-8.728-.97-2.801-1.832-5.711-2.91-8.405l-1.616-3.987-.862-1.724v-.754l25.214-12.284Z"/></svg>