<svg width="345" height="532" viewBox="0 0 345 532" fill="none" xmlns="http://www.w3.org/2000/svg">
<path d="M238.973 358.044C238.973 350.093 244.459 343.109 252.331 342.074C255.261 341.661 258.213 341.432 261.172 341.388C263.022 341.388 265.084 341.525 267.181 341.742C277.132 342.764 284.693 350.74 286.258 360.633C287.844 370.662 289.494 383.493 289.494 393.51C289.494 405.451 287.156 421.378 285.369 431.803C284.238 438.383 279.203 443.583 272.612 444.583C268.81 445.162 264.625 445.639 261.172 445.639C258.493 445.639 255.371 445.35 252.331 444.954C244.463 443.919 238.973 436.931 238.973 428.984V358.04V358.044Z" fill="#AEBCBB"/>
<path fill-rule="evenodd" clip-rule="evenodd" d="M230.468 428.984V358.04C230.468 346.311 238.646 335.277 251.225 333.625C254.431 333.203 257.961 332.867 261.172 332.867C263.409 332.867 265.782 333.029 268.053 333.263C282.269 334.728 292.561 346.039 294.657 359.296C296.256 369.389 298 382.782 298 393.51C298 406.243 295.537 422.796 293.747 433.243C292.033 443.238 284.302 451.414 273.887 453.003C269.954 453.599 265.271 454.152 261.172 454.152C257.961 454.152 254.431 453.812 251.225 453.394C238.646 451.742 230.468 440.708 230.468 428.975V428.984ZM252.331 342.074C244.463 343.109 238.973 350.093 238.973 358.044V428.984C238.973 436.935 244.459 443.923 252.331 444.954C255.371 445.354 258.493 445.644 261.172 445.644C264.625 445.644 268.81 445.167 272.611 444.588C279.203 443.587 284.238 438.387 285.369 431.807C287.155 421.382 289.494 405.455 289.494 393.518C289.494 383.498 287.844 370.666 286.262 360.637C284.693 350.745 277.132 342.772 267.185 341.746C265.084 341.533 263.022 341.393 261.172 341.393C258.493 341.393 255.371 341.674 252.331 342.074Z" fill="black"/>
<path fill-rule="evenodd" clip-rule="evenodd" d="M238.973 427.391V428.98C238.973 436.931 244.459 443.919 252.331 444.95C255.371 445.35 258.493 445.639 261.172 445.639C264.625 445.639 268.81 445.162 272.612 444.583C279.203 443.583 284.238 438.383 285.369 431.803C287.156 421.378 289.494 405.451 289.494 393.514C289.494 383.493 287.844 370.662 286.262 360.633C285.726 357.208 284.442 353.944 282.503 351.072C283.919 360.527 285.242 371.761 285.242 380.738C285.242 392.675 282.903 408.602 281.117 419.023C279.986 425.607 274.95 430.807 268.359 431.807C264.557 432.387 260.372 432.864 256.919 432.864C254.24 432.864 251.119 432.574 248.078 432.178C244.571 431.718 241.343 430.021 238.973 427.391Z" fill="#899695"/>
<path fill-rule="evenodd" clip-rule="evenodd" d="M269.482 348.262C269.947 347.952 270.468 347.736 271.016 347.628C271.564 347.519 272.128 347.52 272.676 347.63C273.224 347.74 273.745 347.957 274.209 348.268C274.673 348.58 275.071 348.98 275.38 349.446L271.842 351.809C275.38 349.446 275.38 349.446 275.385 349.45L275.389 349.458L275.402 349.48L275.436 349.527C275.582 349.749 275.721 349.976 275.852 350.208C276.108 350.651 276.465 351.281 276.877 352.099C277.706 353.73 278.782 356.11 279.85 359.202C281.98 365.394 284.068 374.448 284.068 386.142C284.068 387.272 283.62 388.355 282.823 389.154C282.025 389.952 280.944 390.401 279.816 390.401C278.688 390.401 277.606 389.952 276.809 389.154C276.011 388.355 275.563 387.272 275.563 386.142C275.563 375.479 273.662 367.362 271.808 361.979C271.11 359.917 270.272 357.905 269.299 355.957C268.997 355.363 268.674 354.781 268.329 354.211L268.295 354.156M268.295 354.156L268.3 354.164Z" fill="#EDF8F7"/>
<path d="M143.689 351.775C143.689 319.601 168.154 293.517 198.327 293.517C228.499 293.517 252.96 319.601 252.96 351.775C252.96 351.775 257.625 383.438 258.71 403.901C260.811 443.425 252.96 505.086 252.96 505.086C252.96 515.247 245.237 523.483 235.707 523.483H224.208C214.682 523.483 206.955 515.247 206.955 505.086V476.766C199.285 478.064 191.421 477.614 183.948 475.45V498.953C183.948 509.114 181.979 517.35 172.449 517.35H160.95C148.009 517.35 144.395 508.237 143.697 497.42C140.818 452.96 132.194 448.361 132.194 422.298C132.194 396.235 143.697 351.775 143.697 351.775H143.689Z" fill="#EDF8F7"/>
<path fill-rule="evenodd" clip-rule="evenodd" d="M252.956 505.086C252.956 515.247 245.233 523.483 235.703 523.483H224.204C214.678 523.483 206.951 515.247 206.951 505.086V476.766C204.178 477.234 201.337 477.481 198.445 477.49H198.322C193.459 477.487 188.621 476.8 183.948 475.45V498.953C183.948 509.114 181.975 517.35 172.445 517.35H160.946C148.005 517.35 144.39 508.237 143.693 497.42C142.166 473.857 139.028 461.49 136.412 451.193C134.095 442.058 132.189 434.55 132.189 422.298C132.189 396.235 143.693 351.775 143.693 351.775C143.688 319.601 168.15 293.517 198.322 293.517C228.495 293.517 252.956 319.601 252.956 351.775C252.956 351.775 257.621 383.438 258.705 403.901C260.806 443.425 252.956 505.086 252.956 505.086ZM261.461 351.136C261.138 315.053 233.479 285 198.322 285C163.314 285 135.749 314.798 135.196 350.676L134.941 351.681C132.987 359.611 131.206 367.582 129.599 375.589C126.716 390.005 123.684 408.355 123.684 422.298C123.684 435.627 125.819 444.025 128.149 453.216L128.617 455.047C131.045 464.671 133.805 476.399 135.204 497.974C135.587 503.885 136.803 510.822 140.822 516.413C145.27 522.601 152.177 525.868 160.946 525.868H172.445C176.072 525.868 179.585 525.071 182.689 523.176C185.802 521.277 187.937 518.619 189.358 515.809C192.007 510.571 192.453 504.225 192.453 498.953V485.722C194.384 485.909 196.345 486.007 198.322 486.007H198.445V505.086C198.445 519.437 209.481 532 224.204 532H235.703C250.226 532 261.163 519.778 261.457 505.665L261.487 505.43L261.733 503.369C263.039 492.274 264.159 481.157 265.093 470.024C266.802 449.6 268.282 423.818 267.202 403.449C266.641 392.901 265.169 379.622 263.864 369.112C263.116 363.114 262.314 357.124 261.457 351.141L261.461 351.136Z" fill="black"/>
<path fill-rule="evenodd" clip-rule="evenodd" d="M143.825 347.644C143.74 349.011 143.693 350.387 143.693 351.775C143.693 351.775 140.333 364.743 137.25 380.776C139.186 384.075 141.909 386.841 145.176 388.826C148.442 390.81 152.15 391.951 155.966 392.147L197.727 394.374C203.863 394.701 209.933 392.964 214.97 389.44C220.008 385.916 223.725 380.807 225.531 374.925C230.795 357.763 218.556 340.217 200.653 339.259L170.119 337.632C165.281 337.373 160.442 338.131 155.914 339.856C151.386 341.581 147.268 344.235 143.825 347.649V347.644Z" fill="#AEBCBB"/>
<path fill-rule="evenodd" clip-rule="evenodd" d="M145.76 507.807C148.048 513.488 152.521 517.35 160.942 517.35H172.445C181.971 517.35 183.948 509.114 183.948 498.953V475.45C188.62 476.805 193.459 477.492 198.322 477.49H198.446V468.248C190.775 469.547 182.912 469.097 175.439 466.933V490.436C175.439 500.597 173.47 508.833 163.94 508.833H152.441C149.859 508.833 147.648 508.471 145.764 507.803L145.76 507.807ZM208.835 513.454C211.688 519.407 217.502 523.483 224.204 523.483H235.703C245.229 523.483 252.956 515.247 252.956 505.086C252.956 505.086 260.806 443.425 258.706 403.901C257.621 383.438 252.956 351.775 252.956 351.775C252.956 332.786 244.438 315.918 231.251 305.284C239.479 315.483 244.451 328.749 244.451 343.258C244.451 343.258 249.116 374.921 250.2 395.383C252.301 434.908 244.451 496.568 244.451 496.568C244.451 506.729 236.728 514.966 227.198 514.966H215.699C213.328 514.966 210.986 514.451 208.835 513.454Z" fill="#AEBCBB"/>
<path fill-rule="evenodd" clip-rule="evenodd" d="M199.598 301.14C199.716 301.687 199.724 302.252 199.624 302.802C199.523 303.353 199.315 303.878 199.012 304.347C198.709 304.817 198.316 305.223 197.856 305.54C197.396 305.858 196.878 306.082 196.332 306.199C180.066 309.691 169.456 320.657 162.728 333.446C155.966 346.299 153.347 360.629 153.032 369.789C153.023 370.027 152.995 370.263 152.947 370.496C151.939 375.419 150.421 383.357 149.162 391.138C147.878 399.033 146.921 406.396 146.921 410.365C146.921 421.161 147.729 434.546 152.696 446.223C153.138 447.262 153.15 448.434 152.729 449.482C152.308 450.53 151.488 451.367 150.45 451.81C149.413 452.253 148.242 452.265 147.196 451.843C146.149 451.421 145.313 450.601 144.871 449.562C139.198 436.219 138.416 421.391 138.416 410.361C138.416 405.6 139.496 397.572 140.763 389.771C142.018 382.033 143.519 374.163 144.548 369.129C144.952 358.938 147.822 343.505 155.205 329.473C162.707 315.206 175.09 302.047 194.55 297.874C195.652 297.637 196.803 297.849 197.749 298.461C198.696 299.074 199.361 300.037 199.598 301.14Z" fill="white"/>
<path d="M126.551 349.39C128.828 341.972 133.515 335.529 139.868 331.085C146.221 326.641 153.875 324.45 161.614 324.861L192.148 326.483C210.051 327.437 222.291 344.987 217.026 362.149C215.22 368.032 211.503 373.142 206.464 376.666C201.425 380.19 195.355 381.926 189.218 381.598L147.461 379.371C132.411 378.57 122.12 363.814 126.547 349.39H126.551Z" fill="#54B0D7"/>
<path fill-rule="evenodd" clip-rule="evenodd" d="M162.069 316.352L192.603 317.979C216.026 319.227 232.046 342.193 225.152 364.653C222.789 372.35 217.925 379.036 211.332 383.647C204.739 388.258 196.797 390.531 188.767 390.103L147.01 387.875C126.432 386.781 112.364 366.608 118.415 346.886C121.249 337.651 127.085 329.629 134.995 324.096C142.904 318.563 152.434 315.838 162.069 316.352ZM161.614 324.856C153.874 324.444 146.219 326.634 139.865 331.078C133.511 335.523 128.823 341.967 126.546 349.386C122.119 363.814 132.411 378.57 147.465 379.371L189.218 381.598C195.355 381.926 201.425 380.19 206.464 376.666C211.502 373.142 215.22 368.032 217.026 362.149C222.29 344.987 210.051 327.441 192.148 326.483L161.614 324.856Z" fill="black"/>
<path fill-rule="evenodd" clip-rule="evenodd" d="M128.604 367.762C130.525 371.125 133.258 373.95 136.554 375.979C139.85 378.007 143.602 379.174 147.465 379.371L189.217 381.598C195.354 381.926 201.425 380.19 206.463 376.666C211.502 373.142 215.22 368.032 217.025 362.149C220.555 350.642 216.217 338.965 207.584 332.228C209.671 335.573 211.013 339.329 211.517 343.241C212.022 347.152 211.679 351.126 210.51 354.892C208.705 360.775 204.987 365.885 199.948 369.409C194.91 372.933 188.839 374.669 182.702 374.342L140.95 372.114C136.501 371.892 132.212 370.38 128.604 367.762Z" fill="#4088A3"/>
<path d="M133.9 341.559C136.179 334.715 146.173 328.429 154.754 328.681C163.336 328.936 163.2 327.889 179.313 329.405C195.431 330.912 200.13 339.506 196.89 349.211C194.61 356.059 187.13 359.645 178.548 359.39C169.97 359.143 163.268 361.255 151.306 361.255C139.347 361.255 130.659 351.268 133.9 341.559Z" fill="#71D8F9"/>
<path fill-rule="evenodd" clip-rule="evenodd" d="M144.829 341.461L143.238 337.513C142.192 337.935 141.356 338.757 140.915 339.796C140.473 340.836 140.462 342.008 140.884 343.056C141.306 344.103 142.126 344.94 143.164 345.382C144.202 345.824 145.373 345.835 146.419 345.413H146.411L146.462 345.391L146.738 345.294C146.993 345.2 147.397 345.064 147.933 344.902C149.009 344.574 150.599 344.148 152.598 343.777C156.608 343.036 162.184 342.542 168.444 343.509C169.558 343.681 170.696 343.403 171.606 342.735C172.516 342.068 173.124 341.065 173.296 339.949C173.468 338.833 173.19 337.693 172.523 336.782C171.856 335.871 170.855 335.262 169.741 335.09C163.539 334.152 157.225 334.257 151.059 335.401C149.168 335.745 147.298 336.196 145.458 336.751C144.778 336.958 144.105 337.185 143.438 337.432L143.31 337.483L143.268 337.5L143.251 337.509H143.242L144.829 341.461Z" fill="#EDFEFF"/>
<path fill-rule="evenodd" clip-rule="evenodd" d="M164.51 472.618C164.747 472.111 165.081 471.657 165.494 471.28C165.906 470.903 166.389 470.611 166.914 470.42C167.439 470.23 167.997 470.145 168.555 470.171C169.113 470.197 169.66 470.332 170.166 470.569C175.214 472.937 181.639 474.155 187.95 474.679C194.206 475.194 200.041 475.011 203.715 474.756C204.277 474.708 204.842 474.773 205.379 474.946C205.916 475.12 206.413 475.398 206.841 475.766C207.269 476.133 207.62 476.583 207.873 477.087C208.126 477.592 208.277 478.142 208.315 478.705C208.354 479.269 208.281 479.834 208.1 480.369C207.918 480.904 207.632 481.397 207.259 481.82C206.885 482.243 206.432 482.587 205.924 482.833C205.416 483.079 204.865 483.221 204.302 483.252C198.623 483.642 192.923 483.614 187.249 483.166C180.5 482.604 172.921 481.267 166.555 478.277C166.049 478.041 165.595 477.706 165.218 477.293C164.841 476.88 164.549 476.397 164.358 475.871C164.168 475.345 164.083 474.786 164.108 474.228C164.134 473.669 164.269 473.12 164.505 472.614L164.51 472.618Z" fill="black"/>
<path fill-rule="evenodd" clip-rule="evenodd" d="M213.683 463.619C214.804 463.734 215.834 464.291 216.546 465.166C217.259 466.041 217.594 467.164 217.48 468.287C216.949 473.661 216.617 479.053 216.485 484.453C216.345 490.764 216.57 496.445 217.366 499.532C217.643 500.625 217.477 501.783 216.902 502.753C216.328 503.723 215.394 504.426 214.303 504.706C213.213 504.987 212.055 504.823 211.085 504.251C210.115 503.679 209.411 502.744 209.128 501.653C208.01 497.288 207.84 490.504 207.98 484.261C208.125 477.852 208.609 471.417 209.018 467.422C209.074 466.866 209.24 466.326 209.505 465.834C209.771 465.341 210.13 464.906 210.563 464.553C210.997 464.2 211.495 463.936 212.03 463.775C212.566 463.615 213.127 463.562 213.683 463.619Z" fill="white"/>
<path d="M16.1385 78.5174C15.6722 78.5273 15.2092 78.4361 14.7814 78.2501C14.3536 78.0641 13.9711 77.7877 13.6602 77.4399C13.3309 77.1278 13.0686 76.7518 12.8894 76.335C12.7101 75.9182 12.6177 75.4692 12.6177 75.0155C12.6177 74.5617 12.7101 74.1127 12.8894 73.6959C13.0686 73.2791 13.3309 72.9031 13.6602 72.591L21.5262 64.725C21.8371 64.3772 22.2196 64.1008 22.6474 63.9148C23.0752 63.7288 23.5382 63.6376 24.0046 63.6474C24.472 63.6301 24.9373 63.7179 25.3662 63.9044C25.7952 64.0909 26.1768 64.3713 26.4829 64.725L33.4869 71.8367C33.9095 72.1358 34.2617 72.5236 34.5189 72.9729C34.7761 73.4223 34.932 73.9223 34.9759 74.4382C35.0197 74.9541 34.9504 75.4733 34.7727 75.9596C34.595 76.4459 34.3133 76.8876 33.9472 77.2537C33.5811 77.6198 33.1394 77.9015 32.6531 78.0792C32.1668 78.2569 31.6476 78.3262 31.1317 78.2824C30.6158 78.2385 30.1157 78.0826 29.6664 77.8254C29.2171 77.5682 28.8293 77.216 28.5302 76.7934L24.0046 71.8367L18.6169 77.2244C18.3269 77.6117 17.9536 77.9289 17.5247 78.1527C17.0958 78.3765 16.6221 78.5011 16.1385 78.5174Z" fill="#910CBF"/>
<path d="M326.467 208.899C326.01 208.91 325.556 208.83 325.13 208.663C324.705 208.497 324.317 208.247 323.988 207.93C323.656 207.608 323.392 207.223 323.211 206.797C323.031 206.371 322.938 205.914 322.938 205.451C322.938 204.989 323.031 204.531 323.211 204.105C323.392 203.68 323.656 203.294 323.988 202.973L331.854 195.107C332.507 194.436 333.397 194.048 334.333 194.029C335.266 194.06 336.153 194.445 336.811 195.107L343.815 202.111C344.3 202.796 344.527 203.63 344.456 204.466C344.385 205.302 344.02 206.086 343.427 206.679C342.834 207.273 342.05 207.637 341.214 207.708C340.378 207.779 339.543 207.552 338.858 207.068L334.01 202.542L328.622 207.93C328.026 208.475 327.27 208.815 326.467 208.899ZM3.42133 206.421C2.97081 206.43 2.52403 206.338 2.11381 206.151C1.70359 205.965 1.34034 205.689 1.05075 205.343C0.718363 205.022 0.45405 204.637 0.273537 204.211C0.0930241 203.785 0 203.328 0 202.865C0 202.403 0.0930241 201.945 0.273537 201.519C0.45405 201.093 0.718363 200.708 1.05075 200.387L11.8261 189.611C12.1476 189.279 12.5327 189.015 12.9585 188.834C13.3843 188.654 13.842 188.561 14.3044 188.561C14.7669 188.561 15.2246 188.654 15.6504 188.834C16.0762 189.015 16.4613 189.279 16.7828 189.611C17.4037 190.287 17.7483 191.172 17.7483 192.09C17.7483 193.008 17.4037 193.892 16.7828 194.568L6.00742 205.343C5.68995 205.712 5.29086 206.001 4.8419 206.188C4.39294 206.375 3.90651 206.455 3.42133 206.421Z" fill="#24D108"/>
<path d="M216.342 19.2529C215.875 19.2627 215.412 19.1715 214.984 18.9855C214.557 18.7995 214.174 18.5232 213.863 18.1754C213.531 17.8538 213.267 17.4687 213.086 17.043C212.906 16.6172 212.812 16.1595 212.812 15.697C212.812 15.2346 212.906 14.7769 213.086 14.3511C213.267 13.9253 213.531 13.5402 213.863 13.2187L226.255 1.04253C226.567 0.713206 226.943 0.450922 227.36 0.271681C227.777 0.0924401 228.226 0 228.679 0C229.133 0 229.582 0.0924401 229.999 0.271681C230.416 0.450922 230.792 0.713206 231.104 1.04253C231.436 1.36406 231.701 1.74916 231.881 2.17493C232.062 2.60069 232.155 3.05841 232.155 3.52087C232.155 3.98332 232.062 4.44104 231.881 4.8668C231.701 5.29257 231.436 5.67767 231.104 5.9992L218.82 17.9599C218.53 18.3471 218.157 18.6643 217.728 18.8881C217.299 19.1119 216.825 19.2366 216.342 19.2529Z" fill="#FF4B4D"/>
<path d="M77.4467 334.109C76.6721 334.034 75.948 333.691 75.3994 333.139C75.067 332.818 74.8027 332.433 74.6222 332.007C74.4417 331.581 74.3486 331.123 74.3486 330.661C74.3486 330.198 74.4417 329.741 74.6222 329.315C74.8027 328.889 75.067 328.504 75.3994 328.183L87.2523 315.899C87.9372 315.414 88.7714 315.187 89.6074 315.258C90.4435 315.329 91.2275 315.694 91.8208 316.287C92.4141 316.88 92.7785 317.664 92.8495 318.5C92.9205 319.336 92.6936 320.17 92.209 320.855L79.925 333.139C79.5968 333.457 79.2087 333.706 78.7832 333.873C78.3577 334.039 77.9034 334.12 77.4467 334.109Z" fill="#24D108"/>
<path d="M231.105 337.665C230.172 337.635 229.286 337.249 228.627 336.587C228.295 336.266 228.03 335.881 227.85 335.455C227.669 335.029 227.576 334.572 227.576 334.109C227.576 333.647 227.669 333.189 227.85 332.763C228.03 332.337 228.295 331.952 228.627 331.631L240.911 319.67C241.232 319.338 241.617 319.073 242.043 318.893C242.469 318.712 242.927 318.619 243.389 318.619C243.852 318.619 244.309 318.712 244.735 318.893C245.161 319.073 245.546 319.338 245.868 319.67C246.488 320.346 246.833 321.231 246.833 322.148C246.833 323.066 246.488 323.951 245.868 324.627L233.584 336.803C232.892 337.386 232.009 337.693 231.105 337.665Z" fill="#FF9D23"/>
<path d="M179.92 116.554L154.922 110.951L136.173 128.3L133.802 102.87L111.389 90.2625L134.879 80.1337L139.944 55.0271L156.861 74.315L182.291 71.2979L169.253 93.2796L179.92 116.554Z" fill="#E0D700"/>
<path d="M265.69 180.776L247.264 176.573L233.472 189.396L231.64 170.647L215.154 161.38L232.502 153.945L236.274 135.411L248.665 149.527L267.414 147.372L257.824 163.535L265.69 180.776Z" fill="#E8125F"/>
<path d="M103.416 158.363L89.5162 168.923L90.3783 186.487L75.9393 176.465L59.5607 182.715L64.6251 165.906L53.6343 152.221L71.1981 151.79L80.7882 137.135L86.4991 153.729L103.416 158.363Z" fill="#FED3BE"/>
<path d="M101.26 138.321C100.91 138.436 100.533 138.436 100.183 138.321C99.7127 138.142 99.3022 137.835 98.9975 137.435C98.6928 137.036 98.5061 136.558 98.4585 136.058V132.394L95.3336 130.562C94.8946 130.299 94.5398 129.916 94.3108 129.458C94.0818 129 93.988 128.486 94.0406 127.976C94.0471 127.521 94.1691 127.074 94.3953 126.678C94.6214 126.282 94.9443 125.95 95.3336 125.714L98.674 124.42L99.4283 120.865C99.533 120.35 99.7805 119.874 100.143 119.493C100.505 119.112 100.967 118.841 101.476 118.71C101.977 118.613 102.495 118.641 102.984 118.792C103.472 118.942 103.916 119.21 104.277 119.572L106.648 122.373H110.204C110.713 122.321 111.227 122.414 111.685 122.643C112.143 122.872 112.526 123.227 112.79 123.666C113.082 124.095 113.238 124.602 113.238 125.121C113.238 125.64 113.082 126.147 112.79 126.576L110.85 129.7L112.359 132.933C112.625 133.371 112.766 133.875 112.766 134.388C112.766 134.901 112.625 135.404 112.359 135.842C112.038 136.26 111.601 136.575 111.103 136.747C110.605 136.92 110.068 136.942 109.557 136.812L106.109 135.95L103.415 138.428C102.71 138.67 101.938 138.632 101.26 138.321ZM223.345 90.2626H222.267C221.796 90.0554 221.388 89.7268 221.085 89.3103C220.782 88.8938 220.595 88.4044 220.543 87.892V84.3361L217.203 82.6121C216.614 82.4149 216.116 82.0124 215.8 81.4782C215.483 80.9441 215.369 80.3138 215.479 79.7027C215.484 79.1921 215.641 78.6946 215.928 78.2727C216.216 77.8509 216.622 77.5236 217.095 77.3321L220.436 75.9313L221.19 72.3755C221.312 71.8801 221.568 71.4276 221.929 71.0668C222.289 70.706 222.742 70.4506 223.237 70.3281C223.735 70.1552 224.275 70.1456 224.779 70.3006C225.283 70.4556 225.724 70.7672 226.039 71.1902L228.409 73.884H231.965C232.491 73.8234 233.022 73.9126 233.499 74.1414C233.976 74.3702 234.378 74.7293 234.659 75.1771C234.926 75.6155 235.066 76.1187 235.066 76.6317C235.066 77.1448 234.926 77.6479 234.659 78.0864L232.72 81.1035L234.228 84.4439C234.507 84.8779 234.655 85.3828 234.655 85.8985C234.655 86.4143 234.507 86.9191 234.228 87.3532C233.911 87.743 233.488 88.0321 233.009 88.1851C232.531 88.3382 232.018 88.3487 231.534 88.2153L227.978 87.461L225.285 89.8316C225.008 90.0333 224.694 90.1758 224.36 90.2499C224.026 90.3241 223.681 90.3284 223.345 90.2626ZM291.769 168.815H290.907C290.421 168.628 290 168.305 289.694 167.885C289.388 167.464 289.21 166.964 289.182 166.444V162.889L286.058 161.057C285.589 160.819 285.204 160.444 284.954 159.982C284.704 159.52 284.6 158.993 284.657 158.471C284.709 157.958 284.896 157.469 285.198 157.052C285.501 156.636 285.909 156.307 286.381 156.1L289.721 154.699L290.475 151.143C290.578 150.656 290.814 150.207 291.156 149.846C291.498 149.484 291.934 149.225 292.415 149.096C292.913 148.923 293.453 148.913 293.957 149.068C294.461 149.224 294.902 149.535 295.217 149.958L297.587 152.652H301.143C301.67 152.578 302.206 152.661 302.686 152.891C303.165 153.121 303.566 153.488 303.837 153.945C304.103 154.383 304.244 154.887 304.244 155.4C304.244 155.913 304.103 156.416 303.837 156.854L302.005 159.871L303.406 163.212C303.63 163.676 303.716 164.196 303.653 164.708C303.591 165.22 303.383 165.703 303.054 166.1C302.724 166.497 302.288 166.792 301.797 166.948C301.305 167.105 300.779 167.117 300.281 166.983L296.725 166.229L294.031 168.599C293.334 168.964 292.522 169.041 291.769 168.815Z" fill="#F86C66"/>
<path d="M227.009 283.465H226.039C225.545 283.291 225.116 282.971 224.808 282.547C224.501 282.124 224.328 281.617 224.315 281.094V277.538L221.19 275.707C220.721 275.469 220.336 275.094 220.086 274.632C219.836 274.17 219.732 273.643 219.789 273.12C219.851 272.611 220.042 272.127 220.344 271.712C220.646 271.297 221.048 270.966 221.513 270.75L224.854 269.349L225.608 265.793C225.71 265.306 225.946 264.857 226.288 264.495C226.631 264.134 227.066 263.875 227.547 263.746C228.049 263.629 228.572 263.647 229.065 263.798C229.557 263.95 230 264.229 230.349 264.608L232.72 267.41H236.383C236.888 267.38 237.392 267.488 237.841 267.722C238.289 267.956 238.666 268.307 238.932 268.738C239.197 269.169 239.34 269.664 239.347 270.17C239.354 270.676 239.223 271.174 238.969 271.612L237.137 274.737L238.538 277.969C238.805 278.408 238.945 278.911 238.945 279.424C238.945 279.937 238.805 280.44 238.538 280.879C238.201 281.277 237.763 281.577 237.27 281.747C236.777 281.918 236.248 281.953 235.737 281.849L232.181 280.986L229.487 283.357C229.124 283.602 228.7 283.742 228.263 283.761C227.825 283.78 227.391 283.678 227.009 283.465ZM202.01 140.691H201.04C200.554 140.505 200.133 140.182 199.827 139.761C199.521 139.34 199.344 138.84 199.316 138.321V134.657L196.191 132.933C195.749 132.665 195.386 132.285 195.14 131.83C194.894 131.375 194.773 130.864 194.79 130.347C194.818 129.827 194.996 129.327 195.302 128.907C195.608 128.486 196.029 128.163 196.514 127.976L199.855 126.576L200.609 123.02C200.69 122.507 200.917 122.028 201.263 121.641C201.61 121.255 202.06 120.976 202.561 120.839C203.062 120.703 203.592 120.714 204.087 120.871C204.581 121.029 205.02 121.326 205.35 121.727L207.721 124.528H211.384C211.888 124.519 212.386 124.632 212.836 124.858C213.286 125.083 213.675 125.413 213.97 125.821C214.237 126.26 214.378 126.763 214.378 127.276C214.378 127.789 214.237 128.292 213.97 128.731L212.139 131.855L213.539 135.196C213.808 135.613 213.952 136.1 213.952 136.597C213.952 137.093 213.808 137.58 213.539 137.997C213.218 138.415 212.782 138.73 212.284 138.902C211.786 139.075 211.248 139.097 210.738 138.967L207.182 138.105L204.488 140.583C204.117 140.808 203.696 140.935 203.263 140.954C202.83 140.973 202.399 140.882 202.01 140.691ZM94.1483 272.905C93.8327 273.004 93.4942 273.004 93.1785 272.905C92.7086 272.726 92.2981 272.42 91.9934 272.02C91.6888 271.62 91.5021 271.143 91.4545 270.642V266.979L88.3296 265.147C87.8784 264.909 87.5007 264.552 87.2372 264.116C86.9737 263.679 86.8345 263.178 86.8345 262.668C86.8345 262.158 86.9737 261.658 87.2372 261.221C87.5007 260.784 87.8784 260.428 88.3296 260.19L91.67 258.897L92.4243 255.018C92.5477 254.559 92.7901 254.141 93.1271 253.807C93.4641 253.472 93.8836 253.232 94.3431 253.112C94.8026 252.991 95.2857 252.995 95.7435 253.121C96.2013 253.248 96.6175 253.493 96.9499 253.833L99.3205 256.634H102.984C103.494 256.582 104.007 256.675 104.465 256.904C104.923 257.133 105.307 257.488 105.57 257.927C105.837 258.366 105.977 258.869 105.977 259.382C105.977 259.895 105.837 260.398 105.57 260.837L103.738 263.961L105.247 267.194C105.513 267.632 105.654 268.136 105.654 268.649C105.654 269.162 105.513 269.665 105.247 270.103C104.926 270.521 104.49 270.836 103.992 271.008C103.494 271.181 102.956 271.203 102.445 271.073L98.9972 270.211L96.3034 272.689C95.6365 273.026 94.8686 273.102 94.1483 272.905ZM160.417 41.3424H159.339C158.868 41.1352 158.46 40.8066 158.157 40.3901C157.854 39.9736 157.667 39.4842 157.615 38.9718V35.4159L154.49 33.5841C154.022 33.3464 153.637 32.9716 153.387 32.5096C153.136 32.0476 153.033 31.5204 153.09 30.998C153.118 30.5209 153.272 30.0599 153.537 29.6623C153.802 29.2646 154.169 28.9447 154.598 28.7352L157.938 27.3344L158.585 23.7785C158.727 23.293 158.989 22.851 159.347 22.4932C159.705 22.1355 160.147 21.8734 160.632 21.7312C161.13 21.5583 161.67 21.5486 162.174 21.7037C162.678 21.8587 163.119 22.1703 163.434 22.5932L165.804 25.2871H169.36C169.874 25.2273 170.395 25.3056 170.868 25.514C171.342 25.7223 171.751 26.0532 172.054 26.4724C172.455 27.1551 172.571 27.9677 172.377 28.7352L170.438 31.7523L171.946 35.0927C172.225 35.5267 172.373 36.0316 172.373 36.5473C172.373 37.0631 172.225 37.568 171.946 38.002C171.63 38.3918 171.206 38.6809 170.728 38.8339C170.249 38.987 169.737 38.9975 169.253 38.8641L165.697 38.1098L163.003 40.4804C162.67 40.8169 162.262 41.0703 161.813 41.2201C161.363 41.3698 160.885 41.4117 160.417 41.3424Z" fill="#E0D700"/>
<path d="M241.341 206.637C241.096 207.266 240.808 207.878 240.479 208.468C240.479 209.115 239.94 209.654 239.725 210.192L238.108 213.317L234.768 219.351L231.32 225.278L227.656 230.989C222.777 238.458 217.489 245.653 211.817 252.54C206.305 259.44 200.329 265.957 193.929 272.043L189.08 276.353L184.016 280.556L181.538 282.603L178.844 284.435L173.564 288.206L177.443 283.034L179.275 280.448L180.999 277.754L184.447 272.474L187.464 266.871C191.622 259.611 195.224 252.046 198.24 244.243C201.222 236.607 203.741 228.799 205.782 220.86L207.291 214.934C207.291 212.994 208.153 211.054 208.476 209.007C208.799 206.96 209.23 205.128 209.554 203.188C209.606 202.219 209.606 201.248 209.554 200.279V197.693L241.341 206.637Z" fill="#910CBF"/>
<path d="M109.776 186.594C110.218 187.135 110.615 187.712 110.961 188.318L111.931 189.827L113.763 192.844L117.103 198.878L120.228 205.02L123.137 211.162C126.878 219.302 130.152 227.648 132.943 236.161C135.894 244.538 138.27 253.106 140.055 261.806L141.132 268.272L141.994 274.737V287.667L140.055 281.741L138.869 278.724L137.576 275.814L134.882 270.103L131.865 264.608C127.954 257.273 123.487 250.249 118.504 243.596C113.673 236.977 108.418 230.678 102.772 224.739L98.5695 220.321C97.1687 218.92 95.7679 217.412 94.2593 216.119L89.6259 211.916L87.4708 209.977L86.1778 209.223L85.208 208.576L109.776 186.594Z" fill="#F86C66"/>
<path d="M171.733 130.67V134.011L172.488 136.812C172.488 138.752 173.242 140.476 173.673 142.308C174.212 145.863 174.858 149.312 175.182 153.083C175.505 156.854 175.828 159.979 176.151 163.858C176.475 167.737 176.151 170.755 176.151 174.634C176.216 188.11 175.352 201.576 173.565 214.934L172.272 224.847L172.38 233.467L171.518 238.424L170.44 243.273L168.393 252.863C166.777 259.22 165.053 265.578 163.436 271.935L157.618 290.684L159.773 271.289C159.773 264.716 160.85 258.358 161.174 251.893V213.102C160.513 200.509 158.965 187.978 156.54 175.603C155.786 172.586 155.139 169.569 154.385 166.552C153.631 163.535 152.877 160.626 151.907 157.824C150.937 155.023 150.075 152.113 148.997 149.419L147.381 145.432L146.519 143.708V142.954L171.733 130.67Z" fill="#E8125F"/>
</svg>
