<svg width="297" height="378" fill="none" xmlns="http://www.w3.org/2000/svg"><path d="M206.454 111.784c0-12.168 8.415-22.856 20.49-24.44a109.01 109.01 0 0 1 13.562-1.05c2.838 0 6.002.21 9.218.542 15.265 1.564 26.864 13.771 29.265 28.91 2.433 15.348 4.964 34.985 4.964 50.313 0 18.275-3.588 42.649-6.328 58.603-1.735 10.069-9.459 18.027-19.57 19.559-5.832.886-12.251 1.616-17.549 1.616-4.109 0-8.898-.443-13.562-1.049-12.068-1.584-20.49-12.279-20.49-24.44V111.777v.007z" fill="#CDB907"/><path fill-rule="evenodd" clip-rule="evenodd" d="M193.407 220.348V111.777c0-17.948 12.545-34.834 31.841-37.363 4.919-.645 10.333-1.16 15.259-1.16 3.431 0 7.071.247 10.555.606 21.808 2.242 37.594 19.552 40.811 39.84 2.452 15.446 5.127 35.942 5.127 52.359 0 19.487-3.777 44.819-6.524 60.806-2.628 15.296-14.488 27.809-30.464 30.24-6.034.913-13.217 1.76-19.505 1.76-4.926 0-10.34-.522-15.259-1.16-19.296-2.529-31.841-19.415-31.841-37.37v.013zm33.537-133.004c-12.068 1.584-20.49 12.272-20.49 24.44v108.564c0 12.168 8.415 22.862 20.49 24.44 4.665.612 9.453 1.055 13.563 1.055 5.297 0 11.716-.73 17.548-1.616 10.111-1.531 17.835-9.489 19.57-19.558 2.74-15.954 6.328-40.329 6.328-58.597 0-15.335-2.531-34.971-4.958-50.319-2.407-15.14-14.006-27.34-29.264-28.91-3.223-.327-6.387-.542-9.224-.542-4.11 0-8.898.43-13.563 1.043z" fill="#000"/><path fill-rule="evenodd" clip-rule="evenodd" d="M206.454 217.91v2.431c0 12.168 8.415 22.863 20.49 24.44 4.664.613 9.453 1.056 13.562 1.056 5.298 0 11.717-.73 17.549-1.616 10.111-1.532 17.835-9.49 19.57-19.559 2.74-15.954 6.328-40.328 6.328-58.596 0-15.335-2.531-34.972-4.958-50.32a36.1 36.1 0 0 0-5.767-14.631c2.173 14.468 4.201 31.661 4.201 45.399 0 18.268-3.588 42.642-6.327 58.59-1.736 10.076-9.459 18.033-19.571 19.565-5.832.886-12.251 1.616-17.548 1.616-4.11 0-8.898-.443-13.562-1.049a22.805 22.805 0 0 1-13.967-7.326z" fill="#AA9A07"/><path fill-rule="evenodd" clip-rule="evenodd" d="M253.253 96.814a6.533 6.533 0 0 1 7.251.01 6.504 6.504 0 0 1 1.797 1.801l-5.427 3.617c5.427-3.617 5.427-3.617 5.434-3.61l.007.013.019.033.052.071c.225.34.438.689.64 1.043a57.79 57.79 0 0 1 1.572 2.894c1.272 2.496 2.922 6.139 4.56 10.87 3.268 9.476 6.471 23.332 6.471 41.228a6.512 6.512 0 0 1-1.911 4.609 6.526 6.526 0 0 1-11.136-4.609c0-16.319-2.916-28.741-5.76-36.978a73.014 73.014 0 0 0-3.849-9.216c-.463-.908-.959-1.8-1.487-2.672l-.053-.085m0 0 .007.014z" fill="#FBE414"/><path d="M60.289 102.19c0-49.237 37.53-89.156 83.814-89.156 46.284 0 83.807 39.919 83.807 89.156 0 0 7.156 48.456 8.82 79.771 3.222 60.487-8.82 154.85-8.82 154.85 0 15.55-11.847 28.155-26.466 28.155h-17.64c-14.612 0-26.465-12.605-26.465-28.155v-43.34a79.472 79.472 0 0 1-35.292-2.013v35.968c0 15.55-3.021 28.155-17.64 28.155h-17.64c-19.85 0-25.395-13.947-26.465-30.501-4.417-68.04-17.646-75.079-17.646-114.964 0-39.886 17.646-107.926 17.646-107.926h-.013z" fill="#FBE414"/><path fill-rule="evenodd" clip-rule="evenodd" d="M227.903 336.811c0 15.55-11.846 28.155-26.466 28.155h-17.639c-14.613 0-26.466-12.605-26.466-28.155v-43.34a79.843 79.843 0 0 1-13.047 1.108h-.189a79.758 79.758 0 0 1-22.049-3.121v35.968c0 15.55-3.027 28.155-17.646 28.155h-17.64c-19.85 0-25.396-13.947-26.466-30.501-2.342-36.06-7.156-54.986-11.168-70.745-3.555-13.979-6.478-25.469-6.478-44.219 0-39.886 17.646-107.926 17.646-107.926-.006-49.237 37.517-89.156 83.801-89.156s83.807 39.919 83.807 89.156c0 0 7.157 48.456 8.82 79.771 3.223 60.487-8.82 154.85-8.82 154.85zm13.047-235.598C240.454 45.993 198.026 0 144.096 0 90.395 0 48.109 45.601 47.261 100.509l-.391 1.538a857.395 857.395 0 0 0-8.194 36.588c-4.422 22.061-9.074 50.143-9.074 71.481 0 20.399 3.275 33.251 6.85 47.315l.718 2.802c3.724 14.729 7.958 32.678 10.104 65.694.587 9.046 2.453 19.663 8.618 28.22 6.823 9.469 17.418 14.468 30.87 14.468H104.4c5.564 0 10.953-1.219 15.715-4.119 4.775-2.906 8.05-6.973 10.229-11.275 4.064-8.016 4.749-17.726 4.749-25.795v-20.249c2.961.287 5.969.437 9.002.437h.189v29.197c0 21.963 16.929 41.189 39.513 41.189h17.639c22.278 0 39.057-18.704 39.507-40.303l.045-.358.379-3.154a1533.777 1533.777 0 0 0 5.153-51.03c2.623-31.257 4.893-70.712 3.236-101.884-.861-16.144-3.118-36.464-5.121-52.549a1504.99 1504.99 0 0 0-3.692-27.503l.006-.006z" fill="#000"/><path fill-rule="evenodd" clip-rule="evenodd" d="M60.498 95.869c-.13 2.092-.203 4.197-.203 6.321 0 0-5.153 19.845-9.883 44.383a35.38 35.38 0 0 0 12.158 12.318 35.422 35.422 0 0 0 16.552 5.083l64.061 3.408a42.3 42.3 0 0 0 26.451-7.55 42.23 42.23 0 0 0 16.199-22.214c8.076-26.264-10.698-53.115-38.162-54.582l-46.839-2.49a53.337 53.337 0 0 0-21.79 3.403 53.298 53.298 0 0 0-18.544 11.926v-.006z" fill="#CDB907"/><path fill-rule="evenodd" clip-rule="evenodd" d="M63.466 340.976c3.51 8.694 10.372 14.605 23.289 14.605H104.4c14.612 0 17.646-12.605 17.646-28.155v-35.968a79.225 79.225 0 0 0 22.049 3.121h.189v-14.142a79.457 79.457 0 0 1-35.292-2.014v35.969c0 15.55-3.02 28.154-17.64 28.154H73.715c-3.96 0-7.352-.554-10.242-1.577l-.006.007zm96.756 8.641c4.377 9.112 13.295 15.349 23.576 15.349h17.639c14.613 0 26.466-12.605 26.466-28.155 0 0 12.043-94.363 8.82-154.85-1.663-31.315-8.82-79.771-8.82-79.771 0-29.06-13.066-54.875-33.296-71.148 12.623 15.608 20.249 35.91 20.249 58.114 0 0 7.157 48.456 8.82 79.771 3.223 60.486-8.82 154.85-8.82 154.85 0 15.55-11.846 28.154-26.466 28.154h-17.639a25.07 25.07 0 0 1-10.529-2.314z" fill="#CDB907"/><path d="M17.962 116.363C22.258 99.654 31.103 85.141 43.09 75.13c11.987-10.01 26.43-14.946 41.031-14.02l57.614 3.655c33.782 2.149 56.876 41.68 46.942 80.338-3.407 13.251-10.422 24.76-19.929 32.698-9.508 7.938-20.962 11.849-32.542 11.111l-78.79-5.017c-28.397-1.804-47.815-35.042-39.462-67.532h.008z" fill="#54B0D7"/><path fill-rule="evenodd" clip-rule="evenodd" d="m84.684 42.601 57.373 3.635c44.013 2.788 74.114 54.105 61.161 104.29-4.44 17.199-13.58 32.137-25.968 42.44-12.388 10.303-27.312 15.38-42.4 14.425l-78.461-4.977c-38.667-2.445-65.1-47.52-53.73-91.587 5.325-20.636 16.29-38.56 31.153-50.923C48.674 47.542 66.58 41.451 84.684 42.601zm-.855 19.002c-14.543-.922-28.927 3.972-40.866 13.903-11.939 9.93-20.748 24.33-25.025 40.907-8.319 32.238 11.019 65.21 39.306 66.999l78.453 4.976c11.531.732 22.938-3.147 32.405-11.021 9.468-7.874 16.453-19.291 19.846-32.436 9.892-38.348-13.105-77.552-46.746-79.693l-57.373-3.635z" fill="#000"/><path fill-rule="evenodd" clip-rule="evenodd" d="M22 157.109c3.598 7.487 8.72 13.777 14.897 18.294 6.175 4.516 13.206 7.112 20.446 7.551l78.24 4.959c11.5.729 22.876-3.136 32.317-10.982 9.442-7.845 16.409-19.221 19.792-32.318 6.615-25.617-1.514-51.614-17.691-66.613 3.91 7.447 6.424 15.81 7.37 24.517.946 8.708.303 17.556-1.887 25.941-3.384 13.097-10.35 24.472-19.792 32.318-9.442 7.845-20.817 11.711-32.318 10.981l-78.24-4.958c-8.337-.495-16.375-3.862-23.134-9.69z" fill="#4088A3"/><path d="M31.318 99.497C35.59 84.212 54.32 70.172 70.404 70.734c16.085.57 15.83-1.77 46.03 1.617 30.207 3.367 39.015 22.561 32.941 44.239-4.272 15.294-18.292 23.303-34.376 22.733-16.076-.552-28.638 4.166-51.058 4.166-22.413 0-38.697-22.305-32.623-43.992z" fill="#71D8F9"/><path fill-rule="evenodd" clip-rule="evenodd" d="m52.11 99.021-3.014-8.763c-1.981.938-3.564 2.76-4.4 5.068a10.979 10.979 0 0 0-.058 7.236c.799 2.325 2.352 4.183 4.318 5.164a6.964 6.964 0 0 0 6.166.068h-.016l.097-.047.523-.218a38.38 38.38 0 0 1 2.264-.869c2.038-.728 5.05-1.674 8.837-2.496 7.596-1.645 18.157-2.742 30.015-.596 2.112.383 4.267-.235 5.991-1.717 1.723-1.482 2.875-3.707 3.201-6.186.325-2.478-.201-5.007-1.464-7.03-1.263-2.022-3.159-3.374-5.27-3.756a91.222 91.222 0 0 0-35.39.69 85.405 85.405 0 0 0-10.608 2.997c-1.288.46-2.564.964-3.827 1.513l-.242.113-.08.038-.032.019h-.017l3.005 8.772z" fill="#EDFEFF"/><path fill-rule="evenodd" clip-rule="evenodd" d="M92.228 287.124a6.519 6.519 0 0 1 6.205-3.745 6.517 6.517 0 0 1 2.471.61c7.743 3.623 17.6 5.487 27.281 6.289 9.596.789 18.546.508 24.183.117a6.535 6.535 0 0 1 4.795 1.546 6.51 6.51 0 0 1 2.262 4.499 6.505 6.505 0 0 1-1.621 4.766 6.512 6.512 0 0 1-4.536 2.191c-8.711.598-17.455.554-26.159-.13-10.353-.86-21.978-2.907-31.744-7.482a6.529 6.529 0 0 1-3.37-3.683 6.513 6.513 0 0 1 .226-4.985l.007.007z" fill="#000"/><path fill-rule="evenodd" clip-rule="evenodd" d="M167.659 273.353a6.517 6.517 0 0 1 5.825 7.143 333.507 333.507 0 0 0-1.526 24.739c-.215 9.659.13 18.353 1.35 23.078a6.512 6.512 0 0 1-4.698 7.918 6.528 6.528 0 0 1-7.938-4.673c-1.715-6.68-1.976-17.062-1.761-26.616.222-9.809.965-19.656 1.592-25.769a6.511 6.511 0 0 1 4.621-5.582 6.522 6.522 0 0 1 2.535-.238z" fill="#FFF384"/><path d="M146.394 231.786c6.216 6.074 11.957 9.057 15.753 10.628 17.641 7.306 30.724-.353 37.116 11.89 2.01 3.851 2.375 7.763 5.99 9.655 3.928 2.056 10.059.87 15.213-4.704 3.332-3.604 5.767-8.512 6.939-13.644 1.19-5.213-2.46-10.821-8.484-12.993l-64.338-23.209-8.189 22.377z" fill="#B28562"/><path d="m218.921 232.618-64.338-23.209-2.104 5.748 58.581 21.132c6.024 2.173 9.674 7.78 8.484 12.993-1.172 5.132-3.607 10.04-6.939 13.644a21.742 21.742 0 0 1-1.981 1.894c3.16-.384 6.684-2.15 9.842-5.565 3.332-3.604 5.767-8.512 6.939-13.644 1.19-5.213-2.459-10.821-8.484-12.993z" fill="#A57A5D"/><path d="m154.583 209.408-11.073 30.231-.79 2.156a1.672 1.672 0 0 1-2.125.992l-52.618-18.98c-5.568-2.006-10.786-5.455-15.145-9.82a41.003 41.003 0 0 1-1.047-1.087c-9.228-9.872-14.152-23.941-9.46-36.771l92.258 33.279z" fill="#F2F2F2"/><path d="M62.325 176.129a29.496 29.496 0 0 0-1.497 5.968l79.263 28.591a7.023 7.023 0 0 1 4.628 6.298 7.016 7.016 0 0 1-.422 2.712l-7.902 21.575 4.2 1.514a1.672 1.672 0 0 0 2.125-.992l.79-2.156 11.073-30.231-92.258-33.279z" fill="#DEDEDE"/><path d="M166.581 232.227c2.492-1.163 3.573-4.117 2.414-6.598-1.158-2.48-4.117-3.548-6.609-2.384-2.491 1.164-3.572 4.118-2.414 6.598 1.158 2.481 4.117 3.548 6.609 2.384z" fill="#FFE966"/><path d="M166.191 223.071a4.989 4.989 0 0 0-5.284 1.232 4.95 4.95 0 0 1 4.847 2.84 4.94 4.94 0 0 1-.934 5.539 4.995 4.995 0 0 0 4.337-3.26 4.948 4.948 0 0 0-.162-3.793 4.934 4.934 0 0 0-2.804-2.558z" fill="#FFE236"/><path d="M189.547 238.691c2.492-1.164 3.573-4.118 2.415-6.598-1.159-2.481-4.118-3.548-6.61-2.384-2.491 1.163-3.572 4.117-2.414 6.598 1.158 2.48 4.117 3.548 6.609 2.384zM212.013 248.615c2.491-1.163 3.572-4.118 2.414-6.598-1.158-2.48-4.117-3.548-6.609-2.384-2.492 1.164-3.573 4.118-2.415 6.598 1.159 2.48 4.118 3.548 6.61 2.384z" fill="#FFE966"/><path d="M189.157 229.534a4.994 4.994 0 0 0-5.283 1.233 4.946 4.946 0 0 1 3.912 8.378 4.988 4.988 0 0 0 4.635-5.172 4.936 4.936 0 0 0-3.264-4.439zm22.466 9.925a4.989 4.989 0 0 0-5.284 1.232 4.95 4.95 0 0 1 4.847 2.84 4.948 4.948 0 0 1-.934 5.539 4.995 4.995 0 0 0 4.337-3.26 4.948 4.948 0 0 0-.162-3.793 4.934 4.934 0 0 0-2.804-2.558z" fill="#FFE236"/><path d="m174 229.453 9-20 34 10c-.5 3.333-1.5 10.4-1.5 12v11l-3 9-8.5 9-4.5 6h-7l-3.5-1-3.5-5-2.5 1-2.5-1v-3.5H174l-2-3.5-2.5-2v-4l4.5-18z" fill="#FBE414"/><path d="m183 209.453-4.5 10-3.768 8.374a20.012 20.012 0 0 0-1.165 3.356l-.567 2.27-2.5 9.5-.844 3.797a6.551 6.551 0 0 0-.156 1.423v1.336c0 1.224.576 2.376 1.556 3.111.294.221.556.483.777.778l.996 1.327c.114.152.214.313.298.483a3.158 3.158 0 0 0 2.824 1.745h2.462c1.153 0 2.087.935 2.087 2.087 0 .854.52 1.621 1.312 1.938l.344.138a2.28 2.28 0 0 0 1.688 0 2.273 2.273 0 0 1 2.693.789l1.463 2.048a5.253 5.253 0 0 0 2.71 2.07l.816.272c.314.105.643.158.974.158h5.5a3.446 3.446 0 0 0 2.992-1.736l.704-1.231c.202-.354.441-.686.711-.991l3.593-4.042 3-3.5 1.264-1.264a13.4 13.4 0 0 0 3.236-5.236l.974-2.921a20.02 20.02 0 0 0 1.026-6.324V230.953l.5-4.5 1-7" stroke="#010318" stroke-width="3"/></svg>