<svg width="297" height="378" fill="none" xmlns="http://www.w3.org/2000/svg"><path d="M206.454 111.784c0-12.168 8.415-22.856 20.49-24.44a109.03 109.03 0 0 1 13.562-1.05c2.838 0 6.002.21 9.218.542 15.265 1.564 26.864 13.771 29.265 28.91 2.433 15.348 4.964 34.985 4.964 50.313 0 18.275-3.588 42.649-6.328 58.603-1.735 10.069-9.459 18.027-19.57 19.559-5.832.886-12.251 1.616-17.549 1.616-4.109 0-8.898-.443-13.562-1.049-12.068-1.584-20.49-12.279-20.49-24.44V111.777v.007z" fill="#CDB907"/><path fill-rule="evenodd" clip-rule="evenodd" d="M193.407 220.348V111.777c0-17.948 12.545-34.835 31.841-37.363 4.919-.645 10.333-1.16 15.259-1.16 3.431 0 7.071.247 10.555.606 21.808 2.242 37.594 19.552 40.811 39.84 2.452 15.446 5.127 35.942 5.127 52.359 0 19.487-3.777 44.819-6.524 60.806-2.628 15.296-14.488 27.809-30.464 30.24-6.034.913-13.217 1.76-19.505 1.76-4.926 0-10.34-.522-15.259-1.16-19.296-2.529-31.841-19.415-31.841-37.37v.013zm33.537-133.004c-12.068 1.584-20.49 12.272-20.49 24.44v108.564c0 12.168 8.415 22.862 20.49 24.44 4.665.612 9.453 1.055 13.563 1.055 5.297 0 11.716-.73 17.548-1.616 10.111-1.531 17.835-9.489 19.57-19.558 2.74-15.954 6.328-40.329 6.328-58.597 0-15.335-2.531-34.971-4.958-50.319-2.407-15.14-14.006-27.34-29.264-28.91-3.223-.327-6.387-.542-9.224-.542-4.11 0-8.898.43-13.563 1.043z" fill="#000"/><path fill-rule="evenodd" clip-rule="evenodd" d="M206.454 217.91v2.431c0 12.168 8.415 22.863 20.49 24.44 4.664.613 9.453 1.056 13.562 1.056 5.298 0 11.717-.73 17.549-1.616 10.111-1.532 17.835-9.49 19.57-19.559 2.74-15.954 6.328-40.328 6.328-58.596 0-15.335-2.531-34.972-4.958-50.32a36.1 36.1 0 0 0-5.767-14.631c2.173 14.468 4.201 31.661 4.201 45.399 0 18.268-3.588 42.642-6.327 58.59-1.736 10.076-9.459 18.033-19.571 19.565-5.832.886-12.251 1.616-17.548 1.616-4.11 0-8.898-.443-13.562-1.049a22.805 22.805 0 0 1-13.967-7.326z" fill="#AA9A07"/><path fill-rule="evenodd" clip-rule="evenodd" d="M253.253 96.814a6.535 6.535 0 0 1 7.251.01 6.504 6.504 0 0 1 1.797 1.801l-5.427 3.617c5.427-3.617 5.427-3.617 5.434-3.61l.007.013.019.033.052.071c.225.34.438.689.64 1.043a57.79 57.79 0 0 1 1.572 2.894c1.272 2.496 2.922 6.139 4.56 10.87 3.268 9.476 6.471 23.332 6.471 41.228a6.512 6.512 0 0 1-1.911 4.609 6.526 6.526 0 0 1-11.136-4.609c0-16.319-2.916-28.741-5.76-36.978a73.014 73.014 0 0 0-3.849-9.216c-.463-.908-.959-1.8-1.487-2.672l-.053-.085m0 0 .007.014z" fill="#FBE414"/><path d="M60.289 102.19c0-49.237 37.53-89.156 83.814-89.156 46.284 0 83.807 39.919 83.807 89.156 0 0 7.156 48.456 8.82 79.771 3.222 60.487-8.82 154.85-8.82 154.85 0 15.55-11.847 28.155-26.466 28.155h-17.64c-14.612 0-26.465-12.605-26.465-28.155v-43.34a79.472 79.472 0 0 1-35.292-2.013v35.968c0 15.55-3.021 28.155-17.64 28.155h-17.64c-19.85 0-25.395-13.947-26.465-30.501-4.417-68.04-17.646-75.079-17.646-114.964 0-39.886 17.646-107.926 17.646-107.926h-.013z" fill="#FBE414"/><path fill-rule="evenodd" clip-rule="evenodd" d="M227.903 336.811c0 15.55-11.846 28.155-26.466 28.155h-17.639c-14.613 0-26.466-12.605-26.466-28.155v-43.34a79.843 79.843 0 0 1-13.047 1.108h-.189a79.758 79.758 0 0 1-22.049-3.121v35.968c0 15.55-3.027 28.155-17.646 28.155h-17.64c-19.85 0-25.396-13.947-26.466-30.501-2.342-36.06-7.156-54.986-11.168-70.745-3.555-13.979-6.478-25.469-6.478-44.219 0-39.886 17.646-107.926 17.646-107.926-.006-49.237 37.517-89.156 83.801-89.156s83.807 39.919 83.807 89.156c0 0 7.157 48.456 8.82 79.771 3.223 60.487-8.82 154.85-8.82 154.85zm13.047-235.598C240.454 45.993 198.026 0 144.096 0 90.395 0 48.109 45.601 47.261 100.509l-.391 1.538a857.395 857.395 0 0 0-8.194 36.588c-4.422 22.061-9.074 50.143-9.074 71.481 0 20.399 3.275 33.251 6.85 47.315l.718 2.802c3.724 14.729 7.958 32.678 10.104 65.694.587 9.046 2.453 19.663 8.618 28.22 6.823 9.469 17.418 14.468 30.87 14.468H104.4c5.564 0 10.953-1.219 15.715-4.119 4.775-2.906 8.05-6.973 10.229-11.275 4.064-8.016 4.749-17.726 4.749-25.795v-20.249c2.961.287 5.969.437 9.002.437h.189v29.197c0 21.963 16.929 41.189 39.513 41.189h17.639c22.278 0 39.057-18.704 39.507-40.303l.045-.358.379-3.154a1533.777 1533.777 0 0 0 5.153-51.03c2.623-31.257 4.893-70.712 3.236-101.884-.861-16.144-3.118-36.464-5.121-52.549a1504.99 1504.99 0 0 0-3.692-27.503l.006-.006z" fill="#000"/><path fill-rule="evenodd" clip-rule="evenodd" d="M60.498 95.869c-.13 2.092-.203 4.197-.203 6.321 0 0-5.153 19.845-9.883 44.383a35.38 35.38 0 0 0 12.158 12.318 35.422 35.422 0 0 0 16.552 5.083l64.061 3.408a42.3 42.3 0 0 0 26.451-7.55 42.23 42.23 0 0 0 16.199-22.214c8.076-26.264-10.698-53.115-38.162-54.582l-46.839-2.49a53.337 53.337 0 0 0-21.79 3.403 53.298 53.298 0 0 0-18.544 11.926v-.006z" fill="#CDB907"/><path fill-rule="evenodd" clip-rule="evenodd" d="M63.466 340.976c3.51 8.694 10.372 14.605 23.289 14.605H104.4c14.612 0 17.646-12.605 17.646-28.155v-35.968a79.225 79.225 0 0 0 22.049 3.121h.189v-14.142a79.457 79.457 0 0 1-35.292-2.014v35.969c0 15.55-3.02 28.154-17.64 28.154H73.715c-3.96 0-7.352-.554-10.242-1.577l-.006.007zm96.756 8.641c4.377 9.112 13.295 15.349 23.576 15.349h17.639c14.613 0 26.466-12.605 26.466-28.155 0 0 12.043-94.363 8.82-154.85-1.663-31.315-8.82-79.771-8.82-79.771 0-29.06-13.066-54.875-33.296-71.148 12.623 15.608 20.249 35.91 20.249 58.114 0 0 7.157 48.456 8.82 79.771 3.223 60.486-8.82 154.85-8.82 154.85 0 15.55-11.846 28.154-26.466 28.154h-17.639a25.07 25.07 0 0 1-10.529-2.314z" fill="#CDB907"/><path d="M17.95 116.363c4.273-16.709 13.067-31.222 24.985-41.233 11.919-10.01 26.278-14.946 40.797-14.02l57.285 3.655c33.588 2.149 56.55 41.68 46.673 80.338-3.388 13.251-10.362 24.76-19.815 32.698-9.453 7.938-20.842 11.849-32.356 11.111l-78.339-5.017c-28.235-1.804-47.543-35.042-39.237-67.532h.008z" fill="#54B0D7"/><path fill-rule="evenodd" clip-rule="evenodd" d="m84.582 42.138 57.304 3.656c43.96 2.805 74.025 54.42 61.087 104.896-4.435 17.299-13.564 32.324-25.937 42.687-12.372 10.363-27.278 15.47-42.349 14.508l-78.366-5.005c-38.62-2.46-65.022-47.797-53.665-92.119 5.318-20.757 16.27-38.785 31.115-51.219 14.845-12.434 32.73-18.56 50.811-17.404zm-.854 19.113c-14.525-.927-28.892 3.995-40.817 13.983-11.924 9.989-20.722 24.471-24.995 41.145-8.308 32.426 11.006 65.589 39.259 67.388l78.358 5.005c11.518.737 22.91-3.165 32.367-11.085 9.456-7.92 16.433-19.403 19.821-32.624 9.881-38.571-13.089-78.002-46.689-80.156l-57.304-3.656z" fill="#000"/><path fill-rule="evenodd" clip-rule="evenodd" d="M22 157.828c3.598 7.555 8.72 13.903 14.897 18.46 6.175 4.557 13.206 7.178 20.446 7.62l78.24 5.004c11.5.736 22.876-3.164 32.317-11.081 9.442-7.917 16.409-19.396 19.792-32.612 6.615-25.851-1.514-52.084-17.691-67.219 3.91 7.514 6.424 15.953 7.37 24.74.946 8.787.303 17.715-1.887 26.176-3.384 13.217-10.35 24.695-19.792 32.612-9.442 7.917-20.817 11.818-32.318 11.082l-78.24-5.004c-8.337-.499-16.375-3.896-23.134-9.778z" fill="#4088A3"/><path d="M31.318 99.497C35.59 84.212 54.32 70.172 70.404 70.734c16.085.57 15.83-1.77 46.03 1.617 30.207 3.367 39.015 22.561 32.941 44.239-4.272 15.294-18.292 23.303-34.376 22.733-16.076-.552-28.638 4.166-51.058 4.166-22.413 0-38.697-22.305-32.623-43.992z" fill="#71D8F9"/><path fill-rule="evenodd" clip-rule="evenodd" d="m52.11 99.021-3.014-8.763c-1.981.938-3.564 2.76-4.4 5.068a10.979 10.979 0 0 0-.058 7.236c.799 2.325 2.352 4.183 4.318 5.164a6.964 6.964 0 0 0 6.166.068h-.016l.097-.047.523-.218a38.38 38.38 0 0 1 2.264-.869c2.038-.728 5.05-1.674 8.837-2.496 7.596-1.645 18.157-2.742 30.015-.596 2.112.383 4.267-.235 5.991-1.717 1.723-1.482 2.875-3.707 3.201-6.186.325-2.478-.201-5.007-1.464-7.03-1.263-2.022-3.159-3.374-5.27-3.756a91.22 91.22 0 0 0-35.39.69 85.405 85.405 0 0 0-10.608 2.997c-1.288.46-2.564.964-3.827 1.513l-.242.113-.08.038-.032.019h-.017l3.005 8.772z" fill="#EDFEFF"/><path fill-rule="evenodd" clip-rule="evenodd" d="M92.228 287.124a6.519 6.519 0 0 1 6.205-3.745 6.517 6.517 0 0 1 2.471.61c7.743 3.623 17.6 5.487 27.281 6.289 9.596.788 18.546.508 24.183.117a6.535 6.535 0 0 1 4.795 1.546 6.517 6.517 0 0 1-3.895 11.456c-8.711.598-17.455.554-26.159-.13-10.353-.861-21.978-2.907-31.744-7.482a6.529 6.529 0 0 1-3.37-3.683 6.513 6.513 0 0 1 .226-4.985l.007.007z" fill="#000"/><path fill-rule="evenodd" clip-rule="evenodd" d="M167.659 273.353a6.517 6.517 0 0 1 5.825 7.143 333.507 333.507 0 0 0-1.526 24.739c-.215 9.658.13 18.352 1.35 23.077a6.514 6.514 0 0 1-4.698 7.919 6.528 6.528 0 0 1-7.938-4.673c-1.715-6.68-1.976-17.062-1.761-26.616.222-9.809.965-19.656 1.592-25.77a6.512 6.512 0 0 1 4.621-5.581 6.522 6.522 0 0 1 2.535-.238z" fill="#FFF384"/></svg>