<svg width="305" height="432" fill="none" xmlns="http://www.w3.org/2000/svg"><path d="M201.721 127.753c0-13.906 9.599-26.121 23.372-27.931a124.099 124.099 0 0 1 15.469-1.2c3.237 0 6.846.239 10.514.619 17.412 1.787 30.642 15.738 33.38 33.04 2.775 17.541 5.662 39.983 5.662 57.501 0 20.885-4.092 48.742-7.217 66.975-1.98 11.507-10.789 20.602-22.323 22.352-6.652 1.013-13.974 1.847-20.016 1.847-4.687 0-10.149-.506-15.469-1.199-13.766-1.81-23.372-14.032-23.372-27.931V127.745v.008z" fill="#CDB907"/><path fill-rule="evenodd" clip-rule="evenodd" d="M186.839 251.826V127.745c0-20.512 14.309-39.81 36.319-42.7 5.61-.738 11.786-1.326 17.404-1.326 3.914 0 8.066.283 12.039.692 24.875 2.563 42.882 22.345 46.55 45.532 2.798 17.652 5.849 41.077 5.849 59.839 0 22.27-4.308 51.222-7.441 69.493-2.999 17.481-16.526 31.781-34.749 34.56-6.882 1.042-15.075 2.011-22.248 2.011-5.618 0-11.794-.596-17.404-1.326-22.01-2.89-36.319-22.189-36.319-42.709v.015zm38.254-152.004c-13.766 1.81-23.372 14.025-23.372 27.931v124.073c0 13.906 9.599 26.129 23.372 27.931 5.32.7 10.781 1.207 15.469 1.207 6.042 0 13.364-.834 20.016-1.847 11.533-1.751 20.343-10.845 22.323-22.353 3.125-18.233 7.217-46.09 7.217-66.967 0-17.526-2.887-39.967-5.655-57.508-2.746-17.303-15.975-31.246-33.379-33.04-3.676-.373-7.285-.619-10.522-.619-4.688 0-10.149.492-15.469 1.192z" fill="#000"/><path fill-rule="evenodd" clip-rule="evenodd" d="M201.721 249.041v2.778c0 13.906 9.599 26.128 23.372 27.931 5.32.7 10.782 1.206 15.469 1.206 6.042 0 13.364-.834 20.016-1.847 11.534-1.75 20.343-10.844 22.323-22.352 3.125-18.233 7.217-46.09 7.217-66.967 0-17.526-2.887-39.968-5.655-57.509a41.314 41.314 0 0 0-6.577-16.721c2.477 16.535 4.792 36.184 4.792 51.885 0 20.877-4.093 48.734-7.218 66.96-1.979 11.515-10.789 20.609-22.323 22.359-6.652 1.013-13.974 1.848-20.015 1.848-4.688 0-10.15-.507-15.47-1.2a25.997 25.997 0 0 1-15.931-8.371z" fill="#AA9A07"/><path fill-rule="evenodd" clip-rule="evenodd" d="M255.102 110.644a7.43 7.43 0 0 1 8.27.012 7.428 7.428 0 0 1 2.05 2.059l-6.191 4.134c6.191-4.134 6.191-4.134 6.199-4.127l.007.015.022.037.06.082c.256.389.499.787.729 1.192a64.84 64.84 0 0 1 1.793 3.307c1.451 2.853 3.334 7.016 5.202 12.424 3.727 10.83 7.381 26.665 7.381 47.118a7.45 7.45 0 0 1-7.441 7.448 7.45 7.45 0 0 1-7.441-7.448c0-18.651-3.326-32.847-6.57-42.262a83.347 83.347 0 0 0-4.39-10.532 47.62 47.62 0 0 0-1.697-3.054l-.059-.096m0 0 .007.014-.007-.014z" fill="#FBE414"/><path d="M35.002 116.789c0-56.272 42.807-101.892 95.6-101.892 52.792 0 95.592 45.62 95.592 101.892 0 0 8.163 55.378 10.06 91.167 3.676 69.127-10.06 176.971-10.06 176.971 0 17.771-13.513 32.176-30.188 32.176h-20.12c-16.667 0-30.187-14.405-30.187-32.176v-49.531a90.462 90.462 0 0 1-40.255-2.302v41.107c0 17.772-3.445 32.177-20.12 32.177h-20.12c-22.642 0-28.967-15.939-30.187-34.858-5.038-77.76-20.128-85.804-20.128-131.388 0-45.583 20.128-123.343 20.128-123.343h-.015z" fill="#FBE414"/><path fill-rule="evenodd" clip-rule="evenodd" d="M226.187 384.927c0 17.771-13.513 32.176-30.188 32.176h-20.12c-16.667 0-30.187-14.405-30.187-32.176v-49.531a90.97 90.97 0 0 1-14.882 1.266h-.216a90.797 90.797 0 0 1-25.15-3.568v41.107c0 17.772-3.452 32.177-20.127 32.177h-20.12c-22.643 0-28.968-15.939-30.188-34.858-2.671-41.211-8.163-62.841-12.739-80.851-4.055-15.977-7.388-29.108-7.388-50.537 0-45.583 20.127-123.343 20.127-123.343-.007-56.272 42.792-101.892 95.585-101.892 52.793 0 95.593 45.62 95.593 101.892 0 0 8.162 55.378 10.06 91.167 3.675 69.127-10.06 176.971-10.06 176.971zm14.881-269.255C240.503 52.562 192.108 0 130.594 0 69.341 0 21.11 52.116 20.142 114.867l-.446 1.758a981.565 981.565 0 0 0-9.346 41.815C5.305 183.652 0 215.747 0 240.132c0 23.314 3.735 38.002 7.813 54.075l.818 3.203c4.25 16.833 9.078 37.345 11.526 75.078.67 10.338 2.798 22.472 9.83 32.251 7.783 10.823 19.867 16.536 35.21 16.536h20.12c6.347 0 12.493-1.393 17.925-4.708 5.446-3.322 9.182-7.969 11.667-12.885 4.636-9.162 5.417-20.26 5.417-29.481V351.06c3.378.327 6.808.499 10.268.499h.216v33.368c0 25.101 19.309 47.073 45.069 47.073h20.12c25.411 0 44.548-21.377 45.062-46.06l.052-.41.432-3.605a1755.718 1755.718 0 0 0 5.878-58.32c2.991-35.722 5.58-80.814 3.69-116.439-.982-18.449-3.556-41.673-5.841-60.055a1721.453 1721.453 0 0 0-4.211-31.432l.007-.007z" fill="#000"/><path fill-rule="evenodd" clip-rule="evenodd" d="M35.24 109.564a116.22 116.22 0 0 0-.23 7.225s-5.88 22.68-11.274 50.723a40.4 40.4 0 0 0 13.868 14.078 40.348 40.348 0 0 0 18.88 5.809l73.068 3.895a48.185 48.185 0 0 0 30.171-8.629 48.263 48.263 0 0 0 18.478-25.387c9.211-30.017-12.203-60.704-43.529-62.38l-53.426-2.845a60.729 60.729 0 0 0-24.854 3.89 60.777 60.777 0 0 0-21.152 13.629v-.008z" fill="#CDB907"/><path fill-rule="evenodd" clip-rule="evenodd" d="M38.625 389.686c4.004 9.936 11.831 16.692 26.564 16.692h20.128c16.667 0 20.127-14.405 20.127-32.177v-41.107a90.198 90.198 0 0 0 25.15 3.568h.216v-16.163a90.476 90.476 0 0 1-40.255-2.301v41.107c0 17.771-3.445 32.176-20.12 32.176h-20.12c-4.517 0-8.386-.633-11.682-1.802l-.008.007zm110.363 9.877c4.993 10.412 15.164 17.54 26.891 17.54h20.12c16.668 0 30.188-14.405 30.188-32.176 0 0 13.735-107.844 10.06-176.971-1.898-35.789-10.06-91.167-10.06-91.167 0-33.212-14.904-62.715-37.978-81.313 14.398 17.839 23.096 41.04 23.096 66.416 0 0 8.162 55.378 10.06 91.167 3.676 69.128-10.06 176.971-10.06 176.971 0 17.772-13.513 32.177-30.188 32.177h-20.12a28.563 28.563 0 0 1-12.009-2.644z" fill="#CDB907"/><path d="M20.836 137.74c4.896-19.156 14.974-35.794 28.633-47.272 13.66-11.477 30.116-17.134 46.755-16.073l65.649 4.19c38.494 2.464 64.809 47.783 53.489 92.102-3.882 15.192-11.875 28.387-22.708 37.487-10.834 9.101-23.885 13.584-37.08 12.738l-89.78-5.752c-32.358-2.067-54.485-40.173-44.967-77.42h.01z" fill="#54B0D7"/><path fill-rule="evenodd" clip-rule="evenodd" d="m96.983 53.463 65.441 4.154c50.202 3.186 84.536 61.834 69.761 119.188-5.064 19.656-15.49 36.728-29.62 48.503-14.129 11.775-31.152 17.578-48.362 16.486l-89.494-5.688c-44.105-2.795-74.255-54.309-61.285-104.671 6.073-23.584 18.58-44.069 35.533-58.197 16.952-14.128 37.377-21.09 58.026-19.775zm-.976 21.717c-16.587-1.054-32.994 4.538-46.612 15.888-13.618 11.35-23.665 27.806-28.545 46.751-9.488 36.844 12.569 74.525 44.834 76.57l89.485 5.688c13.153.836 26.163-3.597 36.962-12.596 10.799-8.999 18.767-22.047 22.637-37.07 11.283-43.826-14.948-88.63-53.319-91.077L96.007 75.18z" fill="#000"/><path fill-rule="evenodd" clip-rule="evenodd" d="M25.885 184.523c4.096 8.623 9.926 15.868 16.955 21.069 7.03 5.202 15.032 8.193 23.272 8.698l89.051 5.711c13.089.84 26.036-3.612 36.783-12.648 10.746-9.036 18.675-22.137 22.527-37.222 7.528-29.505-1.724-59.446-20.136-76.721 4.45 8.576 7.311 18.208 8.388 28.237s.344 20.22-2.148 29.877c-3.851 15.085-11.78 28.186-22.527 37.222-10.746 9.036-23.693 13.488-36.783 12.648l-89.051-5.711c-9.49-.57-18.637-4.447-26.33-11.16z" fill="#4088A3"/><path d="M46.468 132.051c4.873-17.469 26.237-33.513 44.584-32.872 18.346.652 18.055-2.022 52.501 1.848 34.456 3.848 44.502 25.785 37.574 50.559-4.873 17.48-20.864 26.633-39.21 25.98-18.337-.63-32.665 4.762-58.238 4.762-25.565 0-44.138-25.492-37.21-50.277z" fill="#71D8F9"/><path fill-rule="evenodd" clip-rule="evenodd" d="m85.154 133.053-3.436-10.015c-2.26 1.072-4.066 3.155-5.02 5.792a12.569 12.569 0 0 0-.066 8.269c.911 2.658 2.683 4.781 4.926 5.902 2.243 1.122 4.772 1.15 7.033.078h-.019l.11-.054.598-.248a43.21 43.21 0 0 1 2.582-.994c2.324-.832 5.76-1.913 10.079-2.853 8.665-1.879 20.711-3.133 34.237-.68 2.408.437 4.866-.269 6.832-1.963 1.967-1.694 3.28-4.237 3.652-7.069.371-2.833-.229-5.723-1.67-8.034-1.44-2.312-3.603-3.856-6.012-4.293a103.843 103.843 0 0 0-40.365.788 97.275 97.275 0 0 0-12.101 3.425 70.312 70.312 0 0 0-4.364 1.729l-.276.129-.092.044-.037.021h-.018l3.427 10.026z" fill="#EDFEFF"/><path fill-rule="evenodd" clip-rule="evenodd" d="M80.234 328.188a7.275 7.275 0 0 1 1.52-2.282 6.493 6.493 0 0 1 2.193-1.466 5.995 5.995 0 0 1 5.021.254c7.796 4.039 17.719 6.117 27.465 7.01 9.66.879 18.67.567 24.344.131a5.994 5.994 0 0 1 2.571.325 6.433 6.433 0 0 1 2.257 1.399 7.207 7.207 0 0 1 1.594 2.253 7.99 7.99 0 0 1 .35 5.598 7.467 7.467 0 0 1-1.298 2.475 6.678 6.678 0 0 1-2.062 1.729 6.081 6.081 0 0 1-2.505.714c-8.77.666-17.572.617-26.335-.146-10.422-.959-22.125-3.24-31.956-8.339a6.657 6.657 0 0 1-2.066-1.68A7.434 7.434 0 0 1 80 333.737a7.969 7.969 0 0 1 .227-5.556l.007.007z" fill="#000"/><path fill-rule="evenodd" clip-rule="evenodd" d="M157.47 312.403a7.437 7.437 0 0 1 5.011 2.705 7.451 7.451 0 0 1 1.634 5.458c-.93 9.4-1.51 18.831-1.741 28.274-.246 11.038.149 20.974 1.54 26.374a7.456 7.456 0 0 1-.81 5.634 7.435 7.435 0 0 1-10.178 2.619 7.448 7.448 0 0 1-3.425-4.543c-1.957-7.635-2.254-19.5-2.009-30.419.253-11.21 1.102-22.464 1.816-29.451a7.445 7.445 0 0 1 8.162-6.651z" fill="#FFF384"/></svg>