<svg xmlns="http://www.w3.org/2000/svg" width="90.308" height="55.923" fill="none"><rect width="100%" height="100%"/><defs><linearGradient id="a" x1=".282" y1=".038" x2=".848" y2=".96"><stop stop-color="#E9A254"/><stop offset="1" stop-color="#F4BB79"/></linearGradient><linearGradient id="b" x1=".282" y1=".036" x2=".867" y2="1"><stop stop-color="#FBCC88"/><stop offset="1" stop-color="#FFE5C3"/></linearGradient></defs><g class="currentLayer"><path d="M62.102 55.233C76.865 54.855 88.6 42.743 88.41 28.17 88.03 13.785 76.486 2.24 62.102 1.862 47.34 1.483 1.54 28.358 1.54 28.358s45.8 26.875 60.563 26.875z" fill="url(#a)"/><path d="M75.35 41.606c7.382-.946 12.303-7.76 11.356-15.14A13.658 13.658 0 0 0 75.351 15.11c-7.57 0-32.175 13.248-32.175 13.248S67.97 41.796 75.351 41.606z" fill="url(#b)"/></g></svg>