<svg xmlns="http://www.w3.org/2000/svg" width="160.308" height="132.385" fill="none"><rect width="100%" height="100%"/><defs><linearGradient id="a" x1="-1.047" y1=".221" x2="2.323" y2=".782"><stop stop-color="#474F72"/><stop offset="1" stop-color="#878C9F"/></linearGradient><linearGradient id="b" x1=".064" y1="1.124" x2=".688" y2="-.121"><stop stop-color="#D4D8E1"/><stop offset="1" stop-color="#F3F4F5"/></linearGradient><linearGradient id="c" x1=".135" y1="-.232" x2=".821" y2="1.433"><stop stop-color="#DA5466"/><stop offset="1" stop-color="#F4929C"/></linearGradient><linearGradient id="d" x1=".135" y1="1.232" x2=".821" y2="-.433"><stop stop-color="#DA5466"/><stop offset="1" stop-color="#F4929C"/></linearGradient><linearGradient id="e" x1="-.05" y1=".791" x2=".65" y2=".209"><stop stop-color="#DA5466"/><stop offset="1" stop-color="#F4929C"/></linearGradient><linearGradient id="f" x1=".146" y1=".146" x2=".854" y2=".854"><stop stop-color="#9DD5DF"/><stop offset="1" stop-color="#C3E1F5"/></linearGradient><linearGradient id="g" x1=".147" y1=".853" x2=".853" y2=".147"><stop stop-color="#949AAF"/><stop offset="1" stop-color="#C6CCDA"/></linearGradient><linearGradient id="h" x1=".232" y1="2.107" x2=".768" y2="-1.107"><stop stop-color="#DA5466"/><stop offset="1" stop-color="#F4929C"/></linearGradient></defs><g class="currentLayer"><path d="M21.893 100.456h-6.056c-3.028 0-5.3-2.271-5.3-5.3V37.622c0-3.028 2.272-5.3 5.3-5.3h6.056v68.135z" fill="url(#a)"/><path d="M158.162 66.388c-21.765 21.766-51.48 34.068-82.14 34.068H21.895V32.32l53.939-.19c30.85.19 60.564 12.492 82.329 34.257z" fill="url(#b)"/><path d="m71.1 31.552-3.027-3.028C51.797 12.247 29.843 3.163 6.753 3.163c-2.65 0-4.732 2.082-4.543 4.542 0 1.514.946 3.218 2.46 3.975 7.76 4.353 14.006 11.355 17.412 19.683l49.019.189z" fill="url(#c)"/><path d="m71.102 100.456-3.03 3.028c-16.275 16.276-38.23 25.36-61.32 25.36-2.65 0-4.731-2.081-4.542-4.541 0-1.514.946-3.218 2.46-3.975 7.76-4.353 14.006-11.355 17.413-19.683l49.019-.19z" fill="url(#d)"/><path d="M158.162 66.388c-7.57 7.57-16.276 14.006-25.74 19.305-8.516-11.545-8.516-27.064 0-38.61 9.464 5.3 18.17 11.735 25.74 19.305z" fill="url(#e)"/><path d="M82.457 77.744c6.272 6.27 16.44 6.27 22.712 0 6.27-6.272 6.27-16.44 0-22.712-6.272-6.272-16.44-6.272-22.712 0-6.271 6.272-6.271 16.44 0 22.712z" fill="url(#f)"/><path d="M80.565 79.637c-7.382-7.382-7.382-19.116 0-26.498 7.38-7.38 19.115-7.38 26.496 0 7.38 7.382 7.38 19.116 0 26.498-7.381 7.38-19.115 7.38-26.496 0zm22.71-22.712c-5.298-5.3-13.626-5.3-18.925 0-5.3 5.299-5.3 13.627 0 18.926 5.299 5.3 13.627 5.3 18.926 0 5.299-5.3 5.299-13.627 0-18.926z" fill="url(#g)"/><path d="M4.692 70.174c-.946-.947-1.514-2.272-1.514-3.786 0-3.028 2.27-5.3 5.3-5.3H61.47c3.028 0 5.299 2.272 5.299 5.3 0 3.029-2.271 5.3-5.3 5.3H8.478c-1.514 0-2.839-.568-3.785-1.514z" fill="url(#h)"/></g></svg>