<svg width="305" height="197" fill="none" xmlns="http://www.w3.org/2000/svg"><path d="M305 171.964c0 7.662-19.408 6.984-44.573 12.174-14.364 2.962-31.552 9.858-51.084 10.586-23.038-3.733-37.813 2.276-58.596 2.276-30.55-2.276-62.102 1.001-80.131-6.009-16.026-3.505-27.045-1.502-43.572-8.512-8.515-2.441-14.156-5.622-18.53-8.512C4.602 171.383 0 170.786 0 167.958c0-4.091 7.6-6.984 15.525-10.515 23.143-10.31 73.205-18.526 135.222-18.526 53.49 0 97.413 8.251 125.205 17.525 4.822 1.609 13.029 1.284 16.527 3.004 7.722 3.796 12.521 8.572 12.521 12.518z" fill="#AB001F"/><path d="M219.584 47.03c32.227 0 58.354 24.475 58.354 54.66 0 30.186-26.127 54.657-58.354 54.657 0 0-31.714 4.667-52.21 5.752-39.589 2.102-101.352-5.752-101.352-5.752-10.176 0-18.427-7.726-18.427-17.26v-11.505c0-9.529 8.25-17.259 18.427-17.259H94.39a51.647 51.647 0 0 1 1.318-23.016H72.166c-10.178 0-18.429-1.97-18.429-11.505V64.3c0-12.947 9.13-16.563 19.963-17.261 44.533-2.88 49.141-11.509 75.246-11.509 26.105 0 70.638 11.509 70.638 11.509v-.01z" fill="#E8125F"/><path fill-rule="evenodd" clip-rule="evenodd" d="M66.023 156.343c-10.178 0-18.428-7.726-18.428-17.261v-11.504c0-9.529 8.25-17.259 18.428-17.259H94.39a51.922 51.922 0 0 1-.727-8.51v-.123c.003-4.866.691-9.707 2.044-14.38H72.165c-10.178 0-18.427-1.973-18.427-11.508V64.293c0-12.945 9.128-16.561 19.963-17.26 23.601-1.526 35.989-4.666 46.303-7.283 9.15-2.319 16.67-4.225 28.942-4.225 26.106 0 70.639 11.509 70.639 11.509 32.227-.004 58.354 24.467 58.354 54.652 0 30.186-26.127 54.657-58.354 54.657 0 0-31.715 4.666-52.212 5.752-39.589 2.101-101.35-5.752-101.35-5.752zm154.202 8.508c36.142-.323 66.245-27.993 66.245-63.165 0-35.022-29.847-62.6-65.784-63.152l-1.007-.256a563.555 563.555 0 0 0-23.947-5.343c-14.44-2.885-32.82-5.919-46.786-5.919-13.352 0-21.763 2.136-30.969 4.468l-1.833.468c-9.64 2.429-21.388 5.19-42.998 6.59-5.92.383-12.87 1.6-18.47 5.62-6.197 4.45-9.469 11.359-9.469 20.131v11.505c0 3.63.798 7.143 2.697 10.249 1.903 3.114 4.564 5.25 7.379 6.67 5.246 2.651 11.603 3.098 16.883 3.098H85.42a60.714 60.714 0 0 0-.285 5.871v.123H66.022c-14.374 0-26.958 11.04-26.958 25.769v11.504c0 14.529 12.242 25.471 26.378 25.765l.236.03 2.063.246a1004.718 1004.718 0 0 0 33.401 3.362c20.457 1.71 46.282 3.191 66.684 2.11 10.565-.562 23.866-2.034 34.393-3.34a981.594 981.594 0 0 0 18.001-2.408l.005.004z" fill="#000"/><path fill-rule="evenodd" clip-rule="evenodd" d="M223.723 47.165a66.668 66.668 0 0 0-4.138-.131s-12.988-3.361-29.049-6.445a23.11 23.11 0 0 0-8.062 7.928 23.037 23.037 0 0 0-3.327 10.795l-2.231 41.778a27.514 27.514 0 0 0 4.942 17.251 27.633 27.633 0 0 0 14.539 10.564c17.19 5.268 34.765-6.977 35.725-24.887l1.629-30.547c.259-4.84-.5-9.682-2.227-14.21a34.759 34.759 0 0 0-7.805-12.096h.004z" fill="#A60841"/><path fill-rule="evenodd" clip-rule="evenodd" d="M63.297 49.102c-5.69 2.288-9.559 6.765-9.559 15.188v11.508c0 9.53 8.25 11.509 18.427 11.509h23.542a51.48 51.48 0 0 0-2.043 14.379v.123h9.257a51.636 51.636 0 0 1 1.318-23.016H80.696c-10.176 0-18.427-1.97-18.427-11.504V55.785c0-2.582.363-4.794 1.032-6.68l-.004-.003zm-5.656 63.101c-5.963 2.854-10.046 8.671-10.046 15.375v11.505c0 9.53 8.25 17.26 18.428 17.26 0 0 61.762 7.853 101.351 5.752 20.496-1.086 52.211-5.752 52.211-5.752 19.02 0 35.917-8.522 46.568-21.714-10.216 8.231-23.504 13.205-38.037 13.205 0 0-31.715 4.667-52.21 5.752-39.59 2.102-101.352-5.752-101.352-5.752-10.177 0-18.427-7.727-18.427-17.26V119.07a16.312 16.312 0 0 1 1.514-6.867z" fill="#A60841"/><path d="M221.973 29.884a34.86 34.86 0 0 1 18.336 13.323 34.71 34.71 0 0 1 6.234 21.756l-1.625 30.546c-.955 17.911-18.534 30.156-35.724 24.888a27.633 27.633 0 0 1-14.541-10.566 27.51 27.51 0 0 1-4.94-17.253l2.231-41.775c.801-15.056 15.582-25.351 30.029-20.923v.004z" fill="#D75454"/><path fill-rule="evenodd" clip-rule="evenodd" d="m255.066 65.417-1.63 30.547c-1.25 23.434-24.253 39.46-46.75 32.564a36.164 36.164 0 0 1-19.025-13.827 36.004 36.004 0 0 1-6.467-22.575l2.231-41.773c1.096-20.588 21.303-34.661 41.057-28.608a43.386 43.386 0 0 1 22.827 16.586 43.188 43.188 0 0 1 7.757 27.086zm-8.518-.454a34.711 34.711 0 0 0-6.232-21.759 34.855 34.855 0 0 0-18.338-13.324c-14.452-4.43-29.232 5.867-30.034 20.927l-2.231 41.77a27.515 27.515 0 0 0 4.94 17.254 27.643 27.643 0 0 0 14.541 10.566c17.19 5.267 34.765-6.977 35.724-24.889l1.63-30.545z" fill="#000"/><path fill-rule="evenodd" clip-rule="evenodd" d="M203.572 31.94a23.123 23.123 0 0 0-8.231 7.952 23.04 23.04 0 0 0-3.397 10.915l-2.232 41.77a27.522 27.522 0 0 0 4.941 17.254 27.64 27.64 0 0 0 14.54 10.566c11.526 3.531 23.222-.808 29.97-9.444a27.536 27.536 0 0 1-22.701 2.926 27.632 27.632 0 0 1-14.54-10.566 27.514 27.514 0 0 1-4.941-17.253l2.231-41.77a22.957 22.957 0 0 1 4.36-12.35z" fill="#A34058"/><path d="M229.818 37.237c6.855 2.28 13.152 12.277 12.899 20.863-.255 8.585.793 8.45-.725 24.569-1.51 16.124-10.118 20.826-19.84 17.584-6.858-2.28-10.45-9.764-10.194-18.35.247-8.582-1.868-15.286-1.868-27.253 0-11.963 10.003-20.656 19.728-17.413z" fill="#F97189"/><path fill-rule="evenodd" clip-rule="evenodd" d="M98.543 67.86a4.249 4.249 0 0 1 2.052 5.658c-2.371 5.05-3.591 11.478-4.116 17.791-.516 6.26-.332 12.096-.076 15.772a4.245 4.245 0 0 1-1.012 3.128 4.273 4.273 0 0 1-7.08-.918 4.244 4.244 0 0 1-.419-1.623 115.77 115.77 0 0 1 .086-17.06c.563-6.752 1.902-14.333 4.897-20.702a4.257 4.257 0 0 1 2.41-2.197 4.274 4.274 0 0 1 3.264.146l-.006.005z" fill="#000"/><path fill-rule="evenodd" clip-rule="evenodd" d="M107.557 117.053a4.236 4.236 0 0 1-1.548 2.864 4.273 4.273 0 0 1-3.126.935 220.096 220.096 0 0 0-16.193-.996c-6.321-.14-12.011.085-15.105.882a4.28 4.28 0 0 1-3.226-.464 4.254 4.254 0 0 1-1.5-5.819 4.26 4.26 0 0 1 2.602-1.958c4.372-1.12 11.168-1.29 17.42-1.149 6.421.144 12.867.629 16.868 1.038a4.275 4.275 0 0 1 2.873 1.546 4.251 4.251 0 0 1 .935 3.121z" fill="#FA528E"/><path d="M132.412 53.264c-4.489-3.708-6.884-7.317-8.201-9.732-6.12-11.223-1.946-20.474-10.558-23.86-2.708-1.064-5.341-1.03-6.858-3.301-1.649-2.469-1.294-6.634 2.054-10.46 2.165-2.473 5.263-4.44 8.6-5.584 3.389-1.162 7.385.869 9.26 4.725l20.032 41.175-14.329 7.037z" fill="#613C20"/><path d="m126.71 5.052 20.032 41.174-3.681 1.808-18.239-37.492c-1.876-3.855-5.871-5.886-9.26-4.724-3.337 1.143-6.435 3.112-8.6 5.585-.404.46-.779.945-1.121 1.453.032-2.13.958-4.6 3.01-6.945 2.164-2.474 5.262-4.442 8.599-5.585 3.389-1.162 7.385.87 9.26 4.726z" fill="#7B380B"/><path d="m146.743 46.227-19.359 9.51-1.38.68a1.122 1.122 0 0 0-.511 1.484l16.383 33.674c1.732 3.564 4.4 6.791 7.618 9.383.264.212.528.419.799.62 7.233 5.442 16.957 7.721 25.174 3.689l-28.724-59.042v.002z" fill="#F2F2F2"/><path d="M175.466 105.268a19.812 19.812 0 0 1-3.87 1.419l-24.678-50.725a4.694 4.694 0 0 0-4.525-2.634c-.618.04-1.223.2-1.778.473l-13.815 6.79-1.307-2.689a1.117 1.117 0 0 1 .511-1.485l1.38-.678 19.358-9.513 28.724 59.042z" fill="#DEDEDE"/><path d="M130.685 39.858a3.33 3.33 0 0 1 4.226-2.075 3.329 3.329 0 0 1 2.234 2.945c.026.436-.034.873-.177 1.286a3.328 3.328 0 0 1-4.224 2.075 3.33 3.33 0 0 1-1.906-1.689 3.325 3.325 0 0 1-.153-2.541z" fill="#FFE966"/><path d="M136.814 39.469a3.335 3.335 0 0 1-.446 3.604 3.316 3.316 0 0 0-2.237-3.024 3.32 3.32 0 0 0-3.624 1.013 3.341 3.341 0 0 1 3.117-3.45 3.316 3.316 0 0 1 3.19 1.857z" fill="#FFE236"/><path d="M124.747 25.032a3.332 3.332 0 0 1 4.225-2.075 3.331 3.331 0 0 1 1.906 1.689 3.326 3.326 0 0 1 .153 2.541 3.33 3.33 0 0 1-4.226 2.074 3.327 3.327 0 0 1-2.058-4.229zm-8.207-14.248a3.332 3.332 0 0 1 4.225-2.075 3.326 3.326 0 0 1 2.058 4.23 3.329 3.329 0 0 1-4.226 2.075 3.325 3.325 0 0 1-2.057-4.23z" fill="#FFE966"/><path d="M126.369 83.07c-2.491-.853-5.133.269-5.904 2.508-.769 2.238.626 4.747 3.116 5.6 2.491.854 8.287-1.69 8.287-1.69s-3.009-5.563-5.499-6.417z" fill="#F66"/><path d="M131.867 89.489s-.885.388-2.111.81c-1.105-1.694-2.814-3.96-4.332-4.482-1.954-.67-4.001-.123-5.165 1.225a3.914 3.914 0 0 1 .206-1.464c.771-2.24 3.413-3.36 5.904-2.507 2.49.855 5.498 6.418 5.498 6.418z" fill="#FF4E4E"/><path d="M110.551 72.66c-2.176-.745-4.484.235-5.156 2.19-.671 1.956.547 4.146 2.722 4.892 2.176.746 7.237-1.476 7.237-1.476s-2.627-4.86-4.803-5.605z" fill="#F66"/><path d="M115.354 78.266s-.914.4-2.131.804c-.964-1.443-2.364-3.235-3.615-3.663-1.635-.561-3.344-.148-4.378.92a3.418 3.418 0 0 1 .165-1.477c.672-1.955 2.98-2.935 5.156-2.19 2.176.747 4.803 5.606 4.803 5.606z" fill="#FF4E4E"/><path d="M125.467 56.995c-.061.145-.09.3-.085.457.004.156.042.31.111.45l16.383 33.674c1.731 3.564 4.401 6.792 7.618 9.383.263.211.528.419.799.62 1.58-4.351 1.065-7.027.267-8.684-.946-1.962-2.237-2.388-2.466-4.303-.342-2.857 2.272-4.02 1.66-6.176-.589-2.073-3.194-1.655-4.209-4.046-.965-2.273 1.004-3.548.048-5.984-.79-2.009-2.352-1.672-3.797-4.104-1.427-2.403-.269-3.326-1.452-5.097-1.471-2.2-4.014-1.896-9.489-3.852a44.48 44.48 0 0 1-5.388-2.338z" fill="#F66"/><path d="M149.615 95.64c-.945-1.961-2.236-2.387-2.466-4.303-.169-1.412.386-2.411.916-3.32-.003.192.006.384.029.575.229 1.915 1.52 2.34 2.466 4.303.798 1.657 1.313 4.333-.267 8.684l-.144-.109c.515-2.723.073-4.57-.534-5.83zm-18.76-36.307c5.475 1.956 8.018 1.652 9.489 3.853 1.183 1.77.025 2.694 1.452 5.097 1.445 2.43 3.007 2.094 3.797 4.103.956 2.436-1.013 3.713-.048 5.984 1.015 2.391 3.62 1.973 4.209 4.046.334 1.176-.292 2.058-.875 3.079a2.359 2.359 0 0 0-.069-.333c-.588-2.074-3.194-1.655-4.21-4.046-.965-2.272 1.005-3.548.048-5.984-.789-2.009-2.351-1.672-3.795-4.103-1.427-2.403-.271-3.328-1.454-5.097-1.471-2.2-4.012-1.897-9.487-3.854a44.823 44.823 0 0 1-2.961-1.18l-1.458-2.996a1.086 1.086 0 0 1-.026-.907 44.48 44.48 0 0 0 5.388 2.338z" fill="#FF4E4E"/><path d="M130.877 24.643a3.34 3.34 0 0 1-.446 3.603 3.308 3.308 0 0 0-2.237-3.024 3.32 3.32 0 0 0-3.624 1.014 3.342 3.342 0 0 1 3.117-3.451 3.313 3.313 0 0 1 3.19 1.858zm-8.208-14.249a3.34 3.34 0 0 1-.447 3.604 3.308 3.308 0 0 0-2.235-3.024 3.32 3.32 0 0 0-3.625 1.014 3.34 3.34 0 0 1 3.118-3.451 3.316 3.316 0 0 1 3.189 1.857z" fill="#FFE236"/><path d="m148.674 102.943 25.443-11.72 1.574 8.491.08 9.504-2.411 11.025-27.11-7.775 2.424-9.525z" fill="#E8125F"/><path d="m152.684 103.41-2.997 1.025-.013-1.5 1.992-1.518 1.502-.012.993-1.01.496-.503 2.505-.021 1.001-.01-.013-1.5 1.495-1.013 1.501-.012 1.503-.013.989-1.51 1.998-.516 2.484-2.523 1.995-1.017c.334.164 1.006.592 1.009.992l.022 2.501c.004.5-.492 1.005-.985 2.01-.394.803-.484 2.005-.48 2.504-.332.17-1.097.61-1.493 1.014-.497.505-1.495 1.012-2.487 2.022-.994 1.008-4.504.538-6.006.551-1.503.013-4.499 1.038-4.999 1.042-.401.004-1.508-.654-2.012-.983z" fill="#F66"/></svg>