<svg width="10" height="13" fill="none" xmlns="http://www.w3.org/2000/svg"><path d="m9.305 4.644-.21 6.337a2.085 2.085 0 0 1-.64 1.434 2.098 2.098 0 0 1-1.46.585h-3.99a2.098 2.098 0 0 1-1.46-.584 2.085 2.085 0 0 1-.64-1.433l-.21-6.34a.522.522 0 0 1 .507-.54.526.526 0 0 1 .542.506l.21 6.339a1.045 1.045 0 0 0 1.05 1.007h3.991a1.052 1.052 0 0 0 1.05-1.009l.21-6.337a.523.523 0 0 1 .543-.506.526.526 0 0 1 .507.54zM10 2.534a.523.523 0 0 1-.525.524H.525A.526.526 0 0 1 0 2.535a.523.523 0 0 1 .525-.524h1.628a.671.671 0 0 0 .668-.6A1.564 1.564 0 0 1 4.388 0h1.223a1.573 1.573 0 0 1 1.567 1.41.667.667 0 0 0 .669.601h1.627a.526.526 0 0 1 .525.524H10zm-6.267-.523h2.535a1.723 1.723 0 0 1-.134-.494.523.523 0 0 0-.522-.471H4.389a.526.526 0 0 0-.522.471c-.02.17-.065.337-.134.494zm.528 7.931V5.485a.523.523 0 0 0-.525-.524.526.526 0 0 0-.525.524v4.46a.523.523 0 0 0 .525.522.526.526 0 0 0 .525-.523v-.002zm2.528 0V5.485a.523.523 0 0 0-.525-.524.526.526 0 0 0-.525.524v4.46a.523.523 0 0 0 .525.522.526.526 0 0 0 .525-.523v-.002z" fill="#FAFAFA"/></svg>