<svg width="7" height="13" viewBox="0 0 7 13" fill="none" xmlns="http://www.w3.org/2000/svg">
<path d="M6.04545 2.95455V9.75C6.04545 11.0559 4.90636 12.1136 3.5 12.1136C2.09364 12.1136 0.954545 11.0559 0.954545 9.75V2.36364C0.954545 1.54818 1.66727 0.886364 2.54545 0.886364C3.42364 0.886364 4.13636 1.54818 4.13636 2.36364V8.56818C4.13636 8.7249 4.06932 8.8752 3.94998 8.98602C3.83064 9.09683 3.66877 9.15909 3.5 9.15909C3.33123 9.15909 3.16936 9.09683 3.05002 8.98602C2.93068 8.8752 2.86364 8.7249 2.86364 8.56818V2.95455H1.90909V8.56818C1.90909 9.38364 2.62182 10.0455 3.5 10.0455C4.37818 10.0455 5.09091 9.38364 5.09091 8.56818V2.36364C5.09091 1.05773 3.95182 0 2.54545 0C1.13909 0 0 1.05773 0 2.36364V9.75C0 11.5464 1.56864 13 3.5 13C5.43136 13 7 11.5464 7 9.75V2.95455H6.04545Z" fill="#FAFAFA"/>
<path d="M8 1L1 14" stroke="#FAFAFA"/>
</svg>
